<svg version="1.1" xmlns="http://www.w3.org/2000/svg" xmlns:xlink="http://www.w3.org/1999/xlink" x="0px" y="0px"
	 width="722.91px" height="1103.86px" viewBox="0 0 722.91 1103.86" enable-background="new 0 0 722.91 1103.86"
	 xml:space="preserve">
<g id="Layer_1" display="none">
	
		<!-- <image display="inline" overflow="visible" width="441" height="600" xlink:href="watch5.png"  transform="matrix(2.1973 0 0 2.1973 -123.0449 -98.2539)">
	</image> -->
</g>
<g id="skull">
	<g id="Skull">
		<path fill="#FFFFFF" fill-opacity="0" d="M237.903,577.768c0,0-0.166,0.629-0.382,1.728c-1.055,5.36-3.292,21.829,6.978,29.688
			c12.368,9.469,38.751,2.586,41.225,13.773c2.473,11.188-1.237,35.72,0,37.012c1.237,1.29-7.894-43.467-24.147-41.103
			c-16.253,2.367-13.78,54.013-1.824,71.229c11.956,17.213,53.593,66.706,133.569,40.453c0,0,42.875-19.797,41.639-67.998
			c0,0-2.887-34.001,4.533-39.594c7.42-5.595,29.682-16.785,31.742-38.735c2.064-21.948,6.598-82.631,2.064-95.112
			c-4.537-12.481-8.248-96.833-61.426-112.757c-53.18-15.923-134.806-14.201-177.68,43.037
			c-42.874,57.239-12.779,104.15-8.657,117.061c4.122,12.912,3.297,30.557,5.358,34.862
			C232.956,575.614,237.903,577.768,237.903,577.768z"/>
	</g>
</g>
<g id="tip">
	<g>
		<polygon fill="#FFFFFF" fill-opacity="0" points="239.85,462.889 259.523,461.4 264.103,468.513 249.855,483.892 232.556,472.646 
					"/>
		<path fill="#FFFFFF" fill-opacity="0" d="M466.166,453.171l0.849,9.922l9.498,15.71l15.942-6.781V454.66
			C492.455,454.66,473.629,448.542,466.166,453.171z"/>
	</g>
</g>
<g id="hour">
	<g id="Hour_hands">
		<polygon fill="#FFFFFF" fill-opacity="0" points="391.827,555.008 374.812,578.741 248.33,486.727 264.61,469.18 		"/>
	</g>
</g>
<g id="min">
	<g id="min_hand">
		<polygon fill="#FFFFFF" fill-opacity="0" points="307.575,552.504 324.099,576.249 475.244,481.499 462.779,459.104 		"/>
	</g>
</g>
<g id="lumi_1_">
	<g id="lumi" opacity="0">
		<path fill="#FFFFFF" d="M273.165,481.005l60.548,44.316c0,0,5.37,8.42-3.864,10.859c0,0-2.576,1.771-11.379-5.542l-51.102-36.782
			c0,0-5.582-4.653-2.147-9.527C268.655,479.452,271.651,479.896,273.165,481.005z"/>
		<path fill="#FFFFFF" d="M371.29,523.549c0,0-6.444,4.431-2.363,10.193c4.078,5.762,8.588,3.103,12.452,0
			c3.865-3.101,70.211-44.76,70.211-44.76s7.3-4.653,3.651-11.301c-3.651-6.648-10.521-1.553-11.809,0L371.29,523.549z"/>
	</g>
</g>
<g id="face">
	<g id="Face_1_">
		<ellipse fill="#FFFFFF" fill-opacity="0" cx="348.867" cy="547.419" rx="223.254" ry="223.324"/>
	</g>
</g>
<g id="bezel">
	<path opacity="0" fill="#FFFFFF" d="M348.867,283.598c-142.489,0-258,117.227-258,261.833s115.511,261.833,258,261.833
		c142.491,0,258-117.227,258-261.833S491.357,283.598,348.867,283.598z M348.867,773.264
		c-123.987,0-224.498-102.003-224.498-227.834c0-125.828,100.511-227.833,224.498-227.833
		c123.988,0,224.498,102.004,224.498,227.833C573.364,671.261,472.854,773.264,348.867,773.264z"/>
</g>
<g id="windor">
	<path opacity="0" fill="#FFFFFF" d="M584.705,508.68l15-2.937c0,0,6,48.937,0,76.937h-15v-73"/>
</g>
<g id="case">
	<path opacity="0" fill="#FFFFFF" d="M184.446,343.648c0,0,2.343-62.717,10.676-81.384h28.333c0,0-4.855,52.88,4.572,51.773
		C228.027,314.037,197.738,331.678,184.446,343.648z"/>
	<path opacity="0" fill="#FFFFFF" d="M513.027,343.648c0,0-2.343-62.717-10.676-81.384h-28.333c0,0,4.855,52.88-4.572,51.773
		C469.446,314.037,499.736,331.678,513.027,343.648z"/>
	<path opacity="0" fill="#FFFFFF" d="M184.446,748.263c0,0,2.343,62.718,10.676,81.384h28.333c0,0-4.855-52.88,4.572-51.773
		C228.027,777.874,197.738,760.233,184.446,748.263z"/>
	<path opacity="0" fill="#FFFFFF" d="M513.027,748.263c0,0-2.343,62.718-10.676,81.384h-28.333c0,0,4.855-52.88-4.572-51.773
		C469.446,777.874,499.736,760.233,513.027,748.263z"/>
</g>
<g id="strap">
	<path opacity="0" fill="#FFFFFF" d="M221.455,829.647c0,0,5.5,136.283,13.5,168.283c0,0,3,29.5,20,21c0,0,11.5-1,32,6.5
		c0,0,106,10.5,142-6c0,0,9.5-3.5,16.5,0c0,0,18.5,9.5,20-33.5c0,0,12-148.066,12-156.283h-3.437c0,0,8.419-47.58-4.572-51.773
		c0,0-99.513,69.276-241.419,0c0,0-10.572,1.157-4.572,51.773H221.455z"/>
	<path opacity="0" fill="#FFFFFF" d="M221.455,264.95c0,0,5.5-136.283,13.5-168.283c0,0,3-29.5,20-21c0,0,11.5,1,32-6.5
		c0,0,106-10.5,142,6c0,0,9.5,3.5,16.5,0c0,0,18.5-9.5,20,33.5c0,0,12,148.066,12,156.283h-3.437c0,0,8.419,47.58-4.572,51.773
		c0,0-99.513-69.276-241.419,0c0,0-10.572-1.157-4.572-51.773H221.455z"/>
</g>
</svg>
