<svg version="1.1" xmlns="http://www.w3.org/2000/svg" xmlns:xlink="http://www.w3.org/1999/xlink" x="0px" y="0px"
	 width="722.91px" height="1103.86px" viewBox="0 0 722.91 1103.86" enable-background="new 0 0 722.91 1103.86"
	 xml:space="preserve">
<g id="Layer_1" display="none">
	
		<!-- <image display="inline" overflow="visible" width="441" height="600" xlink:href="watch6.png"  transform="matrix(2.1808 0 0 2.1808 -119.9141 -91.3145)">
	</image> -->
</g>
<g id="skull">
	<g id="Skull">
		<path fill="#FFFFFF" fill-opacity="0" d="M237.446,578.964c0,0-0.166,0.62-0.382,1.704c-1.055,5.288-3.292,21.535,6.978,29.288
			c12.368,9.341,38.751,2.551,41.225,13.588s-1.237,35.238,0,36.513c1.237,1.272-7.894-42.881-24.147-40.549
			c-16.253,2.336-13.78,53.284-1.824,70.27c11.956,16.98,53.592,65.806,133.569,39.907c0,0,42.875-19.53,41.639-67.081
			c0,0-2.887-33.542,4.533-39.06c7.42-5.52,29.682-16.559,31.742-38.213c2.064-21.652,6.598-81.517,2.064-93.83
			c-4.537-12.313-8.248-95.528-61.426-111.236c-53.18-15.708-134.806-14.01-177.681,42.457
			c-42.874,56.467-12.779,102.746-8.657,115.482c4.122,12.737,3.297,30.145,5.358,34.392
			C232.499,576.839,237.446,578.964,237.446,578.964z"/>
	</g>
</g>
<g id="tip">
	<g>
		<polygon fill="#FFFFFF" fill-opacity="0" points="238.799,466.306 258.472,464.817 263.052,471.93 248.805,487.309 
			231.505,476.063 		"/>
		<path fill="#FFFFFF" fill-opacity="0" d="M465.115,456.588l0.849,9.922l9.498,15.71l15.942-6.781v-17.364
			C491.404,458.077,472.578,451.959,465.115,456.588z"/>
	</g>
</g>
<g id="hour">
	<g id="Hour_hands">
		<polygon fill="#FFFFFF" fill-opacity="0" points="390.776,558.045 373.761,581.778 247.279,489.765 263.559,472.218 		"/>
	</g>
</g>
<g id="min">
	<g id="min_hand">
		<polygon fill="#FFFFFF" fill-opacity="0" points="306.942,555.504 323.466,579.249 474.611,484.499 462.146,462.104 		"/>
	</g>
</g>
<g id="lumi_1_">
	<g id="lumi" opacity="0">
		<path fill="#FFFFFF" d="M272.114,482.718l60.548,44.316c0,0,5.37,8.42-3.864,10.859c0,0-2.576,1.771-11.379-5.542l-51.102-36.782
			c0,0-5.582-4.653-2.147-9.527C267.604,481.165,270.6,481.609,272.114,482.718z"/>
		<path fill="#FFFFFF" d="M370.239,525.262c0,0-6.444,4.431-2.363,10.193c4.078,5.762,8.588,3.103,12.452,0
			c3.865-3.101,70.211-44.76,70.211-44.76s7.3-4.653,3.651-11.301c-3.651-6.648-10.521-1.553-11.809,0L370.239,525.262z"/>
	</g>
</g>
<g id="face">
	<g id="Face_1_">
		<ellipse fill="#FFFFFF" fill-opacity="0" cx="348.791" cy="551.93" rx="223.254" ry="223.324"/>
	</g>
</g>
<g id="bezel">
	<path opacity="0" fill="#FFFFFF" d="M349.122,292.597c-145.987,0-264.333,115.063-264.333,257c0,141.938,118.346,257,264.333,257
		s264.333-115.063,264.333-257C613.455,407.659,495.109,292.597,349.122,292.597z M349.122,773.223
		c-127.031,0-230.009-100.12-230.009-223.628c0-123.505,102.979-223.627,230.009-223.627c127.031,0,230.007,100.122,230.007,223.627
		C579.129,673.103,476.153,773.223,349.122,773.223z"/>
</g>
<g id="windor">
	<path opacity="0" fill="#FFFFFF" d="M611.532,518.482h22.423c0,0,18,27.448,0,67.448h-22.423
		C611.532,585.93,615.709,542.512,611.532,518.482z"/>
</g>
<g id="case">
	<path opacity="0" fill="#FFFFFF" d="M103.329,454.856h-6.374c0,0,37-110.426,72.5-155.926c0,0,19.544-14.5,41.522-21
		l-15.941,62.829C195.036,340.759,143.789,368.264,103.329,454.856z"/>
	<path opacity="0" fill="#FFFFFF" d="M595.603,454.856h6.374c0,0-37-112.507-72.5-158.864c0,0-19.544-14.773-41.521-21.396
		l15.941,64.013C503.896,338.609,555.143,366.632,595.603,454.856z"/>
	<path opacity="0" fill="#FFFFFF" d="M103.329,643.596h-6.374c0,0,40.253,116.438,72.5,176.927c0,0,19.544,14.5,41.522,21
		l-15.941-83.829C195.036,757.694,143.789,730.19,103.329,643.596z"/>
	<path opacity="0" fill="#FFFFFF" d="M595.603,643.596h6.374c0,0-41.188,114.999-66.999,176.532c0,0-19.544,14.772-41.521,21.395
		l10.44-81.679C503.896,759.844,555.143,731.821,595.603,643.596z"/>
</g>
<g id="strap">
	<g>
		<path opacity="0" fill="#FFFFFF" d="M207.861,766.854c0,0-11.209-0.659-9.486,8.4l12.602,66.269c0,0,16.479,168.414,25.146,181.74
			c0,0,5.333,1.333,12.666,0c0,0,50.667,2.001,60,4.667c0,0,64,12,124-4c0,0,20.666-6,25.333-4c0,0,10.667,11.333,14-6.667
			l21.334-171.74l9.144-71.532l-15.811-0.728C486.789,769.263,348.933,857.112,207.861,766.854z"/>
		<path opacity="0" fill="#FFFFFF" d="M208.861,331.241c0,0-11.209,0.659-9.486-8.4l11.602-44.91c0,0-7.936,4.29-7.522,0
			c3.221-33.452,24.128-186.638,31.81-198.45c0,0,9.857-1.383,17.19-0.05c0,0,48-6.6,57.333-9.266c0,0,63.167-6.734,124.167,6.266
			c0,0,20.5,3.734,25.167,1.734c0,0,7-8.234,10.333,9.766l18.5,175.5l15.645,64.674l-7.02,8.167
			C496.58,336.271,357.455,234.93,208.861,331.241z"/>
	</g>
</g>
</svg>
