<svg version="1.1" xmlns="http://www.w3.org/2000/svg" xmlns:xlink="http://www.w3.org/1999/xlink" x="0px" y="0px"
	 width="722.91px" height="1103.86px" viewBox="0 0 722.91 1103.86" enable-background="new 0 0 722.91 1103.86"
	 xml:space="preserve">
<g id="Layer_1" display="none">
	
		<!-- <image display="inline" overflow="visible" width="441" height="600" xlink:href="watch4.png"  transform="matrix(2.1519 0 0 2.1519 -113.5449 -80.6479)">
	</image> -->
</g>
<g id="skull">
	<g id="Skull">
		<path fill="#FFFFFF" fill-opacity="0" d="M238.021,585.363c0,0-0.166,0.599-0.382,1.641c-1.055,5.091-3.292,20.727,6.978,28.19
			c12.368,8.99,38.751,2.454,41.225,13.077c2.473,10.624-1.237,33.917,0,35.143s-7.894-41.271-24.147-39.026
			c-16.253,2.248-13.78,51.285-1.824,67.632c11.956,16.344,53.593,63.338,133.569,38.41c0,0,42.875-18.796,41.639-64.564
			c0,0-2.887-32.283,4.533-37.594c7.42-5.313,29.682-15.937,31.742-36.778c2.063-20.841,6.597-78.458,2.063-90.31
			c-4.537-11.851-8.247-91.944-61.426-107.063c-53.18-15.119-134.805-13.484-177.68,40.864
			c-42.874,54.348-12.779,98.891-8.657,111.149c4.122,12.26,3.297,29.014,5.358,33.101
			C233.074,583.319,238.021,585.363,238.021,585.363z"/>
	</g>
</g>
<g id="tip">
	<g>
		<polygon fill="#FFFFFF" fill-opacity="0" points="242.547,468.773 261.88,467.273 266.38,474.441 252.38,489.941 235.38,478.607 
					"/>
		<path fill="#FFFFFF" fill-opacity="0" d="M464.945,458.98l0.834,10l9.334,15.834l15.666-6.834v-17.5
			C490.779,460.48,472.279,454.314,464.945,458.98z"/>
	</g>
</g>
<g id="hour">
	<g id="Hour_hands">
		<polygon fill="#FFFFFF" fill-opacity="0" points="390.878,557.777 374.277,579.668 250.88,494.793 266.764,478.607 		"/>
	</g>
</g>
<g id="min">
	<g id="min_hand">
		<polygon fill="#FFFFFF" fill-opacity="0" points="307.846,558.282 324.025,581.417 472.015,489.094 459.81,467.273 		"/>
	</g>
</g>
<g id="lumi_1_">
	<g id="lumi" opacity="0">
		<path fill="#FFFFFF" d="M273.653,484.425l59.603,43.758c0,0,5.286,8.315-3.804,10.723c0,0-2.536,1.749-11.202-5.472l-50.304-36.32
			c0,0-5.495-4.595-2.114-9.407C269.213,482.892,272.163,483.331,273.653,484.425z"/>
		<path fill="#FFFFFF" d="M370.246,526.435c0,0-6.344,4.375-2.326,10.064c4.015,5.689,8.454,3.064,12.258,0
			c3.805-3.062,69.115-44.196,69.115-44.196s7.186-4.595,3.594-11.159c-3.594-6.564-10.356-1.533-11.624,0L370.246,526.435z"/>
	</g>
</g>
<g id="face">
	<g id="Face_1_">
		<ellipse fill="#FFFFFF" fill-opacity="0" cx="347.363" cy="552.93" rx="221.75" ry="223.324"/>
	</g>
</g>
<g id="bezel">
	<path opacity="0" fill="#FFFFFF" d="M349.363,299.106c-139.079,0-251.824,112.746-251.824,251.824
		c0,139.078,112.746,251.824,251.824,251.824c139.078,0,251.824-112.746,251.824-251.824
		C601.188,411.852,488.441,299.106,349.363,299.106z M349.363,777.903c-124.249,0-224.973-100.725-224.973-224.973
		c0-124.249,100.724-224.973,224.973-224.973c124.248,0,224.973,100.724,224.973,224.973
		C574.336,677.178,473.611,777.903,349.363,777.903z"/>
</g>
<g id="windor">
	<path opacity="0" fill="#FFFFFF" d="M598.845,516.445h22.36c0,0,18.75,32.985,0,75.235h-22.36
		C598.845,591.68,603.484,534.96,598.845,516.445z"/>
</g>
<g id="case">
	<path opacity="0" fill="#FFFFFF" d="M220.292,334.658V265.93l-31.837,16.333l-8.073,81.955
		C180.382,364.219,204.061,343.574,220.292,334.658z"/>
	<path opacity="0" fill="#FFFFFF" d="M478.049,332.991v-68.728l31.837,16.333l8.073,81.955
		C517.959,362.552,494.28,341.907,478.049,332.991z"/>
	<path opacity="0" fill="#FFFFFF" d="M220.292,767.138v78.413l-31.837-16.334l-8.073-91.641
		C180.382,737.577,204.061,758.221,220.292,767.138z"/>
	<path opacity="0" fill="#FFFFFF" d="M475.361,768.824l2.688,78.395l31.837-16.333l5.386-91.622
		C515.271,739.263,491.593,759.908,475.361,768.824z"/>
</g>
<g id="strap">
	<g>
		<path opacity="0" fill="#FFFFFF" d="M220.292,315.075V265.93c0,0,7.19-150.13,11.731-179.989c0.147-0.966,0.291-1.806,0.432-2.511
			c4.5-22.5,21-11,28-11.5c0,0,20.5-3,24.5-7c0,0,98.5-10.5,131,3c0,0,27.125,9,29.5,4.5c0,0,18-10.5,19.5,25l13.094,166.833v50.812
			C478.049,315.075,355.629,280.719,220.292,315.075z"/>
		<path opacity="0" fill="#FFFFFF" d="M220.292,782.93v62.621c0,0,11.663,157.379,14.663,169.379c0,0,2.5,14.5,16,10
			c0,0,28.5,0,36.5,6.5c0,0,97.5,8.5,131-3c0,0,21-6,28-2.5c0,0,14.5,3.5,18-13l13.594-165.712V782.93
			C478.049,782.93,323.129,824.93,220.292,782.93z"/>
	</g>
</g>
</svg>
