<?xml version="1.0" encoding="utf-8"?>
<!-- Generator: Adobe Illustrator 16.0.0, SVG Export Plug-In . SVG Version: 6.00 Build 0)  -->
<!DOCTYPE svg PUBLIC "-//W3C//DTD SVG 1.1//EN" "http://www.w3.org/Graphics/SVG/1.1/DTD/svg11.dtd" [
	<!ENTITY ns_flows "http://ns.adobe.com/Flows/1.0/">
	<!ENTITY ns_extend "http://ns.adobe.com/Extensibility/1.0/">
	<!ENTITY ns_ai "http://ns.adobe.com/AdobeIllustrator/10.0/">
	<!ENTITY ns_graphs "http://ns.adobe.com/Graphs/1.0/">
]>
<svg version="1.1" xmlns:x="&ns_extend;" xmlns:i="&ns_ai;" xmlns:graph="&ns_graphs;"
	 xmlns="http://www.w3.org/2000/svg" xmlns:xlink="http://www.w3.org/1999/xlink" xmlns:a="http://ns.adobe.com/AdobeSVGViewerExtensions/3.0/"
	 x="0px" y="0px" width="722.909px" height="1103.862px" viewBox="0 0 722.909 1103.862"
	 enable-background="new 0 0 722.909 1103.862" xml:space="preserve">
<metadata><?xpacket begin="﻿" id="W5M0MpCehiHzreSzNTczkc9d"?>
<x:xmpmeta xmlns:x="adobe:ns:meta/" x:xmptk="Adobe XMP Core 5.3-c011 66.145661, 2012/02/06-14:56:27        ">
   <rdf:RDF xmlns:rdf="http://www.w3.org/1999/02/22-rdf-syntax-ns#">
      <rdf:Description rdf:about=""
            xmlns:xmp="http://ns.adobe.com/xap/1.0/"
            xmlns:xmpGImg="http://ns.adobe.com/xap/1.0/g/img/">
         <xmp:CreatorTool>Adobe Illustrator CS6 (Windows)</xmp:CreatorTool>
         <xmp:CreateDate>2021-08-05T19:46:46+05:00</xmp:CreateDate>
         <xmp:MetadataDate>2021-08-05T19:46:47+05:00</xmp:MetadataDate>
         <xmp:ModifyDate>2021-08-05T19:46:47+05:00</xmp:ModifyDate>
         <xmp:Thumbnails>
            <rdf:Alt>
               <rdf:li rdf:parseType="Resource">
                  <xmpGImg:width>172</xmpGImg:width>
                  <xmpGImg:height>256</xmpGImg:height>
                  <xmpGImg:format>JPEG</xmpGImg:format>
                  <xmpGImg:image>/9j/4AAQSkZJRgABAgEASABIAAD/7QAsUGhvdG9zaG9wIDMuMAA4QklNA+0AAAAAABAASAAAAAEA&#xA;AQBIAAAAAQAB/+4ADkFkb2JlAGTAAAAAAf/bAIQABgQEBAUEBgUFBgkGBQYJCwgGBggLDAoKCwoK&#xA;DBAMDAwMDAwQDA4PEA8ODBMTFBQTExwbGxscHx8fHx8fHx8fHwEHBwcNDA0YEBAYGhURFRofHx8f&#xA;Hx8fHx8fHx8fHx8fHx8fHx8fHx8fHx8fHx8fHx8fHx8fHx8fHx8fHx8fHx8f/8AAEQgBAACsAwER&#xA;AAIRAQMRAf/EAaIAAAAHAQEBAQEAAAAAAAAAAAQFAwIGAQAHCAkKCwEAAgIDAQEBAQEAAAAAAAAA&#xA;AQACAwQFBgcICQoLEAACAQMDAgQCBgcDBAIGAnMBAgMRBAAFIRIxQVEGE2EicYEUMpGhBxWxQiPB&#xA;UtHhMxZi8CRygvElQzRTkqKyY3PCNUQnk6OzNhdUZHTD0uIIJoMJChgZhJRFRqS0VtNVKBry4/PE&#xA;1OT0ZXWFlaW1xdXl9WZ2hpamtsbW5vY3R1dnd4eXp7fH1+f3OEhYaHiImKi4yNjo+Ck5SVlpeYmZ&#xA;qbnJ2en5KjpKWmp6ipqqusra6voRAAICAQIDBQUEBQYECAMDbQEAAhEDBCESMUEFURNhIgZxgZEy&#xA;obHwFMHR4SNCFVJicvEzJDRDghaSUyWiY7LCB3PSNeJEgxdUkwgJChgZJjZFGidkdFU38qOzwygp&#xA;0+PzhJSktMTU5PRldYWVpbXF1eX1RlZmdoaWprbG1ub2R1dnd4eXp7fH1+f3OEhYaHiImKi4yNjo&#xA;+DlJWWl5iZmpucnZ6fkqOkpaanqKmqq6ytrq+v/aAAwDAQACEQMRAD8A9U4q7FXYq7FXYq7FXYqx&#xA;jzF5wl0y/NpBAkpVAXZydmbelB7UzQ9o9sHBk4IgHZ1Gt7TOKfDEWkz/AJgay32YoEH+q5P4tmtl&#xA;7QZzyEft/W4B7Zy9BH7f1oaTzv5gb7MyJ/qxr/xsDlEu29SeoHwDUe1s56j5IeTzX5hf7V6w/wBU&#xA;Iv8AxEDKZdrak/xn7Go9o5z/ABfch31zWX+1fT08BIwH4HKZa7Oec5fMtR1eU/xS+aHe9vJP7yeR&#xA;/wDWdj+s5TLNM85E/FrOWZ5kqOVta9J5kpwkZadOJI/VkozkORZCZHIo6z8wazaOGhu5CB+w5LqR&#xA;/qtXMrD2hnxm4yPx3H2uRi1uWB2kfvZRpfn+B6R6jD6Tf7+jqy/Sv2h9Fc32l7fidsorzHL5f2u4&#xA;0/bMTtkFeYZVbXVvcxCa3kWWJujqajN/jyxmOKJsO4hkjMXE2FTLGbsVdirsVdirsVdirsVdirsV&#xA;diryXWbv65qt1cg1WSRuB/yRsv4DPO9bm8TNKXef7HitVk48kpd5QWYzjuxV2KuxV2KuxV2KuxV2&#xA;KvQ/Idp6WjNORvcSMwP+Svwj8Qc7LsHFw4OL+cf2PUdj4+HFf84skzdu1dirsVdirsVdirsVdirs&#xA;VdiqC1y7+qaRd3FaMkZCH/Kb4V/E5i67N4eGUu4f2OPq8nBilLyeS5548U7FXYq7FXYq7FXYq7FX&#xA;Yq7FXrmk2n1TTLW2Io0cahx/lUq3456LpMXh4ox7gHt9Nj4McY9wReZDc7FXYq7FXYq7FXYq7FXY&#xA;q7FUg88Bv0BJTp6icvlX+uajty/y594db2t/cH3h5vnEvKOxV2KuxV2KuxV2KuxV2Ko3RbX63q1p&#xA;b0qryryH+SDVvwGZWixeJmjHvLkaXHx5Yx83rWehvauxV2KuxV2KuxV2KuxV2KuxV2KpJ5zWvly6&#xA;P8pjP/JRR/HNX20P8Gl8PvDr+1B+4l8PveZ5wzyTsVdirsVdirsVdirsVdirJfIVr6usNOR8NvEx&#xA;B/yn+EfgTm77BxcWcy/mj79v1u27Hx3lv+aHoWdk9O7FXYq7FXYq7FXYq7FXYq7FXYqlPmtS3l69&#xA;A3+AH7mBzX9qi9NP3fpcLtEXgk8uzgnj3Yq7FXYq7FXYq7FXYq7FWe/l9a8NPuLkihmkCD/VQf1Y&#xA;51vs9irHKXefu/tek7Fx1Ay7z9zKs6B3LsVdirsVdirsVdirsVdirsVdiqXeY1DaFfA/75Y/cK5h&#xA;doi9PP8AqlxdcLwy9zynPP3jHYq7FXYq7FXYq7FXYq7FXqnlq0NrodpEwoxTmwPWrnlv9+d/2bi8&#xA;PTwHlfz3ey0OPgwxHl96Z5nOW7FXYq7FXYq7FXEhQWY0A3JPQDFWKT/mb5Tirwmlnp/vuJh/xPhm&#xA;BLtLEOt/BwzrsY6pdP8Am7pK/wC89jPJ/wAZCifqL5TLtWHQFqPaMegKWz/m/et/cabHH4epIz/q&#xA;CZTLtaXSLUe0j0CtY/m8dlv9P+ckD/8AGjj/AI2yUO1f50fkyh2l/OCcy+f/ACzqWmXVvHcNBcTQ&#xA;yJHFMhUlmQgDkOS9T45ZqNdinhmAaJiefuZ5tXjnjkAdzE/cwfOHeTdirsVdirsVdirsVdiqJiuI&#xA;LLTL3UDvdwemlkCAVEshPxEEEHiqkjNl2dCPqmecar3lz9FGPqkecar3s/8AJ/my21+xqaR38IAu&#xA;YK/8Ov8Akn8M7DSaoZY/0hzel02oGQeaf5luS7FXYq7FXYq7FUi876l+j/LF9KDSSRPQi8eUvw7f&#xA;IEnMXW5ODET8HH1U+HGS8NzmHn3Yq7FXYqq2qlrqFR1LqB9JGCQsUgiwyPNI6t2KtPIiCrsFHiTT&#xA;CIk8kgE8lBtRslNDKPoBP6gctGnmejYMMj0a/SVh/v4f8C/9Ml+Vmy/LyXJf2bkhZV2/m+H/AIlT&#xA;InTzHRicMu5WVlYBlIKnoRuMqII5tZBDeBCB1kn6mo5fD6gqvYni2/0Zm6OW5DlaY8wgNK1S90u+&#xA;ivbOT05oj9DDurDuDmzxZZQlxDm52PIYGw9u8teYrPXdOW6g+GVaLcQVqY38PcHsc6XT6iOWNh3+&#xA;DMMkbCbZkNzsVdirsVdirzj83dS2sNMU9eVzKv8Awif8bZp+1cnKPxdX2jPlH4vN80zq3Yq7FXYq&#xA;qW0vpXEUv++3Vv8AgTXCCoTy5v7eDZjyf+Rdz9OajHglL3OvhiMkrn1W5k2T92vt1+/M2GliOe7k&#xA;xwRHPdCMzMasSxPUnc5kAVybgKawpdirsVbSSSM8kYqfEGmAxB5oIB5o631iZKCYeoviNm/pmLk0&#xA;gPLZonpweSPmlhu9PuPSIY8OQrsRxIY/gpyvTwMMlHqP2sMMTGdFIcz3LTLy9r97omopeWxqPszQ&#xA;k/DIndT/AAPbLsGeWKXEG3DmOOVh7jo+r2WrafFfWb8opBuD9pWHVWHiM6fFljkjxB3+PIJxsIzL&#xA;Gx2KuxV2KvDfPOpfpDzPeyqaxxP6EfhSL4TT5sCc5jW5OPKT8Hn9VPiyFIsxXHdirsVdirsVdiqK&#xA;ttOuZ6GnBD+038BlGTURj72qeaMUwi0e2X7ZMh+4fhmJLVyPLZx5aiR5IhbO0XpEv0gH9eUnNM9S&#xA;1HJI9Vxtrc9YkP8AsRg8SXeUcZ71N9Os36xAe67fqycdRMdWYzSHVBzaKKEwv/sW/qMyIaz+cG2O&#xA;p70umglhbjIpU9vA/I5lwmJCw5MZA8lgYitDSux+WSIZU7CrsVT/AMn+arjQNQ5msljMQLqEeA6O&#xA;v+Uv45l6TVHFL+iebk6bUHHLye2W1zBdW8dxbuJIJVDxuvQqdwc6SMhIWOTvoyBFhUySXYqgtb1A&#xA;adpF3fHrbxM617tT4R9LUyrNk4IGXcGvLPhiT3Pn5mZmLMasxqSepJzk3m2sVdirsVdiraqzMFUV&#xA;Y7ADATW5QTScWWlpGA8wDSdQvYZrs2pMto8nDyZydhyR+YrjuxV2KuxV2KuxVbJFHKhSRQynscMZ&#xA;GJsJjIjcJLfac8FXT4ovHuPnmyw6gT2PNzcWbi2PNB5kt7sVdirOvyz80yWt4ui3LFrW5b/Rid/T&#xA;lPYf5L/r+ZzadnakxlwHkeTsNDqKPAeReq5vXcOxVhH5r6l6Ghw2Kmj3ktWHikXxH/hiuaztTJUB&#xA;HvP3OB2hOoAd7yfNC6Z2KuxV2KuxVOtNsRCglkH71ht/kjNbqM3EaHJwc2WzQ5I7MVodirsVdirs&#xA;VdirsVdiriAQQRUHYg4gqkOoWf1eWq/3T/Z9vbNpgzcY35ufhycQ80LmQ3OxVMPLspi8wabIOq3U&#xA;Jp4j1BUZdpzWSPvDbhNTHvD3/Orejdirx78z9S+teZTbqax2Uaxe3NvjY/8ADAfRnPdpZOLJXc6T&#xA;XzvJXcxHNe4TsVdirsVRml2wmuOTCqR7n3PYZj6nJwx8y0550PenmatwHYq7FXYq7FXYq7FXYq7F&#xA;XYqpXUCzwNGe/wBk+B7ZPHPhlbOEuE2xxlKsVIoQaEe4zcA27EF2FKa+U7Y3PmXTIu31iN2HtGeZ&#xA;/Bcv0seLLEebdp43kiPN71nVPROxV4B5gh1OLWLptShaC6lkaV0b/LYn4T0K+BGcpnEhM8QovOZh&#xA;ISPFzS/KWp2KuxV2Kp5pUXp2it3kPI/qGavVTufucDPK5IzMdpdirsVdirsVdirsVdirsVdirsVS&#xA;PVouF2WHSQcvp6HNnpZ3D3OdglcUGBUgeOZLeyvyYlvpOtpqF8SUhR/TEY5Nzcce9NuJOOj7QxY5&#xA;8UrTptZjhPiNvQf8e6H/ACzf8AP+as238vYP6Xy/a7L+WMP9L5I//EWn/oj9K0k+q1404jlXlx6V&#xA;8czP5Rx+D42/D9vc5P56HheJvwqmt6Dpms2ptr6IOBX05Bs6E91btmTmwRyCpBvy4YzFF5F5r8k6&#xA;joMnq/70aexolyo+z/kyD9k/gc0Gq0csW/OPe6bUaWWPzDHcw3FdirsVZNEvCJE/lUD7hmlkbJLq&#xA;5GyuyKHYq7FXYq7FXYq7FXYq7FXYq7FUs1tfgifwJH3/AO1mbozuQ5WmO5StPtD5jM48nKLJ80jq&#xA;3Yqy3/ynv/PT/mdnRf8AOt+P++d3/wAgfj/vmdZ1b0S2WKOWNo5UWSNxR0YAqQexBwEA7FBFsO1P&#xA;8rNBupjLaySWXL7UaUdPoDbj7812TszHI2NnCydnwJsbPM/MGnRabrN3YRMzx278FZqVOw3NM0uf&#xA;GITMR0dTmhwzI7kvyprZRmjdU7FXYq7FXYq7FXYq7FXYq7FXYq7FUv1r+4T/AF/4HMvR/Ufc5Om5&#xA;lKE+0PmM2B5OWWT5pHVuxVlv/lPf+en/ADOzov8AnW/H/fO7/wCQPx/3zOs6t6J2KuqK0rv4Yq8W&#xA;/Me3aHzdeMRRZhHIvyMYU/8ADKc5vtCNZj5ui1sayljOYTiMkt35wRv/ADKD+GaXIKkQ6yYolUyL&#xA;F2KuxV2KuxV2KuxV2KuxV2KuxVK9bf8Auk+ZP6sztGOZcrTDmUsT7Q+YzNPJyiyfNI6t2Kst/wDK&#xA;e/8APT/mdnRf8634/wC+d3/yB+P++Z1nVvROxV5j5/8AMt9p/m63exl4PYwqGXqrGQ82Vh3BXjmk&#xA;12olDMOH+EOp1mcxyiugSjzrq9lr0NjrFuPTnVTbXluTUowJdD7hqtQ+2Y+syxygTHPkWnVZBkAk&#xA;PcWK5guGnWkTc7YxnrGfwO4zW6uFSvvcHURqV96OzFaHYq7FXYq7FXYq7FXYq7FXYq7FUh1Kb1bt&#xA;qfZT4R9HX8c2unhwwdhhjUUKpowPgcuLaXo1h5O1C+g9WC4tjSglQu3KNyofg9EIDAMKiuCHYWaQ&#xA;sSh8z+pEOyMkhYMft/Uif+Vfaz/v62/4J/8AmjJ/6H8/fD5n9TP+RsvfH7f1J5/hu+/wt+ifUi+s&#xA;8+XOrcKepy68a9PbNr/JuT8p4Njivzrnfc7H8jP8t4Vji+zmyTN27V2KvBfNd6b3zJqNxWoM7qh/&#xA;yYzwX/hVGcrqp8WSR83ndRLiyE+aVVOUNLsVRFjc/V7gMfsHZ/kcpz4+ONdWvLDiDIAQRUbg9Dmp&#xA;dc7FXYq7FXYq7FXYq7FXYq7FUPf3Qt4Cw+22yD38foy7Bj45eTZihxFj+bZ2LsVevflV/wAozIe7&#xA;XUhY9yeKdc6Dsz+6+Luuz/7v4sxzYuc7FXYqh9Su1s9PurtulvE8p/2Clv4ZDJLhiT3BjOXDEnuf&#xA;PBJYkk1J3JzkXmXYq7FXYqmel34AEEp26Rsf1Zg6nB/EHFz4uoTXMFxHYq7FXYq7FXYq7FXYqtll&#xA;SKMyOaKMlGJkaCYxJNBj93dPcSl22UbKvgM2uLGICnY44CIpRy1m7FXsf5XinlSM0pWaU/PemdF2&#xA;b/dfF3eg/u2WZnua7FXYqx38wLr6t5SviDRpQkS/7NwD/wALXMPXyrEXG1kqxl4lnNOgdirsVdir&#xA;sVTGy1UoBHPUr0D9x88w82lveLjZcF7hNkdHUMjBlPQjMAxINFxCCObeBDsVdirsVdiqhc3sFuPj&#xA;NX7IOuW48Mp8myGMy5JJdXcty9X2UfZQdBmyxYhAbObDGIjZRy1sdirsVe0flspXyhZk9GaUj5eq&#xA;w/hnSdnD9yPj97vdD/dBk+ZrluxV2KsI/Nq44aDbQDrLcgn5IjfxIzWdqS/dgebr+0ZegDzeT5oX&#xA;TuxV2KuxVdFE8r8EFWNaDxoK5GUhEWUSkALK1lZSVYEEdQdjhBtQV8M80LVjcqe9On3ZGcBLmESg&#xA;DzR8WtSDaWMN7rtmLLRjoWiWmHQohdYtD1DL8x/Q5UdJNqOnkuOrWX8xP0HI/lZo8CSm+tQD7CMx&#xA;96AfxyY0cupZjTHqg5tVupNlIjX/ACev35kQ0sRz3bY4IjzQZJJqTUnqcyW9Uht5pq+mpIHU9hkJ&#xA;TA5sTIBTybJ2KuxV7f5Aj4eUNOXfdXbf/KlZv4502hFYY/jq7/Rj90GQZluS7FXYq88/OAn6vpY3&#xA;oXmJPbYJmo7W5R+LrO0uUXmeaV1TsVdirsVVrOT07qJq0HIAn2Ox/DIZI3EhjMWCE9ntYJxSRQT2&#xA;boR9OamGWUeTr4zMeSXzaKw3hcEfytsfvGZkNYOociOp70HJY3cf2om+Y3/VmRHNA9W4ZYnqoEEG&#xA;hFD4HLAWx2FVyRyP9hS3yBORMgOZQSAiItLvJP2OA8WNPw65TLUwHW2qWeIR0GjwpvKxkPh0GY09&#xA;XI8tmiWoJ5Iq4McVpLsFUIwUDahIoPxyvB6sgthi3mLY7m1dg7FXYq9/8vWLWOh2No324YUV/wDW&#xA;pVvxzq8EOGAHk9HhhwwA8kwy5tdirsVYH+blqz6TZXIFRDOUb29Ra/8AGmartWPoB7i67tGPpB83&#xA;lmaN1DsVdirsVdirJon9SJJKU5qGp8xXNLkjUiHWTFEhdkWLsVcQD13xVrgvgPuw2U23gQ7FXYqh&#xA;NVk4WTClfUKrXw35f8a5laQev4ORpx6kizZOa7FU08r6f+kPMNhaEckeZWkHiifG/wDwqnL9Nj48&#xA;kR5t2CHFMB73nVPROxV2KuxVCatpdpqunzWF2CYZhQkbMCDUMp8Qcry4hOJieRYZMYnGi821P8pt&#xA;Uhq+n3Ud0o3Ecg9J/kPtKfvGabJ2XMfSbdXk7OkPpNsT1LQNa0wn69ZywKNvUK1T6HFVP35gZME4&#xA;fUKcKeGcOYQGVNbsVTHy/oV5repR2VqKV+KWUj4Y0HVj/DLsGCWSXCG3DiOSVBkmsafb6dqMtjb1&#xA;MNvxRSxqTRBUn3JzVdo4xDPKI5D9Tr9bARyyA6fqQWYTiuxV2KuxV2KuxV2KoLVo2e0qv7DBiPbp&#xA;/HMrSTqVd7kaeVGu9JM2TmuxV6X+WXlS8tpm1m9jMQaMpaRsKMQ3WQjttsPGubrs3SkHjl8Ha6HT&#xA;kHjPweiZt3ZuxV2KuxV2KuxVxAIIIqD1GKpNeeTfK945efToeR6tGDET8/TK5jT0mKXOIaJabHLm&#xA;Etm/LHynJ9iKWH/UlY/8T55SezcR6EfFqOgxlN/L/lvTNBtWt7IMfUblLNIQZGPapAUUHagzIwae&#xA;OIVFuw4I4xQYB5m/4717/wAZD+oZw/af+MT97ymv/vpe9K8wXDdirsVdirsVdirsVXRSPFIsiGjo&#xA;QynwINRkoSMSCOYZRkQbHR6JFoPlfXtPhu5dPhrMtXaMemwbow5JxOxzu8EMWoxifCN3r8UceaAl&#xA;Q3U9N/LzyzYX31yOF5XXeOOZuaIR3Apuf9auTx6DFCV0yho8cTbJczXKdirsVdirsVdirsVdirsV&#xA;dirsVeUeYDXXL7v++f8AXnn3aH9/P+sXjNb/AH0v6xS/MNxXYq7FXYq7FXYq7FXYqzHyBqnGSbTZ&#xA;G2f97BXxH2h92+dJ7P6qicR67j9LvextRROM+8M2zqXoHYq7FXYq7FXYq7FXYq7FXYq7FXYq8k1h&#xA;g2r3zDo1xKfvc551rDeaZ/pS+94nUm8sv6x+9B5jtDsVdirsVdirsVdirsVRmjzSQ6raSRtxYTJ8&#xA;XsWANfozJ0czHNEj+cG/TSMckSO8PW89Ee2dirsVdirsVdirsVdirsVdirsVdirxy4kMk8khFC7M&#xA;xB9zXPNckuKRPeXhJyuRKnkGLsVdirsVdirsVdirsVZV5K0Brm4GpXC/6PC37kH9uQd/kv683/Yv&#xA;Z/HLxZfTHl5n9n3u57K0fHLxJfSOXv8A2M9zrnpHYq7FXYq7FXYq7FXYq7FXYq7FXYq82836M1hq&#xA;TTIv+i3RLxnsGO7L9+4ziO19GcOXiH0y3/WHlO09L4eSx9MkhzUutdirsVdirsVdirsVTny55en1&#xA;a5BYFLOM/vpfH/JX3P4ZsuzuzpaiW+0BzP6A5+h0RzS/ojmXpcEMUEKQwqEijAVFHQAZ3MICERGI&#xA;oB6yEBEADkF+SZOxV2KuxV2KuxV2KuxV2KuxV2KuxVDalp1rqNo9rcrWNtwR1Vh0ZT4jKNTpoZoG&#xA;EuTTnwRyx4ZcmJTfl3KKmC9VvAOhX8QW/VnOz9nT/DP5h0s+xD0l9iBm8h65H9gwy/6rkf8AEguY&#xA;s+wdQOXCfj+tx5dj5hyo/FAzeV9fh+3ZSH/Uo/8AxAtmJPsvUR5wPw3+5xpdn5484n7/ALkBNZXk&#xA;H9/BJFTrzRl/WMxJ4Zw+qJHvDjyxTjzBCtZaRqd6f9FtnlH84FF/4I0X8ctw6PLl+iJP472eLTZM&#xA;n0xJT+y/L+/ko13OkC/yp+8b+A/HNvg9n8h+uQj9rssXY0z9RA+1PrPyTodvQyRtcuO8rbf8CvEf&#xA;fm2w9iaeHMGR83ZYuysMeY4vencMMMESxQosca7KigAD6Bm1hCMRURQdhGAiKAoL8kydirsVdirs&#xA;Vdir/9k=</xmpGImg:image>
               </rdf:li>
            </rdf:Alt>
         </xmp:Thumbnails>
      </rdf:Description>
      <rdf:Description rdf:about=""
            xmlns:xmpTPg="http://ns.adobe.com/xap/1.0/t/pg/"
            xmlns:stDim="http://ns.adobe.com/xap/1.0/sType/Dimensions#"
            xmlns:xmpG="http://ns.adobe.com/xap/1.0/g/">
         <xmpTPg:MaxPageSize rdf:parseType="Resource">
            <stDim:w>722.909180</stDim:w>
            <stDim:h>1103.862305</stDim:h>
            <stDim:unit>Pixels</stDim:unit>
         </xmpTPg:MaxPageSize>
         <xmpTPg:NPages>1</xmpTPg:NPages>
         <xmpTPg:HasVisibleTransparency>False</xmpTPg:HasVisibleTransparency>
         <xmpTPg:HasVisibleOverprint>False</xmpTPg:HasVisibleOverprint>
         <xmpTPg:PlateNames>
            <rdf:Seq>
               <rdf:li>Cyan</rdf:li>
               <rdf:li>Magenta</rdf:li>
               <rdf:li>Yellow</rdf:li>
            </rdf:Seq>
         </xmpTPg:PlateNames>
         <xmpTPg:SwatchGroups>
            <rdf:Seq>
               <rdf:li rdf:parseType="Resource">
                  <xmpG:groupName>Default Swatch Group</xmpG:groupName>
                  <xmpG:groupType>0</xmpG:groupType>
               </rdf:li>
            </rdf:Seq>
         </xmpTPg:SwatchGroups>
      </rdf:Description>
      <rdf:Description rdf:about=""
            xmlns:dc="http://purl.org/dc/elements/1.1/">
         <dc:format>image/svg+xml</dc:format>
      </rdf:Description>
      <rdf:Description rdf:about=""
            xmlns:xmpMM="http://ns.adobe.com/xap/1.0/mm/"
            xmlns:stRef="http://ns.adobe.com/xap/1.0/sType/ResourceRef#"
            xmlns:stEvt="http://ns.adobe.com/xap/1.0/sType/ResourceEvent#">
         <xmpMM:DerivedFrom rdf:parseType="Resource">
            <stRef:instanceID>xmp.iid:DDE7F04CC1F5EB1199B1AF4FA3EF126E</stRef:instanceID>
            <stRef:documentID>xmp.did:DDE7F04CC1F5EB1199B1AF4FA3EF126E</stRef:documentID>
            <stRef:originalDocumentID>xmp.did:DAE7F04CC1F5EB1199B1AF4FA3EF126E</stRef:originalDocumentID>
            <stRef:renditionClass>proof:pdf</stRef:renditionClass>
         </xmpMM:DerivedFrom>
         <xmpMM:DocumentID>xmp.did:DEE7F04CC1F5EB1199B1AF4FA3EF126E</xmpMM:DocumentID>
         <xmpMM:InstanceID>xmp.iid:DEE7F04CC1F5EB1199B1AF4FA3EF126E</xmpMM:InstanceID>
         <xmpMM:OriginalDocumentID>xmp.did:DAE7F04CC1F5EB1199B1AF4FA3EF126E</xmpMM:OriginalDocumentID>
         <xmpMM:History>
            <rdf:Seq>
               <rdf:li rdf:parseType="Resource">
                  <stEvt:action>saved</stEvt:action>
                  <stEvt:instanceID>xmp.iid:DAE7F04CC1F5EB1199B1AF4FA3EF126E</stEvt:instanceID>
                  <stEvt:when>2021-08-05T18:54:20+05:00</stEvt:when>
                  <stEvt:softwareAgent>Adobe Illustrator CS6 (Windows)</stEvt:softwareAgent>
                  <stEvt:changed>/</stEvt:changed>
               </rdf:li>
               <rdf:li rdf:parseType="Resource">
                  <stEvt:action>saved</stEvt:action>
                  <stEvt:instanceID>xmp.iid:DEE7F04CC1F5EB1199B1AF4FA3EF126E</stEvt:instanceID>
                  <stEvt:when>2021-08-05T19:46:47+05:00</stEvt:when>
                  <stEvt:softwareAgent>Adobe Illustrator CS6 (Windows)</stEvt:softwareAgent>
                  <stEvt:changed>/</stEvt:changed>
               </rdf:li>
            </rdf:Seq>
         </xmpMM:History>
         <xmpMM:RenditionClass>proof:pdf</xmpMM:RenditionClass>
      </rdf:Description>
   </rdf:RDF>
</x:xmpmeta>
                                                                                                    
                                                                                                    
                                                                                                    
                                                                                                    
                                                                                                    
                                                                                                    
                                                                                                    
                                                                                                    
                                                                                                    
                                                                                                    
                                                                                                    
                                                                                                    
                                                                                                    
                                                                                                    
                                                                                                    
                                                                                                    
                                                                                                    
                                                                                                    
                                                                                                    
                                                                                                    
                           
<?xpacket end="w"?>
	</metadata>
<g id="svg-case">
	<path fill="#62BB47" d="M244.334,378c0,0-86,65.333-86.667,130.667s-54,14.667-54,14.667s-36.667-24-36.667-26
		s51.333-174,51.333-174l76-9.333l50,12C244.334,326.001,239.001,358.666,244.334,378z"/>
	<path fill="#62BB47" d="M468.335,309.334l-9.334,28l9.334,45.333c0,0,56.667,54,74.667,95.333s20.666,13.333,24.666-9.333
		s-0.667-31.271,0-40.635S468.335,309.334,468.335,309.334z"/>
	<path fill="#62BB47" d="M555.669,602.001l-17.333,14c0,0-41.334,64.666-67.334,80l-12.001,70.667c0,0,4.668,16,6.668,16
		s40.665,10.667,41.666,10s25.668-16.001,29.001-24.667s12-45.333,14-51.333S555.669,602.001,555.669,602.001z"/>
	<path fill="#62BB47" d="M130.336,580.668l38.667,37.333c0,0,34.667,58.697,67.333,79.349l13.333,64.651l-26,30.697l-43.333-4.697
		c0,0-62.667-17.333-62.667-19.333s-11.333-2-12-42S130.336,580.668,130.336,580.668z"/>
</g>
<g id="svg-bezel">
	<path fill="#62BB47" d="M352.91,346.531c-113.24,0-205.04,87.738-205.04,195.969c0,108.229,91.8,195.969,205.04,195.969
		c113.241,0,205.039-87.739,205.039-195.969C557.949,434.27,466.151,346.531,352.91,346.531z M352.91,693.335
		c-85.333,0-154.51-68.467-154.51-152.925s69.176-152.925,154.51-152.925c85.334,0,154.51,68.467,154.51,152.925
		S438.244,693.335,352.91,693.335z"/>
</g>
<g id="svg-strap">
	<path fill="#67EF3A" d="M244.334,380.338L236,209l18-70c0,0,151-12,155-12s46.002,2,50.001,4s50.669,20,48.334,24S473,301,473,301
		l-13.999,13.001v23.333l6.674,45.644C465.675,382.978,372.669,302.676,244.334,380.338z"/>
	<path fill="#67EF3A" d="M236.85,699.838c0,0,107.092,77.838,232.121,0l-9.97,66.83L494,844c0,0-1,10,0,14s-37,53-47,55
		s-75.29,22-75.29,22S277,922,271,921s-30.331-35-26.666-46s5.335-112.999,5.335-112.999L236.85,699.838z"/>
</g>
<g id="svg-winder">
	<rect x="546.166" y="497.5" fill="#67EF3A" width="57.666" height="99.5"/>
</g>
<g id="svg-face">
	<circle fill="#67EF3A" cx="352.333" cy="541.167" r="158.833"/>
</g>
<g id="svg-skull">
	<path fill="#67EF3A" d="M289.5,653c-7.612-18.591-3.698-44.682-20.663-57.889c-18.75-14.597-14.26-40.655-15.337-61.737
		c-0.681-13.336-1.5-26.526-1.5-40.29c0-6.417-1.381-25.686,4.611-29.361c1.046-4.546,0.8-9.185,1.386-13.792
		c0.994,1.396,1.708,2.94,2.116,4.587c0.62-4.024,0.646-8.094,1.377-12.104c12.34,5.068,9.938-7.544,11.462-16.018
		c2.819,0.042,5.2-0.718,7.545-2.259c5.866-3.853,4.128-9.885,6.002-16.424c13.934-0.444,27.683-7.489,41.502-9.225
		c13.804-1.733,28.921-4.78,42.962-2.375c10.057,1.723,23.225,1.691,31.534,7.399c4.152,2.852,8.533,6.213,12.527,9.351
		c9.339,7.336,16.746,17.637,24.987,26.137c8.385,8.649,17.151,20.61,17.985,32.915c0.854,12.605,1.632,26.427,0.5,39.097
		c-1.068,11.966-9.156,23.646-13.123,34.962c-4.006,11.423-5.256,23.792-7.377,35.625c-0.96,5.358-1.123,11.083-3.971,15.927
		c-3.439,5.853-10.816,7.353-14.539,12.5c-2.774,3.837-2.719,9.657-3.403,14.338c-0.799,5.47-1.221,10.913-2.196,16.148
		c-0.915,4.91-0.824,11.463-2.852,15.977c-2.27,5.056-7.453,7.228-9.452,12.51c-3.375,8.921-6.957,18.569-16.696,22.599
		c-18.766,7.766-44.938,7.262-63.879,0.889c-17.805-5.989-33.39-25.541-33.51-44.985"/>
</g>
<g id="svg-hour">
	<path fill="#67EF3A" d="M264.667,484.667c0.876,4.363,6.463,7.201,9.64,9.742c3.016,2.414,4.814,5.171,7.028,8.249
		c5.366,7.461,12.99,11.67,19.247,18.099c5.621,5.776,9.318,11.123,17.053,14.577c7.861,3.51,14.129,8.594,21.049,13.332
		c2.945,2.016,5.993,3.98,8.575,6.26c2.341,2.068,4.88,4.284,7.742,5.686c2.963,1.451,6.663,2.455,9.984,3.074
		c3.39,0.632,9.094,2.617,12.364,0.721c3.087-1.79,2.937-6.218,5.374-8.729c2.583-2.661,4.652-3.838,3.295-8.426
		c-1.813-6.125-10.854-9.343-15.766-12.492c-5.025-3.223-7.813-8.523-12.595-12.001c-5.331-3.877-11.571-7.338-17.324-10.758
		c-7.363-4.376-14.758-8.297-22.016-12.619c-5.638-3.357-10.129-8.726-15.585-12.166c-4.544-2.864-9.618-4.792-14.364-6.875
		c-4.713-2.068-8.938-4.926-14.042-5.681c-4.738-0.701-11.136,0.734-12.333,5.683c-1.691,6.991,6.422,2.946,5.675,8.991"/>
</g>
<g id="svg-min">
	<path fill="#67EF3A" d="M315.333,546c3-1.474,4.436-5.149,6.727-7.65c2.78-3.036,7.574-5.217,11.192-7.324
		c7.698-4.482,16.193-8.252,24.054-12.09c6.354-3.102,12.436-5.979,18.352-9.586c3.443-2.1,6.955-3.806,10.52-5.692
		c4.638-2.455,8.254-4.968,12.841-7.231c8.23-4.06,16.743-7.432,24.723-12.167c7.241-4.296,14.057-8.84,21.26-12.936
		c3.859-2.194,5.388-3.872,9.424-2.397c4.904,1.791,5.778,2.506,6.593,7.749c1.374,8.852-2.049,12.865-8.91,17.985
		c-7.658,5.715-16.37,9.674-24.211,14.692c-7.625,4.88-14.64,10.874-22.319,15.833c-6.215,4.013-11.386,9.292-17.409,13.499
		c-6.525,4.557-13.771,8.22-20.192,12.994c-6.168,4.584-11.095,9.218-17.701,12.749c-5.458,2.918-13.307,6.841-19.942,5.574
		c-4.42-0.844-9.882-8.84-11.266-13.267c-1.115-3.567-3.525-14.431-0.399-17.4"/>
</g>
<g id="svg-tip">
	<g>
		<circle fill="#67EF3A" cx="276.75" cy="485" r="10.25"/>
		<circle fill="#67EF3A" cx="451" cy="479.25" r="10.25"/>
	</g>
</g>
<g id="svg-lumi">
	<path fill="#67EF3A" d="M339.25,522.625c0,0-6.599-4.418-14.539-9.808c0.1-0.592,0.164-1.196,0.164-1.817
		c0-6.006-4.869-10.875-10.875-10.875c-2.03,0-3.923,0.566-5.55,1.535c-4.831-3.369-8.723-6.162-10.2-7.41
		c-5.25-4.438-8.375-2.438-10.188,0s0.75,5.313,0.75,5.313s6.567,4.68,14.384,10.222c-0.044,0.399-0.072,0.804-0.072,1.215
		c0,6.006,4.869,10.875,10.875,10.875c1.708,0,3.318-0.405,4.757-1.107c5.557,3.897,9.76,6.8,10.118,6.919
		c1.125,0.375,5.188,6.688,10.813,3.375S339.25,522.625,339.25,522.625z"/>
	<path fill="#67EF3A" d="M436.334,488.167c-3.166-5-11.167,1.333-11.167,1.333s-8.224,4.984-18.339,11.103
		c-1.651-1.018-3.59-1.615-5.673-1.615c-5.989,0-10.845,4.855-10.845,10.845c0,0.247,0.021,0.488,0.037,0.73
		c-9.658,5.829-18.092,10.901-20.181,12.104c-5.5,3.167-1.167,8-1.167,8c4.333,3.333,10-2,10-2s7.1-4.457,15.956-9.942
		c1.758,1.228,3.893,1.954,6.199,1.954c5.989,0,10.845-4.855,10.845-10.845c0-0.509-0.047-1.006-0.115-1.497
		c8.031-4.868,14.883-8.898,16.782-9.67C434,496.5,439.5,493.167,436.334,488.167z"/>
</g>
</svg>
