<?xml version="1.0" encoding="utf-8"?>
<!-- Generator: Adobe Illustrator 16.0.0, SVG Export Plug-In . SVG Version: 6.00 Build 0)  -->
<!DOCTYPE svg PUBLIC "-//W3C//DTD SVG 1.1//EN" "http://www.w3.org/Graphics/SVG/1.1/DTD/svg11.dtd" [
	<!ENTITY ns_flows "http://ns.adobe.com/Flows/1.0/">
	<!ENTITY ns_extend "http://ns.adobe.com/Extensibility/1.0/">
	<!ENTITY ns_ai "http://ns.adobe.com/AdobeIllustrator/10.0/">
	<!ENTITY ns_graphs "http://ns.adobe.com/Graphs/1.0/">
]>
<svg version="1.1" xmlns:x="&ns_extend;" xmlns:i="&ns_ai;" xmlns:graph="&ns_graphs;"
	 xmlns="http://www.w3.org/2000/svg" xmlns:xlink="http://www.w3.org/1999/xlink" xmlns:a="http://ns.adobe.com/AdobeSVGViewerExtensions/3.0/"
	 x="0px" y="0px" width="722.909px" height="1103.862px" viewBox="0 0 722.909 1103.862"
	 enable-background="new 0 0 722.909 1103.862" xml:space="preserve">
<metadata><?xpacket begin="﻿" id="W5M0MpCehiHzreSzNTczkc9d"?>
<x:xmpmeta xmlns:x="adobe:ns:meta/" x:xmptk="Adobe XMP Core 5.3-c011 66.145661, 2012/02/06-14:56:27        ">
   <rdf:RDF xmlns:rdf="http://www.w3.org/1999/02/22-rdf-syntax-ns#">
      <rdf:Description rdf:about=""
            xmlns:xmp="http://ns.adobe.com/xap/1.0/"
            xmlns:xmpGImg="http://ns.adobe.com/xap/1.0/g/img/">
         <xmp:CreatorTool>Adobe Illustrator CS6 (Windows)</xmp:CreatorTool>
         <xmp:CreateDate>2021-08-05T18:43:40+05:00</xmp:CreateDate>
         <xmp:Thumbnails>
            <rdf:Alt>
               <rdf:li rdf:parseType="Resource">
                  <xmpGImg:width>128</xmpGImg:width>
                  <xmpGImg:height>256</xmpGImg:height>
                  <xmpGImg:format>JPEG</xmpGImg:format>
                  <xmpGImg:image>/9j/4AAQSkZJRgABAgEASABIAAD/7QAsUGhvdG9zaG9wIDMuMAA4QklNA+0AAAAAABAASAAAAAEA&#xA;AQBIAAAAAQAB/+4ADkFkb2JlAGTAAAAAAf/bAIQABgQEBAUEBgUFBgkGBQYJCwgGBggLDAoKCwoK&#xA;DBAMDAwMDAwQDA4PEA8ODBMTFBQTExwbGxscHx8fHx8fHx8fHwEHBwcNDA0YEBAYGhURFRofHx8f&#xA;Hx8fHx8fHx8fHx8fHx8fHx8fHx8fHx8fHx8fHx8fHx8fHx8fHx8fHx8fHx8f/8AAEQgBAACAAwER&#xA;AAIRAQMRAf/EAaIAAAAHAQEBAQEAAAAAAAAAAAQFAwIGAQAHCAkKCwEAAgIDAQEBAQEAAAAAAAAA&#xA;AQACAwQFBgcICQoLEAACAQMDAgQCBgcDBAIGAnMBAgMRBAAFIRIxQVEGE2EicYEUMpGhBxWxQiPB&#xA;UtHhMxZi8CRygvElQzRTkqKyY3PCNUQnk6OzNhdUZHTD0uIIJoMJChgZhJRFRqS0VtNVKBry4/PE&#xA;1OT0ZXWFlaW1xdXl9WZ2hpamtsbW5vY3R1dnd4eXp7fH1+f3OEhYaHiImKi4yNjo+Ck5SVlpeYmZ&#xA;qbnJ2en5KjpKWmp6ipqqusra6voRAAICAQIDBQUEBQYECAMDbQEAAhEDBCESMUEFURNhIgZxgZEy&#xA;obHwFMHR4SNCFVJicvEzJDRDghaSUyWiY7LCB3PSNeJEgxdUkwgJChgZJjZFGidkdFU38qOzwygp&#xA;0+PzhJSktMTU5PRldYWVpbXF1eX1RlZmdoaWprbG1ub2R1dnd4eXp7fH1+f3OEhYaHiImKi4yNjo&#xA;+DlJWWl5iZmpucnZ6fkqOkpaanqKmqq6ytrq+v/aAAwDAQACEQMRAD8A9U4q7FVG9uo7S0muZPsQ&#xA;oXI8aDp9OVZ8oxwMzyAa8uQQiZHo8suta1W6kaSa6lPI14hiFHyUGgzgcutzZDcpH5vHZNVlmbMi&#xA;hze3hFDPJT/Xb+uU+NP+cfm1+LPvKjlbWuWR1+yxWvWhphEiOSQSFaPUdQj/ALu6lT/Vdh06dDls&#xA;dRkHKUh8S2DPMcpH5omPzFrsf2b6Y/6zFv8AiVcvj2jqB/HL5tsdbmH8RRUfnLzEnW5DjwZEP4gV&#xA;y+PbOpH8V/Afqbo9qZx/F9gRMfn7W1+0kEn+sjD/AIiwy+Pb+ccxE/D9rbHtjMP5p/HvZL5f822m&#xA;p0gnpb3nZK/C/wDqE9/bN32f2tDP6Zemf3+79TttH2lHLsdp/f7k+zbuydirsVdirsVdiqU+awT5&#xA;evQP5AfuYHNf2qP8Gn7v0uF2j/cSeXZwTx7sVdirsVdirsVdirsVXRSPFIkiGjoQynwINRhjIxII&#xA;5hMZEGw9esbpLuzguU+zMivTwqK0+jPR8GUZICY6i3uMOQTgJDqFfLWx2KuxV2KuxVK/M8cr6Ber&#xA;F9r0+R/1VILf8KDmB2pEnTzru/t+xw+0ATglXc8szgXjnYq7FXYq7FXYq7FXYq7FXpvk+K5i0C3W&#xA;ccalmiB68GNRX787rseM46eIl8Pc9d2ZGQwji/ATrNm57sVdirsVdirToroyMOSsCGB6EHAQCKKC&#xA;LFF5Jqti1jqNxaN/upyFJ7qd1P0g553qsBxZZQ7j/Y8TqMPh5DHuQmY7S7FXYq7FXYq7FXYqyHyl&#xA;5eOpXP1m4X/QoTuD0dhvx+Xjm47J7O8aXFL6I/ae79bs+zdF4suKX0D7XowAAoOmdq9U7FXYq7FX&#xA;Yq7FXYq878+RyLrgdlAWSJChHelQa+9c4zt6JGe++IeX7XiRmvvDHM0rqnYq7FXYq7FXYq2qszBV&#xA;FWY0A9zhAs0kC3r9haR2dlDbRgBYkC7dz3P0nfPRtPhGOAgOge4w4xCAiOivlzY7FXYq7FXYq7FX&#xA;YqxzzvpQutM+tr/fWdWA8UYjl93XNL23pfExcY5w+7q6rtbT8ePi6xed5xjy7sVdirsVdirsVTPy&#xA;1a/Wtds4yKqJBI3yj+P+GZ3ZmLj1EB538t3L0GPjzRHnfy3eqZ372TsVdirsVdirsVdiryL8xPMG&#xA;of4nmgtbqWGK1RIuMUjIpanNjRSN6vT6M5/X55eKQCRTpNbml4hAPJLdF866vYGWG5le9sbhSk8E&#xA;rljRhQlGatDT6Mx8eqkAYy9UZCi0w1MgCDvEokihpnNOjaxV2KuxV2KuxVOfK2s6PpOpNPqU3oh4&#xA;ykLcWYciQTXiDTYZuexJwhlMpHo7TsqcIZDKR6PQrHWtIvx/od5DOf5UdS30rWozsIZoS+kgvSwy&#xA;xlyIKMyxsdirsVdirsVad1RGdzRVBLE9gNziTSkvnnU71r7Ubq8b7VxK8tPDmxNPozkck+KRl3l5&#xA;nJLikT3obIMGU5o3VuxV2KuxV2KuxVK9cO0I/wBb+GZuj6uVpuqVo7IwdCVZSCrDYgjoRmeC5T3n&#xA;yrraazodte1Bmp6dyB2lTZvv+0PY51OlzeJAS69Xo9Pl44AptmQ3OxV2KuxVJPOt/wDUfK+oTA0d&#xA;ojCnjWU8NvlyrmNrMnDikXH1U+HGS8Kzl3nm0+2vzGA8kFlGaR1ilJdW0ezyKCO1d/uyccUjyDMQ&#xA;keQUW1ayHRy3yB/jlo0s2fgSWjV7Mnqw+Yw/lZr4ElVNQsnNBKPpqv66ZCWnmOjE4pDorqysKqQR&#xA;4jKSKa6S3XVPG3bsS4+7j/XM/RjYly9MNilOZrks0/K/XjZawdOlalvf0CV6LMv2f+CHw/dmx7Nz&#xA;8M+E8pfe5+gzcMuE8i9czoHdOxV2KuxVgP5u3/DTbKxB+KeVpWH+TEtN/pf8M1Xas6iI95db2lP0&#xA;gPLc0bqG0ryFBU12HjgPJBTYW2oXW88noxn9hev3f1zAOTHD6RZcUzhHkLREWmWcf7HM+Lb/AIdM&#xA;qlqJnq1yzSKIWONfsqF+QAykyJ5tZJK4gHqK/PBaFGSztZPtRKfcCh+8ZZHLIcizGSQ6oZ9LKHna&#xA;ytE38pO2XDU3tIW2DNf1C0BqEl6eEdyKcK8WA2PKlem3bMvAIV6XIxcP8KEy9tXRSyRSJLGxSSNg&#xA;yMOoYGoIxBo2Eg0968s61HrOi298tBIy8Z1H7Mq7MP4j2zqtNm8SAk9Fgy8cAU0y9udirsVeL/mR&#xA;qn17zPNGrVis1FuvhyXd/wDhmI+jOc7QycWU+Wzoddk4sh8tmNRRSSyCOMVY5r5SERZcKUgBZTyz&#xA;0+K3AP2pe7/0zWZc5n7nCyZTL3IlmVRUmgygC2sBbyc/ZWg8W2/DJUOq0HcZD1en+qAP18sbHcth&#xA;vg3+/G/4X+mNjuW/J370eDfh/XBsuzg4JofhbwOJC06SOORCjqGU9QcYyINhQSOSSX+nNbnmlWhP&#xA;fuPnmywZxPY83NxZeLY80HmS3M3/ACs14WmqyaZM1IL7eKvQTKNv+CXb7s2fZmfhnwnlL73Ydn5u&#xA;GXCer1nN87l2KobUr6Ow0+5vZfsW8bSEePEVp9OQyTEYmR6MJz4Yk9z57llluJ3lcl5ZmLMe5ZjU&#xA;/jnIyle5eZkb3KeWFmttFvvK32z/AAzU583GfJwMuTiPkiHfjQAVY9BlQFtYDlTfkx5N49h8sSe5&#xA;SV2BDsVdirsVcVBFCKjEFVlShoxqp6N4fPJc2XNcyqylWFVOxByINIBSC/szbTUH9226H+GbXBl4&#xA;x5udiycQUIZpYZkmiYpLGweNx1DKagj6cyASDYbgaNh9HZ2D1DsVYX+auqC20COyU/vL6QAj/iuK&#xA;jN/w3HNb2nlrHw/znA7QyVCu95no9sHlMzD4Y/s/6x/pnK6vJQrved1E6FJwzBVLHoN814FuIAtj&#xA;Uj4m+23X29sMj0Ckr8ih2KuxV2KuxV2KuIBFD0xVYhKngfmp9v7Mkd90nvU763E9uyftDdPmMnhy&#xA;cMrZ458JY7m3dg+kM7F6l2KvHPzO1QXnmRrdDWKxQQinTmfic/jT6M53tLLxZK/muj1+TiyV3ILT&#xA;ovTs4x3Ycj9P9mc1qJXMuiyyuRVX+KRU7D42+jp+O/0ZWNhbEclTIsXYq7FXYq7FXYq7FXYqsl2X&#xA;n3Tf6O/4ZKPcyivyLFj+oQ+neOoGzHko/wBbfNtgncAXYYpXF71+m9G/5b7b/kcn9c6387g/nw/0&#xA;wel/N4v58fmFa31CwuWKW1zFMyipWN1cgeNATlmPUY5moyjL3EFnDNCZqMgfcXz7fTT3F9cTT/70&#xA;Syu8v+uzEt+OctkkTIk83nZkkklkKqFUKOgFB9GaEm3VErI95ZT4EL9w5f8AG2TlyCTyCpkGLsVd&#xA;irsVdirsVdirsVd1xVZCT6SV60APzG2SnzLKXNLNVWl5A3jQfc39uZmmPoLk4D6Sm2YLiMq/L3/j&#xA;p3P/ABh/43XN/wCz397L+r+kO57F/vJf1f0sD812n1LzPqMNOKi4Z1Hgsh5r+DZZq4cOSQ806mNT&#xA;kPNMs5x0qnF/eTf64/4guTlyHu/SWUuQVMgxdirsVdirsVdirsVdirsVWQf3S+9T95rkp82UuaXa&#xA;sf8ASbce/wDEZl6X6ZORg5FNMwnFZV+Xv/HTuf8AjD/xuub/ANnv72X9X9Idz2L/AHkv6v6WPfmr&#xA;Z+j5lWcD4bqBHJ/ykJQ/gozO7ThWS+8OT2hGsl94QVvJ6kEb/wAyg/TTOVyRqRDz8xRIcPhuCOzq&#xA;CPmp3/WMecfcvRUyDF2KuxV2KuxV2KuxV2KrZWKxsw6gbD37YYiykCy2ihEVR0UAfdiTZtSbKWXC&#xA;G61q2t1FSzxx0Hizf25stJC4V3ubp4XH3p39Svf+WeT/AIBv6Zg+BP8Amn5OL4U+4/Jk/kG3ni1K&#xA;4MkboDDQFlI/aHjm97AxyjllYI9P6Xb9jwkMhsdEP+b1lysbC9A/upWhY/8AGReQ/wCTebXtWHpj&#xA;J2HaUdgWE6NPygMR6xnb5H+3OT1cKlfe85qI0bRsykqGUVdDyUePiPpGY0D0PVpiVyMrqGU1U7g4&#xA;CKNIIpvAh2KuxV2KuxV2KuxVTb45Qv7KfE3z7D+OTGwvvZDYL3ZUUsxoqipPsMiBZpAFu8gW5vvO&#xA;VtKwqsXqTsPDipC/cxGdL2Zi/eRHc7zQY/3gHc9ozp3oHYqx/wA+ac1/5WvY415SxKJ4x/xiPJv+&#xA;FrmJrsfFiPzcbVw4sZeK2lwbedZB06MPEHOVy4+ONPOZIcQpkSMrqGU1VhUHNQRRouvIpSNYWLf7&#xA;qY1Yfynx+Xjkx6turLn71YEEVG4OVsHYq7FXYq7FXYqskkIPBN5D0HYDxOSjHqeTIDqW0QItBv3J&#xA;PUk98EjaCbS7WLsBfq6H4m3f2HYZl6TFvxFyMEOrK/ygs+V7qF6f91xpCp/4yNyP/JsZ03ZMPVKT&#xA;vuzY7kvT83btnYq4gMCrCoOxB6EYq8C8y6SdK128saUSOQmH3jb4k/4U5ymoxeHMxebz4+CZCnpu&#xA;oeifSlP7o9D/ACn+ma7UYOLcc3DzYr3HNOgQRUbg9DmucJS9J4zWGlO8Z6fQe2T4gebO75uFxGDS&#xA;SsbeD7D6D0x8M9N0cB6bqoIO4yDF2KrHmiTZmAJ6DufoyQiTySIkreUsn2B6a/zt1+hf64aA57sq&#xA;AXpGqCg77knck++RMiWJNoe+vktkoN5W+yvh7nLsOEzPk2YsfF7khd2dizGrMak5tAABQc4Cnrv5&#xA;VWfo+WmuCPiup3cHxVAEH4qc6HsyFY77y7zs+NY77yzLNi5zsVdirzb83NJo1nqyLsa205993j/4&#xA;2zTdq4uU/g6rtHHyl8HnGad1aLstRlt6Ifji/l7j5Zj5tOJ79WnJhEvenMF1BOKxtU91OxH0Zr54&#xA;pR5uJKBjzVSARQ7jK2CkbW36hAp/yfh/VTJ+JLvZcZd9Vh7gn2LMf1nHxJJ4yvSKNPsKF+QpkTIn&#xA;mxJJ5tsyqpZiAo6k7DABagWl13q6KCtv8TfznoPlmZi0pO8nIhg70pd2dizEsx6k5ngACg5QFNYU&#xA;ve/Kln9T8t6db0oVgRnH+U45t+LZ1Wlhw44jyej08eHGB5Jrl7c7FXYqlXmrSf0roF5ZgVlZC0P/&#xA;ABkT4l+8imUanF4mMxadRj44EPBM5V5xVsyRdwkfzr+vK8v0n3MJ/SU6utOgnb1FrFN15r3PiRmD&#xA;DVEbS3caOc9d0Nx1i36ETIPp/XRss/cy8mX7uXk79KXa/wB5an/hl/WDg/LQPKSPBj0K4apcN9m0&#xA;Yn5k/wDGuD8tEc5I8Ed7fratLssSxD+Zuv4/0wcGKPM2vDjHW210x5CGupmkP8o2GA6gD6RSPGA+&#xA;kKWrRRRW0aRqFXl29hlmlkZSJLPBIkklKsznKRGnWhvNQtbQdbiVIh/s2C/xyeOPFIDvLKEeKQHe&#xA;+iAAoAAoBsBnXPTuxV2KuxV2KvDfPGk/ozzLdwqKQzN68PYcZd6D5NUfRnMa3FwZSPi89q8fBkIS&#xA;a1/3qh/11/WMwsn0n3OLLkWSZpnWuxV2KuxV2KuxVLNcPwwjxLfwzN0fMuTpuqU5nuWyP8vLP615&#xA;ssqiqQc5m9uCnj/w1MzNBDiyjycrRRvKHtudK792KuxV2KuxVgH5taT6tha6og+K3f0ZSP5JN1J+&#xA;TCn05qu1cVxEu51vaOO4iXc81sYLma5QW8TyupDEIpYgA1qads0RiSDTqKJGzIs0jq3Yq7FXYq7F&#xA;XYqh7zRtU1H0hYWstyULCT01JC140qegrmz7PwymDwi3O0eKUr4RaJtPyy82T05wR2wPeWRf1JzO&#xA;bePZ2U9KdlHQZD0pmvknyLPoF5LeXNwk0skRiVIwaKCwYmrU/l8M2Wj0RxEyJtz9LpDjNksxzYuc&#xA;7FXYq7FXYqo3lna3ts9tdRrNbyU5xt0NCCK/SMjOAkKPJjKIkKPJLNdS10zy5draQpbxlPTVI1CD&#xA;94QnQf62YHaMhi006FbV89nE1pGPBKttq+ezzHODePdirsVdirsVdirMvy6kpJfR/wAwjYD5Fh/H&#xA;Ol9nZbzHu/S73sSW8h7v0s1zqHoHYq7FXYq7FXYq7FXYqxb8wbnhpkEAO80vI/6qA1/Fhmg9oMlY&#xA;ox75fc6ftmdYxHvP3MBzkXmnYq7FXYq7FXYqyj8vpKatPH2eAn6Vdf65vvZ+X76Q/o/pDuOxZfvS&#xA;P6P6Qz/OveldirsVdirsVdirsVdirAvzBueepW9uDUQxcj7Fzv8AgozkfaDJeWMe4ff/AGPN9tTv&#xA;II9w+9iuaB0zsVdirsVdirsVZB5Hk46/Gv8APG6/hy/hm37DlWoHmC7Psk1nHmC9HztnqnYq7FXY&#xA;q7FXYq7FXYq8t803Hr6/eN2R/TH/ADzAX9Yzgu1cnHqJnzr5bPH9oT4s8j518kqzXuE7FXYq7FXY&#xA;q7FU38pvw8w2Z8WZf+CRl/jmx7JlWph+Ohc7s41nj+Oj1DO8evdirsVdirsVdirsVdirx69Z2vJ2&#xA;f7Zkct8yxrnm2YkzlfOy8NlJMzfeo5W1uxV2KuxV2KuxVMNAfhrdifGeNdv8pgP45l9nyrPD+sHJ&#xA;0ZrNH+sHq+ehPaOxV2KuxV2KuxV2KuxV5V5ktjb67ex9AZC4+Unxj/iWef8AaWPg1Ex53893jddD&#xA;hzSHn9+6W5hOI7FXYq7FXYq7FUTpj8NStH6cZozUddmGX6Y1lif6Q+9twGskT5h69noz3DsVdirs&#xA;VdirsVdirsVYX560W6kuF1G3jMkfALPx3KlTsxHWlM5ft3RTMhliLFbug7X0sjLxIixW7DM5p0Ls&#xA;VdirsVdirsVVrQkXUJAqRIpoO+4yzCamPeGeM+oe97DnpL3TsVdirsVdirsVdirsVdiqRax5Q0zU&#xA;OUkY+q3J39SMfCT/AJSdPuzU6zsfFm3Hpl3j9TrtT2Zjy7j0y/HRhmp+VtYsCWaEzQj/AHdFVhT3&#xA;HUfSM5nU9lZsPMXHvDoc/Z+XHzFjvCVKju3FVLN4AVOa8RJ2DhAE8kXDomrzf3VlMwP7XBgPvIpm&#xA;TDRZpcoS+TfHS5Zcon5I+HyX5gl3MCxA93df1Ak5lw7F1Mv4a95Dkw7LznpXxRS+QNaPWW3X2LP/&#xA;AATLx7P5++PzP6m0djZe+P2/qTLS/IPo3Ec95chxGwYRRggEg13Y/wBMzdL2BwyEpyuug/W5en7H&#xA;4ZAzly7mX50jvHYq7FXYq7FX/9k=</xmpGImg:image>
               </rdf:li>
            </rdf:Alt>
         </xmp:Thumbnails>
      </rdf:Description>
      <rdf:Description rdf:about=""
            xmlns:xmpTPg="http://ns.adobe.com/xap/1.0/t/pg/"
            xmlns:stDim="http://ns.adobe.com/xap/1.0/sType/Dimensions#"
            xmlns:xmpG="http://ns.adobe.com/xap/1.0/g/">
         <xmpTPg:MaxPageSize rdf:parseType="Resource">
            <stDim:w>722.909180</stDim:w>
            <stDim:h>1103.862305</stDim:h>
            <stDim:unit>Pixels</stDim:unit>
         </xmpTPg:MaxPageSize>
         <xmpTPg:NPages>1</xmpTPg:NPages>
         <xmpTPg:HasVisibleTransparency>False</xmpTPg:HasVisibleTransparency>
         <xmpTPg:HasVisibleOverprint>False</xmpTPg:HasVisibleOverprint>
         <xmpTPg:PlateNames>
            <rdf:Seq>
               <rdf:li>Cyan</rdf:li>
               <rdf:li>Yellow</rdf:li>
            </rdf:Seq>
         </xmpTPg:PlateNames>
         <xmpTPg:SwatchGroups>
            <rdf:Seq>
               <rdf:li rdf:parseType="Resource">
                  <xmpG:groupName>Default Swatch Group</xmpG:groupName>
                  <xmpG:groupType>0</xmpG:groupType>
               </rdf:li>
            </rdf:Seq>
         </xmpTPg:SwatchGroups>
      </rdf:Description>
      <rdf:Description rdf:about=""
            xmlns:dc="http://purl.org/dc/elements/1.1/">
         <dc:format>image/svg+xml</dc:format>
      </rdf:Description>
   </rdf:RDF>
</x:xmpmeta>
                                                                                                    
                                                                                                    
                                                                                                    
                                                                                                    
                                                                                                    
                                                                                                    
                                                                                                    
                                                                                                    
                                                                                                    
                                                                                                    
                                                                                                    
                                                                                                    
                                                                                                    
                                                                                                    
                                                                                                    
                                                                                                    
                                                                                                    
                                                                                                    
                                                                                                    
                                                                                                    
                           
<?xpacket end="w"?>
	</metadata>
<g id="svg-case">
	<path fill="#60BB46" d="M246.333,349.332V259.5L225,243h-30l-31,127c0,0-48,145.34-48,149s25,132.501,28,137
		s64.598,178.577,64.598,178.577l37.734-12L243.5,727.5c0,0,85.5,77.5,215.5,4.5v92l67-12l47-237v-69v-94l-68-139l-47-11l2,84
		C460,346,343.665,297.664,246.333,349.332z"/>
</g>
<g id="svg-bezel">
	<path fill="#67EF3A" d="M352,338.333c-112.574,0-203.833,91.259-203.833,203.833S239.426,746,352,746
		s203.833-91.259,203.833-203.833S464.574,338.333,352,338.333z M352,705.166c-90.022,0-163-72.977-163-162.999s72.978-163,163-163
		s163,72.978,163,163S442.022,705.166,352,705.166z"/>
</g>
<g id="svg-strap">
	<g>
		<path fill="#67EF3A" d="M242.333,729.999l3.333,92.667c0,0-30,143.997-30,154.664s10.667,63.334,15,68.667s73.667,44,89,44
			s83.333-11.333,93.333-12s52.001,0.666,59.334-12.667s-14.667-241.333-14.667-241.333l4.666-93.998
			C462.333,729.999,342.334,800.668,242.333,729.999z"/>
		<path fill="#67EF3A" d="M245.667,350.664c0,0,97.333-54.667,212,0l2.667-90L479,181c0,0,40-49,40-55s-15-50-15-50s-22-19-25-19
			S352,45,343,45s-55-4-65,0s-58-5-63,11s-8,16-8,29s3,27,0,35s19,55,19,62s-4,4.887,0,14.943S231,217,236,221s12,41,12,41
			L245.667,350.664z"/>
	</g>
</g>
<g id="svg-winder">
	<rect x="572" y="497.5" fill="#67EF3A" width="53.5" height="99.5"/>
</g>
<g id="svg-face">
	<circle fill="#67EF3A" cx="352.333" cy="541.167" r="158.833"/>
</g>
<g id="svg-skull">
	<path fill="#67EF3A" d="M289.5,653c-7.612-18.591-3.698-44.682-20.663-57.889c-18.75-14.597-14.26-40.655-15.337-61.737
		c-0.681-13.336-1.5-26.526-1.5-40.29c0-6.417-1.381-25.686,4.611-29.361c1.046-4.546,0.8-9.185,1.386-13.792
		c0.994,1.396,1.708,2.94,2.116,4.587c0.62-4.024,0.646-8.094,1.377-12.104c12.34,5.068,9.938-7.544,11.462-16.018
		c2.819,0.042,5.2-0.718,7.545-2.259c5.866-3.853,4.128-9.885,6.002-16.424c13.934-0.444,27.683-7.489,41.502-9.225
		c13.804-1.733,28.921-4.78,42.962-2.375c10.057,1.723,23.225,1.691,31.534,7.399c4.152,2.852,8.533,6.213,12.527,9.351
		c9.339,7.336,16.746,17.637,24.987,26.137c8.385,8.649,17.151,20.61,17.985,32.915c0.854,12.605,1.632,26.427,0.5,39.097
		c-1.068,11.966-9.156,23.646-13.123,34.962c-4.006,11.423-5.256,23.792-7.377,35.625c-0.96,5.358-1.123,11.083-3.971,15.927
		c-3.439,5.853-10.816,7.353-14.539,12.5c-2.774,3.837-2.719,9.657-3.403,14.338c-0.799,5.47-1.221,10.913-2.196,16.148
		c-0.915,4.91-0.824,11.463-2.852,15.977c-2.27,5.056-7.453,7.228-9.452,12.51c-3.375,8.921-6.957,18.569-16.696,22.599
		c-18.766,7.766-44.938,7.262-63.879,0.889c-17.805-5.989-33.39-25.541-33.51-44.985"/>
</g>
<g id="svg-hour">
	<path fill="#67EF3A" d="M264.667,484.667c0.876,4.363,6.463,7.201,9.64,9.742c3.016,2.414,4.814,5.171,7.028,8.249
		c5.366,7.461,12.99,11.67,19.247,18.099c5.621,5.776,9.318,11.123,17.053,14.577c7.861,3.51,14.129,8.594,21.049,13.332
		c2.945,2.016,5.993,3.98,8.575,6.26c2.341,2.068,4.88,4.284,7.742,5.686c2.963,1.451,6.663,2.455,9.984,3.074
		c3.39,0.632,9.094,2.617,12.364,0.721c3.087-1.79,2.937-6.218,5.374-8.729c2.583-2.661,4.652-3.838,3.295-8.426
		c-1.813-6.125-10.854-9.343-15.766-12.492c-5.025-3.223-7.813-8.523-12.595-12.001c-5.331-3.877-11.571-7.338-17.324-10.758
		c-7.363-4.376-14.758-8.297-22.016-12.619c-5.638-3.357-10.129-8.726-15.585-12.166c-4.544-2.864-9.618-4.792-14.364-6.875
		c-4.713-2.068-8.938-4.926-14.042-5.681c-4.738-0.701-11.136,0.734-12.333,5.683c-1.691,6.991,6.422,2.946,5.675,8.991"/>
</g>
<g id="svg-min">
	<path fill="#67EF3A" d="M315.333,546c3-1.474,4.436-5.149,6.727-7.65c2.78-3.036,7.574-5.217,11.192-7.324
		c7.698-4.482,16.193-8.252,24.054-12.09c6.354-3.102,12.436-5.979,18.352-9.586c3.443-2.1,6.955-3.806,10.52-5.692
		c4.638-2.455,8.254-4.968,12.841-7.231c8.23-4.06,16.743-7.432,24.723-12.167c7.241-4.296,14.057-8.84,21.26-12.936
		c3.859-2.194,5.388-3.872,9.424-2.397c4.904,1.791,5.778,2.506,6.593,7.749c1.374,8.852-2.049,12.865-8.91,17.985
		c-7.658,5.715-16.37,9.674-24.211,14.692c-7.625,4.88-14.64,10.874-22.319,15.833c-6.215,4.013-11.386,9.292-17.409,13.499
		c-6.525,4.557-13.771,8.22-20.192,12.994c-6.168,4.584-11.095,9.218-17.701,12.749c-5.458,2.918-13.307,6.841-19.942,5.574
		c-4.42-0.844-9.882-8.84-11.266-13.267c-1.115-3.567-3.525-14.431-0.399-17.4"/>
</g>
<g id="svg-tip">
	<g>
		<circle fill="#67EF3A" cx="276.75" cy="485" r="10.25"/>
		<circle fill="#67EF3A" cx="451" cy="479.25" r="10.25"/>
	</g>
</g>
<g id="svg-lumi">
	<path fill="#67EF3A" d="M339.25,522.625c0,0-6.599-4.418-14.539-9.808c0.1-0.592,0.164-1.196,0.164-1.817
		c0-6.006-4.869-10.875-10.875-10.875c-2.03,0-3.923,0.566-5.55,1.535c-4.831-3.369-8.723-6.162-10.2-7.41
		c-5.25-4.438-8.375-2.438-10.188,0s0.75,5.313,0.75,5.313s6.567,4.68,14.384,10.222c-0.044,0.399-0.072,0.804-0.072,1.215
		c0,6.006,4.869,10.875,10.875,10.875c1.708,0,3.318-0.405,4.757-1.107c5.557,3.897,9.76,6.8,10.118,6.919
		c1.125,0.375,5.188,6.688,10.813,3.375S339.25,522.625,339.25,522.625z"/>
	<path fill="#67EF3A" d="M436.334,488.167c-3.166-5-11.167,1.333-11.167,1.333s-8.224,4.984-18.339,11.103
		c-1.651-1.018-3.59-1.615-5.673-1.615c-5.989,0-10.845,4.855-10.845,10.845c0,0.247,0.021,0.488,0.037,0.73
		c-9.658,5.829-18.092,10.901-20.181,12.104c-5.5,3.167-1.167,8-1.167,8c4.333,3.333,10-2,10-2s7.1-4.457,15.956-9.942
		c1.758,1.228,3.893,1.954,6.199,1.954c5.989,0,10.845-4.855,10.845-10.845c0-0.509-0.047-1.006-0.115-1.497
		c8.031-4.868,14.883-8.898,16.782-9.67C434,496.5,439.5,493.167,436.334,488.167z"/>
</g>
</svg>
