<svg version="1.1" xmlns="http://www.w3.org/2000/svg" xmlns:xlink="http://www.w3.org/1999/xlink" x="0px" y="0px"
	 width="722.91px" height="1103.86px" viewBox="0 0 722.91 1103.86" enable-background="new 0 0 722.91 1103.86"
	 xml:space="preserve">
<g id="Layer_1" display="none">
	
		<image display="inline" overflow="visible" width="441" height="657" xlink:href="watch1.png"  transform="matrix(1.5886 0 0 1.5886 11.167 30.0728)">
	</image>
</g>
<g id="face">
	<g id="Face">
		<ellipse fill="#FFFFFF" fill-opacity="0" cx="349.827" cy="542.158" rx="161.75" ry="162.899"/>
	</g>
</g>
<g id="skull">
	<g id="Skull">
		<path fill="#FFFFFF" fill-opacity="0" d="M264.574,561.423c0,0-0.134,0.488-0.309,1.338c-0.853,4.152-2.662,16.906,5.642,22.994
			c10,7.334,31.333,2.002,33.333,10.668s-1,27.666,0,28.666s-6.383-33.666-19.525-31.834c-13.142,1.834-11.142,41.834-1.475,55.168
			c9.667,13.332,43.334,51.666,108,31.332c0,0,34.668-15.332,33.668-52.666c0,0-2.334-26.334,3.666-30.666c6-4.334,24-13,25.666-30
			c1.668-17.001,5.334-64,1.668-73.667c-3.668-9.667-6.668-75-49.668-87.333s-109-11-143.667,33.333s-10.333,80.667-7,90.667
			c3.333,10,2.666,23.667,4.333,27.001C260.574,559.755,264.574,561.423,264.574,561.423z"/>
	</g>
</g>
<g id="lumi_1_">
	<g id="lumi" opacity="0">
		<path fill="#FFFFFF" d="M293.908,491.701l47,33.332c0,0,4.167,6.334-3,8.168c0,0-2,1.332-8.833-4.168l-39.667-27.666
			c0,0-4.333-3.5-1.667-7.166C290.407,490.533,292.733,490.867,293.908,491.701z"/>
		<path fill="#FFFFFF" d="M370.076,523.701c0,0-5.002,3.332-1.834,7.666c3.166,4.334,6.666,2.334,9.666,0
			c3-2.332,54.5-33.666,54.5-33.666s5.666-3.5,2.834-8.5c-2.834-5-8.166-1.168-9.166,0L370.076,523.701z"/>
	</g>
</g>
<g id="min">
	<g id="min_hand">
		<polygon fill="#FFFFFF" fill-opacity="0" points="318.615,549.313 331.115,567.315 445.45,495.481 436.021,478.503 		"/>
	</g>
</g>
<g id="hour">
	<g id="Hour_hands">
		<polygon fill="#FFFFFF" fill-opacity="0" points="382.032,546.021 369.7,563.689 278.035,495.191 289.834,482.128 		"/>
	</g>
</g>
<g id="tip">
	<g>
		<polygon fill="#FFFFFF" fill-opacity="0" points="267.185,476.861 286.518,475.361 291.018,482.529 277.018,498.029 
			260.018,486.695 		"/>
		<path fill="#FFFFFF" fill-opacity="0" d="M434.621,472.151l0.834,10l9.334,15.834l15.666-6.834v-17.5
			C460.455,473.651,441.955,467.485,434.621,472.151z"/>
	</g>
</g>
<g id="case">
	<path opacity="0" fill="#FFFFFF" d="M525.955,398.731l-52-118.301l-17.474-11v89c0,0-94.526-61-207.526-2l2-87l-21,11l-52,124
		c0,0-96,138.311,6,281.155l30,91.845l15,26l22,11v-85c0,0,114.053,56,205.526-4v89l20.474-14l12-23l37-98
		C525.955,679.43,613.955,568.033,525.955,398.731z M349.827,738.679c-108.662,0-196.75-88.087-196.75-196.749
		c0-108.662,88.088-196.749,196.75-196.749c108.662,0,196.749,88.087,196.749,196.749
		C546.576,650.592,458.489,738.679,349.827,738.679z"/>
</g>
<g id="bezel">
	<path opacity="0" fill="#FFFFFF" d="M351.04,345.647c-109.636,0-198.513,88.877-198.513,198.513s88.877,198.513,198.513,198.513
		c109.636,0,198.512-88.877,198.512-198.513S460.676,345.647,351.04,345.647z M350.577,707.958
		c-91.072,0-164.901-73.827-164.901-164.9c0-91.072,73.829-164.901,164.901-164.901c91.073,0,164.9,73.829,164.9,164.901
		C515.477,634.13,441.649,707.958,350.577,707.958z"/>
</g>
<g id="strap">
	<g>
		<path opacity="0" fill="#FFFFFF" d="M255.955,163.43c0,0-17.5-2.5-18-14v-30c0,0,1-27.5,32-29.5h178c0,0,28.5,5.5,28.5,26.5v35
			c0,0-0.5,14.5-29,17.5c0,0,6.553,12,9.026,189.5c0,0-97.526-60-206.026,0C250.455,358.43,244.955,200.93,255.955,163.43z"/>
		<path opacity="0" fill="#FFFFFF" d="M248.455,725.93c0,0,0.5,227,18,266c0,0,2.5,8,5.5,9c0,0,72.5,33.5,157.5,0v-7
			c0,0,25.553-88.166,27.026-268.5C456.481,725.43,354.954,790.097,248.455,725.93z"/>
	</g>
</g>
<g id="windor">
	<path opacity="0" fill="#FFFFFF" d="M562.608,510.309h5.014v-3.878h10.666l1.334,1.939h4.333c0,0,3.333-6.394,13,0
		c0,0,2.667,4.034,7.667,3.88v61.514c0,0-5.334,1.666-7.667,6.666c0,0-7,6.667-12,0l-5-0.333l0.333,3.296h-12l-1-6.963l-3.879-0.319
		C563.409,576.111,567.595,544.854,562.608,510.309z"/>
</g>
</svg>
