<?xml version="1.0" encoding="utf-8"?>
<!-- Generator: Adobe Illustrator 16.0.0, SVG Export Plug-In . SVG Version: 6.00 Build 0)  -->
<!DOCTYPE svg PUBLIC "-//W3C//DTD SVG 1.1//EN" "http://www.w3.org/Graphics/SVG/1.1/DTD/svg11.dtd" [
	<!ENTITY ns_flows "http://ns.adobe.com/Flows/1.0/">
	<!ENTITY ns_extend "http://ns.adobe.com/Extensibility/1.0/">
	<!ENTITY ns_ai "http://ns.adobe.com/AdobeIllustrator/10.0/">
	<!ENTITY ns_graphs "http://ns.adobe.com/Graphs/1.0/">
]>
<svg version="1.1" xmlns:x="&ns_extend;" xmlns:i="&ns_ai;" xmlns:graph="&ns_graphs;"
	 xmlns="http://www.w3.org/2000/svg" xmlns:xlink="http://www.w3.org/1999/xlink" xmlns:a="http://ns.adobe.com/AdobeSVGViewerExtensions/3.0/"
	 x="0px" y="0px" width="722.909px" height="1103.862px" viewBox="0 0 722.909 1103.862"
	 enable-background="new 0 0 722.909 1103.862" xml:space="preserve">
<metadata><?xpacket begin="﻿" id="W5M0MpCehiHzreSzNTczkc9d"?>
<x:xmpmeta xmlns:x="adobe:ns:meta/" x:xmptk="Adobe XMP Core 5.3-c011 66.145661, 2012/02/06-14:56:27        ">
   <rdf:RDF xmlns:rdf="http://www.w3.org/1999/02/22-rdf-syntax-ns#">
      <rdf:Description rdf:about=""
            xmlns:xmp="http://ns.adobe.com/xap/1.0/"
            xmlns:xmpGImg="http://ns.adobe.com/xap/1.0/g/img/">
         <xmp:CreatorTool>Adobe Illustrator CS6 (Windows)</xmp:CreatorTool>
         <xmp:CreateDate>2021-08-05T18:54:43+05:00</xmp:CreateDate>
         <xmp:MetadataDate>2021-08-05T18:54:44+05:00</xmp:MetadataDate>
         <xmp:ModifyDate>2021-08-05T18:54:44+05:00</xmp:ModifyDate>
         <xmp:Thumbnails>
            <rdf:Alt>
               <rdf:li rdf:parseType="Resource">
                  <xmpGImg:width>124</xmpGImg:width>
                  <xmpGImg:height>256</xmpGImg:height>
                  <xmpGImg:format>JPEG</xmpGImg:format>
                  <xmpGImg:image>/9j/4AAQSkZJRgABAgEASABIAAD/7QAsUGhvdG9zaG9wIDMuMAA4QklNA+0AAAAAABAASAAAAAEA&#xA;AQBIAAAAAQAB/+4ADkFkb2JlAGTAAAAAAf/bAIQABgQEBAUEBgUFBgkGBQYJCwgGBggLDAoKCwoK&#xA;DBAMDAwMDAwQDA4PEA8ODBMTFBQTExwbGxscHx8fHx8fHx8fHwEHBwcNDA0YEBAYGhURFRofHx8f&#xA;Hx8fHx8fHx8fHx8fHx8fHx8fHx8fHx8fHx8fHx8fHx8fHx8fHx8fHx8fHx8f/8AAEQgBAAB8AwER&#xA;AAIRAQMRAf/EAaIAAAAHAQEBAQEAAAAAAAAAAAQFAwIGAQAHCAkKCwEAAgIDAQEBAQEAAAAAAAAA&#xA;AQACAwQFBgcICQoLEAACAQMDAgQCBgcDBAIGAnMBAgMRBAAFIRIxQVEGE2EicYEUMpGhBxWxQiPB&#xA;UtHhMxZi8CRygvElQzRTkqKyY3PCNUQnk6OzNhdUZHTD0uIIJoMJChgZhJRFRqS0VtNVKBry4/PE&#xA;1OT0ZXWFlaW1xdXl9WZ2hpamtsbW5vY3R1dnd4eXp7fH1+f3OEhYaHiImKi4yNjo+Ck5SVlpeYmZ&#xA;qbnJ2en5KjpKWmp6ipqqusra6voRAAICAQIDBQUEBQYECAMDbQEAAhEDBCESMUEFURNhIgZxgZEy&#xA;obHwFMHR4SNCFVJicvEzJDRDghaSUyWiY7LCB3PSNeJEgxdUkwgJChgZJjZFGidkdFU38qOzwygp&#xA;0+PzhJSktMTU5PRldYWVpbXF1eX1RlZmdoaWprbG1ub2R1dnd4eXp7fH1+f3OEhYaHiImKi4yNjo&#xA;+DlJWWl5iZmpucnZ6fkqOkpaanqKmqq6ytrq+v/aAAwDAQACEQMRAD8A9U4q7FXYq8z1/wAxX93q&#xA;M4huZEtFYrEiMVUqu1duteu+cN2h2jkyZZcMiIXtTyWs1s55DUjw9Er+u3v/AC0Sf8G39cwPHn/O&#xA;PzcPxZ95+aizMzFmJZjuSdycrJJ3LAm3KzKaqSD4jbEEjkoNKyXt5H/dzyJ/quw/UcsjnmOUiPiz&#xA;GWY5E/NER6/rcf2b6f8A2UjN+snLo6/OOU5fNtjrMw/il80VH5v8xR9LssPBkRv1rXL49r6kfxfY&#xA;P1N0e0s4/i+5Ex+e9dT7Xoyf6yH/AI1K5fHt7UD+afg2x7XzDuPwTnRfPUVxL6OpItuzfYmSvp18&#xA;GqSR882ei7dEzw5QI+fRz9L2uJGsnp8+jLAQQCDUHcEZ0ILunYq7FXYq7FXYq0wqpFaVFKjtgIsI&#xA;Lxogg0PXPM3g2sVdirsVdirsVdirsVdir0zydffW9ChDGr29YW/2P2f+FIzuex8/iacd8dv1fY9b&#xA;2Zm48I747fj4J3m0dg7FXYq7FXYq41oaGh7HAVLxuZJI5XSQUkVirg9eQNDnms4kEg83hJAgkHms&#xA;yLF2KuxV2KuxV2KuxV2Ks4/LyK5WG7kYUtnZAhPd1ryp9BGdT7PQkIyP8Jr5vQ9ixlUj/Cy/Okd4&#xA;7FXYq7FXYq7FXnHnXTvqustKopFdD1R/rdH/AB3+nOJ7b0/h57HKe/63le1cHBlvpLf9bH81DrHY&#xA;q7FXYq7FXYq7FUw0TR59Vvlt4/hQfFNJ2VfH5+GZei0ctRk4Ry6nuDk6TTSzT4R8XqVpawWltHbw&#xA;LwijHFVzvsWKOOIjHYB7HHjEIiMeQVcsZuxV2KuxV2KuxViP5iRSG0s5AoMaO6s3cFgCB9PE5zvt&#xA;FE8ED0suk7bieGJ6WwbOUeddirsVdirsVdirsVel+TLFbbQ4ZOIEtxWRz3IJIX/hc7jsbAIacHrL&#xA;f9X2PWdl4hDCD1lunmbV2LsVdirsVdirsVdiqC1rTI9S06W0Y8SwrG3g67g5i63SjPiMD8Pe4+q0&#xA;4y4zF5MysrFWFGU0IPYjPPSKNF4simsCHYq7FXYq7FV0aNI6ooqzEKo9zthjEk0EgWaD0++1zQ9A&#xA;tIIL66SHhGqxxbs5CjiCEUFqbdc9C8THggIk1Qe0OSGKIiTyCro/mHR9ZRn0+5ExT+8ShV1r4qwB&#xA;+nLMOohk+ks8WaM/pKY5c2uxV2KuxV2KuxV2KvKvMkCw67eovT1C3/B/F/HPP+0oCOomB3/fu8br&#xA;ocOaQ80tzCcR2KuxV2KuxVWtLyKyuFvJAGFtWVVPRnQFkU/NgBmVoqGWJPTf5buRpSBkBPTf5MXv&#xA;b26vruW7upDLPMxaRz3J/gO2bSczI2ebnSkZGzzRWgaxPo+rW9/CT+7akqD9uM/bU/MZZgzHHMSD&#xA;PDlMJCQe+xSxyxJLGeUcihkYdwwqDnVA2LejBsWuwpdirsVdiqWa/wCYtO0K1juL4vxkf00WMBmJ&#xA;oT0JGwplGfURxC5NObNHGLKQ/wDK1fLH8lz/AMi1/wCa8xf5Txebj/yhj82LazqNvqOpTX1uGEM/&#xA;FkDijU4gbjfOQ7RyCeeUhyP6nm9bMTyyIQWYTiOxV2KuxV2KoXU/94Jf9j/xIZkaUesN2D6kgzaO&#xA;c7FXtv5e35vPKlnyNXt+Vu3/ADzPw/8ACcc6XQT4sQ8tnf6OfFjHkyPMxynYq7FXYq8g/M/WDe6+&#xA;LNGrDYLw9vUejOf1D6M5/tLLxZOHpF0mvy8U67mHZrnBZJaf7yw/6i/qzU6j6y6/N9RXSTQx/wB4&#xA;6r8zTK4wJ5BiIk8kO2qWS/t8vkDlo00z0ZjBJb+l7Pxb7sl+Umy/LyXpqdk23qUPuCMidNMdGJwy&#xA;HREJJG4qjBh4g1ykxI5tZBHNQ1If6BP7Bf8Aia5kaQev4N2nHqY/mzc12KvTvygvOVpqNmT/AHci&#xA;TKP9cFT/AMQGbrsqe0ou27NlsQ9CzbuzdirsVQmr6jFpul3N/L9m3jZ6eJ/ZX6WoMry5BCJkejDJ&#xA;PgiZdz5+uJ5bieSeVuUsrM8jHuzGpP35ycpEmy80TZsqeBCaQLqVxEiBvQhUABuhIHfxzCySxxJP&#xA;MuNMwib5lExaVapu9ZG7lj/AZRLVSPLZqlnkeWyJSCFPsxqvyAGUmcjzLWZE9V9BSnbIsVN7e3f7&#xA;can5gZMZJDkWQmR1Q0mlQ15Qs0L9iCaZdHVS5S3DaM567oS8bUYoGhl+OJqfvBv0NdzmRhOMm47H&#xA;ubsXATY5pdmW3uxVl35X3xt/M6wE0W7ieOnuo9Qf8QzYdmzrLXeHN0E6yV3vYs6F3jsVdirz782d&#xA;aCWtvpETfHMfWuAOyLsgPzbf6M1PamagIB1naOXYReYgEkACpOwAzSEupTix0tYwJJwGk6hew/tz&#xA;XZ9STtHk4eXNewTDMRx1nqE/YHL/ACug+/JcPeyrvb4yHqwHyG/3muNhFhrg3+/G/wCF/pjY7k35&#xA;N0kHcN7EU/H+zHZGzudNmHH37ffg4e5aXEAih3B6jAhKr/S6Ay2426tH/TM/BqeknLxZ+hSvM1yU&#xA;08rXX1XzHps1aBbiMMf8lmCt+By/TS4ckT5t2nlWQHze+Z1T0bsVU7q4S2tpriT+7hRpH+SCp/Vk&#xA;ZSoE9yJGhb5+1bU7nVNRnv7g1lnYsR2UdFUeyjYZymXIZyMj1ebyZDORkeqM0qyCqLiQfE392D2H&#xA;jmr1Wa/SHAz5OgTFmCipzEAtxwFoQtvJ9Cdh8/E4brkm65L8ixdirsVdirsVWUKbruvdfD5f0yXN&#xA;lzXgggEbg9MixSfVbIRt68Y+Bj8Y8Ce/05sNLmv0lzMGS9igYpGilSRPtIwZfmDUZmg0bckGn0XF&#xA;IskaSLurqGU+xFc68Gxb04NrsKWOfmFf/U/Kl5Q0e44wJ78z8Q/4ANmHr58OI+ezi6yfDjPm8asb&#xA;f17lUP2R8T/IZyubJwxt53LPhjbIemwzUOuU0+NvUP2R9gfx+nJHbZkdtlTIsXYq7FXYq7FXYq7F&#xA;Vn2G/wAlj9x/tyXMMubciLIjIwqrChGCMiDYQDRtjk8TRSvG3VTTNzCXEAXZRlYt775ekaTQNNkb&#xA;7T2sDN8zGpzrsBvHE+Qemwm4R9wR+Wtjzn83r+ken2CnqXnkX5fAn62zT9qz+mPxdX2lPlFhmixU&#xA;ieU9WPEfIZy2sluA8/qZb0j5ieIUdXPEfT1/DMWHO+5oivAAFBsB0yLF2KuxV2KuxV2KuxV2KtMv&#xA;JSOle+EGkgtIxZAT17j3GxxkKKkJXq9s7To8ali6kEKK/Z+XzzO0uQCJBcrBMVRew+XtW0qLQNMi&#xA;lvII5Y7SBXRpUDKwjUEEE1BBzr8GswjHEGceQ/iD02HVYhCIMo8h1CYfpnR+PL69b8a0r6qUr9+X&#xA;fncP8+P+mDb+axfzo/MPIvzHv/rfmu5UGqWqpAp/1Ryb/hmOaTtCfFlPls6jWz4sh8lDTV42UfuC&#xA;fvJznNQbmXS5j6iqtvOg7BWb6dgP1nID6SwHJUyDF2KuxV2KuxV2KuxV2KuxVZH1kHYNt9IB/Wcl&#xA;LoyPRcwHJT3FfxGAFAbwIV/+PL/np/xrlv8AB8Wz+D4sX1C5kur64upQRJPK8jg9QWYkj8c3WSRl&#xA;Ik9XZTlZJTnTzWzi/wBXNLn+suty/UVQ/wC9C+6H8CP65H+H4seipkGLsVdirsVdirsVdirsVdiq&#xA;yP8AvJT/AJQH/CjJS5BkeQX16ZEIdihX/wCPL/np/wAa5b/B8Wz+D4pR5wsPqPmbULcCi+qZEHbj&#xA;L+8AHyDUzf6uHDlkPN2+phw5CFTSZOVmF7oSP4/xzSaqNT97qs4qSIl+F437A8T8m2/XTKY7ghrj&#xA;yIVMgxdirsVdirsVdirsVdirsVWQ7pz/AJyW+g9PwyU+ddzKXNpn/wBJiiG7PWg7k7AAffkowJBp&#xA;MYkjZF/Ur3/lnk/4Bv6YfAn/ADT8k+FPuPyVvqV59Tp6ElfU6cG/l+WWeDPg+k8+5n4U+Dkeaafm&#xA;zolVttZiXcf6Pc08NzGx/EfdnWdqYeUx7i9F2ji5TDBtGn4zNEekgqPmM5vVwuN9zotRGxabSIHQ&#xA;qehFK5r4mjbiA0WonLL8Wzrs49xhkKPkmQpfkWLsVdirsVdirsVdiqnMSQIx9p9j7L3OTh39zKPe&#xA;qAUFB0yDFL7OVp/NFgqb8bqFE+fqD+Obrs+FGPmQ7PRwox94e752b1TsVQesabDqel3NhL9i4QrX&#xA;wbqrf7FgDleXGJxMT1YZYCcTE9XgM0M9ndvDIOE9u5Rx4MhofxGcnOFXEvNTjVgp9a3C3EKyL32Y&#xA;eB7jNLkxmEqdbOHCabkVg3qxirDZl/mH9R2xiRVFAPQr0dXUMpqDkSCEEU3gQ7FXYq7FXYqtkkCC&#xA;p3J2VR1JwxjaQLajQirP9tuvgB4DDI9BySSoahdi3gND+8fZB/H6MtwYuOXkzxQ4j5NeRbQ3XmvT&#xA;k7Ryesx8PSBf9a5v9FDiyxdxpI3kD3LOnegdirsVeTfmnon1XV49SiWkN8tJKdBKgof+CWn45oe0&#xA;8PDPiHKX3um7QxVLi72I2V41tLXrG321zTZsQmPN1eTHxBPo5UlQOh5KehzVSiYmi4BBBorXiPIv&#xA;GeDnr3B+YyQl0PJIl0LXr8dpVKf5XVfv/rjwXy3Tw3yVFZWFVII8RvkSCGJDeBDTuiCrsFHiTTCI&#xA;k8kgEqfqs+0S1/y22X+pyXCBzZcNc1yRBTyY8nPVj+oeAwGV7dEErbi4jgjLufkO5PgMOPGZmgsI&#xA;GRoJBc3Ek8pkfv0HYDwzbY8YiKDsIQERQeg/lJpDGS71Z1+ED6vAfEmjOfo+HN32Vi3M/g7bs7Hz&#xA;l8HpWbl2rsVdiqS+cNEGsaBc2qrWdR6tt4+om4A/1hVfpzG1eHxMZHXo0anFxwI6vCSCDQ9c5d51&#xA;Xtbya3aqGqn7SnocqyYhMbsJ4xLmnNtqFvOAAeEn8jfw8c12TBKPucOeIxROUtSm1vAxqY1r4gUP&#xA;3jJjJIdWQme9r6tD4H/gm/rj4hTxlckEKGqooPjTf78BmTzKDIlfkWKDutUgiBVD6kngOg+ZzJx6&#xA;aUuewboYCeeyTT3Es785DU9h2HyzYQgIig5kYiIoKmn2F1qF7DZ2qc552Cov8T7DqcuxwM5CI5lt&#xA;hAyNDm970TSoNJ0u30+HdYFozUpyY7s30nfOpw4hjiIjo9FixiEREI3LWx2KuxV2KvI/zJ8r/o3U&#xA;P0lbJSyvWPNR0SbqR8m6j6c5/tHTcEuIfSfvdLrsHDLiHIsLzXOAnr2FvcwoxHCQqPiX5d/HNZHP&#xA;KBI6OCMpiVEW2qwbQyCVOwJHT/Zf1y3jxT5ii2cWOXPZwv8AUV+3alqbEqGA/jg/LQPKS+DE8i3+&#xA;lLgkgWj8h2qf+acH5UfzkeAO9v61qcn93bhPdv7aYPCxDnK0cEBzLvqF3N/vVOePdE6fwx8eEfpC&#xA;+LGP0hdc2sFvYy+mgBpQsdz18cGPLKcxZRCZlIWkmbJzXrf5Y+XY7LSRqkyf6XeisZPVYa/CB/rf&#xA;a+7N/wBm6fhhxHmfud1oMPDHiPMs1zZOe7FXYq7FXYqhNW0u11TTp7C5FYp1417qeqsPdTvleXGJ&#xA;xMT1YZMYnEgvBtW0u60vUZ7C5FJYG417MOqsPZhvnLZcZhIxPR53JjMJEFObU1toj4ov6s0WT6j7&#xA;3Uz+oqmQYuxV2KuxV2KobUlJsJiP2QpP/BgfxzI0o9YbsA9SV6Rp8mo6na2MezXEipXwBPxN9A3z&#xA;cYsfHIR73ZY4cUgO99AwwxwwpDEvGONQiKOgVRQDOsAAFB6QChS/Cl2KuxV2KuxV2KpdrPl7SNYh&#xA;9O/t1kIFElG0i/6rjf8AhlObBDIKkGrLhjMeoPMdQs4bG9ms4SWitmMSM25IT4amnfbOB1kBHNKI&#xA;6SLx2pgI5JAdCh8xmh2KuxV2KuxVOvKVlaXurrb3cSzQNGxaJxVTTcVB982vY0BLOARYoux7LgJZ&#xA;qPcWeWnl3QrO4W4tbCCGdK8JURQwqKGh+Rzso6fHE2IgF6eOGETYAtMcubXYq7FXYq7FXYq7FWpH&#xA;WNGdjRUBZj7DfBKQAsoJoWXjtxM088kzfaldnb5sa55tkmZSMj1NvCzlxSJ71PIMXYq7FXYq7FU8&#xA;8mScPMVsOziRT/wBP8M2nYsq1MfO/udh2XKs8fj9z0vO5etdirsVdirsVdirsVdiqWeZbn6voV7J&#xA;WhMZjHzkPD/jbMHtPJwaeZ8q+ezia+fDhkfL79nlecA8a7FXYq7FXYq7FUy8tyenrti3jKq/8F8P&#xA;8czezZVqIf1nL0MqzR971XPQHsnYq7FXYq7FXYq7FXYqxjz/AHPDSoYAd5pQT/qoCT+JGaH2gyVh&#xA;Ef50vudR2zOsYHeXn+cg8y7FXYq7FXYq7FUVpknp6laSfyTRt9zg5fpZVlie6Q+9u05rJE+Y+967&#xA;noz27sVdirsVdirsVdirsVYJ+YVxyv7W37RRF/pdqf8AGmcl7Q5LyRj3D7/7HnO2p3OMe4ff/YxP&#xA;OfdK7FXYq7FXYq7FVyMUdWHVSCPowg0bSDRt7KCCARuDuDnpgL3jsVdirsVdirsVdirsVeaedGc+&#xA;YrgN0VYwvy4A/rOcP20T+Zl8PueT7VJ8c/D7kjzVOudirsVdirsVdirsVew2L+pZW79ecaNX5qDn&#xA;pGCV44nyD3OI3AHyCtlrY7FXYq7FXYq7FXYqwH8wLYpqkE4HwzRU/wBkhNfwIzkPaDHWUS74/c81&#xA;2zCsgl3j7mLZoXTuxV2KuxV2KuxV2KvWtEfno1i1ak28VT78BXPQ9EbwQP8ARH3Pa6Q3ij/VH3I3&#xA;MpyHYq7FXYq7FXYq7FWP+c9HuNQ0+N7ZPUnt2LBB1KMPiA99hmn7Z0cs2MGIuUT9jrO1NNLLAGIs&#xA;xedOjoxR1KspoykUIPuM4sgg0XliCNitwIdirsVdirsVdir1fy//AMcOx/4wp+rPQez/AO4h/VD2&#xA;ei/uY/1QmGZjlOxV2KuxV2KuxV2KuxVLdW8vaZqak3EfGanwzps4+nv9OYOr7PxZx6h6u8c3E1Oi&#xA;x5vqG/f1YXqvkrVbMl7cfW4B3QUcfNP6VzmdV2Jmx7x9cfLn8v1Oh1HZWSG8fUPt+SQNHIrmNlKu&#xA;DQoQQa/LNOYkGiN3WGJBrqiIdK1Oano2k0gPdY2I++mXQ0uWX0xkfgW2OnyS5RJ+CPg8oeYZaH6q&#xA;UHi7Kv4Vr+GZcOx9TL+GveQ5MOzM8v4UYnkHW26vAnzdv4KcyR2BnPWPzP6m8djZu+P4+CKtvy8u&#xA;iw+tXaKv7QiBY/QW45kYvZ6d+uQ+H4Ddj7Fl/FIfBmdrbRW1tFbxVEcKhEruaKKb502LGIRERyAp&#xA;32OAhERHIKuWM3Yq7FXYq//Z</xmpGImg:image>
               </rdf:li>
            </rdf:Alt>
         </xmp:Thumbnails>
      </rdf:Description>
      <rdf:Description rdf:about=""
            xmlns:xmpTPg="http://ns.adobe.com/xap/1.0/t/pg/"
            xmlns:stDim="http://ns.adobe.com/xap/1.0/sType/Dimensions#"
            xmlns:xmpG="http://ns.adobe.com/xap/1.0/g/">
         <xmpTPg:MaxPageSize rdf:parseType="Resource">
            <stDim:w>722.909180</stDim:w>
            <stDim:h>1103.862305</stDim:h>
            <stDim:unit>Pixels</stDim:unit>
         </xmpTPg:MaxPageSize>
         <xmpTPg:NPages>1</xmpTPg:NPages>
         <xmpTPg:HasVisibleTransparency>False</xmpTPg:HasVisibleTransparency>
         <xmpTPg:HasVisibleOverprint>False</xmpTPg:HasVisibleOverprint>
         <xmpTPg:PlateNames>
            <rdf:Seq>
               <rdf:li>Cyan</rdf:li>
               <rdf:li>Yellow</rdf:li>
            </rdf:Seq>
         </xmpTPg:PlateNames>
         <xmpTPg:SwatchGroups>
            <rdf:Seq>
               <rdf:li rdf:parseType="Resource">
                  <xmpG:groupName>Default Swatch Group</xmpG:groupName>
                  <xmpG:groupType>0</xmpG:groupType>
               </rdf:li>
            </rdf:Seq>
         </xmpTPg:SwatchGroups>
      </rdf:Description>
      <rdf:Description rdf:about=""
            xmlns:dc="http://purl.org/dc/elements/1.1/">
         <dc:format>image/svg+xml</dc:format>
      </rdf:Description>
      <rdf:Description rdf:about=""
            xmlns:xmpMM="http://ns.adobe.com/xap/1.0/mm/"
            xmlns:stRef="http://ns.adobe.com/xap/1.0/sType/ResourceRef#"
            xmlns:stEvt="http://ns.adobe.com/xap/1.0/sType/ResourceEvent#">
         <xmpMM:DerivedFrom rdf:parseType="Resource">
            <stRef:instanceID>xmp.iid:DAE7F04CC1F5EB1199B1AF4FA3EF126E</stRef:instanceID>
            <stRef:documentID>xmp.did:DAE7F04CC1F5EB1199B1AF4FA3EF126E</stRef:documentID>
            <stRef:originalDocumentID>xmp.did:DAE7F04CC1F5EB1199B1AF4FA3EF126E</stRef:originalDocumentID>
            <stRef:renditionClass>proof:pdf</stRef:renditionClass>
         </xmpMM:DerivedFrom>
         <xmpMM:DocumentID>xmp.did:DBE7F04CC1F5EB1199B1AF4FA3EF126E</xmpMM:DocumentID>
         <xmpMM:InstanceID>xmp.iid:DBE7F04CC1F5EB1199B1AF4FA3EF126E</xmpMM:InstanceID>
         <xmpMM:OriginalDocumentID>xmp.did:DAE7F04CC1F5EB1199B1AF4FA3EF126E</xmpMM:OriginalDocumentID>
         <xmpMM:History>
            <rdf:Seq>
               <rdf:li rdf:parseType="Resource">
                  <stEvt:action>saved</stEvt:action>
                  <stEvt:instanceID>xmp.iid:DAE7F04CC1F5EB1199B1AF4FA3EF126E</stEvt:instanceID>
                  <stEvt:when>2021-08-05T18:54:20+05:00</stEvt:when>
                  <stEvt:softwareAgent>Adobe Illustrator CS6 (Windows)</stEvt:softwareAgent>
                  <stEvt:changed>/</stEvt:changed>
               </rdf:li>
               <rdf:li rdf:parseType="Resource">
                  <stEvt:action>saved</stEvt:action>
                  <stEvt:instanceID>xmp.iid:DBE7F04CC1F5EB1199B1AF4FA3EF126E</stEvt:instanceID>
                  <stEvt:when>2021-08-05T18:54:44+05:00</stEvt:when>
                  <stEvt:softwareAgent>Adobe Illustrator CS6 (Windows)</stEvt:softwareAgent>
                  <stEvt:changed>/</stEvt:changed>
               </rdf:li>
            </rdf:Seq>
         </xmpMM:History>
         <xmpMM:RenditionClass>proof:pdf</xmpMM:RenditionClass>
      </rdf:Description>
   </rdf:RDF>
</x:xmpmeta>
                                                                                                    
                                                                                                    
                                                                                                    
                                                                                                    
                                                                                                    
                                                                                                    
                                                                                                    
                                                                                                    
                                                                                                    
                                                                                                    
                                                                                                    
                                                                                                    
                                                                                                    
                                                                                                    
                                                                                                    
                                                                                                    
                                                                                                    
                                                                                                    
                                                                                                    
                                                                                                    
                           
<?xpacket end="w"?>
	</metadata>
<g id="svg-case">
	<path fill="#61BB47" d="M197,294h49v56.5c0,0,91-56.5,213-4V303c0,0-7-58,36-71s51,86,59,114s17,112,17,112v46c0,0-22,4-10,80
		s-28,138-40,149s-29,67-29,67h-30.75c0,0-0.917-59.334-4.25-66c0,0-94.667,62.001-212,1.334v54L243,808l-24.667-12.666l-42-65.334
		l-57.334-131.334l-10-41.334l32.667-135.999l15.333-26L197,294z"/>
</g>
<g id="svg-bezel">
	<path fill="#67EF3A" d="M352,338.333c-112.574,0-203.833,91.259-203.833,203.833S239.426,746,352,746
		s203.833-91.259,203.833-203.833S464.574,338.333,352,338.333z M352,705.166c-90.022,0-163-72.977-163-162.999s72.978-163,163-163
		s163,72.978,163,163S442.022,705.166,352,705.166z"/>
</g>
<g id="svg-strap">
	<g>
		<path fill="#67EF3A" d="M242.333,729.999l3.333,92.667c0,0-30,143.997-30,154.664s10.667,63.334,15,68.667s73.667,44,89,44
			s83.333-11.333,93.333-12s52.001,0.666,59.334-12.667s-14.667-241.333-14.667-241.333l4.666-93.998
			C462.333,729.999,342.334,800.668,242.333,729.999z"/>
		<path fill="#67EF3A" d="M245.667,350.664c0,0,97.333-54.667,212,0l2.667-90L479,181c0,0,40-49,40-55s-15-50-15-50s-22-19-25-19
			S352,45,343,45s-55-4-65,0s-58-5-63,11s-8,16-8,29s3,27,0,35s19,55,19,62s-4,4.887,0,14.943S231,217,236,221s12,41,12,41
			L245.667,350.664z"/>
	</g>
</g>
<g id="svg-winder">
	<rect x="556.667" y="497.5" fill="#67EF3A" width="57.666" height="99.5"/>
</g>
<g id="svg-face">
	<circle fill="#67EF3A" cx="352.333" cy="541.167" r="158.833"/>
</g>
<g id="svg-skull">
	<path fill="#67EF3A" d="M289.5,653c-7.612-18.591-3.698-44.682-20.663-57.889c-18.75-14.597-14.26-40.655-15.337-61.737
		c-0.681-13.336-1.5-26.526-1.5-40.29c0-6.417-1.381-25.686,4.611-29.361c1.046-4.546,0.8-9.185,1.386-13.792
		c0.994,1.396,1.708,2.94,2.116,4.587c0.62-4.024,0.646-8.094,1.377-12.104c12.34,5.068,9.938-7.544,11.462-16.018
		c2.819,0.042,5.2-0.718,7.545-2.259c5.866-3.853,4.128-9.885,6.002-16.424c13.934-0.444,27.683-7.489,41.502-9.225
		c13.804-1.733,28.921-4.78,42.962-2.375c10.057,1.723,23.225,1.691,31.534,7.399c4.152,2.852,8.533,6.213,12.527,9.351
		c9.339,7.336,16.746,17.637,24.987,26.137c8.385,8.649,17.151,20.61,17.985,32.915c0.854,12.605,1.632,26.427,0.5,39.097
		c-1.068,11.966-9.156,23.646-13.123,34.962c-4.006,11.423-5.256,23.792-7.377,35.625c-0.96,5.358-1.123,11.083-3.971,15.927
		c-3.439,5.853-10.816,7.353-14.539,12.5c-2.774,3.837-2.719,9.657-3.403,14.338c-0.799,5.47-1.221,10.913-2.196,16.148
		c-0.915,4.91-0.824,11.463-2.852,15.977c-2.27,5.056-7.453,7.228-9.452,12.51c-3.375,8.921-6.957,18.569-16.696,22.599
		c-18.766,7.766-44.938,7.262-63.879,0.889c-17.805-5.989-33.39-25.541-33.51-44.985"/>
</g>
<g id="svg-hour">
	<path fill="#67EF3A" d="M264.667,484.667c0.876,4.363,6.463,7.201,9.64,9.742c3.016,2.414,4.814,5.171,7.028,8.249
		c5.366,7.461,12.99,11.67,19.247,18.099c5.621,5.776,9.318,11.123,17.053,14.577c7.861,3.51,14.129,8.594,21.049,13.332
		c2.945,2.016,5.993,3.98,8.575,6.26c2.341,2.068,4.88,4.284,7.742,5.686c2.963,1.451,6.663,2.455,9.984,3.074
		c3.39,0.632,9.094,2.617,12.364,0.721c3.087-1.79,2.937-6.218,5.374-8.729c2.583-2.661,4.652-3.838,3.295-8.426
		c-1.813-6.125-10.854-9.343-15.766-12.492c-5.025-3.223-7.813-8.523-12.595-12.001c-5.331-3.877-11.571-7.338-17.324-10.758
		c-7.363-4.376-14.758-8.297-22.016-12.619c-5.638-3.357-10.129-8.726-15.585-12.166c-4.544-2.864-9.618-4.792-14.364-6.875
		c-4.713-2.068-8.938-4.926-14.042-5.681c-4.738-0.701-11.136,0.734-12.333,5.683c-1.691,6.991,6.422,2.946,5.675,8.991"/>
</g>
<g id="svg-min">
	<path fill="#67EF3A" d="M315.333,546c3-1.474,4.436-5.149,6.727-7.65c2.78-3.036,7.574-5.217,11.192-7.324
		c7.698-4.482,16.193-8.252,24.054-12.09c6.354-3.102,12.436-5.979,18.352-9.586c3.443-2.1,6.955-3.806,10.52-5.692
		c4.638-2.455,8.254-4.968,12.841-7.231c8.23-4.06,16.743-7.432,24.723-12.167c7.241-4.296,14.057-8.84,21.26-12.936
		c3.859-2.194,5.388-3.872,9.424-2.397c4.904,1.791,5.778,2.506,6.593,7.749c1.374,8.852-2.049,12.865-8.91,17.985
		c-7.658,5.715-16.37,9.674-24.211,14.692c-7.625,4.88-14.64,10.874-22.319,15.833c-6.215,4.013-11.386,9.292-17.409,13.499
		c-6.525,4.557-13.771,8.22-20.192,12.994c-6.168,4.584-11.095,9.218-17.701,12.749c-5.458,2.918-13.307,6.841-19.942,5.574
		c-4.42-0.844-9.882-8.84-11.266-13.267c-1.115-3.567-3.525-14.431-0.399-17.4"/>
</g>
<g id="svg-tip">
	<g>
		<circle fill="#67EF3A" cx="276.75" cy="485" r="10.25"/>
		<circle fill="#67EF3A" cx="451" cy="479.25" r="10.25"/>
	</g>
</g>
<g id="svg-lumi">
	<path fill="#67EF3A" d="M339.25,522.625c0,0-6.599-4.418-14.539-9.808c0.1-0.592,0.164-1.196,0.164-1.817
		c0-6.006-4.869-10.875-10.875-10.875c-2.03,0-3.923,0.566-5.55,1.535c-4.831-3.369-8.723-6.162-10.2-7.41
		c-5.25-4.438-8.375-2.438-10.188,0s0.75,5.313,0.75,5.313s6.567,4.68,14.384,10.222c-0.044,0.399-0.072,0.804-0.072,1.215
		c0,6.006,4.869,10.875,10.875,10.875c1.708,0,3.318-0.405,4.757-1.107c5.557,3.897,9.76,6.8,10.118,6.919
		c1.125,0.375,5.188,6.688,10.813,3.375S339.25,522.625,339.25,522.625z"/>
	<path fill="#67EF3A" d="M436.334,488.167c-3.166-5-11.167,1.333-11.167,1.333s-8.224,4.984-18.339,11.103
		c-1.651-1.018-3.59-1.615-5.673-1.615c-5.989,0-10.845,4.855-10.845,10.845c0,0.247,0.021,0.488,0.037,0.73
		c-9.658,5.829-18.092,10.901-20.181,12.104c-5.5,3.167-1.167,8-1.167,8c4.333,3.333,10-2,10-2s7.1-4.457,15.956-9.942
		c1.758,1.228,3.893,1.954,6.199,1.954c5.989,0,10.845-4.855,10.845-10.845c0-0.509-0.047-1.006-0.115-1.497
		c8.031-4.868,14.883-8.898,16.782-9.67C434,496.5,439.5,493.167,436.334,488.167z"/>
</g>
</svg>
