<svg version="1.1" xmlns="http://www.w3.org/2000/svg" xmlns:xlink="http://www.w3.org/1999/xlink" x="0px" y="0px"
	 width="722.91px" height="1103.86px" viewBox="0 0 722.91 1103.86" enable-background="new 0 0 722.91 1103.86"
	 xml:space="preserve">
<g id="Layer_1" display="none">
	
		<!-- <image display="inline" overflow="visible" width="441" height="600" xlink:href="watch7.png"  transform="matrix(2.4863 0 0 2.4863 -187.2773 -193.9639)">
	</image> -->
</g>
<g id="skull">
	<g id="Skull">
		<path fill="#FFFFFF" fill-opacity="0" d="M219.329,571.714c0,0-0.191,0.715-0.441,1.966c-1.217,6.096-3.795,24.826,8.044,33.764
			c14.259,10.77,44.675,2.941,47.526,15.666c2.851,12.724-1.426,40.625,0,42.094c1.426,1.468-9.101-49.436-27.838-46.747
			c-18.738,2.693-15.886,61.429-2.104,81.011c13.783,19.576,61.784,75.864,153.986,46.008c0,0,49.429-22.516,48.004-77.335
			c0,0-3.328-38.67,5.226-45.03c8.555-6.363,34.219-19.09,36.595-44.054c2.38-24.963,7.605-93.978,2.38-108.173
			c-5.23-14.195-9.509-110.13-70.815-128.24c-61.308-18.109-155.412-16.151-204.84,48.947
			c-49.428,65.098-14.732,118.451-9.98,133.134c4.752,14.683,3.801,34.752,6.178,39.649
			C213.625,569.265,219.329,571.714,219.329,571.714z"/>
	</g>
</g>
<g id="tip">
	<g>
		<polygon fill="#FFFFFF" fill-opacity="0" points="224.411,442.392 244.084,440.904 248.664,448.017 234.417,463.396 
			217.117,452.15 		"/>
		<path fill="#FFFFFF" fill-opacity="0" d="M480.499,429.659l1.021,11.09l11.426,17.559l19.177-7.579v-19.407
			C512.122,431.322,489.477,424.484,480.499,429.659z"/>
	</g>
</g>
<g id="hour">
	<g id="Hour_hands">
		<polygon fill="#FFFFFF" fill-opacity="0" points="394.008,544.099 375.154,570.647 235.01,467.716 253.049,448.087 		"/>
	</g>
</g>
<g id="min">
	<g id="min_hand">
		<polygon fill="#FFFFFF" fill-opacity="0" points="299.034,541.154 318.267,567.939 494.198,461.057 479.689,435.795 		"/>
	</g>
</g>
<g id="lumi">
	<g>
		<path opacity="0" fill="#FFFFFF" d="M258.752,459.116l67.405,49.636c0,0,5.978,9.432-4.302,12.163c0,0-2.868,1.983-12.668-6.208
			l-56.889-41.198c0,0-6.214-5.212-2.391-10.671C253.731,457.377,257.067,457.874,258.752,459.116z"/>
		<path opacity="0" fill="#FFFFFF" d="M377.363,505.875c0,0-7.174,4.961-2.631,11.416c4.54,6.454,9.561,3.475,13.862,0
			c4.303-3.473,78.162-50.133,78.162-50.133s8.126-5.212,4.064-12.657c-4.064-7.446-11.713-1.739-13.146,0L377.363,505.875z"/>
	</g>
</g>
<g id="face">
	<g id="Face_1_">
		<ellipse fill="#FFFFFF" fill-opacity="0" cx="346.791" cy="536.93" rx="255.254" ry="255.334"/>
	</g>
</g>
<g id="bezel">
	<path opacity="0" fill="#FFFFFF" d="M346.79,255.595c-160.9,0-291.335,130.883-291.335,292.335S185.89,840.265,346.79,840.265
		c160.899,0,291.335-130.883,291.335-292.335S507.689,255.595,346.79,255.595z M346.791,791.748
		c-140.25,0-253.944-114.086-253.944-254.817s113.695-254.816,253.944-254.816c140.249,0,253.944,114.085,253.944,254.816
		S487.039,791.748,346.791,791.748z"/>
</g>
<g id="windor">
	<path opacity="0" fill="#FFFFFF" d="M635.608,509.367V483.43l29.347,2.502v10.466h5V597.93h-5l0.5,13.5h-27.33l-2.517-24.907
		C635.608,586.523,640.834,538.021,635.608,509.367z"/>
</g>
<g id="case">
	<g>
		<path opacity="0" fill="#FFFFFF" d="M200.797,294.029V233.93c0,0-45.281-16.433-51.312,97.534
			C149.485,331.464,180.99,304.411,200.797,294.029z"/>
		<path opacity="0" fill="#FFFFFF" d="M492.485,294.029V233.93c0,0,45.281-16.433,51.312,97.534
			C543.797,331.464,512.292,304.411,492.485,294.029z"/>
		<path opacity="0" fill="#FFFFFF" d="M200.797,800.542v60.099c0,0-45.281,16.433-51.312-97.533
			C149.485,763.108,180.99,790.161,200.797,800.542z"/>
		<path opacity="0" fill="#FFFFFF" d="M492.485,800.542v60.099c0,0,45.281,16.433,51.312-97.533
			C543.797,763.108,512.292,790.161,492.485,800.542z"/>
	</g>
</g>
<g id="strap">
	<g>
		<path fill="none" d="M201.797,808.43v55c0,0,10.658,106.5,15.158,123.5c0,0,4,25.5,22.5,16c0,0,21.5,3,41,15.5s0,2,0,2
			s105,32.5,147.5-12c0,0,12-2,18.5-1c0,0,18,5.5,25-18.5l21.03-128.289V810.43c0,0-11.022-3.182-13.354-2
			c0,0-137.716,72.475-265.196-0.263L201.797,808.43z"/>
		<path fill="none" d="M202.797,288.62v-55c0,0,10.658-106.5,15.158-123.5c0,0,4-25.5,22.5-16c0,0,21.5-3,41-15.5s0-2,0-2
			s105-32.5,147.5,12c0,0,12,2,18.5,1c0,0,18-5.5,25,18.5l21.03,128.289v50.211c0,0-11.022,3.182-13.354,2
			c0,0-137.716-72.475-265.196,0.263L202.797,288.62z"/>
	</g>
</g>
</svg>
