
<svg version="1.1" xmlns="http://www.w3.org/2000/svg" xmlns:xlink="http://www.w3.org/1999/xlink" x="0px" y="0px"
	 width="722.91px" height="1103.86px" viewBox="0 0 722.91 1103.86" enable-background="new 0 0 722.91 1103.86"
	 xml:space="preserve">
<g id="Layer_1" display="none">
	
		<!-- <image display="inline" overflow="visible" width="441" height="600" xlink:href="watch3.png"  transform="matrix(1.5805 0 0 1.5805 12.4551 77.7808)">
	</image> -->
</g>
<g id="skull">
	<g id="Skull">
		<path fill="#FFFFFF" fill-opacity="0" d="M271.466,562.992c0,0-0.124,0.452-0.286,1.238c-0.79,3.844-2.464,15.649,5.223,21.283
			c9.256,6.79,29.003,1.854,30.854,9.876c1.851,8.021-0.926,25.608,0,26.533c0.925,0.926-5.909-31.162-18.073-29.467
			c-12.165,1.698-10.314,38.724-1.365,51.065c8.948,12.342,40.111,47.824,99.968,29.002c0,0,32.09-14.191,31.164-48.748
			c0,0-2.16-24.377,3.394-28.386c5.554-4.012,22.216-12.033,23.757-27.77c1.545-15.737,4.938-59.241,1.545-68.189
			c-3.396-8.948-6.172-69.422-45.975-80.838c-39.802-11.416-100.894-10.182-132.982,30.854s-9.564,74.668-6.479,83.923
			c3.085,9.257,2.468,21.907,4.011,24.993C267.764,561.448,271.466,562.992,271.466,562.992z"/>
	</g>
</g>
<g id="tip">
	<g>
		<polygon fill="#FFFFFF" fill-opacity="0" points="267.904,477.307 287.237,475.807 291.737,482.975 277.737,498.475 
			260.737,487.141 		"/>
		<path fill="#FFFFFF" fill-opacity="0" d="M435.34,472.597l0.834,10l9.334,15.833l15.666-6.834v-17.5
			C461.174,474.097,442.674,467.931,435.34,472.597z"/>
	</g>
</g>
<g id="hour">
	<g id="min_hand">
		<polygon fill="#FFFFFF" fill-opacity="0" points="317.35,546.617 329.85,564.618 444.186,492.785 434.756,475.807 		"/>
	</g>
</g>
<g id="min">
	<g id="Hour_hands">
		<polygon fill="#FFFFFF" fill-opacity="0" points="384.642,548.534 372.31,566.202 280.644,497.704 292.443,484.641 		"/>
	</g>
</g>
<g id="lumi_1_">
	<g id="lumi" opacity="0">
		<path fill="#FFFFFF" d="M293.409,490.8l47,33.333c0,0,4.168,6.334-3,8.168c0,0-2,1.332-8.833-4.168l-39.667-27.667
			c0,0-4.333-3.5-1.667-7.166C289.908,489.632,292.234,489.966,293.409,490.8z"/>
		<path fill="#FFFFFF" d="M369.576,522.8c0,0-5.002,3.332-1.834,7.666c3.166,4.334,6.666,2.334,9.666,0
			c3-2.332,54.5-33.667,54.5-33.667s5.666-3.5,2.834-8.5c-2.834-5-8.166-1.168-9.166,0L369.576,522.8z"/>
	</g>
</g>
<g id="face">
	<g id="Face">
		<ellipse fill="#FFFFFF" fill-opacity="0" cx="353.297" cy="541.208" rx="163.843" ry="162.898"/>
	</g>
</g>
<g id="bezel">
	<path opacity="0" fill="#FFFFFF" d="M351.876,347.874c-105.99,0-191.912,86.198-191.912,192.527
		c0,106.331,85.922,192.529,191.912,192.529c105.991,0,191.912-86.198,191.912-192.529
		C543.788,434.072,457.867,347.874,351.876,347.874z M350.38,706.263c-91.31,0-165.331-74.26-165.331-165.862
		s74.021-165.86,165.331-165.86c91.31,0,165.33,74.258,165.33,165.86S441.69,706.263,350.38,706.263z"/>
</g>
<g id="strap">
	<g>
		<path opacity="0" fill="#FFFFFF" d="M255.154,163.501c0,0-17.5-2.5-18-14v-30c0,0,1-27.5,32-29.5h178c0,0,28.5,5.5,28.5,26.5v35
			c0,0-0.5,14.5-29,17.5c0,0,6.553,12,9.027,189.5c0,0-97.527-60-206.027,0C249.654,358.501,249.612,210.637,255.154,163.501z"/>
		<path opacity="0" fill="#FFFFFF" d="M247.654,726c0,0,0.5,227,18,266c0,0,2.5,8,5.5,9c0,0,72.5,33.5,157.5,0v-7
			c0,0,25.553-88.166,27.027-268.5C455.681,725.5,354.153,790.168,247.654,726z"/>
	</g>
</g>
<g id="case">
	<path opacity="0" fill="#FFFFFF" d="M512.122,378.31l-14.167-5.879c0,0-9-34.48-27.5-62.99h-15.643l0.868,49.062
		c0,0-95.828-56.429-206.027,0l0.277-49.062h-12.777c0,0-22.199,23.99-31.199,62.99l-16.5,8.5c0,0-104,171.352,3,323.176
		l11.667,8.491c0,0,19.833,59.083,28.083,66.833h15.449V726c0,0,106.585,65.069,208.027-0.5l-1.21,53.93h15.984
		c0,0,21.667-41.833,26.667-64.833l15-10.491C512.122,704.106,609.789,550.689,512.122,378.31z M352.297,727.902
		c-104.657,0-189.499-84.842-189.499-189.5c0-104.657,84.842-189.499,189.499-189.499c104.658,0,189.5,84.842,189.5,189.499
		C541.797,643.06,456.955,727.902,352.297,727.902z"/>
</g>
<g id="windor">
	<path opacity="0" fill="#FFFFFF" d="M566.705,510.93l11.5,11.75c0,0,5,26.5,0,40.25l-11.5,11.5h-13.068c0,0,5.428-39,0.623-63.5
		H566.705z"/>
</g>
</svg>
