<?xml version="1.0" encoding="utf-8"?>
<!-- Generator: Adobe Illustrator 16.0.0, SVG Export Plug-In . SVG Version: 6.00 Build 0)  -->
<!DOCTYPE svg PUBLIC "-//W3C//DTD SVG 1.1//EN" "http://www.w3.org/Graphics/SVG/1.1/DTD/svg11.dtd" [
	<!ENTITY ns_flows "http://ns.adobe.com/Flows/1.0/">
	<!ENTITY ns_extend "http://ns.adobe.com/Extensibility/1.0/">
	<!ENTITY ns_ai "http://ns.adobe.com/AdobeIllustrator/10.0/">
	<!ENTITY ns_graphs "http://ns.adobe.com/Graphs/1.0/">
]>
<svg version="1.1" xmlns:x="&ns_extend;" xmlns:i="&ns_ai;" xmlns:graph="&ns_graphs;"
	 xmlns="http://www.w3.org/2000/svg" xmlns:xlink="http://www.w3.org/1999/xlink" xmlns:a="http://ns.adobe.com/AdobeSVGViewerExtensions/3.0/"
	 x="0px" y="0px" width="722.909px" height="1103.862px" viewBox="0 0 722.909 1103.862"
	 enable-background="new 0 0 722.909 1103.862" xml:space="preserve">
<metadata><?xpacket begin="﻿" id="W5M0MpCehiHzreSzNTczkc9d"?>
<x:xmpmeta xmlns:x="adobe:ns:meta/" x:xmptk="Adobe XMP Core 5.3-c011 66.145661, 2012/02/06-14:56:27        ">
   <rdf:RDF xmlns:rdf="http://www.w3.org/1999/02/22-rdf-syntax-ns#">
      <rdf:Description rdf:about=""
            xmlns:xmp="http://ns.adobe.com/xap/1.0/"
            xmlns:xmpGImg="http://ns.adobe.com/xap/1.0/g/img/">
         <xmp:CreatorTool>Adobe Illustrator CS6 (Windows)</xmp:CreatorTool>
         <xmp:CreateDate>2021-08-05T19:08:09+05:00</xmp:CreateDate>
         <xmp:MetadataDate>2021-08-05T19:08:09+05:00</xmp:MetadataDate>
         <xmp:ModifyDate>2021-08-05T19:08:09+05:00</xmp:ModifyDate>
         <xmp:Thumbnails>
            <rdf:Alt>
               <rdf:li rdf:parseType="Resource">
                  <xmpGImg:width>128</xmpGImg:width>
                  <xmpGImg:height>256</xmpGImg:height>
                  <xmpGImg:format>JPEG</xmpGImg:format>
                  <xmpGImg:image>/9j/4AAQSkZJRgABAgEASABIAAD/7QAsUGhvdG9zaG9wIDMuMAA4QklNA+0AAAAAABAASAAAAAEA&#xA;AQBIAAAAAQAB/+4ADkFkb2JlAGTAAAAAAf/bAIQABgQEBAUEBgUFBgkGBQYJCwgGBggLDAoKCwoK&#xA;DBAMDAwMDAwQDA4PEA8ODBMTFBQTExwbGxscHx8fHx8fHx8fHwEHBwcNDA0YEBAYGhURFRofHx8f&#xA;Hx8fHx8fHx8fHx8fHx8fHx8fHx8fHx8fHx8fHx8fHx8fHx8fHx8fHx8fHx8f/8AAEQgBAACAAwER&#xA;AAIRAQMRAf/EAaIAAAAHAQEBAQEAAAAAAAAAAAQFAwIGAQAHCAkKCwEAAgIDAQEBAQEAAAAAAAAA&#xA;AQACAwQFBgcICQoLEAACAQMDAgQCBgcDBAIGAnMBAgMRBAAFIRIxQVEGE2EicYEUMpGhBxWxQiPB&#xA;UtHhMxZi8CRygvElQzRTkqKyY3PCNUQnk6OzNhdUZHTD0uIIJoMJChgZhJRFRqS0VtNVKBry4/PE&#xA;1OT0ZXWFlaW1xdXl9WZ2hpamtsbW5vY3R1dnd4eXp7fH1+f3OEhYaHiImKi4yNjo+Ck5SVlpeYmZ&#xA;qbnJ2en5KjpKWmp6ipqqusra6voRAAICAQIDBQUEBQYECAMDbQEAAhEDBCESMUEFURNhIgZxgZEy&#xA;obHwFMHR4SNCFVJicvEzJDRDghaSUyWiY7LCB3PSNeJEgxdUkwgJChgZJjZFGidkdFU38qOzwygp&#xA;0+PzhJSktMTU5PRldYWVpbXF1eX1RlZmdoaWprbG1ub2R1dnd4eXp7fH1+f3OEhYaHiImKi4yNjo&#xA;+DlJWWl5iZmpucnZ6fkqOkpaanqKmqq6ytrq+v/aAAwDAQACEQMRAD8A9U4q7FXYqk3mzVpNN0pn&#xA;hbhczMI4j1I7sd/bNZ2tqzhw3E+o7BwO0dScWOx9R2DzqTU9SkNZLqZz4mRj/HOMlqcsucpH4l5e&#xA;WfIecj81N7u6dSrzOynqpYkH8cgcsyKJPzYHJI8yVLK2C5ZZFFFcgeAJGESI5FIkQiI9T1KP+7u5&#xA;k/1ZHH6jl0dVlHKUh8S2jUZBykfmUTH5k16P7N9Kf9Y8v+JVy6PaWoH8cm2OuzD+IomPzp5iTrch&#xA;wOzRp/ADMiPbWpH8V/ANse1M46/YEVH5/wBaX7ccDjvVWB/Bsvj2/nHMRPwP626PbOUcxH8fFP8A&#xA;QPONrqDC3ugLe7Jogr8D+wJ6H2ObfQdsQzHhn6Z/YXZ6PtOOX0y9MvsLIs3TtHYq7FXYq7FXYqw3&#xA;8xQ3CwNfhBlBHueFM5r2jG0P879Dou2+UPj+hhWcu8+7FXYq7FXYq7FXYq7FXYq9Z0O/+vaTbXJN&#xA;XZAJP9dfhb8RnoWhz+LhjLrW/v6vaaTN4mKMvJHZluS7FXYq7FXYqw/8xQ/oWJA/dhpAx9yFp/HO&#xA;b9ogeGHdZ/Q6Ptu6j3bsIzlnnnYq7FXYq7FXYq7FXYq7FWf/AJfm4/Rc4dSIRLWJj3JA5AZ1/s+Z&#xA;eEb+ni2/S9L2MZeGb5XsyjN87h2KuxV2KuxVKvNGn/XtFnjUVkjHqxf6yb/iKjNf2pp/FwSHUbj4&#xA;OF2hh8TCR1G/yeW5wTx7sVdirsVdirsVdirsVTDRNHn1W+W3j+GMfFNJ2VO5+fhmZodHLUZBEcup&#xA;7g5Ok0xzT4Ry6vUrW2gtbeO3gXhFEOKL7Z3uLFHHERjsA9jjxiEREcgq5YzdirsVdirsVdiryC/Q&#xA;R31yirwVJXUJ4AMRTPN9RGskhy3P3vDZhUyPMofKmt2KuxV2KuxV2KuxV6n5b0mPTtLiQLSeVQ9w&#xA;x6lyK0/2PTO+7N0gw4gK9R3Pv/Y9jodMMWMDqeaaZnuY7FXYq7FXYq7FXYq88876S9rqRvFH7i73&#xA;27OAOQPz65xvbmkOPLxj6Z/e8v2tpzDJx9JfexvNI6p2KuxV2KuxV2Kpl5dsPr2s20BFY+XOTw4p&#xA;8Rr86UzN7OweLnjHpdn3By9Fh8TLEdHquegPZOxV2KuxV2KuxV2KuxVKPNdh9c0O4UCskI9aP5pu&#xA;f+Frmu7VweJgkOo3+X7HB7Rw+JhPeN/k8vzg3kHYq7FXYq7FXYqzP8vbDe5v2HhDGf8Ahn/41zpv&#xA;Z7B9WQ+4fef0O+7Fw/VP4fr/AEM0zp3fuxV2KuxV2KuxV2KuxVZMCYXAFSVIp9GRmPSWMuReN55o&#xA;8I7FXYq7FXYq7FXonkL/AI4bf8Zn/Uudl2D/AHH+cf0PUdj/ANz/AJxZHm7dq7FXYq7FXYq7FXYq&#xA;h73ULGxh9a8uI7eL+aRgoPsK9chPJGIuRpjKYiLJpiepfmpoFs3CzjlvWru4HppSu+7fF/wuYGTt&#xA;PGOW7hT7QgOW7DM4R5F2KuxV2KuxV2KpVq17diVYFmdYUHJYwxChm6mnSubXSSPh1e1uw08jwVaA&#xA;+s3P+/X/AOCOZHEe9u4inmlee/M2m8VjuzPCvSG4/eCnhU/EPoOZWLW5YdbHm5GPV5I9Xq3lPzHH&#xA;r2kreBRHOrGO4iBqFcb7V7EEHN7pdQMsL6u40+bxI2nOZLe7FXYqxrzX5507QkMKUudRI+G3U7LX&#xA;vIR0+XXMLVa2OLbnJxdRq449ucnkesa1qWr3Zur6UySHZF6Ig/lRewzQZc0shuRdLkyymbKByprZ&#xA;QxVQSSAo7nYZpK3oOrrekLJqlmm3PmfBRX8emXR00z0bY4JFQbW4v2Y2PzIH9ctGjPezGmPe0Nbj&#xA;7xMPkQcToz3r+WPerR6tZv1JT/WH9K5XLSzDA4JBFJJHIOSMGHiDXKJRI5tRBHNJdX/3sP8AqjNl&#xA;pfoc3T/Sg8yW92Ksn/L7zD+iNbWOZqWd7SKap2Vq/A5+RNPkczdBqPDnR5Fy9Hm4J78i9ozpHetP&#xA;IkaM8jBEUEszGgAHUknATSk08383fmYTzstCag+zJfU+8RA/8S+7xzT6rtH+HH8/1Or1Ou6Q+bzp&#xA;3d3Z3Ys7GrMxqST1JJzTk26slrFXYqqTXE0xrIxbwHYfRkIwEeTGMAOStDpl3Lvx4L4vt+HXK56i&#xA;EerCWaIRK6IaDlNQ9wFr+NcpOsHQNR1Pk2dEHab/AIX+3ANb5IGp8lCXSLpBVeL+wND+OWx1UDz2&#xA;bI6iJQv76F/2o3HzBy/aQ7w27EOmmkmbnIatSlfljCAiKCxiByWZJk7FU18saFLresQ2KVEZ+O4c&#xA;fsxL9o/wHucv02A5JiLdgxHJIB7yiqiKq/ZUADvsPnnVAPRMG/Nq7kj0e0t0cqJ5iXUGnJUU7HxF&#xA;WGavtWVQA7y6/tGVRA83lWaJ07sVdiqpb28s8nCMfM9gPfIZMgiLLGcxEWU7tbCC3FQOUndz1+jw&#xA;zWZc8p+5wcmUy9yJylqdirsVdiqnNBFMvGRQw7eI+RycMhibDKMzHkk19p7255L8UR6N3HzzY4c4&#xA;n73NxZRL3oTMhudirNvyl/5SO5/5g3/5Ox5suyv7w/1f0hz+zvrPu/U9Zzfu5eafnBNW40yD+VJX&#xA;I/1io/41zS9rHeI97qu0jvEPO81DrHYquijeSRY0FWY0AwSkALKCaFshtbaO3iCJuf2m7k5qMuQz&#xA;NuuyTMjarlbB2KuxV2KuxV2KtMqspVhVTsQcINbhINJBf2htpqDeNt0P8Poza4cvGPN2GLJxBD5c&#xA;2M5/KMD9OXhpuLYgH5yLm07K+s+52HZ31n3PVs3ruHkn5rz8/McMY6RWyAj3Z3b9RGaDtSV5APJ0&#xA;vaB/efBhea1wXYqmujW4o07Df7KfxOYWsyfwuLqZ9EzzAcR2KuxV2KuxV2KuxV2Koe/t/WtmAFXX&#xA;4k+Y/rl2nnwybcM6kx/Ns7BnX5R/8dq8/wCYb/mYubTsr6z7nYdnfWfc9Vzeu4eKfmJP6vm++/lj&#xA;9NB9Ea1/Guc12hK8x/HR0OtN5SxvMNxXYqyKyQJaQqDUcQd/FviP4nNTnlcy67MbkVbKWt2KuxV2&#xA;KuxV2KuxV2KuxVjdzGI7iRAKBWIA9q7ZuccriC7OBsAsn064msKvZObd5FAdozxJA33pmujqssCe&#xA;GRDhx1GSJ2kQm2na7rL6hao97MyNKispc0ILAEZlafX5zkiDOVcQ6+bfg1mUziDI8x1Yl5qn9bzJ&#xA;qclaj6zKoPsrFR+rNjqTeSXvLm6g3kl70ryhpdirKFAAAHQdM02T6j73Wz+ouyDB2KuxV2KuxV2K&#xA;uxV2KuxVIdVp9fkp/k/8RGbfB9Adji+kJ6n2R8hmpPN15Rel/wDHTtP+M0f/ABMZdpf72P8AWH3t&#xA;un/vI/1h97ErqYz3U056yuzn/ZEnNvI2SXYSNm1LIodirI7Rw9rCwNaooJPiBQ/jmozxqZddlFSK&#xA;rlTW7FXYq7FXYq7FXYq7FXYqx28k53UrVqORAPsNh+GbnGKiA7OAoAMhT7I+QzTnm60ovS/+Onaf&#xA;8Zo/+JjLtL/ex/rD723T/wB5H+sPvSzzxon6I8wzxIvG2n/f2/hxc7qP9VqjOg1uHw8hHQ7u41WL&#xA;gmR0KQZiOM7FU40aflC0JPxRnkv+qf6H9eYOshyk4uph1TDMFxHYq7FXYq7FXYq7FXYqo3c/oW7y&#xA;VowFE/1j065bghxSDZijxSY7m3di9E8g6Jba5YXNxfcx6UojjMZCg/CCa1B8RmToeycWWJMr5uRp&#xA;OzseQEytlcHkjRoZ45kabnGwdauKVU1H7ObCHYeCMhIcVjz/AGObDsnFEgi9ku/M7RPr2hi+jWtx&#xA;p5L7dTE1A4+jZvoy/tLDxQ4hzi26/FxQvqHkOc+6V2KqlvO8EyyruVO48R3GRlESFFEo2KLIopY5&#xA;o1kjNVb7x7H3zUZMZgaLrpwMTS7IMHYq7FXYq7FXYq7FUj1K8E8vBD+6Tp7nuc2uDFwDzdhix8I8&#xA;0Hl7a9u8gaf9S8q2QIpJODcP7+oar/wnHOl0OPhxDz3d/o4cOMebIczHJWyxRyxPFIoaORSrqehU&#xA;ihGAixRQRezwLzBpMmkaxdWD1pE59Nj+1G26H/gTnK58XhzMXnc2PgkYpflLU7FURZ3sls+3xRn7&#xA;af098ryYxMUWE4CQop5BcQzpzibkO46EfMZrMuGUOfJwZ4zFUyprdirsVdirTMqKWYhVHUnYZKMT&#xA;I0ExiTsEo1DU/VrFDtF0Z+7f0GbHBpxDc83NxYeHc80vzJb1aytZLu8gtY/7yeRYk+bsAP15KEeK&#xA;QHeyjHiIHe+hoYkhhSGMUjjUIg8AooM64ChT0oFCl+FLsVee/mxofqW9vrES/FD+5uafyMaox+Tb&#xA;fTmo7Uw2BMdObre0MVgSDzLNK6l2KuxVVeO5tZd+UbjowNPuIyEZxkNmMZCQ2RkOtTLQTIJBvuPg&#xA;Y/gR+GUz0sD5NcsET5IldZs+ALLIH7gBSPv5D9WUnRnoWo6buLl1my/aEg+Sqf8AjYYBoz1KBpj1&#xA;KjLrfaKLev2nNaj5Cn68tjo4jnu2R0wHNAS3FzcuObFz+yo6fQBmQIxiNtm4ARC2WGSJuMg4tStP&#xA;nhjMSFhYyB5LMkyZR+W2n/W/NMDkVS0R52+gcV/4Zhmd2dj4so8t3L0MOLIPJ7PnRu9dirsVUby0&#xA;t7y1ltbhA8EylJFPcEUyM4CQIPIsZREhReD+YdEn0XVp7CapCGsMh/bjP2W/r75y2ownHMxLz2bE&#xA;YSMSl2UtTsVZM8aSLxdQynsc0kZEGw6sEjkgZtGhbeJinsdxmVDVyHPdvjqT1QzaNcj7LIR8yP4Z&#xA;cNZHzbRqYtDRrondkH0n+mE6uPmv5iKvFoqDeWQn2UU/E5VLWHoGEtSegR0NrBCKRoAe56n78xZ5&#xA;JS5lolMy5pRq/wDvYf8AVGbDS/Q5en+lB5kt71T8p9IMGmXGpyCj3benDX/fcZNSPm1fuze9l4qi&#xA;Zd7t+z8dRMu9nebR2LsVdirsVYp+Yfln9L6T9Zt0rf2QLxgdXj6un8R/bmBr9N4kLH1Bw9Zg442O&#xA;YeN5zro3YqylvtH55pJcy6uXNrAh2KuxV2KuxVJNXB+uH3UUzZ6X6HO0/wBKjYWU99ewWcArNO6x&#xA;oPdjSp9hmXCBlIAdXJhEyIA6voDT7GCwsYLKAUit0WNPfiKVPueudZjgIxER0ekhARAA6IjJsnYq&#xA;7FXYq7FXnGt/lfdXevSy2Mkdvp0/7xi1SUZj8Sqg6+I3GafN2aZZLjtEury6AmdjaKeaV+XflvS4&#xA;/XuUN7LGCzST0KCm5pGPh++uZGPQ4sYs713t8NHjgLO7BXYM7MBQEkgfPODkbNvIE2VuBDsVdirs&#xA;VdiqJj8lapryxXNi0SxpWGZpWKgMp5dgxOz5vuzdHLLjuPfTt9DppZIWO9l3lH8vY9Evfr9zcC5u&#xA;lUrEqrxRC2xIJJJNNu2b7SaAYpcRNl3Gm0fhniJsswzYuc7FXYq7FXYq7FXYqlPmu7+raDdMDRpF&#xA;9Jf9meJ/4Wua7tXLwaeR79vm4XaOTgwy89vm8uzg3j3Yq7FXYq7FXYqzn8u5a217D/I6P/wQI/41&#xA;zqvZ2fonHuI+3+x6HsSXpkPMMuzo3eOxV2KuxV2KuxV2KuxVh/5h3dILS0B+2zSsP9UcV/4kc5v2&#xA;iy+mMPi6PtrJtGPxYRnLPPOxV2KuxV2KuxVln5eS01C6i/niD/8AAsB/xtnQez0/3kh3x+4/td12&#xA;LL1yHkzvOtejdirsVdirsVdirsVdirzfztdevr0iA1W3RYh86cj+LZxHbeXj1BH80Afp/S8p2rk4&#xA;sxH83ZIM1LrXYq7FXYq7FXYqyDyPLw1+Nf8Afsbp9w5f8a5t+w51qAO8H9f6HZ9kyrOPMF6PnbPV&#xA;OxV2KuxV2KuxV2KuJABJ2A3JxKvH765N1ez3J6zSM/8AwRrnm+fJ4k5S7yS8NmnxzMu8qGVNbsVd&#xA;irsVdirsVTTyxL6Wv2TeMnH/AIMFf45n9ly4dRA+f37OZoJVnj73qed89i7FXYq7FXYq7FXYqhtU&#xA;5nTLv09pPRk4H34GmUaq/ClXPhP3NOovw5Vz4T9zyHPOXiHYq7FXYq7FXYq7FUTpsnpajay/yTRt&#xA;9zA5dppcOWJ7pD723BKskT3EPXs9He4dirsVdirsVdirsVcQCCDuDsRiQrx68tzbXc1u3WGRkP8A&#xA;sSRnm2bHwTMe4kPC5YcMjHuKjlbB2KuxV2KuxV2KtglSCNiNwcQaSC9lRgyKw6MAfvz0wGxb3YNh&#xA;vCl2KuxV2KuxV2KuxVgHnLQLyO/l1CGIvay0Zyu/BqUbkPA0rXOQ7Z0ExkOSIuB+x5rtTRzEzMD0&#xA;n7GL5oXTuxV2KuxV2KuxV2KvX9Oblp9s3TlEhp81Gej6c3jif6I+57jAbhH3BEZc2uxV2KuxV2Ku&#xA;xV2KuxVINX8m6ZfFpIR9UuD+0g+An/KT+mafWdjYsu8fRLy5fJ1mp7Lx5Nx6Zfjow3U/LGsaeSZI&#xA;TLCOk0XxLT3puPpGc1qey82HmLHeN3RZ9Blx8xY7wlaI7txRSzeAFT+GYAiTycMAnkjIdE1ib+7s&#xA;pmB6NwYD7yKZkw0OaXKEvk3x0mWXKJ+SPh8l+YJPtQLED3d1/UpY5lw7F1Mv4a95Dkx7KznpXxRS&#xA;/l9rJpWa3A7/ABOT/wAQzIHs/n74/b+puHY2Xvj9v6kZafl4eYN5dgoOqRLuf9k3T7sycPs9v65b&#xA;eX6/2N+LsXf1S+TMo40jjWNBREAVR4ACgzpYxEQAOQd9GIAoLskl2KuxV//Z</xmpGImg:image>
               </rdf:li>
            </rdf:Alt>
         </xmp:Thumbnails>
      </rdf:Description>
      <rdf:Description rdf:about=""
            xmlns:xmpTPg="http://ns.adobe.com/xap/1.0/t/pg/"
            xmlns:stDim="http://ns.adobe.com/xap/1.0/sType/Dimensions#"
            xmlns:xmpG="http://ns.adobe.com/xap/1.0/g/">
         <xmpTPg:MaxPageSize rdf:parseType="Resource">
            <stDim:w>722.909180</stDim:w>
            <stDim:h>1103.862305</stDim:h>
            <stDim:unit>Pixels</stDim:unit>
         </xmpTPg:MaxPageSize>
         <xmpTPg:NPages>1</xmpTPg:NPages>
         <xmpTPg:HasVisibleTransparency>False</xmpTPg:HasVisibleTransparency>
         <xmpTPg:HasVisibleOverprint>False</xmpTPg:HasVisibleOverprint>
         <xmpTPg:PlateNames>
            <rdf:Seq>
               <rdf:li>Cyan</rdf:li>
               <rdf:li>Magenta</rdf:li>
               <rdf:li>Yellow</rdf:li>
            </rdf:Seq>
         </xmpTPg:PlateNames>
         <xmpTPg:SwatchGroups>
            <rdf:Seq>
               <rdf:li rdf:parseType="Resource">
                  <xmpG:groupName>Default Swatch Group</xmpG:groupName>
                  <xmpG:groupType>0</xmpG:groupType>
               </rdf:li>
            </rdf:Seq>
         </xmpTPg:SwatchGroups>
      </rdf:Description>
      <rdf:Description rdf:about=""
            xmlns:dc="http://purl.org/dc/elements/1.1/">
         <dc:format>image/svg+xml</dc:format>
      </rdf:Description>
      <rdf:Description rdf:about=""
            xmlns:xmpMM="http://ns.adobe.com/xap/1.0/mm/"
            xmlns:stRef="http://ns.adobe.com/xap/1.0/sType/ResourceRef#"
            xmlns:stEvt="http://ns.adobe.com/xap/1.0/sType/ResourceEvent#">
         <xmpMM:DerivedFrom rdf:parseType="Resource">
            <stRef:instanceID>xmp.iid:DCE7F04CC1F5EB1199B1AF4FA3EF126E</stRef:instanceID>
            <stRef:documentID>xmp.did:DCE7F04CC1F5EB1199B1AF4FA3EF126E</stRef:documentID>
            <stRef:originalDocumentID>xmp.did:DAE7F04CC1F5EB1199B1AF4FA3EF126E</stRef:originalDocumentID>
            <stRef:renditionClass>proof:pdf</stRef:renditionClass>
         </xmpMM:DerivedFrom>
         <xmpMM:DocumentID>xmp.did:DDE7F04CC1F5EB1199B1AF4FA3EF126E</xmpMM:DocumentID>
         <xmpMM:InstanceID>xmp.iid:DDE7F04CC1F5EB1199B1AF4FA3EF126E</xmpMM:InstanceID>
         <xmpMM:OriginalDocumentID>xmp.did:DAE7F04CC1F5EB1199B1AF4FA3EF126E</xmpMM:OriginalDocumentID>
         <xmpMM:History>
            <rdf:Seq>
               <rdf:li rdf:parseType="Resource">
                  <stEvt:action>saved</stEvt:action>
                  <stEvt:instanceID>xmp.iid:DAE7F04CC1F5EB1199B1AF4FA3EF126E</stEvt:instanceID>
                  <stEvt:when>2021-08-05T18:54:20+05:00</stEvt:when>
                  <stEvt:softwareAgent>Adobe Illustrator CS6 (Windows)</stEvt:softwareAgent>
                  <stEvt:changed>/</stEvt:changed>
               </rdf:li>
               <rdf:li rdf:parseType="Resource">
                  <stEvt:action>saved</stEvt:action>
                  <stEvt:instanceID>xmp.iid:DDE7F04CC1F5EB1199B1AF4FA3EF126E</stEvt:instanceID>
                  <stEvt:when>2021-08-05T19:08:09+05:00</stEvt:when>
                  <stEvt:softwareAgent>Adobe Illustrator CS6 (Windows)</stEvt:softwareAgent>
                  <stEvt:changed>/</stEvt:changed>
               </rdf:li>
            </rdf:Seq>
         </xmpMM:History>
         <xmpMM:RenditionClass>proof:pdf</xmpMM:RenditionClass>
      </rdf:Description>
   </rdf:RDF>
</x:xmpmeta>
                                                                                                    
                                                                                                    
                                                                                                    
                                                                                                    
                                                                                                    
                                                                                                    
                                                                                                    
                                                                                                    
                                                                                                    
                                                                                                    
                                                                                                    
                                                                                                    
                                                                                                    
                                                                                                    
                                                                                                    
                                                                                                    
                                                                                                    
                                                                                                    
                                                                                                    
                                                                                                    
                           
<?xpacket end="w"?>
	</metadata>
<g id="svg-case">
	<path fill="#62BB47" d="M209.667,334.001l40.667-14l3.333,7l2.667,52.333c0,0-30.667,20.667-38.667,24.667S150,475.862,159,551.931
		c0,0,2,83.069,67,136.069c0,0,25,8.001,34,23.667c0,0,96,47.333,190.5-7.667c0,0,20-12,40-30s27.931-28.604,27.931-28.604L543,567
		v-51.5l-27.513-81.161L479.5,398.5L450.334,378l-10-62c0,0,19.334-10.667,22-10.667s39.334-3.333,42,0s37.332,11.333,38.666,16
		s25.333,47.333,26,50s-14.667,22.667-14,28s-0.666,81.333-0.666,88s-6,29.894-6,29.894l1.333,91.438L521,719.332
		c0,0-26,66.669-31.333,69.335S457,797.333,457,797.333L451,772l-3.333-50.667c0,0-100,30.667-184,2.667l-9.333,1.333L255,776.667
		l-50,20.666l-54-88l-54.667-124l20-182L209.667,334.001z"/>
</g>
<g id="svg-bezel">
	<path fill="#62BB47" d="M352,346.333c-108.156,0-195.833,87.678-195.833,195.833c0,108.155,87.678,195.834,195.833,195.834
		c108.155,0,195.832-87.679,195.832-195.834C547.832,434.011,460.155,346.333,352,346.333z M352,701.322
		c-87.899,0-159.156-71.256-159.156-159.155S264.101,383.011,352,383.011s159.156,71.256,159.156,159.156
		S439.899,701.322,352,701.322z"/>
</g>
<g id="svg-strap">
	<g>
		<path fill="#67EF3A" d="M254,702.5l1,88.5c0,0-36.188,144.383-36.188,155.011c0,10.627,10.627,63.1,14.944,68.413
			c4.318,5.313,73.394,43.837,88.671,43.837s83.024-11.291,92.987-11.956c9.963-0.664,51.809,0.664,59.115-12.62
			C481.835,1020.401,452,793,452,793l-0.5-90C451.5,703,353.63,772.907,254,702.5z"/>
		<path fill="#67EF3A" d="M255,376c0,0,81.667-54.667,196.334,0l1-104.333L479,190.263c0,0,40-49,40-55s-15-50-15-50s-22-19-25-19
			s-127-12-136-12s-55-4-65,0s-58-5-63,11s-8,16-8,29s3,27,0,35s19,55,19,62s-4,4.887,0,14.943s5,20.057,10,24.057S253,275,253,275
			L255,376z"/>
	</g>
</g>
<g id="svg-winder">
	<rect x="537.666" y="497.5" fill="#67EF3A" width="57.666" height="99.5"/>
</g>
<g id="svg-face">
	<circle fill="#67EF3A" cx="352.333" cy="541.167" r="158.833"/>
</g>
<g id="svg-skull">
	<path fill="#67EF3A" d="M289.5,653c-7.612-18.591-3.698-44.682-20.663-57.889c-18.75-14.597-14.26-40.655-15.337-61.737
		c-0.681-13.336-1.5-26.526-1.5-40.29c0-6.417-1.381-25.686,4.611-29.361c1.046-4.546,0.8-9.185,1.386-13.792
		c0.994,1.396,1.708,2.94,2.116,4.587c0.62-4.024,0.646-8.094,1.377-12.104c12.34,5.068,9.938-7.544,11.462-16.018
		c2.819,0.042,5.2-0.718,7.545-2.259c5.866-3.853,4.128-9.885,6.002-16.424c13.934-0.444,27.683-7.489,41.502-9.225
		c13.804-1.733,28.921-4.78,42.962-2.375c10.057,1.723,23.225,1.691,31.534,7.399c4.152,2.852,8.533,6.213,12.527,9.351
		c9.339,7.336,16.746,17.637,24.987,26.137c8.385,8.649,17.151,20.61,17.985,32.915c0.854,12.605,1.632,26.427,0.5,39.097
		c-1.068,11.966-9.156,23.646-13.123,34.962c-4.006,11.423-5.256,23.792-7.377,35.625c-0.96,5.358-1.123,11.083-3.971,15.927
		c-3.439,5.853-10.816,7.353-14.539,12.5c-2.774,3.837-2.719,9.657-3.403,14.338c-0.799,5.47-1.221,10.913-2.196,16.148
		c-0.915,4.91-0.824,11.463-2.852,15.977c-2.27,5.056-7.453,7.228-9.452,12.51c-3.375,8.921-6.957,18.569-16.696,22.599
		c-18.766,7.766-44.938,7.262-63.879,0.889c-17.805-5.989-33.39-25.541-33.51-44.985"/>
</g>
<g id="svg-hour">
	<path fill="#67EF3A" d="M264.667,484.667c0.876,4.363,6.463,7.201,9.64,9.742c3.016,2.414,4.814,5.171,7.028,8.249
		c5.366,7.461,12.99,11.67,19.247,18.099c5.621,5.776,9.318,11.123,17.053,14.577c7.861,3.51,14.129,8.594,21.049,13.332
		c2.945,2.016,5.993,3.98,8.575,6.26c2.341,2.068,4.88,4.284,7.742,5.686c2.963,1.451,6.663,2.455,9.984,3.074
		c3.39,0.632,9.094,2.617,12.364,0.721c3.087-1.79,2.937-6.218,5.374-8.729c2.583-2.661,4.652-3.838,3.295-8.426
		c-1.813-6.125-10.854-9.343-15.766-12.492c-5.025-3.223-7.813-8.523-12.595-12.001c-5.331-3.877-11.571-7.338-17.324-10.758
		c-7.363-4.376-14.758-8.297-22.016-12.619c-5.638-3.357-10.129-8.726-15.585-12.166c-4.544-2.864-9.618-4.792-14.364-6.875
		c-4.713-2.068-8.938-4.926-14.042-5.681c-4.738-0.701-11.136,0.734-12.333,5.683c-1.691,6.991,6.422,2.946,5.675,8.991"/>
</g>
<g id="svg-min">
	<path fill="#67EF3A" d="M315.333,546c3-1.474,4.436-5.149,6.727-7.65c2.78-3.036,7.574-5.217,11.192-7.324
		c7.698-4.482,16.193-8.252,24.054-12.09c6.354-3.102,12.436-5.979,18.352-9.586c3.443-2.1,6.955-3.806,10.52-5.692
		c4.638-2.455,8.254-4.968,12.841-7.231c8.23-4.06,16.743-7.432,24.723-12.167c7.241-4.296,14.057-8.84,21.26-12.936
		c3.859-2.194,5.388-3.872,9.424-2.397c4.904,1.791,5.778,2.506,6.593,7.749c1.374,8.852-2.049,12.865-8.91,17.985
		c-7.658,5.715-16.37,9.674-24.211,14.692c-7.625,4.88-14.64,10.874-22.319,15.833c-6.215,4.013-11.386,9.292-17.409,13.499
		c-6.525,4.557-13.771,8.22-20.192,12.994c-6.168,4.584-11.095,9.218-17.701,12.749c-5.458,2.918-13.307,6.841-19.942,5.574
		c-4.42-0.844-9.882-8.84-11.266-13.267c-1.115-3.567-3.525-14.431-0.399-17.4"/>
</g>
<g id="svg-tip">
	<g>
		<circle fill="#67EF3A" cx="276.75" cy="485" r="10.25"/>
		<circle fill="#67EF3A" cx="451" cy="479.25" r="10.25"/>
	</g>
</g>
<g id="svg-lumi">
	<path fill="#67EF3A" d="M339.25,522.625c0,0-6.599-4.418-14.539-9.808c0.1-0.592,0.164-1.196,0.164-1.817
		c0-6.006-4.869-10.875-10.875-10.875c-2.03,0-3.923,0.566-5.55,1.535c-4.831-3.369-8.723-6.162-10.2-7.41
		c-5.25-4.438-8.375-2.438-10.188,0s0.75,5.313,0.75,5.313s6.567,4.68,14.384,10.222c-0.044,0.399-0.072,0.804-0.072,1.215
		c0,6.006,4.869,10.875,10.875,10.875c1.708,0,3.318-0.405,4.757-1.107c5.557,3.897,9.76,6.8,10.118,6.919
		c1.125,0.375,5.188,6.688,10.813,3.375S339.25,522.625,339.25,522.625z"/>
	<path fill="#67EF3A" d="M436.334,488.167c-3.166-5-11.167,1.333-11.167,1.333s-8.224,4.984-18.339,11.103
		c-1.651-1.018-3.59-1.615-5.673-1.615c-5.989,0-10.845,4.855-10.845,10.845c0,0.247,0.021,0.488,0.037,0.73
		c-9.658,5.829-18.092,10.901-20.181,12.104c-5.5,3.167-1.167,8-1.167,8c4.333,3.333,10-2,10-2s7.1-4.457,15.956-9.942
		c1.758,1.228,3.893,1.954,6.199,1.954c5.989,0,10.845-4.855,10.845-10.845c0-0.509-0.047-1.006-0.115-1.497
		c8.031-4.868,14.883-8.898,16.782-9.67C434,496.5,439.5,493.167,436.334,488.167z"/>
</g>
</svg>
