<?xml version="1.0" encoding="utf-8"?>
<!-- Generator: Adobe Illustrator 21.0.0, SVG Export Plug-In . SVG Version: 6.00 Build 0)  -->
<svg version="1.1" xmlns="http://www.w3.org/2000/svg" xmlns:xlink="http://www.w3.org/1999/xlink" x="0px" y="0px"
	 viewBox="0 0 722.9 1103.9" style="enable-background:new 0 0 722.9 1103.9;" xml:space="preserve">
<style type="text/css">
	.st0{display:none;}
	.st1{display:inline;}
	.st2{fill:#FFFFFF;fill-opacity:0;}
	.st3{display:inline;fill:#FFFFFF;fill-opacity:0;}
	.st4{fill:none;}
	.st5{fill:#FFFFFF;}
</style>
<g id="Layer_1">
	<g id="Layer_1_1_" class="st0">
	</g>
	<g id="skull" class="st0">
		<g id="Skull" class="st1">
			<path class="st2" d="M219.3,571.7c0,0-0.2,0.7-0.4,2c-1.2,6.1-3.8,24.8,8,33.8c14.3,10.8,44.7,2.9,47.5,15.7
				c2.9,12.7-1.4,40.6,0,42.1c1.4,1.5-9.1-49.4-27.8-46.7c-18.7,2.7-15.9,61.4-2.1,81c13.8,19.6,61.8,75.9,154,46
				c0,0,49.4-22.5,48-77.3c0,0-3.3-38.7,5.2-45c8.6-6.4,34.2-19.1,36.6-44.1c2.4-25,7.6-94,2.4-108.2
				c-5.2-14.2-9.5-110.1-70.8-128.2c-61.3-18.1-155.4-16.2-204.8,48.9s-14.7,118.5-10,133.1c4.8,14.7,3.8,34.8,6.2,39.6
				C213.6,569.3,219.3,571.7,219.3,571.7z"/>
		</g>
	</g>
	<g id="tip">
		<g>
			<polygon class="st2" points="224.4,442.4 244.1,440.9 248.7,448 234.4,463.4 217.1,452.1 			"/>
			<path class="st2" d="M480.5,429.7l1,11.1l11.4,17.6l19.2-7.6v-19.4C512.1,431.3,489.5,424.5,480.5,429.7z"/>
		</g>
	</g>
	<g id="hour">
		<g id="Hour_hands">
			<polygon class="st2" points="394,544.1 375.2,570.6 235,467.7 253,448.1 			"/>
		</g>
	</g>
	<g id="min">
		<g id="min_hand">
			<polygon class="st2" points="299,541.2 318.3,567.9 494.2,461.1 479.7,435.8 			"/>
		</g>
	</g>
	<g id="lumi">
		<g>
			<path class="st2" d="M258.8,459.1l67.4,49.6c0,0,6,9.4-4.3,12.2c0,0-2.9,2-12.7-6.2l-56.9-41.2c0,0-6.2-5.2-2.4-10.7
				C253.7,457.4,257.1,457.9,258.8,459.1z"/>
			<path class="st2" d="M377.4,505.9c0,0-7.2,5-2.6,11.4c4.5,6.5,9.6,3.5,13.9,0c4.3-3.5,78.2-50.1,78.2-50.1s8.1-5.2,4.1-12.7
				c-4.1-7.4-11.7-1.7-13.1,0L377.4,505.9z"/>
		</g>
	</g>
	<g id="face" class="st0">
		<g id="Face_1_" class="st1">
			<ellipse class="st2" cx="346.8" cy="536.9" rx="255.3" ry="255.3"/>
		</g>
	</g>
	<g id="bezel" class="st0">
		<path class="st3" d="M346.8,255.6c-160.9,0-291.3,130.9-291.3,292.3s130.4,292.3,291.3,292.3c160.9,0,291.3-130.9,291.3-292.3
			S507.7,255.6,346.8,255.6z M346.8,791.7c-140.3,0-253.9-114.1-253.9-254.8s113.7-254.8,253.9-254.8s253.9,114.1,253.9,254.8
			S487,791.7,346.8,791.7z"/>
	</g>
	<g id="windor" class="st0">
		<path class="st3" d="M635.6,509.4v-25.9l29.3,2.5v10.5h5v101.5h-5l0.5,13.5h-27.3l-2.5-24.9C635.6,586.5,640.8,538,635.6,509.4z"
			/>
	</g>
	<g id="case" class="st0">
		<g class="st1">
			<path class="st2" d="M200.8,294v-60.1c0,0-45.3-16.4-51.3,97.5C149.5,331.5,181,304.4,200.8,294z"/>
			<path class="st2" d="M492.5,294v-60.1c0,0,45.3-16.4,51.3,97.5C543.8,331.5,512.3,304.4,492.5,294z"/>
			<path class="st2" d="M200.8,800.5v60.1c0,0-45.3,16.4-51.3-97.5C149.5,763.1,181,790.2,200.8,800.5z"/>
			<path class="st2" d="M492.5,800.5v60.1c0,0,45.3,16.4,51.3-97.5C543.8,763.1,512.3,790.2,492.5,800.5z"/>
		</g>
	</g>
	<g id="strap" class="st0">
		<g class="st1">
			<path class="st4" d="M201.8,808.4v55c0,0,10.7,106.5,15.2,123.5c0,0,4,25.5,22.5,16c0,0,21.5,3,41,15.5c19.5,12.5,0,2,0,2
				s105,32.5,147.5-12c0,0,12-2,18.5-1c0,0,18,5.5,25-18.5l21-128.3v-50.2c0,0-11-3.2-13.4-2c0,0-137.7,72.5-265.2-0.3L201.8,808.4z
				"/>
			<path class="st4" d="M202.8,288.6v-55c0,0,10.7-106.5,15.2-123.5c0,0,4-25.5,22.5-16c0,0,21.5-3,41-15.5s0-2,0-2
				s105-32.5,147.5,12c0,0,12,2,18.5,1c0,0,18-5.5,25,18.5l21,128.3v50.2c0,0-11,3.2-13.4,2c0,0-137.7-72.5-265.2,0.3L202.8,288.6z"
				/>
		</g>
	</g>
</g>
<g id="Layer_2">
	<circle class="st5" cx="424.6" cy="488.7" r="26.1"/>
	<circle class="st5" cx="295" cy="496.7" r="26.1"/>
</g>
</svg>
