<svg version="1.1" xmlns="http://www.w3.org/2000/svg" xmlns:xlink="http://www.w3.org/1999/xlink" x="0px" y="0px"
	 width="722.91px" height="1103.859px" viewBox="0 0 722.91 1103.859" enable-background="new 0 0 722.91 1103.859"
	 xml:space="preserve">
<g id="Layer_1" display="none">
	
		<!-- <image overflow="visible" width="441" height="657" xlink:href="watch2.png"  transform="matrix(2.0249 0 0 2.0249 -85.5449 -103.2642)">
	</image> -->
</g>
<g id="skull">
	<g id="Skull">
		<path fill="#FFFFFF" fill-opacity="0" d="M242.947,576.371c0,0-0.16,0.582-0.369,1.595c-1.017,4.95-3.174,20.156,6.727,27.413
			c11.922,8.744,37.355,2.388,39.74,12.719c2.384,10.332-1.193,32.984,0,34.176c1.192,1.192-7.61-40.137-23.278-37.953
			c-15.668,2.188-13.284,49.875-1.759,65.773c11.525,15.895,51.663,61.596,128.759,37.353c0,0,41.331-18.278,40.14-62.787
			c0,0-2.783-31.396,4.371-36.562c7.152-5.167,28.612-15.498,30.599-35.766c1.988-20.27,6.359-76.303,1.988-87.828
			c-4.373-11.525-7.949-89.416-59.215-104.119c-51.265-14.704-129.95-13.114-171.28,39.74
			c-41.33,52.854-12.319,96.172-8.345,108.094c3.974,11.921,3.178,28.216,5.166,32.191
			C238.178,574.383,242.947,576.371,242.947,576.371z"/>
	</g>
</g>
<g id="min">
	<g id="min_hand">
		<polygon fill="#FFFFFF" fill-opacity="0" points="313.194,553.424 328.581,575.275 469.315,488.074 457.709,467.464 		"/>
	</g>
</g>
<g id="hour">
	<g id="Hour_hands">
		<polygon fill="#FFFFFF" fill-opacity="0" points="386.455,556.991 371.1,579.207 256.958,493.072 271.65,476.646 		"/>
	</g>
</g>
<g id="lumi_1_">
	<g id="lumi" opacity="0">
		<path fill="#FFFFFF" d="M278.401,485.72l57.083,41.323c0,0,5.061,7.852-3.644,10.125c0,0-2.429,1.653-10.728-5.166l-48.177-34.298
			c0,0-5.262-4.339-2.024-8.885C274.149,484.273,276.974,484.688,278.401,485.72z"/>
		<path fill="#FFFFFF" d="M370.91,525.391c0,0-6.075,4.132-2.228,9.505c3.845,5.373,8.098,2.892,11.74,0
			c3.645-2.892,66.193-41.737,66.193-41.737s6.88-4.339,3.44-10.538c-3.44-6.198-9.918-1.447-11.133,0L370.91,525.391z"/>
	</g>
</g>
<g id="tip">
	<g>
		<polygon fill="#FFFFFF" fill-opacity="0" points="246.025,471.769 265.358,470.269 269.858,477.436 255.858,492.936 
			238.858,481.603 		"/>
		<path fill="#FFFFFF" fill-opacity="0" d="M457.708,459.917l0.909,10.846l10.177,17.173l17.081-7.411v-18.981
			C485.875,461.544,465.704,454.855,457.708,459.917z"/>
	</g>
</g>
<g id="face">
	<ellipse opacity="0" fill="#FFFFFF" cx="350.205" cy="551.93" rx="210.25" ry="214"/>
</g>
<g id="bezel">
	<path opacity="0" fill="#FFFFFF" d="M349.586,304.799c-134.277,0-243.131,108.854-243.131,243.13
		c0,134.277,108.854,243.131,243.131,243.131S592.717,682.207,592.717,547.93C592.717,413.653,483.863,304.799,349.586,304.799z
		 M350.205,759.93c-116.118,0-210.25-94.467-210.25-211c0-116.532,94.132-211,210.25-211c116.118,0,210.25,94.468,210.25,211
		C560.455,665.463,466.323,759.93,350.205,759.93z"/>
	<ellipse opacity="0" fill="#FFFFFF" cx="350.205" cy="548.93" rx="210.25" ry="211"/>
</g>
<g id="case">
	<path opacity="0" fill="#FFFFFF" d="M541.455,377.93c0,0-42.668-62.667-42.668-116.001l-20-6.667v72.667c0,0-140-64.666-258,0.667
		l-3.356-76.666l-23.309,10.667c0,0-2,77.333-51.333,136.667c0,0-116.333,153.666,6.667,308.666c0,0,49.333,60.667,48,141.334
		l19.976,6l2.524-81.834c0,0,126,62,259-1l3,82.834l21.5-6.334c0,0-5.334-55.666,47.333-136.333
		C550.788,712.597,673.455,551.93,541.455,377.93z M350.205,788.661c-132.952,0-240.731-107.778-240.731-240.731
		c0-132.952,107.779-240.73,240.731-240.73s240.73,107.779,240.73,240.73C590.936,680.883,483.157,788.661,350.205,788.661z"/>
</g>
<g id="windor">
	<path opacity="0" fill="#FFFFFF" d="M599.464,508.789h18.657l15.334,19.138c0,0,4.667,34.027,0,47.349l-15.959,14.654
		l-18.032,0.486C599.464,590.416,605.891,538.278,599.464,508.789z"/>
</g>
<g id="strap">
	<g>
		<path opacity="0" fill="#FFFFFF" d="M219.746,304.799l-2.314-52.869c0,0,10.69-92,14.69-128c0,0,1.333-24,28-26.667
			c0,0,18,0,42-6.667c0,0,72.666-7.333,114,2.667c0,0,24.668,4.666,37.334,3.333c0,0,15.239-5.333,18.286,34.667l7.046,123.999
			v46.001l-21.079,3.536v14.947c0,0-122.781-46.375-218.85-0.096v-14.851H219.746z"/>
		<path opacity="0" fill="#FFFFFF" d="M237.879,780.768v14.495h-18.598l-1.851,60.001c0,0,8.524,102.166,15.024,126.666
			c0,0,1.5,22,37.5,22c0,0,29,5,41.5,8.5c0,0,78.5,4,105-4.5c0,0,20-5,38-4.5c0,0,14,6,18.5-42l9-106.166l-1.986-54.853
			l-18.514-0.981l1-18.662C462.455,780.768,340.804,828.105,237.879,780.768z"/>
	</g>
</g>
</svg>
