<?xml version="1.0" encoding="utf-8"?>
<!-- Generator: Adobe Illustrator 16.0.0, SVG Export Plug-In . SVG Version: 6.00 Build 0)  -->
<!DOCTYPE svg PUBLIC "-//W3C//DTD SVG 1.1//EN" "http://www.w3.org/Graphics/SVG/1.1/DTD/svg11.dtd" [
	<!ENTITY ns_flows "http://ns.adobe.com/Flows/1.0/">
	<!ENTITY ns_extend "http://ns.adobe.com/Extensibility/1.0/">
	<!ENTITY ns_ai "http://ns.adobe.com/AdobeIllustrator/10.0/">
	<!ENTITY ns_graphs "http://ns.adobe.com/Graphs/1.0/">
]>
<svg version="1.1" xmlns:x="&ns_extend;" xmlns:i="&ns_ai;" xmlns:graph="&ns_graphs;"
	 xmlns="http://www.w3.org/2000/svg" xmlns:xlink="http://www.w3.org/1999/xlink" xmlns:a="http://ns.adobe.com/AdobeSVGViewerExtensions/3.0/"
	 x="0px" y="0px" width="722.909px" height="1103.862px" viewBox="0 0 722.909 1103.862"
	 enable-background="new 0 0 722.909 1103.862" xml:space="preserve">
<metadata><?xpacket begin="﻿" id="W5M0MpCehiHzreSzNTczkc9d"?>
<x:xmpmeta xmlns:x="adobe:ns:meta/" x:xmptk="Adobe XMP Core 5.3-c011 66.145661, 2012/02/06-14:56:27        ">
   <rdf:RDF xmlns:rdf="http://www.w3.org/1999/02/22-rdf-syntax-ns#">
      <rdf:Description rdf:about=""
            xmlns:xmp="http://ns.adobe.com/xap/1.0/"
            xmlns:xmpGImg="http://ns.adobe.com/xap/1.0/g/img/">
         <xmp:CreatorTool>Adobe Illustrator CS6 (Windows)</xmp:CreatorTool>
         <xmp:CreateDate>2021-08-05T19:01:45+05:00</xmp:CreateDate>
         <xmp:MetadataDate>2021-08-05T19:01:46+05:00</xmp:MetadataDate>
         <xmp:ModifyDate>2021-08-05T19:01:46+05:00</xmp:ModifyDate>
         <xmp:Thumbnails>
            <rdf:Alt>
               <rdf:li rdf:parseType="Resource">
                  <xmpGImg:width>128</xmpGImg:width>
                  <xmpGImg:height>256</xmpGImg:height>
                  <xmpGImg:format>JPEG</xmpGImg:format>
                  <xmpGImg:image>/9j/4AAQSkZJRgABAgEASABIAAD/7QAsUGhvdG9zaG9wIDMuMAA4QklNA+0AAAAAABAASAAAAAEA&#xA;AQBIAAAAAQAB/+4ADkFkb2JlAGTAAAAAAf/bAIQABgQEBAUEBgUFBgkGBQYJCwgGBggLDAoKCwoK&#xA;DBAMDAwMDAwQDA4PEA8ODBMTFBQTExwbGxscHx8fHx8fHx8fHwEHBwcNDA0YEBAYGhURFRofHx8f&#xA;Hx8fHx8fHx8fHx8fHx8fHx8fHx8fHx8fHx8fHx8fHx8fHx8fHx8fHx8fHx8f/8AAEQgBAACAAwER&#xA;AAIRAQMRAf/EAaIAAAAHAQEBAQEAAAAAAAAAAAQFAwIGAQAHCAkKCwEAAgIDAQEBAQEAAAAAAAAA&#xA;AQACAwQFBgcICQoLEAACAQMDAgQCBgcDBAIGAnMBAgMRBAAFIRIxQVEGE2EicYEUMpGhBxWxQiPB&#xA;UtHhMxZi8CRygvElQzRTkqKyY3PCNUQnk6OzNhdUZHTD0uIIJoMJChgZhJRFRqS0VtNVKBry4/PE&#xA;1OT0ZXWFlaW1xdXl9WZ2hpamtsbW5vY3R1dnd4eXp7fH1+f3OEhYaHiImKi4yNjo+Ck5SVlpeYmZ&#xA;qbnJ2en5KjpKWmp6ipqqusra6voRAAICAQIDBQUEBQYECAMDbQEAAhEDBCESMUEFURNhIgZxgZEy&#xA;obHwFMHR4SNCFVJicvEzJDRDghaSUyWiY7LCB3PSNeJEgxdUkwgJChgZJjZFGidkdFU38qOzwygp&#xA;0+PzhJSktMTU5PRldYWVpbXF1eX1RlZmdoaWprbG1ub2R1dnd4eXp7fH1+f3OEhYaHiImKi4yNjo&#xA;+DlJWWl5iZmpucnZ6fkqOkpaanqKmqq6ytrq+v/aAAwDAQACEQMRAD8A9U4q7FXYqwjzrr93HfCx&#xA;tJ2hSJQZjGeJLNvSo32Wmct23r5jJ4cJEADeu95/tXWSE+CJqubFjf3zGpuJST1Jdv65oDnyH+I/&#xA;N0xzT7z81OSaaWnqSM9OnIk/ryEpylzNsZSJ5lZkWKqtzcKarK4PiGIyYySHIlmMkh1KvHrOrx/Y&#xA;vZ1HgJHp91cujrMw5Tl8y2R1WUcpS+ZRMfmrzBH9m9c0/mCt/wASBy+PaupH8Z+xuj2hnH8RRUfn&#xA;jzAn2pEk/wBZF/4145fHtzUDqD8G2Pa2cdQfgiovzB1RSPVt4XXavEMpI7/tH9WXw9oco5xifn+t&#xA;uj21k6iLL9I1qx1SD1LZ/jH95C2zqfcfxzpNJrceeNxO/UdQ7zTaqGYXH5I/MtyXYq7FXYq7FXYq&#xA;8s80AjX70Hr6lfvAOcD2oP8ACJ+947tD+/l70rzAcN2KuxV2KuxV2KuxV2Kpp5avvqWtW0pNI2b0&#xA;5PDi/wAO/wAuuZ3Zufws8T05H4uZoM3h5onpy+b1PO/exdirsVdirsVdiry7zUJB5gvOYoS4I+XE&#xA;U/DOC7VB/Mzvv/Q8f2jfjytKc17hOxV2KuxV2KuxV2KuxVsVrt17Yq9gsmnazgaccZzGhlU9nKjk&#xA;Pvz0jCZGETL6qF+97nESYDi51urZa2OxV2KuxV2KsI/MHT+M1vqCDZx6Mp/yhuv3iv3Zy3tBp6lH&#xA;IOux/Q8921hoiY9zD85t0bsVdirsVdirsVdirsVZb5K8u+tIup3S/uYz/o6H9ph+18l/XnQ9i9nc&#xA;R8WfIcvPzd32VouI+JLkOTOs6x6J2KuxV2KuxV2KpL5xRW8vXNU5leDL7HmN/uzV9sxvTS2vl97g&#xA;dpi8Etu773mWcM8i7FXYq7FXYq7FXYqj9DsFv9WtrV6mORv3lNvhUcm/AZl6HAMuaMDyJcnSYfEy&#xA;xieRerRxxxRrHGoSNAFRRsABsAM9AjERFDkHs4xAFDkuySXYq7FXYq7FXYqpXdslzay28n2JkZG+&#xA;TCmV5cYnAxPIimGSAnExPUPJL6zmsruW1mFJYm4tToe4I+YzzvPhlimYS5h4nLiOORieYUMqa3Yq&#xA;7FXYq7FXYqyn8v7X1NSnuSNoI+I/1pDt+CnN/wCz+K8spfzR97uOxsd5DLuH3s+zrnpXYq7FXYq7&#xA;FXYq7FXYq8/8/wBqI9ViuB0niFf9ZDT9VM4/t/Fw5hL+cPu/AeZ7Zx1lEu8fcxjNE6h2KuxV2Kux&#xA;V2KvQfINr6ekSTn7U8pof8lBxH41zsewMXDhMv5x+78F6fsfHWIy7yybN47Z2KuxV2KuxV2KuxVK&#xA;NZ816FoziK/ueE5XmsKqzuQagfZBp075j5tVjx7SO7Tl1EIcywbzD5qsNfmiazjkSO2BUtKFBYvT&#xA;oAW/lzle2tVHLKPD0t53tTUDIY10tKM0jqnYq7FXYq7FXYqyzy/580DTbG30y8aWOaIsHk4VjHNy&#xA;43BLdG8M67srXY4YIxPPf7y9J2fq4RxRifP7yzqN0kRZEYMjgMrA1BB3BBzfA27kG28KuxV2KuxV&#xA;2KoLWdXtNI06W+umpHENlHVmP2VX3OVZsoxxMi15cghGy8J1jVbnVdSnv7k/vZmrxHRQNlUewGcv&#xA;lymcjI9XnsmQzkZFFaJ/dS/6w/Vmr1nMOBqeYTLMNxnYq7FXYq7FXYqx/Uf97ZfmP1DNtp/oDsMP&#xA;0h6d+VmvNd6bLpczVmsqNCT1MLHp/sG/WM6TszPxR4T0+53ugzXHhPRnObN2DsVdirsVad1RS7kK&#xA;iglmJoAB1JOJKvF/PPmttc1H04GI022JEC9ObdDIR79vb6c5vW6rxZUPpDotXqPElt9IYzmE4iP0&#xA;+9htoH51Ls2yjwpmJnwynIVycfLjMi6XWLhtowIx95/HGOkiOe6x08RzQr3d0/2pWPtWg/DLxiiO&#xA;QbRjiOinzf8AmP35OgyoNrLKv2XYfInAYg9F4QrR6jeJ0kLDwbf9eVy08D0azhieiNg1oHaZKf5S&#xA;/wBDmNPR/wA0tMtN3JfeSLJcyOhqrGoOZeKJEQC5GMVEBGeXtan0bVoL+KpCGksf88Z+0v3dPfMr&#xA;T5jjmJByMOUwkJB7zaXcF3axXVu4eCZQ8bDuGFc6mEhIAjkXoYyEhYVckydirsVYh+aV5c23llVg&#xA;coLm4SGanUxlHYr9JUZr+05kYtupcLXyIx7dS8fznnSOxV2Koi2sLiehVeKfztsPoynJnjH3tU8s&#xA;YphFo0A/vHZz7bDMSWsl0DRLUnorjTLIf7rr8yf65WdTPva/Gl3rW0qybohX3BP8a4RqpjqkZ5IW&#xA;bRSBWF6/5Lf1GXQ1neG2Op7wl8sMsTcZFKn3zMjMSFhyIyB5LMkydir0T8rPMvB20O5b4XrJZE9m&#xA;6vH9P2h9ObfszUf5M/B2egz/AMB+D0vN07V2KuxV55+bWsRi3tdIShkdvrE3iqqCqD/ZEn7s1Hau&#xA;XYQ+LrO0cmwj8XmeaV1TsVTWw0wACWcVJ3WM9vnmBn1PSLiZc/QJnmE4rsVdirsVdiqyaGOZCki8&#xA;lOShMxNhlGRBsJHfWL2zV+1E32W/gc2eHMJjzc7FlEvehsvbV9vcTW88dxCxSaJg8bjqGU1BwxkQ&#xA;bHNIJBsPePLOuw63o8N8lBIRwuIx+xIv2h/Ee2dTps4yQEnocGUZIgppl7ctmmihheaVgkUal5HP&#xA;QKoqSfowEgCygmhZeBa/q0ur6vc38lQJnPpqf2UGyL9C5ymfKckzJ5zNk45GSX5U1phpNoJH9dx8&#xA;CH4R4t/ZmJqstDhDj58lCgnGa5wnYq7FXYq7FXYq7FVssSSxtG4qrbHJRkYmwmMiDYY7cQNBM0bd&#xA;R0PiOxzb45iQt2UJcQtTybJnP5TXt0ms3NkprbSwmWRT2ZGADD/gqZtOy5njMelOw7OkeMjpT1bN&#xA;67hhn5o62bLRUsIjSa/JViO0SUL/AHkgffmt7SzcMOEc5ODr8vDDh73keaB0rgCSANydhgKskt4R&#xA;DCkY/ZFD8++abJPikS6ycrNqmRYuxV2KuxV2KuxV2KuxVLdZgBRJh1U8W+R6ZmaOe5i5OmlvSU5s&#xA;HMZ7+Vf1W0u766vJUtqxpHEZmCcgzFm48iK/ZGbDs3PijKRlKI95Dm6DLjiSZSA+L0Ya1o5NBf25&#xA;J6D1U/rm4/O4P58P9MHafmsX8+PzDyX8yNU+veZpo1NYrJRbr/rDd/8AhiR9GaXtDLxZSO7Z1Oty&#xA;cWT3MWzBcRXsE53kQ/yq/dvlWc1AteU1EshzUOudirsVdirsVdirsVdirsVUL9OdnKPBa/dvluA1&#xA;MNmI1IMezbuxZJb/ANxH/qL+rNLk+o+91k+ZV4P76P8A1h+vGH1BYcwxq8M5vJzcGtx6j+sfF+R5&#xA;fjm8ndm+btZXZvmo5FiidMNL6L6f+InKNT9Bas30FP8ANU692KuxV2KuxV2KuxV2KuxVSuzS1m/1&#xA;G/Vk8X1j3s8f1Bjmbl2TJLf+4j/1F/VmlyfUfe6yfMq8H99H/rD9eMPqCw5hA+ebH6n5q1CMCiyS&#xA;esvylAc/ixGdJrYcOWXz+bu9XDhyFIsxXHVLeT05437KwJ+XfIZI3EhjMWCGSZpnWOxV2KuxV2Ku&#xA;xV2KuxV2KoTVJOFm47vRR9P9mX6aNzDdgFySLNq57JLf+4j/ANRf1Zpcn1H3usnzKvB/fR/6w/Xj&#xA;D6gsOYTP83bHhqNjfAbTRNEx942qPwkzr+1YVIS7w9J2jD1AsBzVOudiqfabcCa2AJ+OP4W/gc1W&#xA;ox8MvIuBmhUkVlDS7FXYq7FXYq7FXYq7FUm1e4EkwiU/DH1/1jmx0uOo33ubp4UL70BmW5DMPyyt&#xA;vrnmJlnHqww27vwf4lrVUGx2/azN7OwQlk3AO3c5ehxRlk3A5PVhpmmg1FpDX/jGn9M3v5XF/Nj8&#xA;g7f8vj/mj5BjP5o2H1nyyZ1HxWcqS178W/dn/iYOY3aULxX3Fo18Lx33PH8550jsVVrS5a3mDjcd&#xA;GXxGVZcYmKYZIcQpkEUqSoHQ1U9DmqlExNF10okGiuyKHYq7FXYq7FXYqhNQvlt04qazN0Hh7nMj&#xA;Bh4zZ5N2LFxHySIkk1O5ObRz3Yq9D/KC3rcalckfYSKMH/XLE/8AEBm37JjvI+52fZsdyXpmbp2q&#xA;D1mx+v6TeWfe4hdF/wBYqeJ+g5XmhxQMe8NeWHFEjvfPhBBodiOozknm3Yq7FVe1vJbZqoaqftIe&#xA;hyrLiExu1zxiSc21/bzgBW4v/I2x+jxzXZMEo+5wp4jFEZS1uxV2KuLBQSxoB1JxAtQEuu9WRAUg&#xA;+Nv5+w/rmZi0pO8nJx6cnmlLuzsWY1Y7knM8AAUHLAprCl2KvVvykt+Gh3c56y3JX6ERf4sc33ZU&#xA;fQT5u47OHoJ82c5s3YOxV4T5x046f5lv7cLxjMpli8OEvxiny5UzltXj4MpDz2phw5CEmzHaHYqr&#xA;RWc0sJljHLiaFR16VyqWURNFrlkANFRIINDsR2y1sV4r67jFFkNPA7/ryqWGB5hrliieisNYux/K&#xA;fo/tyr8pBh+Xi02rXjDYhfkP61wjSwCRp4oaWeaU/vHLfM7ZdGAjyDZGIHJ0UMsrUjQsfbDKYjzK&#xA;ykBzX3NrJbsquRyYVoO2Rx5RPkiExLko5YzcASQAKk7ADFXunk3RpdI8v21pP/vQayzDwZzXj/sR&#xA;tnUaTCceMA83oNNiMIAHmneZLkOxVj/m7yhaeYLTtDfxD/R7in/CPTqp/DMTVaQZR/ScbU6YZB5v&#xA;GtT0y+0y8ezvYjFPH1B6EdmU9wc5zJjlA1Lm6PJjMDRQuQYJvop/cyD/ACv4Zr9Z9QcPU8wjJrW3&#xA;m/vEBP8AN0P3jMaGWUeRaY5DHkg30WE/YkZfnQ/0zJjrD1DcNSeoU/0I3+/h/wAD/bk/zo7mX5ny&#xA;XLoi/tSk/IU/icidYegQdT5IiLS7NNypc+LGv4dMqlqZnya5Z5FFKqqKKAoHYbDMcm2om0n1k/6U&#xA;vsg/Wc2Wj+j4uZpvpQGZTkM1/LPy0b/Uf0pcJW0smHpV6PN1H/AdfnTNl2dpuKXGeQ+9z9Dg4pcR&#xA;5D73rWb93LsVdirsVSLzh5Zh17S2iAAvYQXtJT2b+Un+Vu/35i6vTDLGv4ujj6nAMkfPo8Pkjkik&#xA;aORSkiEq6nYgg0IOcyRRougIpONGSloz+MhHvsq/1zA1o5H3uJqRyKOzBcR2KuxV2KuxV2KpJq5r&#xA;eH2UZs9J9Dnaf6UV5Y8uXevaktrDVIVo1zPSoRP6nsM2Om05yyocurm4MBySoPcNP0+00+zis7SM&#xA;R28K8UUfiT4k9TnTY8YhERHIPQQgIihyRGTZOxV2KuxV2KsP8w/lvYavqpv0uWtDKP8ASI0QNzcf&#xA;tAkjiSOu2a/UdnxyT4rpws2ijOXFdJD5g8u2GgR2tlaySSs5kmleUrX4uKinELt8Gc921gjiMIjz&#xA;P3fqdL2phjj4YjzP3JNmjdS7FXYq7FXYq7FU5sPy+i1yC1vxdegh5pdKF5MSrHjx3AFV8c6bs3QD&#xA;LhjK65383faHRjJjBvvtn2iaFpui2YtbGPghPJ3Y1d26cmOdFhwRxiou7xYowFBMMtbHYq7FXYq7&#xA;FXYq7FXm3nW59bX5VBqIFSMfdyP4sc4jtrJxagj+aAPx83k+1Z8Wc+WyQ5qXXOxV2KuxV2KuxV6H&#xA;5Bk5aK6/77nYU9iqn+Odj2BK8BHdI/oen7HleEjul+pkmbx2zsVdirsVdirsVdirsVeQ6jc/WtQu&#xA;bjtLI7j5Ekj8M841OXxMkpd5Lw+fJxzlLvKGylqdirsVdirsVdirOfy7kraXkf8ALIrf8EpH/Gud&#xA;X7Oy9Ex5h6LsSXpkPNl2dE7t2KuxV2KuxV2KuxVB6zcfVtKu560KRPxP+URRfxzG1mTgwyl3RLRq&#xA;p8GKR8i8kzzt4l2KuxV2KuxV2KuxVmP5dSUmvo/5ljb/AIEsP+Ns6T2dl6pj3fpd72Id5D3M2zqX&#xA;oHYq7FXYq7FXYq7FWP8Anm49LQXStDPIkf3Hn/xrmn7cycOnI/nED9P6HWdrTrDXeR+t5xnFPKux&#xA;V2KuxV2KuxV2Ksp/L56atOn80BP3Ov8AXN97PS/fSH9H9Idx2Kf3pH9H9IZ9nXvSuxV2KuxV2Kux&#xA;V2KsT/MMP9RtCPsCVgw9yu38c572iB8OPdbpe2r4I+9gmcm847FXYq7FXYq7FXYqyHyK/HXlH88T&#xA;r+o/wzcdhSrUe8F2fZBrN8C9GztXqnYq7FXYq7FXYq7FUi87W3raBKwFTA6Sj7+J/Bs1PbeLi05P&#xA;80g/o/S63tXHxYD5bvNc4h5R2KuxV2KuxV2KuxVO/JjEeY7UD9oSA/8AItj/AAzadjH/AAmPx+4u&#xA;w7LP7+Px+4vTM7l612KuxV2KuxV2KuxVRvLZLq0mtn+zMjIT4chSuVZsQyQMT/EKa8uMTiYnqHlW&#xA;paTf6bN6V3EU/lcbo3+q2cBqdJkwyqYr7njc+mniNSCDzGaHYq7FXYq7FXYqm/lP/lIbP/Wb/iDZ&#xA;seyf8Zh+Ohc3s7+/j+Oj1DO8ewdirsVdirsVdirsVdiqncW1vcxNDcRrLE3VGFRkMmKMxwyFhhPH&#xA;GYqQsMS1fyCrFpdMk4Hr9XkJp/sX6/f9+c7q+wAd8R+B/W6XU9jg74z8D+tid7pl/Yvwu4HiPYsP&#xA;hPyYbHOez6bJiNTiQ6XLgnjNSFKUVtczf3UTyf6ilv1ZXDFKXIEsI45S5AlHQeW9empwsZRX+ccP&#xA;+J8cy4dm6iXKB+O33uRDQ5pcon7vvR0PkXXpPtiKL/Xev/EA2ZcOwtQedD3n9VuTHsjMedD4/qRC&#xA;fl9qxPx3ECjxBc/rUZaPZ7N1lH7f1Ng7Fy9TH7f1J3oPk2DTbpbuWczzoD6YC8VXkKE9STsc2ug7&#xA;GjgnxmXFIfJ2Gj7LGKXETZZHm6dq7FXYq7FX/9k=</xmpGImg:image>
               </rdf:li>
            </rdf:Alt>
         </xmp:Thumbnails>
      </rdf:Description>
      <rdf:Description rdf:about=""
            xmlns:xmpTPg="http://ns.adobe.com/xap/1.0/t/pg/"
            xmlns:stDim="http://ns.adobe.com/xap/1.0/sType/Dimensions#"
            xmlns:xmpG="http://ns.adobe.com/xap/1.0/g/">
         <xmpTPg:MaxPageSize rdf:parseType="Resource">
            <stDim:w>722.909180</stDim:w>
            <stDim:h>1103.862305</stDim:h>
            <stDim:unit>Pixels</stDim:unit>
         </xmpTPg:MaxPageSize>
         <xmpTPg:NPages>1</xmpTPg:NPages>
         <xmpTPg:HasVisibleTransparency>False</xmpTPg:HasVisibleTransparency>
         <xmpTPg:HasVisibleOverprint>False</xmpTPg:HasVisibleOverprint>
         <xmpTPg:PlateNames>
            <rdf:Seq>
               <rdf:li>Cyan</rdf:li>
               <rdf:li>Magenta</rdf:li>
               <rdf:li>Yellow</rdf:li>
            </rdf:Seq>
         </xmpTPg:PlateNames>
         <xmpTPg:SwatchGroups>
            <rdf:Seq>
               <rdf:li rdf:parseType="Resource">
                  <xmpG:groupName>Default Swatch Group</xmpG:groupName>
                  <xmpG:groupType>0</xmpG:groupType>
               </rdf:li>
            </rdf:Seq>
         </xmpTPg:SwatchGroups>
      </rdf:Description>
      <rdf:Description rdf:about=""
            xmlns:dc="http://purl.org/dc/elements/1.1/">
         <dc:format>image/svg+xml</dc:format>
      </rdf:Description>
      <rdf:Description rdf:about=""
            xmlns:xmpMM="http://ns.adobe.com/xap/1.0/mm/"
            xmlns:stRef="http://ns.adobe.com/xap/1.0/sType/ResourceRef#"
            xmlns:stEvt="http://ns.adobe.com/xap/1.0/sType/ResourceEvent#">
         <xmpMM:DerivedFrom rdf:parseType="Resource">
            <stRef:instanceID>xmp.iid:DBE7F04CC1F5EB1199B1AF4FA3EF126E</stRef:instanceID>
            <stRef:documentID>xmp.did:DBE7F04CC1F5EB1199B1AF4FA3EF126E</stRef:documentID>
            <stRef:originalDocumentID>xmp.did:DAE7F04CC1F5EB1199B1AF4FA3EF126E</stRef:originalDocumentID>
            <stRef:renditionClass>proof:pdf</stRef:renditionClass>
         </xmpMM:DerivedFrom>
         <xmpMM:DocumentID>xmp.did:DCE7F04CC1F5EB1199B1AF4FA3EF126E</xmpMM:DocumentID>
         <xmpMM:InstanceID>xmp.iid:DCE7F04CC1F5EB1199B1AF4FA3EF126E</xmpMM:InstanceID>
         <xmpMM:OriginalDocumentID>xmp.did:DAE7F04CC1F5EB1199B1AF4FA3EF126E</xmpMM:OriginalDocumentID>
         <xmpMM:History>
            <rdf:Seq>
               <rdf:li rdf:parseType="Resource">
                  <stEvt:action>saved</stEvt:action>
                  <stEvt:instanceID>xmp.iid:DAE7F04CC1F5EB1199B1AF4FA3EF126E</stEvt:instanceID>
                  <stEvt:when>2021-08-05T18:54:20+05:00</stEvt:when>
                  <stEvt:softwareAgent>Adobe Illustrator CS6 (Windows)</stEvt:softwareAgent>
                  <stEvt:changed>/</stEvt:changed>
               </rdf:li>
               <rdf:li rdf:parseType="Resource">
                  <stEvt:action>saved</stEvt:action>
                  <stEvt:instanceID>xmp.iid:DCE7F04CC1F5EB1199B1AF4FA3EF126E</stEvt:instanceID>
                  <stEvt:when>2021-08-05T19:01:46+05:00</stEvt:when>
                  <stEvt:softwareAgent>Adobe Illustrator CS6 (Windows)</stEvt:softwareAgent>
                  <stEvt:changed>/</stEvt:changed>
               </rdf:li>
            </rdf:Seq>
         </xmpMM:History>
         <xmpMM:RenditionClass>proof:pdf</xmpMM:RenditionClass>
      </rdf:Description>
   </rdf:RDF>
</x:xmpmeta>
                                                                                                    
                                                                                                    
                                                                                                    
                                                                                                    
                                                                                                    
                                                                                                    
                                                                                                    
                                                                                                    
                                                                                                    
                                                                                                    
                                                                                                    
                                                                                                    
                                                                                                    
                                                                                                    
                                                                                                    
                                                                                                    
                                                                                                    
                                                                                                    
                                                                                                    
                                                                                                    
                           
<?xpacket end="w"?>
	</metadata>
<g id="svg-case">
	<path fill="#62BB47" d="M250,711.5l-5.5,83l-28,4.5c0,0-8-10.5-9-12.5s-13.5-23.5-21-31.25S152,727.5,147.5,717s-42-169.5-41-171.5
		s15.5-53,17.5-53.5s32.5-74.5,34.5-76s-2.899-26.901,0.601-31.401S207,320.5,207,320.5s3.5-11.5,7-14s36-8.5,36-8.5v11.5v52
		c0,0,108.5-48,206,2v-61c0,0,11-3.5,22,0.5s24.5,39.5,25,41s64,105,64.5,110s-8.5,55-8.5,55s-22.5,46,11.5,76L555,701.5
		c0,0-22.5,38.5-27.5,46s-29,35-32.5,40s-24,14-25.5,14s-8-11-8-11L458,770l1-48.5c0,0-70,44.947-193.333,11.167L259,731.334
		l-10.667-22.667"/>
</g>
<g id="svg-bezel">
	<path fill="#62BB47" d="M352,343.5c-109.721,0-198.667,88.946-198.667,198.667S242.279,740.834,352,740.834
		s198.666-88.946,198.666-198.667S461.721,343.5,352,343.5z M352,705.166c-90.022,0-163-72.977-163-162.999s72.978-163,163-163
		s163,72.978,163,163S442.022,705.166,352,705.166z"/>
</g>
<g id="svg-strap">
	<g>
		<path fill="#67EF3A" d="M245,706.666l3.333,92.667c0,0-30,143.997-30,154.664s10.667,63.334,15,68.667s73.667,44,89,44
			s83.333-11.333,93.333-12s52.001,0.666,59.334-12.667s-14.667-241.333-14.667-241.333L465,706.666
			C465,706.666,345.001,777.335,245,706.666z"/>
		<path fill="#67EF3A" d="M245.667,367.664c0,0,97.333-54.667,212,0l2.667-90L479,198c0,0,40-49,40-55s-15-50-15-50s-22-19-25-19
			S352,62,343,62s-55-4-65,0s-58-5-63,11s-8,16-8,29s3,27,0,35s19,55,19,62s-4,4.887,0,14.943S231,234,236,238s12,41,12,41
			L245.667,367.664z"/>
	</g>
</g>
<g id="svg-winder">
	<rect x="550.666" y="497.5" fill="#67EF3A" width="57.666" height="99.5"/>
</g>
<g id="svg-face">
	<circle fill="#67EF3A" cx="352.333" cy="541.167" r="158.833"/>
</g>
<g id="svg-skull">
	<path fill="#67EF3A" d="M289.5,653c-7.612-18.591-3.698-44.682-20.663-57.889c-18.75-14.597-14.26-40.655-15.337-61.737
		c-0.681-13.336-1.5-26.526-1.5-40.29c0-6.417-1.381-25.686,4.611-29.361c1.046-4.546,0.8-9.185,1.386-13.792
		c0.994,1.396,1.708,2.94,2.116,4.587c0.62-4.024,0.646-8.094,1.377-12.104c12.34,5.068,9.938-7.544,11.462-16.018
		c2.819,0.042,5.2-0.718,7.545-2.259c5.866-3.853,4.128-9.885,6.002-16.424c13.934-0.444,27.683-7.489,41.502-9.225
		c13.804-1.733,28.921-4.78,42.962-2.375c10.057,1.723,23.225,1.691,31.534,7.399c4.152,2.852,8.533,6.213,12.527,9.351
		c9.339,7.336,16.746,17.637,24.987,26.137c8.385,8.649,17.151,20.61,17.985,32.915c0.854,12.605,1.632,26.427,0.5,39.097
		c-1.068,11.966-9.156,23.646-13.123,34.962c-4.006,11.423-5.256,23.792-7.377,35.625c-0.96,5.358-1.123,11.083-3.971,15.927
		c-3.439,5.853-10.816,7.353-14.539,12.5c-2.774,3.837-2.719,9.657-3.403,14.338c-0.799,5.47-1.221,10.913-2.196,16.148
		c-0.915,4.91-0.824,11.463-2.852,15.977c-2.27,5.056-7.453,7.228-9.452,12.51c-3.375,8.921-6.957,18.569-16.696,22.599
		c-18.766,7.766-44.938,7.262-63.879,0.889c-17.805-5.989-33.39-25.541-33.51-44.985"/>
</g>
<g id="svg-hour">
	<path fill="#67EF3A" d="M264.667,484.667c0.876,4.363,6.463,7.201,9.64,9.742c3.016,2.414,4.814,5.171,7.028,8.249
		c5.366,7.461,12.99,11.67,19.247,18.099c5.621,5.776,9.318,11.123,17.053,14.577c7.861,3.51,14.129,8.594,21.049,13.332
		c2.945,2.016,5.993,3.98,8.575,6.26c2.341,2.068,4.88,4.284,7.742,5.686c2.963,1.451,6.663,2.455,9.984,3.074
		c3.39,0.632,9.094,2.617,12.364,0.721c3.087-1.79,2.937-6.218,5.374-8.729c2.583-2.661,4.652-3.838,3.295-8.426
		c-1.813-6.125-10.854-9.343-15.766-12.492c-5.025-3.223-7.813-8.523-12.595-12.001c-5.331-3.877-11.571-7.338-17.324-10.758
		c-7.363-4.376-14.758-8.297-22.016-12.619c-5.638-3.357-10.129-8.726-15.585-12.166c-4.544-2.864-9.618-4.792-14.364-6.875
		c-4.713-2.068-8.938-4.926-14.042-5.681c-4.738-0.701-11.136,0.734-12.333,5.683c-1.691,6.991,6.422,2.946,5.675,8.991"/>
</g>
<g id="svg-min">
	<path fill="#67EF3A" d="M315.333,546c3-1.474,4.436-5.149,6.727-7.65c2.78-3.036,7.574-5.217,11.192-7.324
		c7.698-4.482,16.193-8.252,24.054-12.09c6.354-3.102,12.436-5.979,18.352-9.586c3.443-2.1,6.955-3.806,10.52-5.692
		c4.638-2.455,8.254-4.968,12.841-7.231c8.23-4.06,16.743-7.432,24.723-12.167c7.241-4.296,14.057-8.84,21.26-12.936
		c3.859-2.194,5.388-3.872,9.424-2.397c4.904,1.791,5.778,2.506,6.593,7.749c1.374,8.852-2.049,12.865-8.91,17.985
		c-7.658,5.715-16.37,9.674-24.211,14.692c-7.625,4.88-14.64,10.874-22.319,15.833c-6.215,4.013-11.386,9.292-17.409,13.499
		c-6.525,4.557-13.771,8.22-20.192,12.994c-6.168,4.584-11.095,9.218-17.701,12.749c-5.458,2.918-13.307,6.841-19.942,5.574
		c-4.42-0.844-9.882-8.84-11.266-13.267c-1.115-3.567-3.525-14.431-0.399-17.4"/>
</g>
<g id="svg-tip">
	<g>
		<circle fill="#67EF3A" cx="276.75" cy="485" r="10.25"/>
		<circle fill="#67EF3A" cx="451" cy="479.25" r="10.25"/>
	</g>
</g>
<g id="svg-lumi">
	<path fill="#67EF3A" d="M339.25,522.625c0,0-6.599-4.418-14.539-9.808c0.1-0.592,0.164-1.196,0.164-1.817
		c0-6.006-4.869-10.875-10.875-10.875c-2.03,0-3.923,0.566-5.55,1.535c-4.831-3.369-8.723-6.162-10.2-7.41
		c-5.25-4.438-8.375-2.438-10.188,0s0.75,5.313,0.75,5.313s6.567,4.68,14.384,10.222c-0.044,0.399-0.072,0.804-0.072,1.215
		c0,6.006,4.869,10.875,10.875,10.875c1.708,0,3.318-0.405,4.757-1.107c5.557,3.897,9.76,6.8,10.118,6.919
		c1.125,0.375,5.188,6.688,10.813,3.375S339.25,522.625,339.25,522.625z"/>
	<path fill="#67EF3A" d="M436.334,488.167c-3.166-5-11.167,1.333-11.167,1.333s-8.224,4.984-18.339,11.103
		c-1.651-1.018-3.59-1.615-5.673-1.615c-5.989,0-10.845,4.855-10.845,10.845c0,0.247,0.021,0.488,0.037,0.73
		c-9.658,5.829-18.092,10.901-20.181,12.104c-5.5,3.167-1.167,8-1.167,8c4.333,3.333,10-2,10-2s7.1-4.457,15.956-9.942
		c1.758,1.228,3.893,1.954,6.199,1.954c5.989,0,10.845-4.855,10.845-10.845c0-0.509-0.047-1.006-0.115-1.497
		c8.031-4.868,14.883-8.898,16.782-9.67C434,496.5,439.5,493.167,436.334,488.167z"/>
</g>
</svg>
