<?xml version="1.0" encoding="utf-8"?>
<!-- Generator: Adobe Illustrator 16.0.0, SVG Export Plug-In . SVG Version: 6.00 Build 0)  -->
<!DOCTYPE svg PUBLIC "-//W3C//DTD SVG 1.1//EN" "http://www.w3.org/Graphics/SVG/1.1/DTD/svg11.dtd" [
	<!ENTITY ns_flows "http://ns.adobe.com/Flows/1.0/">
	<!ENTITY ns_extend "http://ns.adobe.com/Extensibility/1.0/">
	<!ENTITY ns_ai "http://ns.adobe.com/AdobeIllustrator/10.0/">
	<!ENTITY ns_graphs "http://ns.adobe.com/Graphs/1.0/">
]>
<svg version="1.1" xmlns:x="&ns_extend;" xmlns:i="&ns_ai;" xmlns:graph="&ns_graphs;"
	 xmlns="http://www.w3.org/2000/svg" xmlns:xlink="http://www.w3.org/1999/xlink" xmlns:a="http://ns.adobe.com/AdobeSVGViewerExtensions/3.0/"
	 x="0px" y="0px" width="722.909px" height="1103.862px" viewBox="0 0 722.909 1103.862"
	 enable-background="new 0 0 722.909 1103.862" xml:space="preserve">
<metadata><?xpacket begin="﻿" id="W5M0MpCehiHzreSzNTczkc9d"?>
<x:xmpmeta xmlns:x="adobe:ns:meta/" x:xmptk="Adobe XMP Core 5.3-c011 66.145661, 2012/02/06-14:56:27        ">
   <rdf:RDF xmlns:rdf="http://www.w3.org/1999/02/22-rdf-syntax-ns#">
      <rdf:Description rdf:about=""
            xmlns:xmp="http://ns.adobe.com/xap/1.0/"
            xmlns:xmpGImg="http://ns.adobe.com/xap/1.0/g/img/">
         <xmp:CreatorTool>Adobe Illustrator CS6 (Windows)</xmp:CreatorTool>
         <xmp:CreateDate>2021-08-05T19:51:39+05:00</xmp:CreateDate>
         <xmp:MetadataDate>2021-08-05T19:51:40+05:00</xmp:MetadataDate>
         <xmp:ModifyDate>2021-08-05T19:51:40+05:00</xmp:ModifyDate>
         <xmp:Thumbnails>
            <rdf:Alt>
               <rdf:li rdf:parseType="Resource">
                  <xmpGImg:width>160</xmpGImg:width>
                  <xmpGImg:height>256</xmpGImg:height>
                  <xmpGImg:format>JPEG</xmpGImg:format>
                  <xmpGImg:image>/9j/4AAQSkZJRgABAgEASABIAAD/7QAsUGhvdG9zaG9wIDMuMAA4QklNA+0AAAAAABAASAAAAAEA&#xA;AQBIAAAAAQAB/+4ADkFkb2JlAGTAAAAAAf/bAIQABgQEBAUEBgUFBgkGBQYJCwgGBggLDAoKCwoK&#xA;DBAMDAwMDAwQDA4PEA8ODBMTFBQTExwbGxscHx8fHx8fHx8fHwEHBwcNDA0YEBAYGhURFRofHx8f&#xA;Hx8fHx8fHx8fHx8fHx8fHx8fHx8fHx8fHx8fHx8fHx8fHx8fHx8fHx8fHx8f/8AAEQgBAACgAwER&#xA;AAIRAQMRAf/EAaIAAAAHAQEBAQEAAAAAAAAAAAQFAwIGAQAHCAkKCwEAAgIDAQEBAQEAAAAAAAAA&#xA;AQACAwQFBgcICQoLEAACAQMDAgQCBgcDBAIGAnMBAgMRBAAFIRIxQVEGE2EicYEUMpGhBxWxQiPB&#xA;UtHhMxZi8CRygvElQzRTkqKyY3PCNUQnk6OzNhdUZHTD0uIIJoMJChgZhJRFRqS0VtNVKBry4/PE&#xA;1OT0ZXWFlaW1xdXl9WZ2hpamtsbW5vY3R1dnd4eXp7fH1+f3OEhYaHiImKi4yNjo+Ck5SVlpeYmZ&#xA;qbnJ2en5KjpKWmp6ipqqusra6voRAAICAQIDBQUEBQYECAMDbQEAAhEDBCESMUEFURNhIgZxgZEy&#xA;obHwFMHR4SNCFVJicvEzJDRDghaSUyWiY7LCB3PSNeJEgxdUkwgJChgZJjZFGidkdFU38qOzwygp&#xA;0+PzhJSktMTU5PRldYWVpbXF1eX1RlZmdoaWprbG1ub2R1dnd4eXp7fH1+f3OEhYaHiImKi4yNjo&#xA;+DlJWWl5iZmpucnZ6fkqOkpaanqKmqq6ytrq+v/aAAwDAQACEQMRAD8A9U4q7FXYq7FVG5vrK1Xl&#xA;dXEUC0rWV1QU/wBkRkZTjHmaYymBzNJJeef/ACna1DX6yt/LCrSV+lRx/HMaeuxR6tEtZjHVJLz8&#xA;3NJSotLKacjvIViB+71D+GYs+1YDkCXHl2jHoCkl3+bOuSbW1tBbjxIaRvvJUfhmNPtSZ5ABol2j&#xA;M8gAlsn5keb3+zeLH/qxRf8AGytlJ7Qzd/2BqOty96El87+a5PtalKO3w8U/4iBlZ1uU/wARYHVZ&#xA;D1QsvmTzDL/eandMPD1pKfdWmQOoyH+I/Ngc8z/EfmhJb69l/vbiWTr9p2PXr1OVmcjzLAzJ6orR&#xA;df1TRrr6xYTFCf7yM7xuB2Ze/wCvLMOeWM3Es8WaUDcXrHlfz7petBYJSLTUDt6Dn4XP/Fbd/l1z&#xA;fabXRybHaTuMGrjk25SZPma5bsVdirsVdirsVdirsVdirAvzXutQtrXT2tbiWCJ2lSZY3ZA1QpXl&#xA;QitKHNV2pKQEaNc3XdoSkAKLy5nZ2LOSzHqxNSc0ZLqGsVdirsVdirsVdirsVdiq+GOSWaOOIEyu&#xA;wVAOvImgwgEmgkCy+h7SA29pDAXMhijVDIxJZuIAqSdyTnXQjQAeliKACrkmTsVdirsVdirsVdir&#xA;sVYb+atv6vlpJQN4LhHJ9mVk/WwzXdpxvFfcXB7QjeP4vIs590rsVdirsVdirsVdirsVdirIvy/0&#xA;7695qswwrHbk3D/88xVf+H45maDHxZR5buVo4cWQeW723Old87FXYq7FXYq7FXYq7FXYqkPnu3+s&#xA;eUtRTusYkH/PN1f/AI1zF1sbxScbVxvGXh2cw6B2KuxV2KuxV2KuxV2KuxV6V+UWnUiv9SYfaK28&#xA;R/1Rzf8AWubnsrHsZfB2vZ0NjL4PRc3Ds3Yq7FXYq7FXYq7FXYq7FUJq9v8AWdKvbalfWgkjp/rI&#xA;RleWPFAjvDDJG4keT57zknmnYq7FXYq7FXYq7FXYq7FXsGh3+l+VfJ1g2oSem86et6SisjtKeey7&#xA;fZUgHOhwzjgwji6u7xTjhxDiZHpes6Zqtv69hcJOm3IKfiUnsyndT88zMWaMxcTbk48sZi4lGZY2&#xA;OxV2KuxV2Kqd1L6NtNL/AL7Rm/4EVyMjQJRI0LeMS/mL5wkqPr/AHssUQ/HhXOcPaGY9fsDojrcv&#xA;ehZPOnmqT7Wpzjevwtx/4iBkDrMp/iLA6rIf4ihW8x+YGYM2p3ZZTVSZ5DQ+3xZD8xk/nH5sfGn/&#xA;ADj80vylqdirsVdirsVdirsVdircYBkUHcEioxChEajqV7qNy1zdyGSQgAeCqOiqOgA8MnkySmbL&#xA;OczI2VtlfXljcLcWczwTL0dCQfkfEe2CE5RNg0URmYmw9J8qfmbFcslnrZWGY0CXg+GNj/xYOin3&#xA;6fLNzpe0gdp7Hvdpp9de0/mz8EEAg1B3BGbZ2TsVdirsVQOvyenoWoyb/BazNt12jY5VnNY5HyLX&#xA;mNQPuL5+zk3m3Yq7FXYq7FXYq7FXYq4EUpQH33xVscdq1Hiev4Yq7jXoa+3fFW4/71f9YfrwjmkL&#xA;cCHYq7FWYeSfO+pabcQ6dMr3ljKwSOIVaSMsafu/Ef5P3ZsNHrZQIid4ubpdVKJ4TuHr+dC7t2Ku&#xA;xVJ/OMnDyvqbeNu6/wDBDj/HMfVmsUvc0ak/u5e54RnLPPOxV2KuNO2KuAJNAKk9AMVRcWl3cm5X&#xA;gPFtvw65jy1MB5tMs8QiU0T+eX6AP41yk6zuDWdT3Bf+hYP9+NX6Mh+cl3MfzJ7lraIv7MpHzFf4&#xA;5Iaw9QkanyQ8ukXSbrRx7Gh/HLo6qB57NkdREoN43RuLqVbwIpmQJA8m4EHk2rkEE70NRX2yVsrW&#xA;4EOxVWsrK7vrqO1tImmnlNEjUVJ/oPfJQgZGhzZRiZGhzev+TPI1tocYurmk2qON36rED1VPfxbO&#xA;g0miGLc7yd1ptIMe5+plWZ7mOxV2KoLWtLi1XS7jT5XaNLhQpdaVFCGHX3GVZsQyRMT1a8uPjiY9&#xA;7zOf8p/MC3PpwT28kJrxmZmTb/KXixB+Vc0suy8l7EU6o9nzvYhIPMPlm70GaOC8uIJJpByEcLMz&#xA;BfE8lWgzF1GmOI0SLcbNgOM0SEozHaUXZ6bLPR2+CL+buflmPl1AjtzLTkzCPvTiC0ggFI1oe7Hc&#xA;n6c188spc3DnkMuarlbB2KuxV2KuxVZLDFKvGRQw98lGZibDKMiOSV3ekslXgqy90PX6PHM7Fqgd&#xA;pOVj1F7FLumZjkorTNPk1G/gsonSOSdwitIeK1Pvk8ePjkIjqzxw4iAOr2ryx5T03QLbhAPVunA9&#xA;e6YfE3sP5V9s6XTaWOIbc+932DTxxjbmneZLe7FXYq7FXYqkvmvzJb6DpbXLUe5kqlrCf2n8T/kr&#xA;1OY2q1AxRvr0aNRnGON9XiF7e3N7dS3V1IZZ5m5O7dSf6eGczOZkbPN0EpGRs80Xp2nCQCaYfB+w&#xA;nj7n2zB1Gor0hxM2atgm/TYZr3DdirsVdirsVdirsVdirsVQOoacswMsQpKOo/m/tzKwajh2PJyM&#xA;WatjySXdT4MPvBzZAua9c/LzzgdVtv0devXULdapITvLGNq/6y9/v8c6DQavxBwy+ofa7rR6njHC&#xA;fqDM82LnOxV2KuxVp3VFLuQqqCWY7AAdTiSrwzzf5hk1zWZLkE/VY/3dqh7IO/zbqc5fV6g5Z306&#xA;PPanN4kr6Jfp1p9Ymq390m7e/tmu1GXgG3MuFmycI8096bDNW4DsVdirsVdirsVdirsVdirsVdiq&#xA;VatZ0/0hB7SD+OZ2lzfwly9Pk/hKE0+/ubC9hvLZuE8DB0b5dj7Hoc2OOZhISHMOZCZibD3rRdVg&#xA;1bS7e/g2Sdale6sNmU/I51OHKMkRIdXosWQTiJBG5a2OxV2KsR/MzWjYaB9Viak+oExCnURjeQ/T&#xA;sv05r+0c3Bjoc5OFrsvDCupePZzzpGRWduILdU/a6v8AM5p82Tilbrck+I2rZWwdirsVdirsVdir&#xA;sVdirsVdirsVadFdSrCqsKEexwg0bCQaY3cQmGZ4z+yfw7ZuMc+KILsoSsWz78ptaKXNxo8rfBKP&#xA;Xtwezrs4HzWh+jNz2XmomB97tOz8u5i9Ozdu2dirsVePfmfqRuvMrW4NY7KNYgO3JhzY/wDDAfRn&#xA;PdpZOLLXc6TXzvJXcxrTovUu0B6L8R+j+3NTqJVAutzSqJT/ADUuvdirsVdirsVdirsVdirsVdir&#xA;sVdirsVSnWoqSRyj9ocT8xmfo5bEOZppbELNB1FtO1mzvVNPRlUv7oTRx9KkjNjhycExLuc3Fk4J&#xA;CXc9T/5WHZf8skn/AAS5l/6IofzS5P8ALcP5pd/ysOy/5ZJP+CXH/RFD+aV/luH80pnoXmiDV7iS&#xA;COB4jGnMliDXcDt88ztD2pHUSMQCKFuXpO0I55EAVTxjXro3et39yTUS3EjKf8ksafhmnzy4pk+b&#xA;q8srmT5qmiJWSV/AAfef7M1usOwDhak7BNswHDdirsVdirsVdirsVdirsVdirsVdirsVQWrpW0r/&#xA;ACsD/D+OZOkPrb9OfUkqfaHzGbI8nNLJ80jq3Yqyr8vf+Onc/wDGH/jdc3/s9/ey/q/pDuexf7yX&#xA;9X9Ly0ksSSak7k5BrTXRPszfNf45ga3mHE1PRM8wnFdirsVdirsVdirsVdirsVdirsVdirsVQuqf&#xA;7wyf7H/iQy/TfWG3B9YSJPtD5jNoeTnlk+aR1bsVZV+Xv/HTuf8AjD/xuub/ANnv72X9X9Idz2L/&#xA;AHkv6v6XlzoUdkb7Skg/MbZAimshMdEb45V8QD91f65hawbAuLqRsE2zAcR2KuxV2KuxV2KuxV2K&#xA;uxV2KuxV2KuxVBau1LMj+ZgP4/wzJ0g9bfpx6klT7Q+YzZHk5pZPmkdW7FWVfl7/AMdO5/4w/wDG&#xA;65v/AGe/vZf1f0h3PYv95L+r+l5/5mtDaeYdRt6UCXEhX/VZuS/8KcnqYcOSQ80548MyPND6ZL6d&#xA;4lej/Cfp6fjmFqY3AuLnjcU+zVOvdirsVdirsVdirsVdirsVdirsVdirsVSrWpfijiHarH6dhmfo&#xA;48y5emjzKWp9ofMZmHk5JZPmkdW7FWVfl7/x07n/AIw/8brm/wDZ7+9l/V/SHc9i/wB5L+r+lI/z&#xA;W0w2+uxXyj93exDkf+LIqKf+F45n9qY6yCXe5faEKnfewkEggjYjcHNYQ4DI7acTwJIO43Hge+af&#xA;JDhkQ62ceE0q5Bg7FXYq7FXYq7FXYq7FXYq7FXYq4kAEk0A3JxAVjl1OZ53k7E/D8h0zcYocMQHZ&#xA;Qjwikx8p6YdS8xWNrSqGUPKO3CP42+8CmZmlx8eQBydPj45gPc/qVl/yzx/8Av8ATOk8CH80fJ33&#xA;hQ7h8nfUrL/lnj/4Bf6Y+BD+aPkvhQ7h8l8dvbxEmOJEJ2JVQP1ZKOOMeQAZRhEcgx/z7oZ1by9M&#xA;sa8rm1/0iAAVJKA8lFP5lr9NMxtdh8TGa5jdx9Xi44eYeJ5zToUbpd4IZfTc0jk7+B8cxtTi4hY5&#xA;hoz47FjmneaxwXYq7FXYq7FXYq7FXYq7FXYq7FUt1a7Cr9XQ/E32/YeGZmlxWeIuTp8fUpTmwcx6&#xA;b+U+iGOC41iVaGb9xbVH7CmrsPmwA+g5uuy8NAzPXYO17PxUDIvQs27s3Yq7FXYq8Z/MDyydI1Y3&#xA;EC0sLwl4qdEfqyfxHtnOa/TeHOx9JdHrMHBKxyLFswXDTXTdRBAgmNGGyOe/scwNRp/4ouJmw9Qm&#xA;eYTiuxV2KuxV2KuxV2KuxV2KoS/v0t0KqazHoPD3OZGDAZmzybsWLi9yRszMxZjViaknNmBTnAUj&#xA;9A0W51nVIbCDYuayydQkY+0x+X68vwYTkkIhuw4jOVB7zZWdvZWkNpbrwggQJGvsopnUwgIgAcg9&#xA;DGIiKCtkmTsVdirsVQOtaPZ6vp0tjdLWOQfCw+0jD7Lr7jKs2IZImJa8uMTjReHa7ol7o2oyWV2v&#xA;xLvHIPsuh6Mucxnwyxy4S8/lxGEqKX5U1phZ6q8YEc1WQdG7j+uYmbSiW45uPkwA7hNopY5V5RsG&#xA;XxGYEoGJouJKJHNdkWLsVdirsVdirTMqgsxAA6k7DCATySBaXXerqtUt927yHp9GZmLS9ZOTj0/U&#xA;pUzMzFmNWO5JzOApygF9vbz3M8cECGSaVgscaipJPQDJRiSaHNlGJJoPavJnlSLQNPpJR7+ejXMo&#xA;6DwRfZfxzpdHpRij/SPN32l04xx8yyHMtyXYq7FXYqw/8wvNWpaEtitgyCS4Mhk5qG2TjTv/AJWa&#xA;7X6mWKuHq4Ws1EsdcPVhn/K0PNf+/If+RQ/rmu/lLL5OB+fyJfrXnDVdagWHUFhkVDyjdY+Lqe/F&#xA;ge+U5tXPIKlTXl1MpipJHmM47sVXRyyRtyjYq3iDTAYg80EA80bFrM67SKJB4/ZP4bfhmNLSRPLZ&#xA;olp4nkil1m2IHJHB70AI/XlB0cuhazpj0KoNUsSP7yntxb+mR/KTY/l5LDrFoDsHPuAP4kYRo5dU&#xA;jTSQ8mtSEUjjCnxY1/pl0dGOpbI6YdUDNczzGsrlvAdvuGZMMcY8g3xgByU8mydiqa6B5iutDuWu&#xA;bSCCSdhxEkysxUdwtGWle+X4NQcRsAW3YcxxmwAyaL83dYH99ZW7+PDmn62bM0dqz6gOWO0ZdQHo&#xA;ugam+qaPa37xCFrhefpg8gBUgb7dhm4wZOOAlyt2eHJxxEu9H5a2OxV2KvK/zcuOWs2Vv2jt+f0u&#xA;7D/jTNF2rL1geTp+0T6gPJgmat17sVdiq7iKDehIrv8AM/0w0laVI6j5HAh2KuxV2KuxV2KuxVdE&#xA;oaRVPRiAae5whIWk19h4YEOxV2KvoDy/B9X0HToe8dtErfPgK/jnWYI1jiPIPSYRUAPJH5a2OxV2&#xA;KpH5o8o6dr9tSX91eRikF0oqw/yWH7S+2Yup0sco3597j59PHIN+bxvWtD1HRrxrS+j4P1Rxujr/&#xA;ADKe4znc2GWOVSdHlxSgaKAyprdiq5/sp8v4nCUrQxHQ9eowIbJr1ArWtRt/ZirRpXbpirtqdd8V&#xA;dirsVdiq6E0mQ+DD9eEc0jmtwIdiq+3haaeOFftSMqD5saYYizSQLNPotVVVCqKKooB7DOwD07eK&#xA;uxV2KuxVA6zomnaxZNaX0QdDujjZ0b+ZD2OVZsMckak15cUZii8b80+UdR0C4/eD1rJyfQulGx/y&#xA;W/lb/MZzup0ksR35d7o9RppYz5N6F5I1/WOMkMHo2rf8fM1USnio+030DHBo8mTkKHeuLSznyGyj&#xA;5r0NdE1Qaespn4RIzSEcalqk0FTQZHVYfClw3eyNRi8OXCk+Y7Q7FXYq7FXYq7FXYqrWSo15Asn2&#xA;GkQP22LCuSh9QZR5h6nc/lN5fkqYLi5hPhyR1+4rX8c3kuy8Z5Eh28uz4dCUqufygnFTbakreCyR&#xA;FfxVm/VlEuyT0k0y7NPQofTPyz1+y1mynmMEttDPHJK0bmvFHDHZgmRx9nZIzBNUCxhoZxkCaq3q&#xA;ebx27sVdirsVdirsVWyxRSpwlRZEJB4sARUGo2PgcBAPNBFrsKXiX5g3f1nzbfEGqxFIl/2CAN/w&#xA;1c5rXzvKXQ6yV5Cx3MNxXYq7FXYq7FXYq7FV0ThJUc7hWBp8jXCDRSC+jc7B6d2KuxV2KuxV2Kux&#xA;V2KuxV2KuJABJNAOpxV88aldm81G6uz1uJnl/wCDYt/HORyS4pE95eZnLikT3ofIMXYq7FXYq7FX&#xA;Yq7FXYq+jIGLwxs32mUE/MjOwidnpxyX4UuxV2KuxV2KuxV2KuxV2Kpb5lvPqfl/ULmtGSB+B/ym&#xA;Xiv/AAxGU6mfDjkfJqzy4YE+TwLOUecdirsVdirsVdirsVdirsVfQulMH0uzcGoaCMg+xQZ12I+k&#xA;e56XH9I9yKybN2KuxV2KuxV2KuxV2KuxVIvPVs1x5S1KNa1WMSbeETrIfwXMXWxvFJx9XG8ZeG5z&#xA;Dz7sVdirsVdirsVdirsVdir3/wAvPz0DTHpTlaQGnzjU51mnN44+4fc9JhPoj7gmGWtjsVdirsVd&#xA;irsVdirsVdiqleWyXVpPbSfYnjaN/k6lT+vIzjxAjvYyjYIfO8sbxSvE4o6MVYeBBoc5EijTzRFL&#xA;cCHYq7FXYq7FXYq7FXYq978qo6eWtLVxRhaxVB90BzqtKKxx9wei04/dx9yaZe3OxV2KuxV2KuxV&#xA;2KuxV2KuxV4b54sPqXmnUIwKJJJ66eFJRzNPkSRnMa2HDlkPj83n9VDhyFIsxXHdirsVdirsVdir&#xA;sVZ75E8gtdtHqmrRlbQUa3tmG8vcM4/k8B3+XXa6LQ8Xqny7nY6TR36pcnqQAAoOmbx27sVdirsV&#xA;dirsVdirsVdirsVdirBfzR8uG7so9Xt0LXFqAk6qCS0ROxoP5GP3E5q+0tPxR4xzH3Ov1+HiHEOY&#xA;eVEEGh65onTuxVUS1uXpwiduX2eKk1+VMIiT0SIlER6LrEn93YXD1NBxic7+GwyYwzPIH5Mhikeh&#xA;Vv8ADXmP/q1Xn/SPL/zTkvy2T+bL5Fl4GT+afkqW/lHzPO/BNLuQT3kjaMfe/EZKOlyn+EpGmyH+&#xA;Es78pflolpIt7rXCaZaGK0X4o1Pi5/aPt0+ebTS9ncPqnue52On0Nbz+TPs2rsXYq7FXYq7FXYq7&#xA;FXYq/wD/2Q==</xmpGImg:image>
               </rdf:li>
            </rdf:Alt>
         </xmp:Thumbnails>
      </rdf:Description>
      <rdf:Description rdf:about=""
            xmlns:xmpTPg="http://ns.adobe.com/xap/1.0/t/pg/"
            xmlns:stDim="http://ns.adobe.com/xap/1.0/sType/Dimensions#"
            xmlns:xmpG="http://ns.adobe.com/xap/1.0/g/">
         <xmpTPg:MaxPageSize rdf:parseType="Resource">
            <stDim:w>722.909180</stDim:w>
            <stDim:h>1103.862305</stDim:h>
            <stDim:unit>Pixels</stDim:unit>
         </xmpTPg:MaxPageSize>
         <xmpTPg:NPages>1</xmpTPg:NPages>
         <xmpTPg:HasVisibleTransparency>False</xmpTPg:HasVisibleTransparency>
         <xmpTPg:HasVisibleOverprint>False</xmpTPg:HasVisibleOverprint>
         <xmpTPg:PlateNames>
            <rdf:Seq>
               <rdf:li>Cyan</rdf:li>
               <rdf:li>Magenta</rdf:li>
               <rdf:li>Yellow</rdf:li>
            </rdf:Seq>
         </xmpTPg:PlateNames>
         <xmpTPg:SwatchGroups>
            <rdf:Seq>
               <rdf:li rdf:parseType="Resource">
                  <xmpG:groupName>Default Swatch Group</xmpG:groupName>
                  <xmpG:groupType>0</xmpG:groupType>
               </rdf:li>
            </rdf:Seq>
         </xmpTPg:SwatchGroups>
      </rdf:Description>
      <rdf:Description rdf:about=""
            xmlns:dc="http://purl.org/dc/elements/1.1/">
         <dc:format>image/svg+xml</dc:format>
      </rdf:Description>
      <rdf:Description rdf:about=""
            xmlns:xmpMM="http://ns.adobe.com/xap/1.0/mm/"
            xmlns:stRef="http://ns.adobe.com/xap/1.0/sType/ResourceRef#"
            xmlns:stEvt="http://ns.adobe.com/xap/1.0/sType/ResourceEvent#">
         <xmpMM:DerivedFrom rdf:parseType="Resource">
            <stRef:instanceID>xmp.iid:DEE7F04CC1F5EB1199B1AF4FA3EF126E</stRef:instanceID>
            <stRef:documentID>xmp.did:DEE7F04CC1F5EB1199B1AF4FA3EF126E</stRef:documentID>
            <stRef:originalDocumentID>xmp.did:DAE7F04CC1F5EB1199B1AF4FA3EF126E</stRef:originalDocumentID>
            <stRef:renditionClass>proof:pdf</stRef:renditionClass>
         </xmpMM:DerivedFrom>
         <xmpMM:DocumentID>xmp.did:A9A543A4FCF5EB1199B1AF4FA3EF126E</xmpMM:DocumentID>
         <xmpMM:InstanceID>xmp.iid:A9A543A4FCF5EB1199B1AF4FA3EF126E</xmpMM:InstanceID>
         <xmpMM:OriginalDocumentID>xmp.did:DAE7F04CC1F5EB1199B1AF4FA3EF126E</xmpMM:OriginalDocumentID>
         <xmpMM:History>
            <rdf:Seq>
               <rdf:li rdf:parseType="Resource">
                  <stEvt:action>saved</stEvt:action>
                  <stEvt:instanceID>xmp.iid:DAE7F04CC1F5EB1199B1AF4FA3EF126E</stEvt:instanceID>
                  <stEvt:when>2021-08-05T18:54:20+05:00</stEvt:when>
                  <stEvt:softwareAgent>Adobe Illustrator CS6 (Windows)</stEvt:softwareAgent>
                  <stEvt:changed>/</stEvt:changed>
               </rdf:li>
               <rdf:li rdf:parseType="Resource">
                  <stEvt:action>saved</stEvt:action>
                  <stEvt:instanceID>xmp.iid:A9A543A4FCF5EB1199B1AF4FA3EF126E</stEvt:instanceID>
                  <stEvt:when>2021-08-05T19:51:40+05:00</stEvt:when>
                  <stEvt:softwareAgent>Adobe Illustrator CS6 (Windows)</stEvt:softwareAgent>
                  <stEvt:changed>/</stEvt:changed>
               </rdf:li>
            </rdf:Seq>
         </xmpMM:History>
         <xmpMM:RenditionClass>proof:pdf</xmpMM:RenditionClass>
      </rdf:Description>
   </rdf:RDF>
</x:xmpmeta>
                                                                                                    
                                                                                                    
                                                                                                    
                                                                                                    
                                                                                                    
                                                                                                    
                                                                                                    
                                                                                                    
                                                                                                    
                                                                                                    
                                                                                                    
                                                                                                    
                                                                                                    
                                                                                                    
                                                                                                    
                                                                                                    
                                                                                                    
                                                                                                    
                                                                                                    
                                                                                                    
                           
<?xpacket end="w"?>
	</metadata>
<g id="svg-case">
	<path fill="#62BB47" d="M182.5,335l63-4.5c0,0,10.5,4.5,12.5,8s0,41,0,41s-35.5,29-37.5,30s-17-2.5-22.5,0s-20-7-20-7L182.5,335z"
		/>
	<path fill="#62BB47" d="M448.5,381.5V338l21.5-17.5c0,0,31.5,16.5,35.5,20s32,23.5,33.5,26.5s-50.5,45-50.5,45L448.5,381.5z"/>
	<polygon fill="#62BB47" points="522,696 481.5,692.5 448.5,717.5 448.5,758 513,767.5 	"/>
	<path fill="#62BB47" d="M257,715.5V760l-33.5,16l-55-46l4.5-37.5h49.5C222.5,692.5,254,715,257,715.5z"/>
</g>
<g id="svg-bezel">
	<path fill="#62BB47" d="M352.333,356c-106.038,0-192,86.484-192,193.167c0,106.682,85.962,193.166,192,193.166
		c106.04,0,192-86.484,192-193.166C544.333,442.484,458.373,356,352.333,356z M352.333,700
		c-86.917,0-157.377-70.889-157.377-158.333c0-87.445,70.461-158.333,157.377-158.333c86.917,0,157.376,70.889,157.376,158.333
		C509.71,629.111,439.251,700,352.333,700z"/>
</g>
<g id="svg-strap">
	<path fill="#62BB47" d="M238.999,242.667c0,0,96-18,98-18.667s99.333-7.333,99.333-7.333l38.667,26L448.5,338v43.942
		c0,0-82.488-57.391-192.328,0l-6.506-54.609l-10.667-78V242.667z"/>
	<path fill="#62BB47" d="M257,716.873c0,0,78.667,55.539,190.667,0l0.833,45.794l3.833,89.334c0,0,2,26,0,31.333
		s-34,34.667-42,38.667s-15.332,5.333-28.666,5.333s-17.091,0-20.212,0c-3.122,0-93.122,6.667-94.455,0s-7.333-12.001-10-20.667
		s-14-59.333-12.667-63.333S257,776,257,776V716.873z"/>
</g>
<g id="svg-winder">
	<rect x="539.032" y="497.5" fill="#67EF3A" width="57.666" height="99.5"/>
</g>
<g id="svg-face">
	<circle fill="#67EF3A" cx="352.333" cy="541.167" r="158.833"/>
</g>
<g id="svg-skull">
	<path fill="#67EF3A" d="M289.5,653c-7.612-18.591-3.698-44.682-20.663-57.889c-18.75-14.597-14.26-40.655-15.337-61.737
		c-0.681-13.336-1.5-26.526-1.5-40.29c0-6.417-1.381-25.686,4.611-29.361c1.046-4.546,0.8-9.185,1.386-13.792
		c0.994,1.396,1.708,2.94,2.116,4.587c0.62-4.024,0.646-8.094,1.377-12.104c12.34,5.068,9.938-7.544,11.462-16.018
		c2.819,0.042,5.2-0.718,7.545-2.259c5.866-3.853,4.128-9.885,6.002-16.424c13.934-0.444,27.683-7.489,41.502-9.225
		c13.804-1.733,28.921-4.78,42.962-2.375c10.057,1.723,23.225,1.691,31.534,7.399c4.152,2.852,8.533,6.213,12.527,9.351
		c9.339,7.336,16.746,17.637,24.987,26.137c8.385,8.649,17.151,20.61,17.985,32.915c0.854,12.605,1.632,26.427,0.5,39.097
		c-1.068,11.966-9.156,23.646-13.123,34.962c-4.006,11.423-5.256,23.792-7.377,35.625c-0.96,5.358-1.123,11.083-3.971,15.927
		c-3.439,5.853-10.816,7.353-14.539,12.5c-2.774,3.837-2.719,9.657-3.403,14.338c-0.799,5.47-1.221,10.913-2.196,16.148
		c-0.915,4.91-0.824,11.463-2.852,15.977c-2.27,5.056-7.453,7.228-9.452,12.51c-3.375,8.921-6.957,18.569-16.696,22.599
		c-18.766,7.766-44.938,7.262-63.879,0.889c-17.805-5.989-33.39-25.541-33.51-44.985"/>
</g>
<g id="svg-hour">
	<path fill="#67EF3A" d="M264.667,484.667c0.876,4.363,6.463,7.201,9.64,9.742c3.016,2.414,4.814,5.171,7.028,8.249
		c5.366,7.461,12.99,11.67,19.247,18.099c5.621,5.776,9.318,11.123,17.053,14.577c7.861,3.51,14.129,8.594,21.049,13.332
		c2.945,2.016,5.993,3.98,8.575,6.26c2.341,2.068,4.88,4.284,7.742,5.686c2.963,1.451,6.663,2.455,9.984,3.074
		c3.39,0.632,9.094,2.617,12.364,0.721c3.087-1.79,2.937-6.218,5.374-8.729c2.583-2.661,4.652-3.838,3.295-8.426
		c-1.813-6.125-10.854-9.343-15.766-12.492c-5.025-3.223-7.813-8.523-12.595-12.001c-5.331-3.877-11.571-7.338-17.324-10.758
		c-7.363-4.376-14.758-8.297-22.016-12.619c-5.638-3.357-10.129-8.726-15.585-12.166c-4.544-2.864-9.618-4.792-14.364-6.875
		c-4.713-2.068-8.938-4.926-14.042-5.681c-4.738-0.701-11.136,0.734-12.333,5.683c-1.691,6.991,6.422,2.946,5.675,8.991"/>
</g>
<g id="svg-min">
	<path fill="#67EF3A" d="M315.333,546c3-1.474,4.436-5.149,6.727-7.65c2.78-3.036,7.574-5.217,11.192-7.324
		c7.698-4.482,16.193-8.252,24.054-12.09c6.354-3.102,12.436-5.979,18.352-9.586c3.443-2.1,6.955-3.806,10.52-5.692
		c4.638-2.455,8.254-4.968,12.841-7.231c8.23-4.06,16.743-7.432,24.723-12.167c7.241-4.296,14.057-8.84,21.26-12.936
		c3.859-2.194,5.388-3.872,9.424-2.397c4.904,1.791,5.778,2.506,6.593,7.749c1.374,8.852-2.049,12.865-8.91,17.985
		c-7.658,5.715-16.37,9.674-24.211,14.692c-7.625,4.88-14.64,10.874-22.319,15.833c-6.215,4.013-11.386,9.292-17.409,13.499
		c-6.525,4.557-13.771,8.22-20.192,12.994c-6.168,4.584-11.095,9.218-17.701,12.749c-5.458,2.918-13.307,6.841-19.942,5.574
		c-4.42-0.844-9.882-8.84-11.266-13.267c-1.115-3.567-3.525-14.431-0.399-17.4"/>
</g>
<g id="svg-tip">
	<g>
		<circle fill="#67EF3A" cx="276.75" cy="485" r="10.25"/>
		<circle fill="#67EF3A" cx="451" cy="479.25" r="10.25"/>
	</g>
</g>
<g id="svg-lumi">
	<path fill="#67EF3A" d="M339.25,522.625c0,0-6.599-4.418-14.539-9.808c0.1-0.592,0.164-1.196,0.164-1.817
		c0-6.006-4.869-10.875-10.875-10.875c-2.03,0-3.923,0.566-5.55,1.535c-4.831-3.369-8.723-6.162-10.2-7.41
		c-5.25-4.438-8.375-2.438-10.188,0s0.75,5.313,0.75,5.313s6.567,4.68,14.384,10.222c-0.044,0.399-0.072,0.804-0.072,1.215
		c0,6.006,4.869,10.875,10.875,10.875c1.708,0,3.318-0.405,4.757-1.107c5.557,3.897,9.76,6.8,10.118,6.919
		c1.125,0.375,5.188,6.688,10.813,3.375S339.25,522.625,339.25,522.625z"/>
	<path fill="#67EF3A" d="M436.334,488.167c-3.166-5-11.167,1.333-11.167,1.333s-8.224,4.984-18.339,11.103
		c-1.651-1.018-3.59-1.615-5.673-1.615c-5.989,0-10.845,4.855-10.845,10.845c0,0.247,0.021,0.488,0.037,0.73
		c-9.658,5.829-18.092,10.901-20.181,12.104c-5.5,3.167-1.167,8-1.167,8c4.333,3.333,10-2,10-2s7.1-4.457,15.956-9.942
		c1.758,1.228,3.893,1.954,6.199,1.954c5.989,0,10.845-4.855,10.845-10.845c0-0.509-0.047-1.006-0.115-1.497
		c8.031-4.868,14.883-8.898,16.782-9.67C434,496.5,439.5,493.167,436.334,488.167z"/>
</g>
</svg>
