<svg class="skull-svg" width="723px"    height="1040px" version="1.1" xmlns="http://www.w3.org/2000/svg" xmlns:xlink="http://www.w3.org/1999/xlink" x="0px" y="0px"
	 viewBox="0 0 723 1104" xml:space="preserve">
	<g id="black">
		<path d="M436.3,532.74c-0.89-5.63,3.44-17.69,3.44-17.69c6.89-20.06,0-39.95,0-39.95c-23.23-72.22-87.41-67.47-87.41-67.47
			s-64.31-4.75-87.54,67.47c0,0-6.89,19.89,0,39.95c0,0,4.33,12.06,3.44,17.69c0,0-27.66,42.33,13.98,59.87c0,0,2.48,9.1,1.33,27.47
			c0,0,3,59.82,68.67,62.53c65.66-2.65,68.75-62.53,68.75-62.53c-1.15-18.38,1.33-27.47,1.33-27.47
			C463.96,575.07,436.3,532.74,436.3,532.74z"/>
	</g>
	<g id="white">
		<g>
			<path fill="#F0E8D5" d="M391.56,618.12c0,0-0.51-6.1-0.38-7.46c0,0-0.68-1.69-2.81-1.42c0,0-3,0.41-2.3,5.15c0,0,1.02,2.98,0.64,4.07
				L391.56,618.12z"/>
			<path fill="#F0E8D5" d="M391.56,619.2c0.3-0.06,0.75,3.72,0.75,3.99c0.03,1.47-0.34,3.08-1.36,4.14c-0.97,1.02-3.38,1.7-3.91-0.25
				c-0.16-0.57,0.11-1.59,0.14-2.19c0.02-0.33,0.13-4.8-0.15-4.74C387.04,620.15,391.56,619.2,391.56,619.2z"/>
			<path fill="#F0E8D5" d="M379.32,619.2c0,0,6.31-0.74,6.31-0.75c0.29-0.03-0.18-3.72-0.23-3.97c-0.22-1.09-0.59-2.17-1.22-3.07
				c-0.88-1.25-2.13-2.24-3.51-1.26c-1.32,0.93-1.74,2.67-1.74,4.27C378.93,614.42,379.71,618.59,379.32,619.2z"/>
			<path fill="#F0E8D5" d="M385.72,620.08l-6.22,0.81c0,0,0.26,4.95,0,5.63c0,0-1.44,3.19,3.11,4.07
				C382.61,630.59,387.16,631.61,385.72,620.08z"/>
			<path fill="#F0E8D5" d="M370.89,620.08c0,0,7.01-0.47,7.02-0.47c0.41-0.03,0.3-4.21,0.26-4.55c-0.2-1.88-1.31-4.38-3.32-4.59
				c-2.11-0.22-3.21,2.11-3.63,3.95C371.08,614.99,370.76,620.09,370.89,620.08z"/>
			<path fill="#F0E8D5" d="M370.86,622.12l7.35-1.08c0,0,2.06,17.97-7.71,9.97C370.5,631,371.28,623.47,370.86,622.12z"/>
			<path fill="#F0E8D5" d="M369.74,620.49h-8.36c0,0,0.26-5.18,0-6.01c-0.9-2.94,2.03-5.46,4.64-4.45c1.88,0.73,2.99,2.6,3.47,4.59
				C369.94,616.52,369.92,618.55,369.74,620.49z"/>
			<path fill="#F0E8D5" d="M369.86,622.05l-8.29,0.41c0,0,0,8.21-0.7,10.92c0,0,1.53,2.03,4.5,2.31s4.68-5.42,4.5-7.32V622.05z"/>
			<path fill="#F0E8D5" d="M353.02,622.46c0,0,0,11.93,0,11.93c0,0.27,1.08,1.01,1.3,1.17c3.6,2.65,6.01-2.22,5.97-5.51l0-7.59H353.02z"
				/>
			<path fill="#F0E8D5" d="M353.02,621.03v-9.15c0,0,0.38-2.73,3.32-2.96c0,0,5.04-0.23,3.96,11.84L353.02,621.03z"/>
			<path fill="#F0E8D5" d="M312.98,618.12c0,0,0.51-6.1,0.38-7.46c0,0,0.68-1.69,2.81-1.42c0,0,3,0.41,2.3,5.15c0,0-1.02,2.98-0.64,4.07
				L312.98,618.12z"/>
			<path fill="#F0E8D5" d="M312.98,619.2c-0.3-0.06-0.75,3.72-0.75,3.99c-0.03,1.47,0.34,3.08,1.36,4.14c0.97,1.02,3.38,1.7,3.91-0.25
				c0.16-0.57-0.11-1.59-0.14-2.19c-0.02-0.33-0.13-4.8,0.15-4.74C317.5,620.15,312.98,619.2,312.98,619.2z"/>
			<path fill="#F0E8D5" d="M325.22,619.2c0,0-6.31-0.74-6.31-0.75c-0.29-0.03,0.18-3.72,0.23-3.97c0.22-1.09,0.59-2.17,1.22-3.07
				c0.88-1.25,2.13-2.24,3.51-1.26c1.32,0.93,1.74,2.67,1.74,4.27C325.61,614.42,324.83,618.59,325.22,619.2z"/>
			<path fill="#F0E8D5" d="M318.82,620.08l6.22,0.81c0,0-0.26,4.95,0,5.63c0,0,1.44,3.19-3.11,4.07
				C321.93,630.59,317.38,631.61,318.82,620.08z"/>
			<path fill="#F0E8D5" d="M333.65,620.08c0,0-7.01-0.47-7.02-0.47c-0.41-0.03-0.3-4.21-0.26-4.55c0.2-1.88,1.31-4.38,3.32-4.59
				c2.11-0.22,3.21,2.11,3.63,3.95C333.46,614.99,333.78,620.09,333.65,620.08z"/>
			<path fill="#F0E8D5" d="M333.68,622.12l-7.35-1.08c0,0-2.06,17.97,7.71,9.97C334.04,631,333.26,623.47,333.68,622.12z"/>
			<path fill="#F0E8D5" d="M334.8,620.49h8.36c0,0-0.26-5.18,0-6.01c0.9-2.94-2.03-5.46-4.64-4.45c-1.88,0.73-2.99,2.6-3.47,4.59
				C334.6,616.52,334.62,618.55,334.8,620.49z"/>
			<path fill="#F0E8D5" d="M334.68,622.05l8.29,0.41c0,0,0,8.21,0.7,10.92c0,0-1.53,2.03-4.5,2.31s-4.68-5.42-4.5-7.32V622.05z"/>
			<path fill="#F0E8D5" d="M351.52,622.46c0,0,0,11.93,0,11.93c0,0.27-1.08,1.01-1.3,1.17c-3.6,2.65-6.01-2.22-5.97-5.51l0-7.59H351.52z
				"/>
			<path fill="#F0E8D5" d="M351.52,621.03v-9.15c0,0-0.38-2.73-3.32-2.96c0,0-5.04-0.23-3.96,11.84L351.52,621.03z"/>
			<path fill="#EFE8D5" d="M413.17,592.15c-1.11,1.16-1.53,8.17-1.53,8.17c0.6,4.45-0.73,6.49-0.73,6.49c0.37-1.99-0.63-5.79-0.63-5.79
				c-0.6-3.62,0.63-10.76,0.63-10.76h-1.33l-1.07,5.24c-0.75,2.53-0.87,11.03-0.87,11.03c-2.64-5.79-0.46-13.93-0.46-13.93
				c0.56-2.81-1.31-1.31-1.31-1.31c-0.58,1.03-1.87,14.61-1.87,14.61l-1.21-11.93l-2.51,2.57c1.79,5.14,0.13,13.21,0.13,13.21
				c0.77,8.86-7.91,17.99-7.91,17.99c-0.13,7.32-5.53,5.76-5.53,5.76c-1.13,5.25-6.85,2.18-6.85,2.18c-4.59,6.06-9.28,1.93-9.28,1.93
				c-6.88,7.52-9.99,2.19-9.99,2.19c-5.11,6.24-8.59,0.88-8.59,0.88s-3.48,5.35-8.58-0.88c0,0-3.11,5.33-9.99-2.19
				c0,0-4.69,4.13-9.28-1.93c0,0-5.72,3.07-6.85-2.18c0,0-5.4,1.56-5.53-5.76c0,0-8.68-9.13-7.91-17.99c0,0-1.66-8.07,0.13-13.21
				l-2.51-2.57l-1.21,11.93c0,0-1.29-13.58-1.87-14.61c0,0-1.88-1.5-1.31,1.31c0,0,2.18,8.15-0.46,13.93c0,0-0.12-8.5-0.87-11.03
				l-1.07-5.24h-1.33c0,0,1.22,7.14,0.63,10.76c0,0-1,3.8-0.63,5.79c0,0-1.33-2.03-0.73-6.49c0,0-0.43-7.01-1.53-8.17l-1.79,1.01
				c0,0,2.21,5.52,1.87,23.42c0,0-1.19,18.72,4.17,27.67c0,0,8.68,21.61,35.31,30.11c0,0,9.53,4.52,21.31,3.44
				c11.78,1.09,21.38-3.44,21.38-3.44c26.63-8.5,35.31-30.11,35.31-30.11c5.36-8.95,4.17-27.67,4.17-27.67
				c-0.34-17.9,1.87-23.42,1.87-23.42L413.17,592.15z M409.57,626.19c-0.23,2.19-1.6,4.05-3.01,5.66c-0.51,0.57-1.03,1.14-1.39,1.83
				c-1.11,2.11-0.63,5.2-2.5,6.58c2.64-0.9,4.88-3.03,6.02-5.72c-0.08,4.29-0.65,9.18-3.94,11.67c-4.16,3.14-10.42,0.72-14.7,3.67
				c1.73,0.25,3.04,1.69,4.4,2.85c1.36,1.16,3.22,2.13,4.78,1.31c-1.45,2.37-4.12,3.75-6.78,3.8c-2.66,0.05-5.27-1.11-7.31-2.93
				c-1.03-0.91-1.94-1.99-3.14-2.63c-1.19-0.64-2.8-0.71-3.73,0.31c2.03,0.76,3.11,3.04,4.09,5.08c0.98,2.03,2.37,4.24,4.5,4.51
				c-2.81,2.24-7.16,1.88-9.61-0.79c-1.34-1.46-2.11-3.46-3.53-4.83c-1.42-1.38-4.03-1.8-5.05-0.07c1.68-0.43,2.99,1.54,3.63,3.25
				c0.64,1.71,1.52,3.78,3.25,3.9c-2.44,1.5-5.8,1.06-7.82-1.03c-0.52-0.54-0.98-1.18-1.63-1.52c-1.47-0.76-3.35,0.54-3.7,2.24
				s0.49,3.46,1.7,4.62c0.8,0.77,1.85,1.36,2.91,1.17c1.06-0.19,1.96-1.44,1.53-2.49c1.03,0.02,1.7,1.26,1.71,2.35
				c0.02,2.73-2.95,4.78-5.43,4.1c-2.49-0.68-4.14-3.45-4.19-6.17c-0.06-2.73,1.23-5.32,2.97-7.33c-3.01,0.68-5.54,2.95-7.3,5.64
				c-1.75,2.67-2.97,5.75-4.05,8.79c0,0.02,0,0.04,0,0.06c0-0.01-0.01-0.02-0.01-0.03c0,0.01-0.01,0.02-0.01,0.03
				c0-0.02,0-0.04,0-0.07c-1.07-3.05-2.19-6.12-3.94-8.79c-1.76-2.69-4.29-4.95-7.3-5.64c1.74,2,3.02,4.6,2.97,7.33
				c-0.06,2.73-1.71,5.5-4.19,6.17c-2.49,0.68-5.46-1.37-5.43-4.1c0.01-1.1,0.68-2.33,1.71-2.35c-0.43,1.05,0.47,2.3,1.53,2.49
				c1.06,0.19,2.11-0.4,2.91-1.17c1.21-1.16,2.06-2.93,1.7-4.62c-0.35-1.69-2.23-2.99-3.7-2.24c-0.65,0.34-1.11,0.98-1.63,1.52
				c-2.02,2.09-5.38,2.53-7.82,1.03c1.73-0.11,2.61-2.19,3.25-3.9c0.64-1.71,1.94-3.68,3.63-3.25c-1.02-1.74-3.63-1.31-5.05,0.07
				c-1.42,1.38-2.19,3.37-3.53,4.83c-2.45,2.67-6.8,3.03-9.61,0.79c2.14-0.28,3.52-2.48,4.5-4.51s2.06-4.32,4.09-5.08
				c-0.93-1.02-2.54-0.95-3.73-0.31s-2.11,1.72-3.14,2.63c-2.04,1.81-4.65,2.98-7.31,2.93c-2.66-0.05-5.34-1.43-6.78-3.8
				c1.56,0.82,3.42-0.15,4.78-1.31c1.36-1.16,2.67-2.6,4.4-2.85c-4.28-2.96-10.54-0.54-14.7-3.67c-3.29-2.49-3.86-7.38-3.94-11.67
				c1.14,2.69,3.38,4.82,6.02,5.72c-1.87-1.38-1.39-4.47-2.5-6.58c-0.36-0.69-0.89-1.26-1.39-1.83c-1.42-1.61-2.78-3.46-3.01-5.66
				c-0.51-4.88,4.72-9.21,3.49-13.94c3.01,2.46,5.1,6.17,5.71,10.16c0.61,3.99-0.26,8.21-2.38,11.56c-0.26,0.42-0.55,0.84-0.65,1.33
				c-0.1,0.5,0.01,1.03,0.15,1.52c0.82,2.91,2.74,5.44,5.25,6.91c-1.4-2.27-1.15-5.25-0.56-7.89c0.59-2.64,1.48-5.3,1.19-8
				c2.33,2.87,4.8,6.21,4.4,9.97c-0.25,2.38-1.66,4.62-1.34,6.99c0.07,0.51,0.22,1,0.48,1.43c0.85,1.4,2.58,1.77,4.13,2.02
				c-0.66-0.11-1.29-1.96-1.45-2.53c-0.24-0.9-0.4-1.97-0.39-2.9c0.01-1.19,0.42-2.41,0.53-3.6c0.12-1.27,0.13-2.55,0.03-3.83
				c1.99,1.49,3.46,3.75,4.09,6.25c0.62,2.47,0.52,5.34,2.18,7.19c1.36,1.51,3.48,1.84,5.43,2.05c-1.83-1.15-2.49-3.62-2.63-5.87
				c-0.15-2.25,0.04-4.59-0.75-6.69c3.21,1.78,5.83,4.73,7.33,8.22c0.73,1.69,1.2,3.51,2.11,5.1c0.9,1.59,2.38,2.99,4.13,3.08
				c-2.2-2.94-0.34-7.4-1.44-10.98c2.72,0.43,4.83,2.93,5.76,5.68c0.93,2.75,0.89,5.75,0.85,8.68c5.45-2.92,9.72-8.21,11.62-14.38
				c0-0.02,0-0.04,0-0.06c0,0.01,0.01,0.02,0.01,0.03c0,0,0-0.01,0-0.01c0,0.01,0,0.01,0,0.02c1.9,6.16,6.22,11.48,11.67,14.4
				c-0.05-2.93-0.08-5.93,0.85-8.68c0.93-2.75,3.04-5.26,5.76-5.68c-1.1,3.58,0.76,8.03-1.44,10.98c1.75-0.09,3.22-1.49,4.13-3.08
				c0.9-1.59,1.38-3.41,2.11-5.1c1.5-3.5,4.13-6.44,7.33-8.22c-0.79,2.09-0.61,4.44-0.75,6.69s-0.8,4.72-2.63,5.87
				c1.95-0.21,4.07-0.54,5.43-2.05c1.66-1.85,1.57-4.72,2.18-7.19c0.63-2.5,2.1-4.75,4.09-6.25c-0.1,1.27-0.09,2.56,0.03,3.83
				c0.11,1.2,0.51,2.42,0.53,3.6c0.01,0.93-0.15,2-0.39,2.9c-0.15,0.57-0.78,2.43-1.45,2.53c1.55-0.25,3.28-0.62,4.13-2.02
				c0.26-0.43,0.41-0.93,0.48-1.43c0.32-2.37-1.09-4.61-1.34-6.99c-0.4-3.76,2.08-7.11,4.4-9.97c-0.29,2.7,0.6,5.36,1.19,8
				c0.59,2.64,0.84,5.62-0.56,7.89c2.5-1.46,4.43-4,5.25-6.91c0.14-0.49,0.25-1.02,0.15-1.52c-0.1-0.49-0.39-0.91-0.65-1.33
				c-2.12-3.35-2.99-7.57-2.38-11.56c0.61-3.99,2.7-7.7,5.71-10.16C404.85,616.99,410.08,621.31,409.57,626.19z"/>
			<path fill="#EFE8D5" d="M421.62,520.29c-8.16-26.51,4.69-41.32,4.69-41.32c-7.81,16.55-3.1,36.61-3.1,36.61
				c3.55,6.41,8.36,2.67,8.36,2.67l1.37-7.38c-3.73,6.13-6.63,2.92-6.63,2.92c-2.03-2.89,1.43-4.33,1.43-4.33l5.53-4.89
				c2.64-2.26,1.79-10.15,1.79-10.15c-0.51,9.02-4.63,10.15-4.63,10.15c-4.72,1.81-5.05-1.72-5.05-1.72
				c-1.51-3.98,3.04-6.16,3.04-6.16c3.66-0.74,4.94-3.47,4.94-3.47c3.32-6.01,0.77-12.84,0.77-12.84c0.6,3.93-3.06,11.4-3.06,11.4
				c-4.76,6.56-6.98,3.29-6.98,3.29c-2.13-3.25,0.55-5.88,0.55-5.88c2.76-1.81,4.98-5.51,4.98-5.51c2.69-5.38,0.82-16.98,0.82-16.98
				c-8.16-23.12-26.23-37.45-26.23-37.45c-19.46-17.09-51.87-17.61-51.87-17.61s-32.55,0.52-52,17.61c0,0-18.07,14.33-26.23,37.45
				c0,0-1.87,11.6,0.82,16.98c0,0,2.22,3.69,4.98,5.51c0,0,2.67,2.63,0.55,5.88c0,0-2.22,3.27-6.98-3.29c0,0-3.66-7.47-3.06-11.4
				c0,0-2.55,6.82,0.77,12.84c0,0,1.28,2.74,4.94,3.47c0,0,4.55,2.18,3.04,6.16c0,0-0.33,3.53-5.05,1.72c0,0-4.12-1.13-4.63-10.15
				c0,0-0.85,7.89,1.79,10.15l5.53,4.89c0,0,3.46,1.44,1.43,4.33c0,0-2.9,3.21-6.63-2.92l1.37,7.38c0,0,4.81,3.74,8.36-2.67
				c0,0,4.72-20.06-3.1-36.61c0,0,12.86,14.81,4.69,41.32c0,0,0.21,4-12.85,25.28c0,0,7.42-6.95,8.16-8.77c0,0,0.43,9.53,3.01,11.86
				c0,0,3.94,6.92,0.02,14.4c0.09-0.16,0.69-0.88,3.97-1.04c0,0,2.08,0.01,2.64-2.53c0,0,2.34,3.34,0.43,9.42
				c0,0,2.11-1.18,6.93,1.16c0,0,2.96,0.85,3.44-0.84c0,0-1.58,5.56-3.44,7.39c0,0,8.13-6.37,16.81,0.27c0,0,6.22,6.33,10.2,5.33
				c0,0-0.62,2.19-7.99,5.82c0,0,14.91-3.97,22.18,5.25c0,0,2.94,6.53-1.73,8.28c0,0-3.94,1.42-6.92-4.79c0,0-4.13-11.28-22-5.83
				c0,0,5.81,2.54,7.21,14c0,0,4.52-2.7,6.89,1.09c0,0,3.77-4,7.4,0.75c0,0,3.96-5.97,8.62,0.47c0,0,6.45-8.07,8.74-0.68
				c0,0,3.77-5.9,7.66-1.49v-0.08c3.88-4.33,7.62,1.57,7.62,1.57c2.3-7.39,8.74,0.68,8.74,0.68c4.66-6.44,8.62-0.47,8.62-0.47
				c3.64-4.75,7.4-0.75,7.4-0.75c2.37-3.78,6.89-1.09,6.89-1.09c1.4-11.46,7.21-14,7.21-14c-17.87-5.45-22,5.83-22,5.83
				c-2.98,6.21-6.92,4.79-6.92,4.79c-4.66-1.75-1.73-8.28-1.73-8.28c7.27-9.22,22.18-5.25,22.18-5.25c-7.36-3.63-7.99-5.82-7.99-5.82
				c3.97,0.99,10.2-5.33,10.2-5.33c8.68-6.65,16.81-0.27,16.81-0.27c-1.86-1.83-3.44-7.39-3.44-7.39c0.48,1.7,3.44,0.84,3.44,0.84
				c4.82-2.34,6.93-1.16,6.93-1.16c-1.91-6.08,0.43-9.42,0.43-9.42c0.55,2.54,2.64,2.53,2.64,2.53c3.28,0.16,3.87,0.88,3.97,1.04
				c-3.92-7.49,0.02-14.4,0.02-14.4c2.58-2.32,3.01-11.86,3.01-11.86c0.74,1.82,8.16,8.77,8.16,8.77
				C421.41,524.29,421.62,520.29,421.62,520.29z M317.3,601.79c-0.92-0.04-1.56-0.93-2.08-1.73c-1.89-2.94-3.86-5.83-5.9-8.65
				c0.01,0,0.01,0,0.02,0c1.7-0.34,3.48,0.23,4.95,1.21c2.07,1.38,4.89,4.1,4.85,6.95C319.12,600.66,318.34,601.83,317.3,601.79z
				M325.55,602.38c0,0-3.02,1.39-5.3-4.2c0,0-2.17-6.17-8.23-7.66c0,0,8.41-2.16,13.2,6.28
				C325.22,596.79,327.4,600.08,325.55,602.38z M395.2,591.39c0.01,0,0.01,0,0.02,0c-2.04,2.83-4.01,5.71-5.9,8.65
				c-0.52,0.8-1.16,1.7-2.08,1.73c-1.04,0.04-1.82-1.13-1.84-2.23c-0.04-2.86,2.78-5.58,4.85-6.95
				C391.72,591.63,393.5,591.06,395.2,591.39z M379.32,596.79c4.79-8.44,13.2-6.28,13.2-6.28c-6.06,1.49-8.23,7.66-8.23,7.66
				c-2.28,5.6-5.3,4.2-5.3,4.2C377.14,600.08,379.32,596.79,379.32,596.79z M399.06,430.27c2.36,1.47,4.98,3.72,5.14,6.86
				c0.03,0.63-0.07,1.22-0.19,1.83c0,0-1.15,5.76-7.4,4.54c0,0-4.91-0.68-3.45-6.17c0,0,0.7-2.98,3.45-2.98c0,0-5.47-4.14-15.75,0.47
				c0,0-3.2,1.08-1.16-1.49C384.34,427.47,393,426.49,399.06,430.27z M377.52,418.82c0,0,4.47,1.22,4.28,5.36
				c0,0-1.08,3.39-6.13,1.29c0,0-8.23-4.35-10.02-0.45C365.65,425.02,367.5,417.39,377.52,418.82z M361,417.06
				c1.42-1.18,3.36-2.36,5.22-1.75c1.53,0.51,2.19,1.92,1.58,3.56c-0.35,0.92-1.1,1.58-1.96,1.92c-0.52,0.2-0.75,0.17-1.3,0.1
				c-1.58-0.19-3.18,0.07-4.64,0.73c-0.37,0.16-2.01,0.79-2.14,1.27C358.89,418.48,361,417.06,361,417.06z M351.96,413.69
				c0.32-0.11,0.67-0.16,1-0.08c0.8,0.2,1.29,1.07,1.46,1.92c0.43,2.13-0.56,4.25-1.36,6.25c-0.15,0.36-0.72,1.33-0.42,1.57
				C350.63,421.72,348.21,415,351.96,413.69z M338.33,415.31c1.86-0.62,3.8,0.56,5.22,1.75c0,0,2.11,1.42,3.25,5.83
				c-0.13-0.48-1.77-1.11-2.14-1.27c-1.46-0.65-3.06-0.92-4.64-0.73c-0.55,0.07-0.78,0.1-1.3-0.1c-0.87-0.34-1.61-1-1.96-1.92
				C336.13,417.23,336.79,415.82,338.33,415.31z M327.02,418.82c10.02-1.42,11.87,6.2,11.87,6.2c-1.79-3.9-10.02,0.45-10.02,0.45
				c-5.04,2.1-6.13-1.29-6.13-1.29C322.55,420.04,327.02,418.82,327.02,418.82z M300.34,437.13c0.16-3.14,2.78-5.39,5.14-6.86
				c6.07-3.78,14.73-2.8,19.37,3.06c2.04,2.58-1.16,1.49-1.16,1.49c-10.29-4.61-15.75-0.47-15.75-0.47c2.74,0,3.45,2.98,3.45,2.98
				c1.47,5.49-3.45,6.17-3.45,6.17c-6.25,1.22-7.4-4.54-7.4-4.54C300.41,438.35,300.31,437.76,300.34,437.13z M279.15,475.92
				c0.45-4.75,6.45-10.24,6.45-10.24l-2.3,0.41c0.96-4.88,6.83-7.32,6.83-7.32l-1.79-0.61c0.45-2.58,6.83-5.63,6.83-5.63
				c0-0.61-1.85-0.95-1.85-0.95c2.49-4.48,10.34-3.8,10.34-3.8c-0.51-0.81-2.62-1.83-2.62-1.83c5.17-4,10.59,1.02,10.59,1.02
				c4.79-7.66,10.34-1.9,10.34-1.9c0.77-2.98,4.53-8.34,4.53-8.34c2.36-2.85,2.11-7.59,2.11-7.59c3.57,1.7,6.25,0.14,6.76-0.27
				c2.96-2.36,7.02-3.39,7.02-3.39c8.93-2.1,11.3,7.26,11.3,7.26c1.02-6.71,10.72-5.09,10.72-5.09c4.72,0.81,8.49-2.85,8.49-2.85
				c-0.32,0.81,0.83,3.73,0.83,3.73l6.13,8.34c4.15-5.22,8.68,2.17,8.68,2.17c1.98,4.07,5.81,6.17,5.81,6.17
				c6.7-1.15,6.25,1.22,6.25,1.22c-0.64-0.07-3.13,1.29-3.13,1.29c9.51,0.2,10.15,4.2,10.15,4.2l-1.28,0.47
				c3.96,1.29,7.15,6.04,7.15,6.04l-2.43,0.34c5.3,2.03,7.08,7.12,7.08,7.12l-2.55,0.14c6.89,5.15,6.83,10.17,6.83,10.17
				c-5.17-3.8-11.68-6.58-11.68-6.58c0.51,0.34,1.66,4,1.66,4c-0.96-0.75-7.08-2.1-7.08-2.1c0.89,0.41,1.34,3.05,1.34,3.05
				c-3.38-1.9-5.42-1.76-5.42-1.76l1.4,1.56c-1.98,1.08-7.53-1.02-7.53-1.02l1.15,1.63c-1.79,1.42-4.21,0.27-4.21,0.27l-3.38,7.53
				c-2.55,6.17-10.27,8.54-10.27,8.54c-6.45,2.92-10.27-1.83-10.27-1.83c-2.3,1.63-6.83,0.2-6.83,0.2
				c-8.49,8.07-17.04,2.37-17.04,2.37c-3.83,7.87-13.34,0.68-13.34,0.68c-1.98-1.83-9-6.17-9-6.17c-2.68-2.03-7.4-1.49-7.4-1.49
				c1.91-4.61,0-6.92,0-6.92c-0.83-1.02-1.15-4.2-1.15-4.2l-0.38,0.27c-3.57,2.31-7.85,0.88-7.85,0.88l0.7-1.63
				c-3.32,1.22-6.89,0.75-6.89,0.75l1.21-1.56c-0.64,0-5.87,1.36-5.87,1.36c0.06-0.88,1.79-2.71,1.79-2.71
				c-0.7-0.34-7.15,1.76-7.15,1.76c0-2.17,1.85-3.46,1.85-3.46C288.22,469.27,279.15,475.92,279.15,475.92z M296.96,483.31
				c0,0-7.49,1.9-7.15-3.44c0,0,1.53-6.42,12.59-1.99c0,0,9.36,4.97,8.47,11.66C310.87,489.55,306.74,481.41,296.96,483.31z
				M306.66,491.44c-0.44-0.79-2.99-1-3.69-1.07c-1.38-0.13-2.78,0.01-4.12,0.38c-2.2,0.61-3.81,1.97-6.21,1.5
				c-3.08-0.6,0.34-4.64,1.69-5.43c2.94-1.71,6.36-0.41,9.08,1.17C303.41,487.99,305.38,489.14,306.66,491.44z M291.43,506.13
				c1.79-3.57,5.04-6.11,8.19-8.23c3.47-2.34,7.14-4.31,11.14-5.38c3.69-0.98,7.6-1.02,11.27,0.09
				c10.76,3.26,19.67,14.55,23.02,25.58c1.16,3.8,1.73,7.79,1.69,11.79c0.01-0.92-0.8-2.29-1.14-3.1c-1.1-2.65-2.44-5.18-3.95-7.59
				c-4.77-7.57-11.42-13.72-19.29-17.41c-3.6-1.69-6.73-2.21-10.63-1.83c-2.03,0.2-4.04,0.61-6,1.2c-5.52,1.68-10.43,4.84-14.73,8.83
				c-0.03,0.03-0.27-0.89-0.28-0.94C290.59,508.09,290.98,507.02,291.43,506.13z M343.29,548.66c0,1.76-1.34,3.18-3,3.18
				c-1.65,0-3-1.43-3-3.18s1.34-3.18,3-3.18C341.95,545.48,343.29,546.9,343.29,548.66z M338.29,563.54
				c1.79-3.37,3.99-6.48,5.76-9.87c1.04-2,1.93-4.09,2.66-6.25c0.37-1.11,0.64-2.25,0.98-3.38c0.22-0.74,0.51-0.88,0.75-0.61
				c0.14,0.16,0.26,0.48,0.34,0.9c0.99,5.29,1.98,10.61,2.23,15.99c0.26,5.39-0.24,10.89-2.15,15.89c-0.65,1.7-1.47,3.36-2.69,4.66
				c-1.22,1.3-2.88,2.21-4.6,2.17c-1.88-0.04-3.65-1.22-4.74-2.86s-1.56-3.67-1.61-5.67C335.12,570.66,336.5,566.91,338.29,563.54z
				M348.69,518.46c-0.99-2.17-2.2-4.23-3.05-6.46c-1.9-5.01-0.9-11.39,4.23-13.7c2.55-1.15,5.8-0.6,7.62,1.62
				c0.92,1.13,1.44,2.57,1.75,4.03c1.13,5.29-0.19,10.81-1.91,15.92c-1.72,5.1-3.88,10.12-4.49,15.51
				C352.11,529.57,351.09,523.73,348.69,518.46z M353.54,560.34c0.26-5.39,1.25-10.7,2.23-15.99c0.08-0.42,0.2-0.74,0.34-0.9
				c0.24-0.28,0.52-0.13,0.75,0.61c0.34,1.12,0.61,2.26,0.98,3.38c0.72,2.16,1.61,4.25,2.66,6.25c1.77,3.38,3.97,6.49,5.76,9.87
				c1.79,3.37,3.17,7.12,3.07,10.99c-0.05,2-0.52,4.03-1.61,5.67s-2.86,2.82-4.74,2.86c-1.72,0.04-3.38-0.87-4.6-2.17
				c-1.22-1.3-2.04-2.96-2.69-4.66C353.78,571.23,353.28,565.73,353.54,560.34z M364.25,551.84c-1.65,0-3-1.43-3-3.18
				s1.34-3.18,3-3.18c1.65,0,3,1.43,3,3.18S365.9,551.84,364.25,551.84z M362.89,519.27c-1.51,2.4-2.85,4.94-3.95,7.59
				c-0.34,0.81-1.15,2.18-1.14,3.1c-0.04-3.99,0.53-7.99,1.69-11.79c3.35-11.03,12.26-22.32,23.02-25.58
				c3.67-1.11,7.58-1.07,11.27-0.09c4,1.07,7.67,3.05,11.14,5.38c3.15,2.12,6.4,4.66,8.19,8.23c0.45,0.89,0.83,1.97,0.71,3
				c-0.01,0.05-0.24,0.97-0.28,0.94c-4.3-4-9.21-7.16-14.73-8.83c-1.96-0.59-3.97-1-6-1.2c-3.9-0.38-7.02,0.14-10.63,1.83
				C374.32,505.55,367.66,511.7,362.89,519.27z M397.88,491.44c1.28-2.3,3.25-3.46,3.25-3.46c2.71-1.58,6.14-2.88,9.08-1.17
				c1.35,0.79,4.77,4.84,1.69,5.43c-2.4,0.47-4.01-0.89-6.21-1.5c-1.34-0.37-2.74-0.51-4.12-0.38
				C400.87,490.44,398.32,490.65,397.88,491.44z M407.58,483.31c-9.79-1.9-13.91,6.24-13.91,6.24c-0.89-6.69,8.47-11.66,8.47-11.66
				c11.06-4.43,12.59,1.99,12.59,1.99C415.07,485.21,407.58,483.31,407.58,483.31z M299.09,566.17c-1.46,0-2.64-1.25-2.64-2.8
				c0-1.55,1.18-2.8,2.64-2.8c1.46,0,2.64,1.25,2.64,2.8C301.72,564.92,300.54,566.17,299.09,566.17z M309.28,571.07
				c-1.99,0-3.6-1.71-3.6-3.82s1.61-3.82,3.6-3.82s3.6,1.71,3.6,3.82S311.26,571.07,309.28,571.07z M298.55,555.05
				c-14.81-8.5-12.23-24.64-12.23-24.64c2.98-22.15,26.04-22.88,26.04-22.88c17.65,1.2,23.48,11.57,23.48,11.57
				c10.13,18.63-2.81,30.56-2.81,30.56C320.54,564.61,298.55,555.05,298.55,555.05z M322.59,570.07c-1.91,0-3.47-1.65-3.47-3.68
				s1.55-3.68,3.47-3.68c1.92,0,3.47,1.65,3.47,3.68S324.5,570.07,322.59,570.07z M329.59,559.49c0-2.02,1.54-3.66,3.45-3.66
				s3.45,1.64,3.45,3.66s-1.54,3.66-3.45,3.66S329.59,561.51,329.59,559.49z M338.67,592.47c-1.17-0.22-2.41-0.64-3.31-1.49
				c-0.72-0.68-0.98-1.61-0.89-2.61c0.08-0.87,0.3-2.07,0.98-2.64c1.2-1.02,3.05-0.1,4.18,0.57c0.91,0.54,1.83,1.26,2.87,1.5
				c1.09,0.26,2.27-0.14,3.23-0.68c1.91-1.09,3.45-2.97,4.57-4.91c-0.29,0.51-0.41,1.25-0.63,1.8c-0.55,1.37-1.22,2.69-2.03,3.9
				C345.55,591.05,342.39,593.18,338.67,592.47z M352.34,596.54c-1.92,0-3.47-1.65-3.47-3.68c0-2.03,1.55-3.68,3.47-3.68
				c1.91,0,3.47,1.65,3.47,3.68C355.8,594.89,354.25,596.54,352.34,596.54z M369.17,590.98c-0.9,0.85-2.14,1.27-3.31,1.49
				c-3.72,0.71-6.88-1.42-8.97-4.54c-0.81-1.21-1.48-2.53-2.03-3.9c-0.22-0.55-0.34-1.3-0.63-1.8c1.12,1.94,2.66,3.82,4.57,4.91
				c0.95,0.54,2.14,0.94,3.23,0.68c1.04-0.24,1.96-0.97,2.87-1.5c1.13-0.67,2.98-1.58,4.18-0.57c0.68,0.57,0.9,1.77,0.98,2.64
				C370.15,589.37,369.89,590.3,369.17,590.98z M371.5,563.16c-1.9,0-3.45-1.64-3.45-3.66s1.54-3.66,3.45-3.66s3.45,1.64,3.45,3.66
				S373.4,563.16,371.5,563.16z M381.96,570.07c-1.92,0-3.47-1.65-3.47-3.68s1.55-3.68,3.47-3.68c1.91,0,3.47,1.65,3.47,3.68
				S383.87,570.07,381.96,570.07z M395.26,571.07c-1.99,0-3.6-1.71-3.6-3.82s1.61-3.82,3.6-3.82s3.6,1.71,3.6,3.82
				S397.25,571.07,395.26,571.07z M405.45,566.17c-1.46,0-2.64-1.25-2.64-2.8c0-1.55,1.18-2.8,2.64-2.8c1.46,0,2.64,1.25,2.64,2.8
				C408.09,564.92,406.91,566.17,405.45,566.17z M405.99,555.05c0,0-21.99,9.56-34.48-5.38c0,0-12.93-11.93-2.81-30.56
				c0,0,5.83-10.38,23.48-11.57c0,0,23.06,0.72,26.04,22.88C418.22,530.41,420.79,546.55,405.99,555.05z"/>
		</g>
	</g>
	<g id="purple">
		<g>
			<path fill="#912690" d="M396.22,484.6c0,0,5.3-4.41,11.42-2.44c0.82,0.26,1.56,0.59,2.43,0.62c2.12,0.08,4.64-1.86,2.87-4
				c-2.25-2.72-6.52-1.1-9.21-0.1c-1.34,0.49-2.64,1.14-3.83,1.95c-0.75,0.51-1.45,1.08-2.08,1.75
				C397.24,482.98,396.82,484.1,396.22,484.6z"/>
			<path fill="#7E2C80" d="M434.13,504.55c0,0-5.02,5.15-5.87,5.7c-1.16,0.74-1.63,2.81,0.24,2.77c0.52-0.01,1.14-0.42,1.56-0.7
				C432.5,510.68,433.6,507.42,434.13,504.55z"/>
			<path fill="#91218F" d="M394.5,527.11c0,0,4.91-9.15-1.15-13.83c0,0-3.64-2.1-3.89,4.27c-0.03,0.87-0.12,1.72-0.08,2.59
				c0.08,1.53,0.86,2.88,1.08,4.37c0.08,0.58-0.18,1.64,0.13,1.93c0.22,0.2,0.99,0.26,1.3,0.33c0.12,0.01,0.22-3.68,0.21-4.01
				c-0.01-0.78-0.9-4.2,0.49-4.09c0.24,0.02,0.34,0.34,0.44,0.53c0.32,0.65,0.32,1.58,0.36,2.29c0.11,1.76,0.05,3.53-0.04,5.29
				L394.5,527.11z"/>
			<path fill="#91218F" d="M389.36,527.11c0,0-2.33-9.7-9.22-8.82c0,0-3.83,0.27-0.83,5.36c0,0,3.71,5.15,6.51,6.04
				c0,0,1.78,0.2,0.89-0.95c0,0-4.02-3.39-4.02-5.83c0,0,0.57-1.42,2.36,1.9C385.05,524.81,387.49,529.01,389.36,527.11z"/>
			<path fill="#91218F" d="M383.01,529.28l2.49,2.17c0,0-5.17,0.88-6.32,0c0,0-2.11,1.22,2.55,2.1c0,0,3.45,0.27,4.09,0
				c0,0-0.11,0.39-0.12,0.41c-0.21,0.44-0.7,0.73-1.1,0.94c-2.05,1.09-4.4,1.36-6.67,1.25c-1.44-0.07-3.2-0.16-4.32-1.27
				c-1.68-1.66-1-4.75,0.81-5.98c1.43-0.98,3.27-0.68,4.79-0.1C379.21,528.81,382.01,529.89,383.01,529.28z"/>
			<path fill="#91218F" d="M382.01,529.89"/>
			<path fill="#91218F" d="M386.39,536.18c0,0-4.02,1.46-6.25,1.15c0,0-6.51,5.65-3.51,8.7c0,0,4.4,4.14,9.76-3.87
				c0,0,0.89-1.76,0.77-4.27l-5.15,4.95C382.01,542.85,380.84,542.27,386.39,536.18z"/>
			<path fill="#91218F" d="M392.2,538.57c0.03-0.29,1.76,0.95,1.83,1.03c1.72,1.95,1.92,5.55,1.58,8.07c-0.32,2.41-1.68,4.11-4.03,4.32
				c-3.25,0.3-3.87-3.61-3.97-6.23c-0.06-1.41-0.06-2.86,0.24-4.25c0.15-0.7,0.37-1.44,0.78-2.01c0.09-0.13,1.53-1.3,1.59-0.94
				c0,0,1.19,7.81,1.19,7.81S392.2,538.58,392.2,538.57z"/>
			<path fill="#91218F" d="M397.69,536.67c0,0,5.55-0.47,9.25,6.17c0,0,0.77,2.53-0.26,3.54c0,0-2.56,4.74-10.31-3.27
				c0,0-0.81-4.99-1.62-5.79c0,0,2.74-1.33,6.7,5.38C401.46,542.71,402.48,541.76,397.69,536.67z"/>
			<path fill="#91218F" d="M397.95,532.53c-0.01-0.01-0.02-0.02-0.03-0.03c1.26-1.82,3.3-2.92,5.39-3.28c2.01-0.35,7.67-0.63,8.07,2.43
				c0.12,0.95-0.28,1.91-0.9,2.6s-1.44,1.15-2.27,1.51c-3.45,1.49-7.61,1.48-10.72-0.69c-0.27-0.19-0.56-0.5-0.44-0.81
				c0.1-0.26,0.43-0.32,0.69-0.32c1.45-0.02,2.88,0.39,4.33,0.41s3.05-0.47,3.8-1.79c-2.04,0.32-4.11,0.47-6.18,0.43
				C399.09,532.97,398.44,532.92,397.95,532.53z"/>
			<path fill="#91218F" d="M397.69,530.44c0,0,4.28-3.05,5.36-3.32c0.95-0.24,2.07-1.61,2.62-2.37c0.6-0.83,1.04-1.79,1.17-2.83
				c0.11-0.87,0.2-1.84-0.16-2.65c-0.46-1.03-1.49-1-2.44-0.9c-2.81,0.3-5.02,2.77-6.55,5.09c0,0-1.4,2.44-2.3,3.66
				c0,0,0.89,3.25,6.32-4c0,0,1.54,2.1-4.68,6.85L397.69,530.44z"/>
			<ellipse fill="#91218F" cx="381.96" cy="566.38" rx="2.38" ry="2.53"/>
			<path fill="#91218F" d="M385.42,588.75c0,0-5.15,0.88-8.79,6.1c0,0-4.02,7.19-7.47,5.09c0,0-4.28-4.68,4.59-9.22
				C373.76,590.72,378.71,587.87,385.42,588.75z"/>
			<path fill="#912690" d="M308.32,484.6c0,0-5.3-4.41-11.42-2.44c-0.82,0.26-1.56,0.59-2.43,0.62c-2.12,0.08-4.64-1.86-2.87-4
				c2.25-2.72,6.52-1.1,9.21-0.1c1.34,0.49,2.64,1.14,3.83,1.95c0.75,0.51,1.45,1.08,2.08,1.75
				C307.3,482.98,307.72,484.1,308.32,484.6z"/>
			<path fill="#7E2C80" d="M270.41,504.55c0,0,5.02,5.15,5.87,5.7c1.16,0.74,1.63,2.81-0.24,2.77c-0.52-0.01-1.14-0.42-1.56-0.7
				C272.04,510.68,270.94,507.42,270.41,504.55z"/>
			<path fill="#91218F" d="M310.04,527.11c0,0-4.91-9.15,1.15-13.83c0,0,3.64-2.1,3.89,4.27c0.03,0.87,0.12,1.72,0.08,2.59
				c-0.08,1.53-0.86,2.88-1.08,4.37c-0.08,0.58,0.18,1.64-0.13,1.93c-0.22,0.2-0.99,0.26-1.3,0.33c-0.12,0.01-0.22-3.68-0.21-4.01
				c0.01-0.78,0.9-4.2-0.49-4.09c-0.24,0.02-0.34,0.34-0.44,0.53c-0.32,0.65-0.32,1.58-0.36,2.29c-0.11,1.76-0.05,3.53,0.04,5.29
				L310.04,527.11z"/>
			<path fill="#91218F" d="M315.18,527.11c0,0,2.33-9.7,9.22-8.82c0,0,3.83,0.27,0.83,5.36c0,0-3.71,5.15-6.51,6.04
				c0,0-1.78,0.2-0.89-0.95c0,0,4.02-3.39,4.02-5.83c0,0-0.57-1.42-2.36,1.9C319.49,524.81,317.06,529.01,315.18,527.11z"/>
			<path fill="#91218F" d="M321.53,529.28l-2.49,2.17c0,0,5.17,0.88,6.32,0c0,0,2.11,1.22-2.55,2.1c0,0-3.45,0.27-4.09,0
				c0,0,0.11,0.39,0.12,0.41c0.21,0.44,0.7,0.73,1.1,0.94c2.05,1.09,4.4,1.36,6.67,1.25c1.44-0.07,3.2-0.16,4.32-1.27
				c1.68-1.66,1-4.75-0.81-5.98c-1.43-0.98-3.27-0.68-4.79-0.1C325.33,528.81,322.53,529.89,321.53,529.28z"/>
			<path fill="#91218F" d="M322.53,529.89"/>
			<path fill="#91218F" d="M318.15,536.18c0,0,4.02,1.46,6.25,1.15c0,0,6.51,5.65,3.51,8.7c0,0-4.4,4.14-9.76-3.87
				c0,0-0.89-1.76-0.77-4.27l5.15,4.95C322.53,542.85,323.7,542.27,318.15,536.18z"/>
			<path fill="#91218F" d="M312.34,538.57c-0.03-0.29-1.76,0.95-1.83,1.03c-1.72,1.95-1.92,5.55-1.58,8.07
				c0.32,2.41,1.68,4.11,4.03,4.32c3.25,0.3,3.87-3.61,3.97-6.23c0.06-1.41,0.06-2.86-0.24-4.25c-0.15-0.7-0.37-1.44-0.78-2.01
				c-0.09-0.13-1.53-1.3-1.59-0.94c0,0-1.19,7.81-1.19,7.81S312.34,538.58,312.34,538.57z"/>
			<path fill="#91218F" d="M306.85,536.67c0,0-5.55-0.47-9.25,6.17c0,0-0.77,2.53,0.26,3.54c0,0,2.56,4.74,10.31-3.27
				c0,0,0.81-4.99,1.62-5.79c0,0-2.74-1.33-6.7,5.38C303.09,542.71,302.06,541.76,306.85,536.67z"/>
			<path fill="#91218F" d="M306.59,532.53c0.01-0.01,0.02-0.02,0.03-0.03c-1.26-1.82-3.3-2.92-5.39-3.28c-2.01-0.35-7.67-0.63-8.07,2.43
				c-0.12,0.95,0.28,1.91,0.9,2.6s1.44,1.15,2.27,1.51c3.45,1.49,7.61,1.48,10.72-0.69c0.27-0.19,0.56-0.5,0.44-0.81
				c-0.1-0.26-0.43-0.32-0.69-0.32c-1.45-0.02-2.88,0.39-4.33,0.41s-3.05-0.47-3.8-1.79c2.04,0.32,4.11,0.47,6.18,0.43
				C305.45,532.97,306.1,532.92,306.59,532.53z"/>
			<path fill="#91218F" d="M306.85,530.44c0,0-4.28-3.05-5.36-3.32c-0.95-0.24-2.07-1.61-2.62-2.37c-0.6-0.83-1.04-1.79-1.17-2.83
				c-0.11-0.87-0.2-1.84,0.16-2.65c0.46-1.03,1.49-1,2.44-0.9c2.81,0.3,5.02,2.77,6.55,5.09c0,0,1.4,2.44,2.3,3.66
				c0,0-0.89,3.25-6.32-4c0,0-1.54,2.1,4.68,6.85L306.85,530.44z"/>
			<ellipse fill="#91218F" cx="322.59" cy="566.38" rx="2.38" ry="2.53"/>
			<path fill="#91218F" d="M319.12,588.75c0,0,5.15,0.88,8.79,6.1c0,0,4.02,7.19,7.47,5.09c0,0,4.28-4.68-4.59-9.22
				C330.78,590.72,325.83,587.87,319.12,588.75z"/>
			<path fill="#91218F" d="M352.28,645.94v0.05c-0.1,0.43-1.65,6.84-9.31,12.27c0,0,7.53,5.15,9.25,12.41
				c1.72-7.26,9.35-12.41,9.35-12.41C353.64,652.64,352.28,645.94,352.28,645.94z M354.04,664.16c-0.38,1.36-1.79,3.05-1.79,3.05
				s-1.37-1.7-1.75-3.05c0,0-0.83-4.27-4.47-5.42c0,0,5.67-5.25,6.24-7.01c0.57,1.76,6.23,7.01,6.23,7.01
				C354.87,659.89,354.04,664.16,354.04,664.16z"/>
		</g>
	</g>
	<g id="orange">
		<g>
			<ellipse fill="#EA8F1A" cx="405.27" cy="563.42" rx="1.24" ry="1.32"/>
			<ellipse fill="#EA8F1A" cx="364.25" cy="548.66" rx="1.24" ry="1.32"/>
			<path fill="#EA8F1A" d="M436.3,571.07c0.11-0.26-4.29-1.1-4.55-1.11c-7.73-0.49-14.04,7.07-13.36,15.39c0,0,3.92-1.49,3.93-1.49
				c-0.2,0.06-0.2-3.27-0.18-3.46c0.72-6.09,7.23-10.32,13.08-6.67C435.21,573.72,436.3,571.07,436.3,571.07z"/>
			<path fill="#EA8F1A" d="M357.76,587.67c0.16,0.09,0.34,0.46,0.46,0.61c0.42,0.5,0.9,0.94,1.43,1.31c1.51,1.09,3.35,1.49,5.16,1.33
				c1.3-0.12,3.41-0.34,4.04-1.78c0.38-0.88,0.32-2.37-0.65-2.78c-0.9-0.38-1.95-0.03-2.77,0.4c-1.21,0.64-2.02,1.75-3.43,1.95
				C360.52,588.93,359.04,588.41,357.76,587.67z"/>
			<path fill="#EA8F1A" d="M361.89,666.33c0.06,0.11-0.09,0.72-0.09,0.86c-0.02,0.67,0.05,1.35,0.26,1.98c0.71,2.14,3.21,3.37,5.24,2.81
				c0.62-0.17,1.18-0.51,1.58-1.05c0.26-0.35,0.42-0.77,0.51-1.2c0.1-0.47-0.14-1.47,0.04-1.83
				C369.42,667.89,366.42,674.06,361.89,666.33z"/>
			<ellipse fill="#EA8F1A" cx="299.27" cy="563.42" rx="1.24" ry="1.32"/>
			<ellipse fill="#EA8F1A" cx="340.29" cy="548.66" rx="1.24" ry="1.32"/>
			<path fill="#EA8F1A" d="M268.24,571.07c-0.11-0.26,4.29-1.1,4.55-1.11c7.73-0.49,14.04,7.07,13.36,15.39c0,0-3.92-1.49-3.93-1.49
				c0.2,0.06,0.2-3.27,0.18-3.46c-0.72-6.09-7.23-10.32-13.08-6.67C269.33,573.72,268.24,571.07,268.24,571.07z"/>
			<path fill="#EA8F1A" d="M346.78,587.67c-0.16,0.09-0.34,0.46-0.46,0.61c-0.42,0.5-0.9,0.94-1.43,1.31c-1.51,1.09-3.35,1.49-5.16,1.33
				c-1.3-0.12-3.41-0.34-4.04-1.78c-0.38-0.88-0.32-2.37,0.65-2.78c0.9-0.38,1.95-0.03,2.77,0.4c1.21,0.64,2.02,1.75,3.43,1.95
				C344.02,588.93,345.5,588.41,346.78,587.67z"/>
			<path fill="#EA8F1A" d="M342.65,666.33c-0.06,0.11,0.09,0.72,0.09,0.86c0.02,0.67-0.05,1.35-0.26,1.98
				c-0.71,2.14-3.21,3.37-5.24,2.81c-0.62-0.17-1.18-0.51-1.58-1.05c-0.26-0.35-0.42-0.77-0.51-1.2c-0.1-0.47,0.14-1.47-0.04-1.83
				C335.12,667.89,338.12,674.06,342.65,666.33z"/>
		</g>
	</g>
	<g id="yellow">
		<g>
			<path fill="#FBF200" d="M379.95,434.28c0.19-0.11,0.39-0.5,0.54-0.67c0.53-0.58,1.15-1.09,1.79-1.53c4.66-3.2,11.98-3.45,16.75-0.33
				c2.24,1.46,4.48,3.96,3.77,7c0,0-1.02,4.34-5.68,4c0,0-4.13-0.96-2.94-5.02c0,0,0.32-2.98,3.77-2.44c0,0,2.36,1.56,1.21,3.53
				c0,0-0.32,0.95-1.4,0.54c-0.15-0.06-0.19,0.69-0.15,0.79c0.27,0.56,1.26,0.35,1.67,0.11c0.6-0.36,0.92-1.11,1.02-1.81
				c0.2-1.42-0.53-2.61-1.32-3.68c-1.95-2.64-5.22-3-8.17-3.02C387.09,431.72,383.26,432.42,379.95,434.28z"/>
			<path fill="#FDEF06" d="M431,468.8c0.57,2.49,0.85,5.1,0.86,7.66c0.02,4.82-1.33,8.66-4.52,12.14c-0.97,1.06-2.01,2.08-2.54,3.49
				c-0.1,0.28-0.19,0.58-0.17,0.88c0.03,0.48,0.34,0.9,0.73,1.14c0.79,0.5,1.83,0.32,2.6-0.2s1.32-1.34,1.81-2.16
				c2.02-3.37,3.43-7.45,3.12-11.49c-0.3-3.94-0.4-8.24-2.1-11.85"/>
			<path fill="#FDEF06" d="M407.67,503.74c0,0-24.31-20.16-47.55,16.55C360.11,520.29,379.76,481.05,407.67,503.74z"/>
			<path fill="#FDEF06" d="M404.88,499.67c0,0-19.98-16.64-43.06,14.65C361.82,514.32,381.34,479.06,404.88,499.67z"/>
			<path fill="#FDEF06" d="M387.16,532.74c0,2.4,2.17,4.59,4.42,4.59s4.08-1.94,4.08-4.34c0-2.4-1.83-4.84-4.08-4.84
				S387.16,530.34,387.16,532.74z"/>
			<path fill="#FDEF06" d="M423.32,583.62c0,0,6.67-0.86,11.13-8.54C434.44,575.08,422.98,569.79,423.32,583.62z"/>
			<path fill="#FBF200" d="M324.59,434.28c-0.19-0.11-0.39-0.5-0.54-0.67c-0.53-0.58-1.15-1.09-1.79-1.53
				c-4.66-3.2-11.98-3.45-16.75-0.33c-2.24,1.46-4.48,3.96-3.77,7c0,0,1.02,4.34,5.68,4c0,0,4.13-0.96,2.94-5.02
				c0,0-0.32-2.98-3.77-2.44c0,0-2.36,1.56-1.21,3.53c0,0,0.32,0.95,1.4,0.54c0.15-0.06,0.19,0.69,0.15,0.79
				c-0.27,0.56-1.26,0.35-1.67,0.11c-0.6-0.36-0.92-1.11-1.02-1.81c-0.2-1.42,0.53-2.61,1.32-3.68c1.95-2.64,5.22-3,8.17-3.02
				C317.45,431.72,321.28,432.42,324.59,434.28z"/>
			<path fill="#FBF200" d="M310.87,458.22v2.92c0,0-3.57-1.83-15.32,0.68C295.56,461.81,299.26,457.95,310.87,458.22z"/>
			<path fill="#FBF200" d="M391.07,458.33l-3.49,3.21c0,0,7.06-2.13,18.8,0.38C406.38,461.92,402.68,458.06,391.07,458.33z"/>
			<path fill="#FDEF06" d="M353.06,450.14c-1.68-0.27-3.48,0.49-4.53,1.91c-0.55,0.75-0.91,1.65-1.55,2.3
				c-0.98,0.98-2.57,1.17-3.73,0.45c-1.16-0.72-1.78-2.3-1.45-3.68c-0.81,1.33-2.16,2.36-3.65,2.42c-1.49,0.06-3.03-1.03-3.3-2.58
				c-0.23-1.34,0.46-2.67,1.35-3.65c-0.75,0.1-1.54-0.2-2.07-0.77c-1.22-1.33-0.58-3.15,0.39-4.4c0.49-0.62,1.09-1.14,1.77-1.51
				c0.16-0.09,2.09-0.71,2.07-0.6c-0.17,1.56-0.34,3.17,0,4.7c0.34,1.53,1.31,3,2.74,3.45c1.05,0.33,2.17,0.06,3.24-0.13
				c1.08-0.19,2.26-0.29,3.19,0.3c-1.03,0.53-1.81,1.59-2.03,2.79c1.14-0.91,2.33-1.84,3.71-2.21c1.38-0.37,3.04-0.03,3.87,1.2
				C353.07,450.14,353.06,450.14,353.06,450.14z"/>
			<path fill="#FDEF06" d="M358.51,452.93c0,0,2.01-6.31-1.82-11.19c0,0,5.36-2.98,6.32,1.15c0,0,0.32,1.9-0.96,2.78
				c0.52-0.36,1.92,0.18,2.35,0.47c1.63,1.07,1.36,3.37,0.7,4.98c-0.33,0.8-0.74,1.52-1.4,2.05c-0.51,0.42-1.71,0.99-1.31,1.88
				c0.15,0.33,0.36,0.25,0.57,0.45c0.12,0.12,0.19,0.03,0.3,0.19c0.44,0.61,0.24,2.21,0.03,2.88c-0.35,1.1-1.31,2.05-2.39,2.32
				c0,0-2.17,0.53-3.38-0.76c0,0,0.86,4.49-2.36,5.04c-1.27,0.22-2.55,0.08-3.57-0.81c-0.6-0.52-0.86-0.62-1.63-0.48
				c-1.92,0.36-2.89,2.2-3.16,4.12c0,0-1.47-6.1,4.59-9.02c0,0,9.51-3.12,9.57-8.88C360.97,450.08,359.44,452.05,358.51,452.93z"/>
			<path fill="#FDEF06" d="M352.67,476.99c-2.37,0.57-4.77,1.15-6.92,2.35c-1.86,1.04-3.94,1.68-5.74-0.03c-1.09-1.03-1.6-2.7-1.3-4.22
				c-1.35,0.7-2.82,1.2-4.32,1.16s-3.03-0.67-3.98-1.9c-0.6-0.78-0.95-1.8-0.8-2.8s0.85-1.91,1.77-2.12
				c-1.49-1.09-3.39-0.34-4.99-0.99c-1.57-0.63-2.43-2.54-2.74-4.18c-0.25-1.35-0.25-2.74-0.49-4.09c-0.25-1.41-0.81-2.49-1.77-3.49
				c1.38-0.62,3.62,0.08,4.96,0.61c5.09,2.01,8.21,7.09,11.65,11.27c0.76,0.93,1.65,1.88,2.8,2.05c-0.62,0.32-1.37,0.15-2.02-0.1
				c-2.2-0.86-3.96-2.64-5.65-4.37c0.69,2.2,2.07,4.23,4.02,5.28c1.54,0.83,3.31,0.99,5.03,1.25c2.02,0.3,4.03,0.76,5.98,1.41
				C349.67,474.59,352.07,475.19,352.67,476.99z"/>
			<path fill="#FDEF06" d="M354.09,481.65c0.78-6.6,6.91-10.16,11.38-13.85c2.47-2.04,4.77-4.36,6.53-7.11
				c1.76-2.75,2.95-5.96,3.09-9.29c0.08-1.96-0.22-4-1.26-5.63c-0.78-1.22-1.96-2.22-2.31-3.65c-0.37-1.51,0.29-3.07,1.04-4.41
				c0.78,1.7,1.96,3.15,3.04,4.66c1.08,1.5,2.11,3.12,2.51,4.96c0.4,1.85,0.05,3.97-1.28,5.24c1.86,1.5,3.08,4.03,2.7,6.47
				c-0.38,2.45-2.61,4.55-4.92,4.24c0.92,1.24,0.83,3.1,0.02,4.42s-2.19,2.15-3.62,2.54c-1.43,0.39-2.93,0.39-4.42,0.37
				c0.49,1.67,0.94,3.64-0.02,5.06c-0.81,1.2-2.36,1.53-3.75,1.48c-1.39-0.06-2.78-0.41-4.16-0.19
				C356.42,477.3,354.49,479.28,354.09,481.65z"/>
			<path fill="#FDEF06" d="M273.54,468.8c-0.57,2.49-0.85,5.1-0.86,7.66c-0.02,4.82,1.33,8.66,4.52,12.14c0.97,1.06,2.01,2.08,2.54,3.49
				c0.1,0.28,0.19,0.58,0.17,0.88c-0.03,0.48-0.34,0.9-0.73,1.14c-0.79,0.5-1.83,0.32-2.6-0.2s-1.32-1.34-1.81-2.16
				c-2.02-3.37-3.43-7.45-3.12-11.49c0.3-3.94,0.4-8.24,2.1-11.85"/>
			<path fill="#FDEF06" d="M296.87,503.74c0,0,24.31-20.16,47.55,16.55C344.43,520.29,324.78,481.05,296.87,503.74z"/>
			<path fill="#FDEF06" d="M299.66,499.67c0,0,19.98-16.64,43.06,14.65C342.72,514.32,323.2,479.06,299.66,499.67z"/>
			<path fill="#FDEF06" d="M317.38,532.74c0,2.4-2.17,4.59-4.42,4.59s-4.08-1.94-4.08-4.34c0-2.4,1.83-4.84,4.08-4.84
				S317.38,530.34,317.38,532.74z"/>
			<path fill="#FDEF06" d="M281.23,583.62c0,0-6.67-0.86-11.13-8.54C270.1,575.08,281.57,569.79,281.23,583.62z"/>
			<path fill="#FDEF06" d="M352.25,652.78v-0.14c0,0.02-0.01,0.05-0.02,0.07c0,0,0-0.01,0-0.02l0,0.03c-0.35,1.5-4.62,5.61-4.62,5.61
				c2.95,1.36,4.64,6.78,4.64,6.78s1.72-5.42,4.68-6.78C356.93,658.33,352.6,654.28,352.25,652.78z"/>
			<path fill="#FDEF06" d="M352.76,421.41c-0.73-1.15-1.22-2.48-1.39-3.85c-0.07-0.55-0.09-1.11,0.06-1.64
				c0.16-0.53,0.52-1.01,1.02-1.17s1.11,0.08,1.3,0.59c0.11,0.29,0.07,0.62,0.03,0.93c-0.13,0.87-0.45,1.66-0.66,2.5
				C353.01,419.2,352.53,421.06,352.76,421.41z"/>
			<ellipse fill="#FDEF06" cx="352.34" cy="592.86" rx="2.38" ry="2.53"/>
		</g>
	</g>
	<g id="blue">
		<g>
			<path fill="#2DABE8" d="M368.72,422.07c0.25,0.04,1.02-0.58,1.25-0.7c0.99-0.5,2.01-0.93,3.06-1.24c1.66-0.49,3.61-0.6,5.24,0.11
				c1.04,0.45,2.97,2.34,2.52,3.71c-0.8,2.42-4.61,0.46-6.04-0.05C374.74,423.9,370.44,422.35,368.72,422.07z"/>
			<path fill="#21A9E7" d="M434.55,492.35c0,0-0.51,3.89-5.11,5.97c0,0-5.19,2.26-2.21,4.61C427.24,502.93,432.68,506.63,434.55,492.35z
				"/>
			<path fill="#69B8DF" d="M399.03,519.18l4.08-1.83c0,0,1.4-4.54-1.95-5.97c0,0-3.35-1.83-6.41,1.9c0,0,2.43,1.63,2.68,5.9
				c0,0,1.4-4.63,2.68-4.86L399.03,519.18z"/>
			<path fill="#69B8DF" d="M389.59,512.95c0,0-1.4,2.91-1.34,5.01l-2.42-3.64c0,0-1.25-0.19,1.76,5.97c0,0-3.57-3.82-5.57-3.41
				c-0.12,0.03-0.23-2.05-0.23-2.18c0.08-1.9,1.38-3.17,3.03-3.65C386.71,510.49,388.46,511.25,389.59,512.95z"/>
			<path fill="#69B8DF" d="M376.91,521.07c0,0,0.32,2.68,1.32,4l-3.39-0.97c0,0-0.98,0.59,3.97,2.85c0,0-4.29-0.43-5.54,0.97
				c-0.08,0.09-1.1-1.19-1.16-1.28c-0.81-1.27-0.46-2.83,0.51-4.08C373.73,521.13,375.34,520.62,376.91,521.07z"/>
			<path fill="#69B8DF" d="M372.79,535.88c0,0,2.08,1.55,3.67,1.65l-2.95,2.01c0,0-0.25,1.16,4.66-1.2c0,0-3.19,3.08-3.05,5
				c0.01,0.12-1.57,0.06-1.67,0.05c-1.43-0.23-2.27-1.55-2.5-3.15C370.69,538.41,371.42,536.81,372.79,535.88z"/>
			<path fill="#69B8DF" d="M380.41,549.3c0,0,2.56-1.1,3.69-2.56l-0.43,3.96c0,0,0.72,0.9,2.17-5.13c0,0,0.23,4.79,1.78,5.75
				c0.1,0.06-0.99,1.53-1.07,1.62c-1.12,1.23-2.68,1.29-4.05,0.59C380.93,552.74,380.2,551.14,380.41,549.3z"/>
			<path fill="#69B8DF" d="M395.39,552.48c0,0,1.34-2.56,1.36-4.45l2,3.37c0,0,1.09,0.22-1.33-5.44c0,0,3,3.58,4.78,3.3
				c0.11-0.02,0.13,1.85,0.12,1.97c-0.14,1.71-1.33,2.79-2.81,3.16C397.83,554.81,396.32,554.04,395.39,552.48z"/>
			<path fill="#69B8DF" d="M409.21,543.55c0,0-1.21-2.63-2.66-3.73l3.75,0.18c0,0,0.79-0.83-4.96-1.94c0,0,4.48-0.58,5.27-2.29
				c0.05-0.11,1.51,0.94,1.6,1.02c1.24,1.1,1.4,2.75,0.84,4.25C412.4,542.75,410.95,543.63,409.21,543.55z"/>
			<path fill="#69B8DF" d="M411.78,528.69c0,0-2.57-1.06-4.34-0.82l2.87-2.57c0,0,0.05-1.18-4.89,2.15c0,0,2.92-3.65,2.41-5.49
				c-0.03-0.11,1.71-0.39,1.82-0.4c1.61-0.08,2.79,1.01,3.34,2.52C413.61,525.8,413.11,527.5,411.78,528.69z"/>
			<path fill="#1BACE5" d="M388.12,592.01c-1.28,0.63-2.76,0.78-4.06,1.49c-2.29,1.24-4.31,3.27-4.63,6.11
				c-0.08,0.74-0.35,1.75,0.48,1.95c0.35,0.09,0.8-0.07,1.12-0.22c1.5-0.7,2.8-3,3.14-4.61C384.16,596.72,384.8,593.63,388.12,592.01
				z"/>
			<path fill="#2DABE8" d="M335.82,422.07c-0.25,0.04-1.02-0.58-1.25-0.7c-0.99-0.5-2.01-0.93-3.06-1.24c-1.66-0.49-3.61-0.6-5.24,0.11
				c-1.04,0.45-2.97,2.34-2.52,3.71c0.8,2.42,4.61,0.46,6.04-0.05C329.8,423.9,334.1,422.35,335.82,422.07z"/>
			<path fill="#21A9E7" d="M269.99,492.35c0,0,0.51,3.89,5.11,5.97c0,0,5.19,2.26,2.21,4.61C277.3,502.93,271.86,506.63,269.99,492.35z"
				/>
			<path fill="#69B8DF" d="M305.51,519.18l-4.08-1.83c0,0-1.4-4.54,1.95-5.97c0,0,3.35-1.83,6.41,1.9c0,0-2.43,1.63-2.68,5.9
				c0,0-1.4-4.63-2.68-4.86L305.51,519.18z"/>
			<path fill="#69B8DF" d="M314.96,512.95c0,0,1.4,2.91,1.34,5.01l2.42-3.64c0,0,1.25-0.19-1.76,5.97c0,0,3.57-3.82,5.57-3.41
				c0.12,0.03,0.23-2.05,0.23-2.18c-0.08-1.9-1.38-3.17-3.03-3.65C317.83,510.49,316.08,511.25,314.96,512.95z"/>
			<path fill="#69B8DF" d="M327.63,521.07c0,0-0.32,2.68-1.32,4l3.39-0.97c0,0,0.98,0.59-3.97,2.85c0,0,4.29-0.43,5.54,0.97
				c0.08,0.09,1.1-1.19,1.16-1.28c0.81-1.27,0.46-2.83-0.51-4.08C330.81,521.13,329.2,520.62,327.63,521.07z"/>
			<path fill="#69B8DF" d="M331.75,535.88c0,0-2.08,1.55-3.67,1.65l2.95,2.01c0,0,0.25,1.16-4.66-1.2c0,0,3.19,3.08,3.05,5
				c-0.01,0.12,1.57,0.06,1.67,0.05c1.43-0.23,2.27-1.55,2.5-3.15C333.85,538.41,333.12,536.81,331.75,535.88z"/>
			<path fill="#69B8DF" d="M324.13,549.3c0,0-2.56-1.1-3.69-2.56l0.43,3.96c0,0-0.72,0.9-2.17-5.13c0,0-0.23,4.79-1.78,5.75
				c-0.1,0.06,0.99,1.53,1.07,1.62c1.12,1.23,2.68,1.29,4.05,0.59C323.61,552.74,324.34,551.14,324.13,549.3z"/>
			<path fill="#69B8DF" d="M309.15,552.48c0,0-1.34-2.56-1.36-4.45l-2,3.37c0,0-1.09,0.22,1.33-5.44c0,0-3,3.58-4.78,3.3
				c-0.11-0.02-0.13,1.85-0.12,1.97c0.14,1.71,1.33,2.79,2.81,3.16C306.71,554.81,308.22,554.04,309.15,552.48z"/>
			<path fill="#69B8DF" d="M295.33,543.55c0,0,1.21-2.63,2.66-3.73l-3.75,0.18c0,0-0.79-0.83,4.96-1.94c0,0-4.48-0.58-5.27-2.29
				c-0.05-0.11-1.51,0.94-1.6,1.02c-1.24,1.1-1.4,2.75-0.84,4.25C292.14,542.75,293.59,543.63,295.33,543.55z"/>
			<path fill="#69B8DF" d="M292.76,528.69c0,0,2.57-1.06,4.34-0.82l-2.87-2.57c0,0-0.05-1.18,4.89,2.15c0,0-2.92-3.65-2.41-5.49
				c0.03-0.11-1.71-0.39-1.82-0.4c-1.61-0.08-2.79,1.01-3.34,2.52C290.93,525.8,291.43,527.5,292.76,528.69z"/>
			<path fill="#1BACE5" d="M316.42,592.01c1.28,0.63,2.76,0.78,4.06,1.49c2.29,1.24,4.31,3.27,4.63,6.11c0.08,0.74,0.35,1.75-0.48,1.95
				c-0.35,0.09-0.8-0.07-1.12-0.22c-1.5-0.7-2.8-3-3.14-4.61C320.38,596.72,319.74,593.63,316.42,592.01z"/>
			<path fill="#69B8DF" d="M349.75,518.02c-1.01-2.1-1.83-4.32-2.48-6.57c-0.81-2.82-1.33-6.29,0.06-9c1.49-2.92,6.02-4.66,8.62-2.33
				c1.93,1.73,2.08,6.48,2.13,8.93c0.03,1.67-0.1,3.36-0.47,4.99c-0.19,0.84-0.44,1.67-0.76,2.46c-0.18,0.45-1.1,1.73-1.06,2.15
				c0,0-1.02-10.85-1.02-10.85l-0.68,14.92l-1.53-18.81l-0.42,16.73l-1.97-12.3v9.76C350.17,518.11,349.75,518.02,349.75,518.02z"/>
		</g>
	</g>
	<g id="green">
		<g>
			<ellipse fill="#03A74E" cx="395.26" cy="567.24" rx="2.38" ry="2.53"/>
			<ellipse fill="#03A74E" cx="371.5" cy="559.49" rx="2.38" ry="2.53"/>
			<path fill="#03A74E" d="M424.94,563.86c0,0-3.13-3.65-2.55-8.81c0,0,0.26-3.05,2.55-6.51c0,0,2.62-4.81,1.79-9.43
				c0,0,6.32,6.06,6.7,7.27c0,0-0.51,4.97-2.11,5.63c0,0-0.96-5.2-2.17-6.06c0,0,0.64,4.14,1.15,5.53c0,0-2.94-1.25-3.25-3.28
				c0,0-1.34,1.76,3.64,4.68l0.19,2.17c0,0-2.94-0.75-5.3-4.07c0,0,0.06,2.44,3.57,4.54l-0.7,2.54c0,0-2.36-1.32-3.25-3.22
				c0,0-0.9,1.76,2.68,3.93l-1.21,1.79l-1.53-0.7l0.89,1.76C426.02,561.63,425.83,563.85,424.94,563.86z"/>
			<path fill="#03A74E" d="M433.94,547.46c0,0-0.96,4.95-1.91,5.09l0.45,3.25c0,0,2.43-1.97,2.74-6.31
				C435.21,549.49,434.58,547.6,433.94,547.46z"/>
			<path fill="#03A74E" d="M435.66,551.05c0.16,0.59-0.81,2.37-1.06,2.96c-0.43,0.99-1.22,1.97-1.52,2.98
				c-0.34,1.13,0.02,2.61,1.31,1.72C434.38,558.71,436.87,555.46,435.66,551.05z"/>
			<path fill="#03A74E" d="M408.09,577.02c0,0-6.83-3.87-13.78,0.41c0,0-7.4,5.49-9.64,5.56c0,0,13.19,9.22,18.15,6.17l2.46-3.19
				l-0.88-0.47c0,0-3.64,3.87-5.93,2.51l4.36-2.44l-2.57-0.41c0,0-4.15,2.98-5.87,1.9l4.49-2.17l-2.13-0.68c0,0-3.45,2.24-6.06,1.02
				l4.59-1.15c0,0-3.64-1.36-6.12-0.88c0,0,1.15-1.39,5.55-0.59c0,0-2.43-1.64-2.68-2.86c0,0,4.02,3.93,7.72,3.46
				c0,0-4.98-1.9-4.47-4.61c0,0,2.94,4.2,8.04,5.15l1.4-0.47c0,0-6.25-3.66-6.64-5.83c0,0,4.08,4,5.49,4c0,0-0.66-1.49-0.74-2.44
				C402.82,578.99,405.54,579.74,408.09,577.02z"/>
			<path fill="#03A74E" d="M404.58,587.87c0,0,2.81,0.75,2.62-0.88C407.2,586.99,406.88,585.63,404.58,587.87z"/>
			<path fill="#03A74E" d="M367.12,655.14c0,0,1.85-1.49,1.98-5.7c0,0-0.13-2.51,0-3.46c0,0-3.99,0.75-3.49,8.95
				c0,0,1.26-3.87,1.39-4.68C366.99,650.26,367.63,650.87,367.12,655.14z"/>
			<path fill="#03A74E" d="M365.37,659.82c0,0,1.5,0.07,3.73,2.85c0,0,1.28,1.42,4.02,0.75c0,0-1.47-2.03-1.85-3.25
				c0,0-1.12-4.2-4.53-2.24c0,0,3.13,0.95,3.51,2.98C370.25,660.91,366.8,658.42,365.37,659.82z"/>
			<path fill="#03A74E" d="M375.35,650.56c0.6-1.92,1.17-3.85,1.86-5.74c-0.02,0.02-0.04,0.04-0.06,0.06c0.9-1.76,2.36-3.34,4.07-4.19
				c-0.13,0.07-0.13,1.45-0.14,1.6c-0.12,1.67,0.01,3.37-0.6,4.94c-0.68,1.74-1.96,3.14-3.47,4.11c0,0,1.6-3.12,1.85-5.36
				C378.86,645.99,376.12,650.39,375.35,650.56z"/>
			<path fill="#03A74E" d="M375.35,653.38c0,0,4.28-0.14,6.13,5.49c0,0,1.28,3.46,3.64,3.46c0,0-5.74,1.15-7.34-2.64
				c0,0-1.98-3.87-4.15-4.54c0,0,1.34-1.42,6.06,4.07C379.69,659.21,378.29,655.21,375.35,653.38z"/>
			<path fill="#03A74E" d="M386.99,647.95c0,0,0.61-1.58,0.93-4.79c0,0,0.26-3.21,2.11-5.11c0,0,0.06,2.31,0.45,4.41
				c0,0,0.34,3.05-1.74,4.81c0,0,0.99-4.34,0.92-5.42C389.66,641.85,388.62,647.14,386.99,647.95z"/>
			<path fill="#03A74E" d="M385.44,650.94c0,0,3.38-1.76,7.4,2.44c0,0,3.07,2.36,4.34,2.03c0,0-4.74,2.78-8.43,0.34
				c0,0-3.65-2.79-4.97-2.98c0,0,1.69-1.02,6.72,1.7C390.5,654.46,391.05,652.43,385.44,650.94z"/>
			<path fill="#03A74E" d="M397.63,641.1c-0.09-0.73,0.29-1.8,0.31-2.6c0.03-1-0.07-2.01-0.33-2.97c-0.46-1.69-0.96-3.12-1.06-4.91
				c0,0-3.19,2.96-2.17,6.83c0,0,1.72,5.36,1.08,7.19c0,0,1.91-4.32,0.06-8.94C395.52,635.69,397.05,636.22,397.63,641.1z"/>
			<path fill="#03A74E" d="M397.18,646.53c0,0,9.6,1.04,10.21-7.73l-6.96,4.2c0,0,4.28-0.72,5.11-1.61c0,0-1.21,2.63-4.98,2.83
				C400.56,644.22,398.01,644.29,397.18,646.53z"/>
			<path fill="#03A74E" d="M405.48,630.62c0,0,3.57-3,3-6.85c-0.09-0.73-0.27-1.47-0.49-2.17c-0.5-1.64-1.55-2.93-1.99-4.61
				c-0.24-0.91-0.4-2.18-0.91-2.96c-0.02,0.15-0.01,0.29,0.01,0.45c0.04,0.35-0.53,1.02-0.69,1.29c-0.55,0.92-1.08,1.84-1.54,2.81
				c-1.17,2.47-1.74,5.58-1.09,8.31c0.55,2.3,2.31,4.06,2.04,6.63c0,0,1.28-1.88,0.45-6.47L405.48,630.62z"/>
			<path fill="#03A74E" d="M310.87,447.64c0,0-2.81-2.31-7.21-1.42c0,0,1.79,1.02,1.79,2.17c0,0-8.42,0.14-9.89,3.19l1.72,0.95
				c0,0-5.68,2.51-6.83,4.95c0,0,3,0.18,3.13,0.73c0,0-5.24,1.75-8.42,6.66h2.55c0,0-4.98,5.15-6.38,8.27c0,0,7.98-5.9,10.91-5.22
				c0,0,0.1,2.3-1.4,3.66c0,0,6.13-2.24,6.96-1.42c0,0,0.15,1.15-1.15,2.37c0,0,4.85-1.97,5.55-1.76c0,0-0.13,1.83-0.96,2.37
				s0.37,0,0.37,0s5.3-0.68,5.37-1.29l-0.19,2.44c0,0,6.1-0.27,6.14-0.95c0,0-0.66-4.27,0.68-5.22l-2.11-2.58l-3.77,4.48l3.13-5.76
				v-1.76c0,0-5.3,5.9-5.74,7.46c0,0-0.06-3.8,4.08-7.53l-1.08-0.61l-6.52,7.46l4.03-6.44c0,0-0.51-1.83-3.57,0.68l-4.34,5.42
				c0,0,2.94-6.37,4.47-7.12c0,0-3.32-1.36-7.15,5.29c0,0,0.47-3.07,2.43-4.54c0,0-2.93-0.56-5.68,2.71c0,0,1.08-3.8,6.32-5.97
				c0,0-3-0.75-3.19-2.24c0,0,4.66,2.37,7.08,0.81c0,0-4.34-2.24-4.53-3.8c0,0,5.11,3.87,7.72,3.39c0,0-5.17-4.34-5.17-5.63
				c0,0,5.87,5.63,7.66,5.56c0,0-4.79-4.88-4.47-6.58c0,0,5.11,6.37,6.57,6.37c0,0-4.66-5.97-4.02-7.66l4.66,6.24
				c0,0,0.06-2.29-2.11-4L310.87,447.64z"/>
			<path fill="#03A74E" d="M392.81,447.45c0,0,0.74-1.99,5.15-1.11c0,0-1.79,1.02-1.79,2.17c0,0,8.42,0.14,9.89,3.19l-1.72,0.95
				c0,0,5.68,2.51,6.83,4.95c0,0-3,0.18-3.13,0.73c0,0,5.24,1.75,8.42,6.66h-2.55c0,0,4.98,5.15,6.38,8.27c0,0-7.98-5.9-10.91-5.22
				c0,0-0.1,2.3,1.4,3.66c0,0-6.13-2.24-6.96-1.42c0,0-0.15,1.15,1.15,2.37c0,0-4.85-1.97-5.55-1.76c0,0,0.13,1.83,0.96,2.37
				c0.83,0.54-0.37,0-0.37,0s-5.3-0.68-5.37-1.29l0.19,2.44c0,0-3.25-2.21-3.3-2.89c0,0-1.85-5.02-3.19-5.97l1.12-0.66l4.41,5.24
				l-3.89-7.16l0.76-0.36c0,0,5.3,5.9,5.74,7.46c0,0,0.06-3.8-4.08-7.53l1.08-0.61l6.52,7.46l-4.03-6.44c0,0,0.51-1.83,3.57,0.68
				l4.34,5.42c0,0-2.94-6.37-4.47-7.12c0,0,3.32-1.36,7.15,5.29c0,0-0.47-3.07-2.43-4.54c0,0,2.93-0.56,5.68,2.71
				c0,0-1.08-3.8-6.32-5.97c0,0,3-0.75,3.19-2.24c0,0-4.66,2.37-7.08,0.81c0,0,4.34-2.24,4.53-3.8c0,0-5.11,3.87-7.72,3.39
				c0,0,5.17-4.34,5.17-5.63c0,0-5.87,5.63-7.66,5.56c0,0,4.79-4.88,4.47-6.58c0,0-5.11,6.37-6.57,6.37c0,0,4.66-5.97,4.02-7.66
				l-4.66,6.24c0,0,0.91-2.89,0.98-4.18L392.81,447.45z"/>
			<ellipse fill="#03A74E" cx="309.28" cy="567.24" rx="2.38" ry="2.53"/>
			<ellipse fill="#03A74E" cx="333.04" cy="559.49" rx="2.38" ry="2.53"/>
			<path fill="#03A74E" d="M279.6,563.86c0,0,3.13-3.65,2.55-8.81c0,0-0.26-3.05-2.55-6.51c0,0-2.62-4.81-1.79-9.43
				c0,0-6.32,6.06-6.7,7.27c0,0,0.51,4.97,2.11,5.63c0,0,0.96-5.2,2.17-6.06c0,0-0.64,4.14-1.15,5.53c0,0,2.94-1.25,3.25-3.28
				c0,0,1.34,1.76-3.64,4.68l-0.19,2.17c0,0,2.94-0.75,5.3-4.07c0,0-0.06,2.44-3.57,4.54l0.7,2.54c0,0,2.36-1.32,3.25-3.22
				c0,0,0.9,1.76-2.68,3.93l1.21,1.79l1.53-0.7l-0.89,1.76C278.52,561.63,278.71,563.85,279.6,563.86z"/>
			<path fill="#03A74E" d="M270.6,547.46c0,0,0.96,4.95,1.91,5.09l-0.45,3.25c0,0-2.43-1.97-2.74-6.31
				C269.33,549.49,269.96,547.6,270.6,547.46z"/>
			<path fill="#03A74E" d="M268.88,551.05c-0.16,0.59,0.81,2.37,1.06,2.96c0.43,0.99,1.22,1.97,1.52,2.98
				c0.34,1.13-0.02,2.61-1.31,1.72C270.16,558.71,267.67,555.46,268.88,551.05z"/>
			<path fill="#03A74E" d="M296.45,577.02c0,0,6.83-3.87,13.78,0.41c0,0,7.4,5.49,9.64,5.56c0,0-13.19,9.22-18.15,6.17l-2.46-3.19
				l0.88-0.47c0,0,3.64,3.87,5.93,2.51l-4.36-2.44l2.57-0.41c0,0,4.15,2.98,5.87,1.9l-4.49-2.17l2.13-0.68c0,0,3.45,2.24,6.06,1.02
				l-4.59-1.15c0,0,3.64-1.36,6.12-0.88c0,0-1.15-1.39-5.55-0.59c0,0,2.43-1.64,2.68-2.86c0,0-4.02,3.93-7.72,3.46
				c0,0,4.98-1.9,4.47-4.61c0,0-2.94,4.2-8.04,5.15l-1.4-0.47c0,0,6.25-3.66,6.64-5.83c0,0-4.08,4-5.49,4c0,0,0.66-1.49,0.74-2.44
				C301.72,578.99,299,579.74,296.45,577.02z"/>
			<path fill="#03A74E" d="M299.96,587.87c0,0-2.81,0.75-2.62-0.88C297.34,586.99,297.66,585.63,299.96,587.87z"/>
			<path fill="#03A74E" d="M337.42,655.14c0,0-1.85-1.49-1.98-5.7c0,0,0.13-2.51,0-3.46c0,0,3.99,0.75,3.49,8.95
				c0,0-1.26-3.87-1.39-4.68C337.55,650.26,336.91,650.87,337.42,655.14z"/>
			<path fill="#03A74E" d="M339.17,659.82c0,0-1.5,0.07-3.73,2.85c0,0-1.28,1.42-4.02,0.75c0,0,1.47-2.03,1.85-3.25
				c0,0,1.12-4.2,4.53-2.24c0,0-3.13,0.95-3.51,2.98C334.29,660.91,337.74,658.42,339.17,659.82z"/>
			<path fill="#03A74E" d="M329.19,650.56c-0.6-1.92-1.17-3.85-1.86-5.74c0.02,0.02,0.04,0.04,0.06,0.06c-0.9-1.76-2.36-3.34-4.07-4.19
				c0.13,0.07,0.13,1.45,0.14,1.6c0.12,1.67-0.01,3.37,0.6,4.94c0.68,1.74,1.96,3.14,3.47,4.11c0,0-1.6-3.12-1.85-5.36
				C325.68,645.99,328.42,650.39,329.19,650.56z"/>
			<path fill="#03A74E" d="M329.19,653.38c0,0-4.28-0.14-6.13,5.49c0,0-1.28,3.46-3.64,3.46c0,0,5.74,1.15,7.34-2.64
				c0,0,1.98-3.87,4.15-4.54c0,0-1.34-1.42-6.06,4.07C324.85,659.21,326.25,655.21,329.19,653.38z"/>
			<path fill="#03A74E" d="M317.55,647.95c0,0-0.61-1.58-0.93-4.79c0,0-0.26-3.21-2.11-5.11c0,0-0.06,2.31-0.45,4.41
				c0,0-0.34,3.05,1.74,4.81c0,0-0.99-4.34-0.92-5.42C314.88,641.85,315.93,647.14,317.55,647.95z"/>
			<path fill="#03A74E" d="M319.1,650.94c0,0-3.38-1.76-7.4,2.44c0,0-3.07,2.36-4.34,2.03c0,0,4.74,2.78,8.43,0.34
				c0,0,3.65-2.79,4.97-2.98c0,0-1.69-1.02-6.72,1.7C314.04,654.46,313.49,652.43,319.1,650.94z"/>
			<path fill="#03A74E" d="M306.91,641.1c0.09-0.73-0.29-1.8-0.31-2.6c-0.03-1,0.07-2.01,0.33-2.97c0.46-1.69,0.96-3.12,1.06-4.91
				c0,0,3.19,2.96,2.17,6.83c0,0-1.72,5.36-1.08,7.19c0,0-1.91-4.32-0.06-8.94C309.02,635.69,307.49,636.22,306.91,641.1z"/>
			<path fill="#03A74E" d="M307.36,646.53c0,0-9.6,1.04-10.21-7.73l6.96,4.2c0,0-4.28-0.72-5.11-1.61c0,0,1.21,2.63,4.98,2.83
				C303.98,644.22,306.53,644.29,307.36,646.53z"/>
			<path fill="#03A74E" d="M299.07,630.62c0,0-3.57-3-3-6.85c0.09-0.73,0.27-1.47,0.49-2.17c0.5-1.64,1.55-2.93,1.99-4.61
				c0.24-0.91,0.4-2.18,0.91-2.96c0.02,0.15,0.01,0.29-0.01,0.45c-0.04,0.35,0.53,1.02,0.69,1.29c0.55,0.92,1.08,1.84,1.54,2.81
				c1.17,2.47,1.74,5.58,1.09,8.31c-0.55,2.3-2.31,4.06-2.04,6.63c0,0-1.28-1.88-0.45-6.47L299.07,630.62z"/>
		</g>
	</g>
	<g id="pink">
		<g>
			<path fill="#E50D92" d="M359.36,421.09c1.42-1.08,3.08-0.61,4.69-0.69c0.82-0.04,1.68-0.24,2.31-0.81c0.63-0.57,0.95-1.58,0.59-2.36
				c-0.31-0.68-1.06-1.04-1.77-1.05c-0.71-0.01-1.4,0.27-2.04,0.6c-0.85,0.44-1.65,1-2.29,1.75
				C360.19,419.3,359.95,420.3,359.36,421.09z"/>
			<path fill="#E50D92" d="M401.01,489.55c0,0,4.34-0.88,7.66,1.15c0,0,4.89,1.92,2.87-1.15C411.54,489.55,408.67,484.87,401.01,489.55
				z"/>
			<path fill="#E50D92" d="M436.87,570.06c0.33-0.17,1.13-6.07,1.16-6.62c0.14-2.07,0.32-4.82-0.35-6.79c-1.15,0.72-1.66,3.55-1.8,4.86
				c-0.05,0.44-0.07,0.89,0.04,1.32c0.13,0.51,0.42,0.95,0.58,1.44c0.3,0.93,0.1,1.97-0.34,2.84c-0.44,0.87-1.09,1.58-1.73,2.29
				c0.8,0.23,1.6,0.45,2.41,0.68C436.85,570.06,436.86,570.06,436.87,570.06z"/>
			<path fill="#E50D92" d="M432.95,569.22c0,0,6.28-4.51-2.52-12.26c0,0-4.98,5.97-3.96,9.42c0,0,0.51,1.82,0.38,2.84
				C426.85,569.22,430.37,567.94,432.95,569.22z"/>
			<path fill="#E50D92" d="M422.32,573.09c0,0-6.44-3.8-5.55-10.99c0,0,2.55,1.15,4.59,1.32c0,0,3.3-0.5,4.97,6.35
				C426.33,569.77,422.37,571.46,422.32,573.09z"/>
			<path fill="#E50D92" d="M420.98,574.31c0,0-4.89-3.06-4.3-4.24c0,0-1.19-1.23-5.45,0.58c0,0-2.13,1.45-3.15,0.81
				c0,0,1.15,5.06,6.45,7.78c0,0,3.34-0.63,3.85-1.18C418.39,578.06,419.65,575.53,420.98,574.31z"/>
			<path fill="#E50D92" d="M417.28,580.5c0,0-0.94,3.89,0,5.15c0,0-11.36,1.63-12.7-5.15c0,0,4.7-1.45,5.64-3.07
				C410.22,577.43,413.79,581.86,417.28,580.5z"/>
			<path fill="#E50D92" d="M393.43,592.18c-1.2-0.2-2.99,1.07-3.9,1.82c-1.16,0.95-2.11,2.19-2.73,3.6c-0.34,0.78-0.58,1.72-0.21,2.49
				c0.09,0.2,0.23,0.38,0.42,0.47c0.55,0.27,1.12-0.3,1.49-0.8c0.88-1.21,1.76-2.42,2.6-3.67
				C391.87,594.94,393.04,593.54,393.43,592.18z"/>
			<path fill="#E50D92" d="M345.18,421.09c-1.42-1.08-3.08-0.61-4.69-0.69c-0.82-0.04-1.68-0.24-2.31-0.81
				c-0.63-0.57-0.95-1.58-0.59-2.36c0.31-0.68,1.06-1.04,1.77-1.05c0.71-0.01,1.4,0.27,2.04,0.6c0.85,0.44,1.65,1,2.29,1.75
				C344.35,419.3,344.59,420.3,345.18,421.09z"/>
			<path fill="#E50D92" d="M321.46,446.62c0,0-5.65-6.63-12,4.75c0,0,3.38,2.92,2.62,8.07c0,0-1.28,6.31,2.43,7.26
				c0,0,3.64-3.93,6.57-3.25c0,0-0.04-0.44-4.47-3.18c0,0,2.11-0.42,4.15,1.21c0,0,0.06-2.81-5.3-3.27c0,0,2.36-1.27,4.98,0.28
				c0,0-0.26-1.63-2.94-1.9l2.36-0.89c0,0-4.79-2.63-5.74-4.33c0,0,5.93,2.44,6.57,2.17c0,0-4.02-4-4.02-4.88c0,0,4.02,1.7,4.34,2.85
				C321.02,451.5,320.95,448.18,321.46,446.62z"/>
			<path fill="#E50D92" d="M323.08,465.18c0,0-10.3-0.93-8.76,8.77c0,0,0.45,2.58,1.4,3.8c0,0,1.66,3.93,0.51,6.24
				c0,0,5.23-1.22,12.51,5.36c0,0,8.42,8.48,13.98,1.97c0,0-6.64-5.49-7.79-10.92c0,0-1.53-2.51-2.81,2.37c0,0-1.21-2.51,0.83-4.61
				c0,0-2.49-1.9-4.98,2.98c0,0-1.08-2.64,2.49-4.88c0,0-2.04-2.51-7.21,3.73c0,0-2.49-2.24,4.53-5.7c0,0,0.7-1.97-0.77-1.36
				c0,0-3.89,1.08-4.98,3.8c0,0-0.96-3.46,5.11-5.7c0,0-2.68-0.75-6.7,1.29c0,0,0.06-2.1,5.04-3.05
				C325.49,469.27,323.23,466.78,323.08,465.18z"/>
			<path fill="#E50D92" d="M336.65,478.22c0,0,5.3,21.7,22.65,11.26c0,0-7.59-3.32-6.25-10.92c0,0-3.13-0.41-5.3,1.36
				c0,0-5.81,4.81-9.57-2.24C338.18,477.68,336.72,477.07,336.65,478.22z"/>
			<path fill="#E50D92" d="M359.31,487.31c0,0-4.98-0.27-4.02-6.44c0,0,1.02-3.66,5.49-2.58c0,0,9.76,2.58,7.34-6.24
				c0,0,7.59,0.68,8.42-6.24c0,0,5.36,14.44-5.11,20.34c0,0-10.79,6.04-12.89-2.92c0,0-0.48-2.7,1.08-3.78
				C359.63,479.46,354.46,481.07,359.31,487.31z"/>
			<path fill="#E50D92" d="M380.69,458.62c0,0-0.13,1.29-1.02,2.78c0,0-1.15,1.63-0.38,3.53c0,0,0.7-1.9,2.68-1.49
				c0,0-2.94,1.7-1.91,5.09c0,0,1.91-3.19,3.77-2.31c0,0-4.79,2.98-3.7,7.19c0,0,3.06-1.42,4.02-0.34c0,0-4.93,0.69-5.11,4.45
				c0,0,2.37-1.38,2.94,0c0,0-1.1-0.18-2.94,1.45c0,0-1.01,0.34-1.52,2.37c0,0,0.26,4.14-5.55,6.31c0,0-2.81,1.15,0,2.1
				c6.89,2.33,14.61-4,16.99-10.6c0.76-2.13,1.42-4.47,3.44-5.67c0,0-2.94-2.58-4.02-6.78C388.35,466.69,387,457.95,380.69,458.62z"
				/>
			<path fill="#E50D92" d="M380.75,437.67c0,0,2.96,4.61,0.78,8.44c0,0-0.91,1.19-1.23,3.7c0,0,4.59-6.51,6.89-5.36
				c0,0-8.08,5.09-5.67,10.38c0,0,2.35-6.71,4.52-6.51c0,0-0.51,1.97-2.68,5.36l1.79-0.68c0,0-0.32,2.13-2.23,3.87
				c0,0,3.95,0.97,3.96,3.26c0,0,3.64-1.63,4.4-8.61c0,0,0.13-4.07,2.11-5.83c0,0-4.08-1.29-6.54-6.51
				C386.85,439.16,384.26,434.48,380.75,437.67z"/>
			<path fill="#E50D92" d="M372.26,426.15c0,0,0.38,4.4,2.36,5.96c0,0,1.15,1.56,2.62,3.39c0,0,4.15,2.92,3.06,8.82
				c0,0-0.64,1.02-2.04,0.61c0,0-5.42-7.39-6-10.85c0,0,0,5.9-3.25,6.65c0,0,1.02-4.54,0.64-5.7c0,0-0.89-2.17-2.17,8.27
				c0,0-1.98,1.22-2.3-0.88c0,0,1.08-7.12,2.23-8.54c0,0-1.4-1.49-3,7.12c0,0-2.94-1.88-1.79-4.43l1.4-3.36c0,0-1.72-0.27-2.55,4.61
				c-0.08,0.49-1.69,1.07-2.05,1.17c-2.14,0.62-3.67-1.27-4.28-3.24c-0.64-2.06-0.08-4.18,1.63-5.42c2.03-1.47,4.71-0.88,7.01-1.04
				c1.45-0.1,2.91-0.32,4.32-0.74c0.8-0.24,1.59-0.54,2.32-0.95C370.72,427.43,372.3,426.56,372.26,426.15z"/>
			<path fill="#E50D92" d="M353.05,433.13c0,0-2.23-9.7-12.13-5.49c0,0-6.51,4.54-11.55,3.05c0,0-0.13,4.81-3.19,9.22
				c0,0-5.23,6.58-3.45,11.8c0,0,2.23,3.17,2.3,3.99c0,0,3.51,0.42,4.66,1.98c0,0,0-3.25-3.45-5.42c0,0,2.55,0.39,4.72,3.45
				c0,0-2.43-8.39-4.4-9.68c0,0,2.3-0.68,5.36,7.86c0,0,1.66-3.08-1.91-11.1c0,0,2.81,3.3,3.51,6.36l0.77-0.88
				c0,0-3.25-3.12-1.02-6.71c0,0,2.55-4,5.62-2.58C338.89,438.96,342.46,428.85,353.05,433.13z"/>
			<path fill="#E50D92" d="M334.74,453.54c-0.01-0.01-0.02-0.02-0.03-0.02c-1.2,1.59-2.09,4.72-1.23,6.65c0.21,0.48,0.53,0.89,0.84,1.3
				c0.88,1.18,1.68,2.43,2.38,3.74c-0.1-1.86,0.11-3.74,0.63-5.53c0.23-0.8,0.58-1.65,1.3-1.99c-0.45,2.14-0.91,4.37-0.44,6.5
				c0.14,0.63,0.36,1.26,0.77,1.74c0.4,0.49,1.01,0.82,1.61,0.75c-0.47-2.56-0.92-5.29-0.05-7.73c0.2,3.37,0.41,6.82,1.63,9.95
				c0.32,0.82,0.88,1.74,1.72,1.73c-0.38-1.66-0.75-3.34-0.85-5.05c-0.1-1.71,0.1-3.47,0.83-5c0.1,2.5,0.21,5.02,0.71,7.47
				c0.15,0.74,0.36,1.52,0.89,2.04c-0.38-3.07-0.32-6.47,1.52-8.87c0.89-1.16,2.11-1.98,3.33-2.73c1.56-0.95,3.15-1.83,4.78-2.63
				c0.18-0.09,0.36-0.18,0.47-0.35c0.07-0.12,0.1-0.27,0.12-0.42c0.11-0.87,0.06-1.81-0.38-2.55c-0.44-0.73-1.21-1.17-2.01-1.33
				c-1.08-0.21-2.23,0.08-3.1,0.78c-0.97,0.78-1.55,1.98-2.43,2.87c-0.6,0.61-1.33,1.06-2.12,1.32c-0.83,0.27-1.76,0.31-2.52-0.12
				c-0.98-0.55-1.49-1.71-1.93-2.8c-0.66,1.08-1.91,1.65-3.12,1.62C336.85,454.85,335.7,454.3,334.74,453.54z"/>
			<path fill="#E50D92" d="M366.17,452.59c0,0,3.92,5.22,2.45,10.71c0,0-10.25,8.34-12.91,11.8c0,0-1.7-3.05-1.19-6.04
				c0,0-0.96,1.56-0.77,6.04c0,0-1.6-1.49-1.21-6.65c0,0-1.53,0.11-0.77,5.95c0,0-2.23-1.14-1.47-6.63c0,0-1.66-2.1-0.77,3.93
				c0,0-2.11,0.75-1.28-4.61c0,0,0.77-2.64,3.19-1.63c0,0,5.81,3.27,7.4-3.55c0,0,7.91,0.03,5.3-7.37L366.17,452.59z"/>
			<path fill="#E50D92" d="M367.22,450.49c0,0-0.38-4.07-1.05-4.61l4.94-5.29c0,0-0.13,2.17,1.91,4.95c0,0,4.21,6.17-1.08,9.97
				c0,0,2.49-4.5,0.96-7.17c0,0-1,6.76-3.38,6.29c0,0,3.63-5.89,1.79-9.97c0,0-0.77,7.26-2.68,8.48l-0.94-1.15
				c0,0,2.56-4.65,1.64-6.58C369.33,445.4,368.37,450.22,367.22,450.49z"/>
			<path fill="#E50D92" d="M357.65,452.25c0,0,1.4-4.89-0.77-7.23c0,0-1.97-3.01-1.72-3.62c0,0-1.54,4.67-5.49,3.62
				c0,0,6.06-1.28,4.85-7.35c0,0-0.57-5.56-8.49-4.07c0,0-5.74,1.94-6.57,6.98c0,0-0.7,4.19,0.89,5.97c0,0,2.36,0.27,2.36,0.27
				c-0.52-0.06-1.05-3.11-1.1-3.5c-0.51-3.71,1.85-6.46,4.93-7.8c1.89-0.82,5.12-1.38,6.39,0.87c1.56,2.78-0.01,6.04-2.56,7.28
				c0,0-6.77,2.08-6.32-3.65c0,0-3.53,3.37-0.06,6.53c0,0,3.48-1.03,4.71,1.08c0,0,3.94-1.28,7.01,2.85c0,0-0.71-3.74-2.09-4.68
				C353.63,445.81,356.18,444.99,357.65,452.25z"/>
			<path fill="#E50D92" d="M348.7,439.43c0,0-0.05,3.09,0.46,3.34c0,0-3.7,2.11-4.34-2.75L348.7,439.43z"/>
			<path fill="#E50D92" d="M350.5,442.13c0.03-0.09,0.42-0.25,0.5-0.3c0.4-0.29,0.77-0.65,1.04-1.07c1.34-2.07,0.27-4.72-2.01-5.02
				c-2.85-0.37-5.53,2.31-7.31,4.3c0,0,5.11-3.3,7.08-1.74C349.8,438.28,351.13,440.45,350.5,442.13z"/>
			<path fill="#E50D92" d="M303.53,489.55c0,0-4.34-0.88-7.66,1.15c0,0-4.89,1.92-2.87-1.15C293,489.55,295.87,484.87,303.53,489.55z"
				/>
			<path fill="#E50D92" d="M267.67,570.06c-0.33-0.17-1.13-6.07-1.16-6.62c-0.14-2.07-0.32-4.82,0.35-6.79
				c1.15,0.72,1.66,3.55,1.8,4.86c0.05,0.44,0.07,0.89-0.04,1.32c-0.13,0.51-0.42,0.95-0.58,1.44c-0.3,0.93-0.1,1.97,0.34,2.84
				c0.44,0.87,1.09,1.58,1.73,2.29c-0.8,0.23-1.6,0.45-2.41,0.68C267.69,570.06,267.68,570.06,267.67,570.06z"/>
			<path fill="#E50D92" d="M271.59,569.22c0,0-6.28-4.51,2.52-12.26c0,0,4.98,5.97,3.96,9.42c0,0-0.51,1.82-0.38,2.84
				C277.69,569.22,274.17,567.94,271.59,569.22z"/>
			<path fill="#E50D92" d="M282.22,573.09c0,0,6.44-3.8,5.55-10.99c0,0-2.55,1.15-4.59,1.32c0,0-3.3-0.5-4.97,6.35
				C278.21,569.77,282.17,571.46,282.22,573.09z"/>
			<path fill="#E50D92" d="M283.56,574.31c0,0,4.89-3.06,4.3-4.24c0,0,1.19-1.23,5.45,0.58c0,0,2.13,1.45,3.15,0.81
				c0,0-1.15,5.06-6.45,7.78c0,0-3.34-0.63-3.85-1.18C286.15,578.06,284.89,575.53,283.56,574.31z"/>
			<path fill="#E50D92" d="M287.26,580.5c0,0,0.94,3.89,0,5.15c0,0,11.36,1.63,12.7-5.15c0,0-4.7-1.45-5.64-3.07
				C294.32,577.43,290.75,581.86,287.26,580.5z"/>
			<path fill="#E50D92" d="M311.11,592.18c1.2-0.2,2.99,1.07,3.9,1.82c1.16,0.95,2.11,2.19,2.73,3.6c0.34,0.78,0.58,1.72,0.21,2.49
				c-0.09,0.2-0.23,0.38-0.42,0.47c-0.55,0.27-1.12-0.3-1.49-0.8c-0.88-1.21-1.76-2.42-2.6-3.67
				C312.67,594.94,311.5,593.54,311.11,592.18z"/>
			<g>
				<path fill="#E50D92" d="M386.52,628.36c0,0-2.11,7.46-7.79,1.56c0,0-3,8.34-8.74,2.27c0,0-2.87,9.54-9.64,2.21
					c0,0-2.87,5.91-8.1,0.63c-5.23,5.29-8.07-0.63-8.07-0.63c-6.76,7.33-9.64-2.21-9.64-2.21c-5.74,6.07-8.74-2.27-8.74-2.27
					c-5.68,5.9-7.79-1.56-7.79-1.56c-3.64,2.64-5.04,0-5.04,0c0.38,6.31,5.11,3.46,5.11,3.46c1.28,6.65,6.83,2.31,6.83,2.31
					c4.66,6.78,8.81,1.7,8.81,1.7c8.36,8.54,10.02,2.17,10.02,2.17c4.15,6.92,8.52,1.1,8.52,1.1s4.4,5.81,8.55-1.1
					c0,0,1.66,6.37,10.02-2.17c0,0,4.15,5.09,8.81-1.7c0,0,5.55,4.34,6.83-2.31c0,0,4.72,2.85,5.11-3.46
					C391.56,628.36,390.16,631,386.52,628.36z"/>
				<path fill="#E50D92" d="M319.16,611.2c4.65-6.24,7.14,0.68,7.14,0.68c4.77-6.58,7.93,1.29,7.93,1.29c5.11-9.49,9.64-2.1,9.64-2.1
					c4.72-7.19,8.42,0,8.42,0s3.67-7.19,8.39,0c0,0,4.53-7.39,9.64,2.1c0,0,3.17-7.87,7.93-1.29c0,0,2.49-6.92,7.14-0.68
					c0,0,1.59-5.36,5.92-1.9l0.26-3.05c-0.19,0.07-3.96-3.12-6.57,0.95c0,0-4.53-4.48-7.59,0.95c0,0-5.04-6.24-8.62,0.54
					c0,0-6.19-8.54-8.62-0.47c0,0-4.47-6.88-7.91-1.52c-3.45-5.36-7.88,1.52-7.88,1.52c-2.43-8.07-8.62,0.47-8.62,0.47
					c-3.57-6.78-8.62-0.54-8.62-0.54c-3.06-5.42-7.59-0.95-7.59-0.95c-2.62-4.07-6.38-0.88-6.57-0.95l0.26,3.05
					C317.57,605.84,319.16,611.2,319.16,611.2z"/>
			</g>
		</g>
	</g>
</svg>
