
<svg class="skull-svg" width="723px"    height="1040px" version="1.1" 
xmlns="http://www.w3.org/2000/svg" xmlns:xlink="http://www.w3.org/1999/xlink" xmlns:a="http://ns.adobe.com/AdobeSVGViewerExtensions/3.0/"
x="0px" y="0px"  viewBox="0 0 722.909 1103.862"
enable-background="new 0 0 722.909 1103.862" xml:space="preserve">
	<g id="black">
		<path d="M436.353,531.698c-0.901-5.533,3.485-17.387,3.485-17.387c6.981-19.717,0-39.266,0-39.266
			c-23.538-70.981-88.574-66.313-88.574-66.313s-65.165-4.668-88.705,66.313c0,0-6.982,19.549,0,39.266
			c0,0,4.387,11.854,3.486,17.387c0,0-28.029,41.604,14.167,58.845c0,0,2.512,8.942,1.347,26.999c0,0,3.04,58.793,69.585,61.458
			c66.532-2.605,69.665-61.458,69.665-61.458c-1.166-18.066,1.347-26.999,1.347-26.999
			C464.383,573.302,436.353,531.698,436.353,531.698z"/>
	</g>
	<g id="white">
		<g>
			<path fill="#FFFFFF" d="M391.018,615.613c0,0-0.519-5.993-0.387-7.332c0,0-0.686-1.659-2.845-1.395c0,0-3.041,0.402-2.332,5.061
				c0,0,1.034,2.93,0.649,4.001L391.018,615.613z"/>
			<path fill="#FFFFFF" d="M391.018,616.675c0.304-0.057,0.759,3.657,0.759,3.924c0.03,1.444-0.345,3.025-1.377,4.069
				c-0.983,1-3.427,1.669-3.964-0.247c-0.161-0.559,0.113-1.563,0.145-2.152c0.02-0.324,0.13-4.718-0.153-4.658
				C386.436,617.61,391.018,616.675,391.018,616.675z"/>
			<path fill="#FFFFFF" d="M378.613,616.675c0,0,6.394-0.727,6.394-0.734c0.295-0.029-0.18-3.658-0.232-3.903
				c-0.223-1.071-0.598-2.133-1.236-3.02c-0.892-1.226-2.159-2.199-3.557-1.237c-1.337,0.916-1.762,2.624-1.762,4.196
				C378.22,611.977,379.009,616.075,378.613,616.675z"/>
			<path fill="#FFFFFF" d="M385.098,617.542l-6.301,0.795c0,0,0.263,4.864,0,5.533c0,0-1.459,3.137,3.149,4.001
				C381.946,627.871,386.558,628.872,385.098,617.542z"/>
			<path fill="#FFFFFF" d="M370.072,617.542c0,0,7.104-0.462,7.111-0.462c0.416-0.03,0.307-4.139,0.265-4.475
				c-0.203-1.845-1.326-4.304-3.362-4.512c-2.139-0.215-3.256,2.076-3.68,3.883C370.264,612.538,369.938,617.551,370.072,617.542z"/>
			<path fill="#FFFFFF" d="M370.042,619.547l7.448-1.063c0,0,2.086,17.662-7.813,9.8
				C369.678,628.273,370.467,620.874,370.042,619.547z"/>
			<path fill="#FFFFFF" d="M368.908,617.944h-8.474c0,0,0.265-5.092,0-5.907c-0.911-2.89,2.059-5.366,4.702-4.375
				c1.906,0.718,3.031,2.556,3.519,4.512C369.108,614.041,369.09,616.037,368.908,617.944z"/>
			<path fill="#FFFFFF" d="M369.028,619.478l-8.401,0.402c0,0,0,8.068-0.708,10.734c0,0,1.551,1.993,4.56,2.268
				c3.009,0.275,4.741-5.326,4.56-7.193v-6.211H369.028z"/>
			<path fill="#FFFFFF" d="M351.963,619.88v11.726c0,0.266,1.095,0.992,1.317,1.149c3.649,2.605,6.091-2.181,6.051-5.415v-7.46
				H351.963L351.963,619.88z"/>
			<path fill="#FFFFFF" d="M351.963,618.475v-8.995c0,0,0.387-2.682,3.364-2.907c0,0,5.106-0.227,4.014,11.636L351.963,618.475z"/>
			<path fill="#FFFFFF" d="M311.391,615.613c0,0,0.517-5.993,0.384-7.332c0,0,0.69-1.659,2.849-1.395c0,0,3.039,0.402,2.33,5.061
				c0,0-1.034,2.93-0.649,4.001L311.391,615.613z"/>
			<path fill="#FFFFFF" d="M311.391,616.675c-0.304-0.057-0.76,3.657-0.76,3.924c-0.031,1.444,0.345,3.025,1.379,4.069
				c0.981,1,3.425,1.669,3.961-0.247c0.163-0.559-0.112-1.563-0.142-2.152c-0.02-0.324-0.132-4.718,0.152-4.658
				C315.971,617.61,311.391,616.675,311.391,616.675z"/>
			<path fill="#FFFFFF" d="M323.793,616.675c0,0-6.394-0.727-6.394-0.734c-0.293-0.029,0.183-3.658,0.233-3.903
				c0.223-1.071,0.598-2.133,1.236-3.02c0.892-1.226,2.159-2.199,3.557-1.237c1.337,0.916,1.763,2.624,1.763,4.196
				C324.189,611.977,323.398,616.075,323.793,616.675z"/>
			<path fill="#FFFFFF" d="M317.309,617.542l6.302,0.795c0,0-0.263,4.864,0,5.533c0,0,1.46,3.137-3.151,4.001
				C320.459,627.871,315.849,628.872,317.309,617.542z"/>
			<path fill="#FFFFFF" d="M332.336,617.542c0,0-7.104-0.462-7.114-0.462c-0.415-0.03-0.303-4.139-0.263-4.475
				c0.202-1.845,1.328-4.304,3.364-4.512c2.138-0.215,3.252,2.076,3.678,3.883C332.144,612.538,332.468,617.551,332.336,617.542z"/>
			<path fill="#FFFFFF" d="M332.366,619.547l-7.447-1.063c0,0-2.088,17.662,7.812,9.8
				C332.731,628.273,331.94,620.874,332.366,619.547z"/>
			<path fill="#FFFFFF" d="M333.501,617.944h8.471c0,0-0.263-5.092,0-5.907c0.912-2.89-2.057-5.366-4.702-4.375
				c-1.905,0.718-3.03,2.556-3.516,4.512C333.298,614.041,333.319,616.037,333.501,617.944z"/>
			<path fill="#FFFFFF" d="M333.379,619.478l8.401,0.402c0,0,0,8.068,0.709,10.734c0,0-1.55,1.993-4.56,2.268
				c-3.01,0.275-4.743-5.326-4.56-7.193v-6.211H333.379z"/>
			<path fill="#FFFFFF" d="M350.445,619.88v11.726c0,0.266-1.096,0.992-1.318,1.149c-3.648,2.605-6.09-2.181-6.05-5.415v-7.46
				H350.445L350.445,619.88z"/>
			<path fill="#FFFFFF" d="M350.445,618.475v-8.995c0,0-0.385-2.682-3.365-2.907c0,0-5.108-0.227-4.013,11.636L350.445,618.475z"/>
			<path fill="#FFFFFF" d="M412.914,590.089c-1.124,1.141-1.548,8.032-1.548,8.032c0.607,4.372-0.741,6.377-0.741,6.377
				c0.374-1.956-0.641-5.69-0.641-5.69c-0.607-3.558,0.641-10.575,0.641-10.575h-1.348l-1.085,5.15
				c-0.759,2.487-0.882,10.842-0.882,10.842c-2.675-5.692-0.465-13.693-0.465-13.693c0.565-2.761-1.327-1.286-1.327-1.286
				c-0.59,1.012-1.896,14.358-1.896,14.358l-1.226-11.726l-2.543,2.525c1.813,5.053,0.13,12.983,0.13,12.983
				c0.78,8.71-8.015,17.684-8.015,17.684c-0.133,7.192-5.604,5.66-5.604,5.66c-1.145,5.161-6.939,2.143-6.939,2.143
				c-4.653,5.955-9.404,1.897-9.404,1.897c-6.972,7.392-10.124,2.152-10.124,2.152c-5.179,6.134-8.703,0.865-8.703,0.865
				s-3.527,5.258-8.695-0.865c0,0-3.15,5.239-10.123-2.152c0,0-4.752,4.058-9.403-1.897c0,0-5.797,3.019-6.942-2.143
				c0,0-5.472,1.532-5.603-5.66c0,0-8.795-8.974-8.016-17.684c0,0-1.682-7.931,0.132-12.983L300,591.878l-1.226,11.726
				c0,0-1.306-13.347-1.894-14.358c0,0-1.905-1.475-1.327,1.286c0,0,2.209,8.009-0.467,13.693c0,0-0.121-8.354-0.882-10.842
				l-1.083-5.15h-1.348c0,0,1.237,7.018,0.638,10.575c0,0-1.013,3.734-0.638,5.69c0,0-1.348-1.995-0.739-6.377
				c0,0-0.436-6.892-1.551-8.032l-1.814,0.991c0,0,2.239,5.426,1.895,23.02c0,0-1.206,18.4,4.226,27.195
				c0,0,8.796,21.239,35.78,29.594c0,0,9.656,4.444,21.594,3.383c11.936,1.072,21.663-3.383,21.663-3.383
				c26.984-8.354,35.781-29.594,35.781-29.594c5.432-8.795,4.226-27.195,4.226-27.195c-0.345-17.594,1.894-23.02,1.894-23.02
				L412.914,590.089z M409.269,623.547c-0.236,2.15-1.622,3.979-3.051,5.562c-0.519,0.561-1.045,1.119-1.409,1.798
				c-1.126,2.074-0.641,5.111-2.533,6.469c2.675-0.884,4.942-2.978,6.1-5.62c-0.081,4.215-0.658,9.021-3.992,11.469
				c-4.218,3.086-10.558,0.708-14.897,3.607c1.754,0.246,3.08,1.661,4.46,2.802c1.378,1.14,3.262,2.092,4.845,1.285
				c-1.469,2.33-4.177,3.687-6.871,3.735c-2.696,0.048-5.339-1.091-7.407-2.881c-1.044-0.894-1.965-1.953-3.184-2.585
				c-1.203-0.628-2.837-0.695-3.776,0.306c2.055,0.748,3.15,2.987,4.143,4.993c0.991,1.995,2.403,4.168,4.56,4.433
				c-2.847,2.202-7.256,1.849-9.738-0.775c-1.357-1.438-2.137-3.401-3.577-4.747c-1.439-1.356-4.083-1.77-5.116-0.07
				c1.701-0.421,3.029,1.516,3.677,3.194c0.651,1.682,1.542,3.717,3.295,3.833c-2.474,1.476-5.878,1.042-7.923-1.011
				c-0.528-0.532-0.994-1.16-1.651-1.496c-1.49-0.746-3.396,0.531-3.75,2.204c-0.356,1.67,0.494,3.399,1.722,4.54
				c0.811,0.756,1.875,1.334,2.95,1.148c1.072-0.188,1.983-1.415,1.549-2.445c1.043,0.019,1.725,1.237,1.732,2.31
				c0.021,2.684-2.988,4.696-5.501,4.029c-2.523-0.668-4.195-3.392-4.248-6.064c-0.062-2.683,1.248-5.229,3.01-7.205
				c-3.05,0.67-5.615,2.899-7.398,5.544c-1.771,2.624-3.008,5.65-4.104,8.638c0,0.021,0,0.041,0,0.06
				c0-0.008-0.008-0.019-0.008-0.029c0,0.011-0.01,0.021-0.01,0.029c0-0.019,0-0.038,0-0.067c-1.087-2.998-2.221-6.014-3.994-8.641
				c-1.783-2.643-4.347-4.863-7.397-5.542c1.763,1.965,3.06,4.521,3.009,7.204c-0.061,2.683-1.732,5.406-4.245,6.063
				c-2.523,0.671-5.534-1.346-5.503-4.028c0.01-1.081,0.69-2.291,1.733-2.311c-0.436,1.032,0.477,2.262,1.55,2.449
				c1.074,0.186,2.139-0.395,2.949-1.151c1.227-1.138,2.087-2.881,1.723-4.542c-0.354-1.66-2.259-2.938-3.749-2.199
				c-0.659,0.334-1.124,0.962-1.652,1.494c-2.046,2.053-5.451,2.485-7.923,1.011c1.753-0.106,2.645-2.151,3.293-3.832
				c0.648-1.683,1.965-3.618,3.679-3.196c-1.034-1.708-3.679-1.286-5.117,0.07c-1.44,1.356-2.22,3.313-3.578,4.747
				c-2.482,2.623-6.891,2.979-9.737,0.778c2.169-0.276,3.567-2.439,4.56-4.435c0.993-1.996,2.086-4.247,4.144-4.993
				c-0.942-1.003-2.574-0.934-3.779-0.305c-1.207,0.63-2.139,1.691-3.183,2.586c-2.066,1.778-4.711,2.929-7.407,2.878
				c-2.695-0.046-5.411-1.403-6.871-3.734c1.581,0.806,3.466-0.148,4.845-1.289c1.377-1.137,2.705-2.554,4.458-2.799
				c-4.337-2.91-10.68-0.532-14.896-3.607c-3.333-2.447-3.91-7.254-3.991-11.47c1.154,2.643,3.424,4.736,6.099,5.623
				c-1.895-1.356-1.409-4.396-2.534-6.468c-0.363-0.679-0.901-1.238-1.408-1.8c-1.438-1.583-2.816-3.401-3.05-5.563
				c-0.517-4.796,4.782-9.051,3.536-13.698c3.05,2.415,5.168,6.063,5.787,9.983c0.617,3.924-0.265,8.07-2.412,11.362
				c-0.263,0.412-0.557,0.826-0.659,1.307c-0.102,0.491,0.01,1.014,0.152,1.494c0.832,2.861,2.777,5.348,5.32,6.793
				c-1.419-2.232-1.166-5.161-0.568-7.755c0.599-2.595,1.5-5.21,1.207-7.862c2.36,2.818,4.863,6.104,4.458,9.799
				c-0.254,2.338-1.682,4.539-1.357,6.869c0.07,0.502,0.223,0.983,0.486,1.405c0.861,1.378,2.614,1.739,4.185,1.985
				c-0.668-0.107-1.307-1.926-1.47-2.486c-0.242-0.886-0.404-1.937-0.395-2.852c0.01-1.168,0.425-2.368,0.537-3.537
				c0.123-1.249,0.132-2.508,0.03-3.765c2.017,1.465,3.506,3.687,4.146,6.144c0.628,2.428,0.526,5.248,2.209,7.066
				c1.377,1.483,3.526,1.811,5.501,2.014c-1.854-1.127-2.522-3.557-2.664-5.769c-0.153-2.211,0.04-4.51-0.761-6.574
				c3.253,1.75,5.908,4.649,7.427,8.078c0.74,1.662,1.216,3.451,2.139,5.013c0.912,1.562,2.412,2.938,4.185,3.027
				c-2.23-2.89-0.345-7.272-1.459-10.791c2.756,0.422,4.895,2.879,5.837,5.583c0.941,2.702,0.901,5.649,0.861,8.529
				c5.522-2.869,9.85-8.067,11.773-14.133c0-0.02,0-0.039,0-0.06c0,0.011,0.013,0.021,0.013,0.03v-0.01c0,0.01,0,0.01,0,0.02
				c1.923,6.055,6.302,11.283,11.825,14.152c-0.052-2.88-0.083-5.827,0.861-8.529c0.941-2.704,3.08-5.171,5.835-5.583
				c-1.113,3.519,0.771,7.893-1.459,10.791c1.772-0.089,3.263-1.466,4.184-3.027c0.913-1.562,1.399-3.351,2.141-5.013
				c1.518-3.439,4.184-6.328,7.427-8.078c-0.8,2.053-0.616,4.363-0.762,6.574c-0.14,2.212-0.808,4.642-2.663,5.769
				c1.978-0.203,4.123-0.53,5.501-2.014c1.684-1.818,1.595-4.639,2.21-7.066c0.638-2.457,2.129-4.67,4.145-6.144
				c-0.103,1.249-0.092,2.516,0.031,3.765c0.111,1.181,0.518,2.379,0.534,3.539c0.014,0.913-0.149,1.964-0.393,2.85
				c-0.153,0.561-0.791,2.387-1.469,2.486c1.569-0.246,3.321-0.607,4.183-1.985c0.266-0.422,0.417-0.913,0.489-1.405
				c0.324-2.33-1.105-4.531-1.359-6.869c-0.406-3.695,2.106-6.988,4.458-9.799c-0.293,2.652,0.607,5.268,1.205,7.862
				c0.6,2.594,0.854,5.522-0.567,7.755c2.535-1.436,4.49-3.932,5.323-6.793c0.14-0.48,0.254-1.003,0.149-1.492
				c-0.102-0.482-0.395-0.896-0.657-1.309c-2.15-3.292-3.03-7.438-2.412-11.36c0.616-3.923,2.735-7.57,5.786-9.985
				C404.483,614.504,409.783,618.751,409.269,623.547z"/>
			<path fill="#FFFFFF" d="M421.478,519.461c-8.268-26.055,4.752-40.612,4.752-40.612c-7.913,16.267-3.141,35.982-3.141,35.982
				c3.597,6.301,8.47,2.625,8.47,2.625l1.39-7.255c-3.779,6.025-6.719,2.871-6.719,2.871c-2.055-2.841,1.449-4.255,1.449-4.255
				l5.602-4.806c2.678-2.221,1.816-9.977,1.816-9.977c-0.519,8.866-4.691,9.977-4.691,9.977c-4.785,1.779-5.117-1.69-5.117-1.69
				c-1.532-3.913,3.08-6.055,3.08-6.055c3.709-0.727,5.004-3.411,5.004-3.411c3.365-5.907,0.783-12.619,0.783-12.619
				c0.606,3.862-3.103,11.205-3.103,11.205c-4.823,6.447-7.073,3.233-7.073,3.233c-2.156-3.194,0.558-5.779,0.558-5.779
				c2.796-1.779,5.047-5.415,5.047-5.415c2.727-5.289,0.83-16.689,0.83-16.689c-8.268-22.724-26.578-36.808-26.578-36.808
				c-19.721-16.797-52.561-17.309-52.561-17.309s-32.984,0.511-52.693,17.309c0,0-18.311,14.084-26.579,36.808
				c0,0-1.895,11.4,0.83,16.689c0,0,2.25,3.625,5.046,5.415c0,0,2.707,2.585,0.557,5.779c0,0-2.249,3.214-7.072-3.233
				c0,0-3.709-7.342-3.101-11.205c0,0-2.583,6.703,0.78,12.619c0,0,1.296,2.693,5.006,3.411c0,0,4.61,2.142,3.081,6.055
				c0,0-0.334,3.469-5.117,1.69c0,0-4.175-1.111-4.692-9.977c0,0-0.861,7.756,1.815,9.977l5.604,4.806c0,0,3.506,1.415,1.449,4.255
				c0,0-2.939,3.155-6.718-2.871l1.388,7.255c0,0,4.875,3.675,8.472-2.625c0,0,4.783-19.716-3.142-35.982
				c0,0,13.031,14.557,4.752,40.612c0,0,0.213,3.931-13.02,24.847c0,0,7.519-6.831,8.268-8.621c0,0,0.436,9.367,3.05,11.658
				c0,0,3.993,6.8,0.021,14.152c0.091-0.156,0.699-0.864,4.022-1.021c0,0,2.107,0.01,2.675-2.486c0,0,2.371,3.281,0.436,9.257
				c0,0,2.138-1.159,7.021,1.141c0,0,3,0.835,3.487-0.826c0,0-1.601,5.465-3.487,7.265c0,0,8.239-6.261,17.034,0.265
				c0,0,6.304,6.222,10.336,5.239c0,0-0.628,2.151-8.096,5.72c0,0,15.109-3.902,22.476,5.16c0,0,2.979,6.42-1.753,8.138
				c0,0-3.992,1.396-7.011-4.707c0,0-4.186-11.088-22.293-5.729c0,0,5.888,2.496,7.306,13.758c0,0,4.581-2.653,6.981,1.073
				c0,0,3.821-3.932,7.499,0.736c0,0,4.013-5.868,8.735,0.462c0,0,6.537-7.932,8.857-0.669c0,0,3.82-5.799,7.762-1.463v-0.08
				c3.934-4.256,7.721,1.543,7.721,1.543c2.33-7.263,8.857,0.669,8.857,0.669c4.722-6.33,8.735-0.462,8.735-0.462
				c3.688-4.668,7.496-0.736,7.496-0.736c2.403-3.716,6.983-1.073,6.983-1.073c1.421-11.262,7.306-13.758,7.306-13.758
				c-18.108-5.358-22.293,5.729-22.293,5.729c-3.02,6.104-7.012,4.707-7.012,4.707c-4.724-1.718-1.752-8.138-1.752-8.138
				c7.366-9.063,22.475-5.16,22.475-5.16c-7.46-3.568-8.097-5.72-8.097-5.72c4.024,0.973,10.334-5.239,10.334-5.239
				c8.797-6.536,17.034-0.265,17.034-0.265c-1.884-1.8-3.484-7.265-3.484-7.265c0.486,1.672,3.484,0.826,3.484,0.826
				c4.886-2.3,7.022-1.141,7.022-1.141c-1.936-5.976,0.438-9.257,0.438-9.257c0.558,2.496,2.674,2.486,2.674,2.486
				c3.325,0.156,3.923,0.864,4.024,1.021c-3.972-7.359,0.018-14.152,0.018-14.152c2.615-2.281,3.05-11.658,3.05-11.658
				c0.752,1.79,8.271,8.621,8.271,8.621C421.263,523.393,421.478,519.461,421.478,519.461z M315.768,599.564
				c-0.932-0.04-1.581-0.914-2.107-1.702c-1.916-2.889-3.913-5.729-5.979-8.501c0.01,0,0.01,0,0.021,0
				c1.723-0.332,3.526,0.228,5.016,1.189c2.098,1.356,4.956,4.03,4.915,6.833C317.613,598.453,316.822,599.604,315.768,599.564z
					M324.128,600.143c0,0-3.061,1.369-5.371-4.126c0,0-2.198-6.063-8.339-7.53c0,0,8.522-2.123,13.375,6.174
				C323.793,594.649,326.002,597.883,324.128,600.143z M394.706,589.343c0.01,0,0.01,0,0.02,0c-2.067,2.781-4.064,5.611-5.979,8.503
				c-0.526,0.783-1.177,1.67-2.106,1.699c-1.056,0.039-1.844-1.11-1.866-2.191c-0.039-2.812,2.818-5.484,4.917-6.832
				C391.179,589.578,392.981,589.02,394.706,589.343z M378.613,594.649c4.854-8.294,13.377-6.171,13.377-6.171
				c-6.141,1.463-8.338,7.527-8.338,7.527c-2.312,5.504-5.371,4.129-5.371,4.129C376.406,597.883,378.613,594.649,378.613,594.649z
					M398.616,430.984c2.394,1.444,5.045,3.656,5.21,6.742c0.03,0.619-0.072,1.2-0.193,1.798c0,0-1.164,5.662-7.498,4.462
				c0,0-4.976-0.667-3.496-6.064c0,0,0.71-2.929,3.496-2.929c0,0-5.545-4.069-15.962,0.462c0,0-3.242,1.062-1.175-1.464
				C383.7,428.232,392.474,427.269,398.616,430.984z M376.791,419.731c0,0,4.527,1.198,4.335,5.267c0,0-1.092,3.333-6.209,1.269
				c0,0-8.341-4.276-10.157-0.442C364.76,425.824,366.636,418.325,376.791,419.731z M360.049,418c1.439-1.16,3.404-2.319,5.29-1.72
				c1.55,0.501,2.219,1.888,1.603,3.499c-0.354,0.904-1.115,1.554-1.987,1.888c-0.526,0.197-0.76,0.167-1.317,0.099
				c-1.601-0.188-3.223,0.068-4.702,0.717c-0.375,0.157-2.037,0.776-2.167,1.248C357.913,419.396,360.049,418,360.049,418z
					M350.891,414.688c0.323-0.108,0.677-0.157,1.014-0.079c0.808,0.197,1.307,1.052,1.477,1.888c0.438,2.093-0.566,4.177-1.375,6.143
				c-0.154,0.354-0.73,1.308-0.426,1.542C349.542,422.582,347.089,415.977,350.891,414.688z M337.079,416.28
				c1.884-0.609,3.851,0.55,5.29,1.72c0,0,2.138,1.395,3.292,5.73c-0.131-0.472-1.792-1.091-2.168-1.248
				c-1.479-0.639-3.1-0.905-4.703-0.717c-0.557,0.068-0.789,0.099-1.316-0.099c-0.881-0.333-1.632-0.984-1.986-1.888
				C334.849,418.168,335.518,416.782,337.079,416.28z M325.618,419.731c10.152-1.396,12.027,6.094,12.027,6.094
				c-1.814-3.834-10.154,0.441-10.154,0.441c-5.106,2.064-6.21-1.269-6.21-1.269C321.088,420.929,325.618,419.731,325.618,419.731z
					M298.582,437.727c0.162-3.086,2.817-5.298,5.208-6.742c6.152-3.715,14.927-2.752,19.628,3.007
				c2.067,2.535-1.175,1.464-1.175,1.464c-10.427-4.531-15.96-0.462-15.96-0.462c2.777,0,3.496,2.929,3.496,2.929
				c1.49,5.397-3.496,6.064-3.496,6.064c-6.333,1.2-7.499-4.462-7.499-4.462C298.653,438.926,298.552,438.346,298.582,437.727z
					M277.11,475.852c0.457-4.668,6.536-10.064,6.536-10.064l-2.33,0.402c0.972-4.796,6.921-7.194,6.921-7.194l-1.815-0.599
				c0.457-2.536,6.922-5.534,6.922-5.534c0-0.6-1.874-0.934-1.874-0.934c2.522-4.403,10.477-3.735,10.477-3.735
				c-0.517-0.796-2.655-1.799-2.655-1.799c5.24-3.931,10.732,1.002,10.732,1.002c4.853-7.529,10.477-1.867,10.477-1.867
				c0.781-2.93,4.59-8.197,4.59-8.197c2.392-2.801,2.138-7.46,2.138-7.46c3.618,1.671,6.333,0.137,6.85-0.266
				c3-2.318,7.114-3.332,7.114-3.332c9.049-2.064,11.451,7.135,11.451,7.135c1.033-6.595,10.864-5.002,10.864-5.002
				c4.78,0.796,8.603-2.802,8.603-2.802c-0.326,0.797,0.84,3.667,0.84,3.667l6.213,8.197c4.205-5.13,8.793,2.133,8.793,2.133
				c2.007,4,5.89,6.063,5.89,6.063c6.789-1.13,6.335,1.199,6.335,1.199c-0.652-0.069-3.174,1.268-3.174,1.268
				c9.636,0.196,10.284,4.127,10.284,4.127l-1.295,0.462c4.012,1.269,7.246,5.938,7.246,5.938l-2.465,0.333
				c5.37,1.996,7.175,6.998,7.175,6.998l-2.585,0.138c6.981,5.062,6.92,9.995,6.92,9.995c-5.236-3.735-11.833-6.466-11.833-6.466
				c0.516,0.333,1.683,3.931,1.683,3.931c-0.975-0.738-7.176-2.064-7.176-2.064c0.901,0.403,1.358,2.998,1.358,2.998
				c-3.426-1.867-5.494-1.731-5.494-1.731l1.421,1.535c-2.007,1.061-7.632-1.003-7.632-1.003l1.165,1.602
				c-1.813,1.396-4.265,0.266-4.265,0.266l-3.427,7.401c-2.582,6.064-10.405,8.394-10.405,8.394
				c-6.537,2.871-10.406-1.798-10.406-1.798c-2.331,1.602-6.921,0.196-6.921,0.196c-8.604,7.933-17.267,2.331-17.267,2.331
				c-3.881,7.734-13.517,0.667-13.517,0.667c-2.007-1.798-9.12-6.064-9.12-6.064c-2.716-1.996-7.499-1.465-7.499-1.465
				c1.936-4.53,0-6.801,0-6.801c-0.842-1.002-1.165-4.128-1.165-4.128l-0.386,0.266c-3.617,2.271-7.954,0.865-7.954,0.865
				l0.708-1.603c-3.363,1.2-6.98,0.737-6.98,0.737l1.226-1.533c-0.649,0-5.948,1.336-5.948,1.336
				c0.061-0.865,1.815-2.665,1.815-2.665c-0.71-0.333-7.246,1.731-7.246,1.731c0-2.133,1.875-3.4,1.875-3.4
				C286.3,469.316,277.11,475.852,277.11,475.852z M295.158,483.115c0,0-7.59,1.867-7.245-3.381c0,0,1.55-6.31,12.758-1.957
				c0,0,9.484,4.885,8.583,11.46C309.253,489.248,305.068,481.248,295.158,483.115z M304.987,491.105
				c-0.446-0.776-3.029-0.982-3.74-1.051c-1.398-0.128-2.816,0.01-4.175,0.373c-2.229,0.6-3.86,1.937-6.292,1.475
				c-3.121-0.59,0.344-4.561,1.712-5.337c2.979-1.681,6.445-0.403,9.201,1.149C301.693,487.714,303.69,488.845,304.987,491.105z
					M289.554,505.544c1.813-3.508,5.106-6.005,8.298-8.089c3.517-2.3,7.236-4.235,11.289-5.288c3.738-0.963,7.701-1.002,11.42,0.089
				c10.903,3.204,19.933,14.3,23.327,25.142c1.175,3.735,1.753,7.657,1.713,11.588c0.009-0.905-0.811-2.25-1.156-3.047
				c-1.114-2.604-2.473-5.09-4.003-7.46c-4.833-7.44-11.571-13.485-19.546-17.111c-3.648-1.662-6.819-2.172-10.772-1.799
				c-2.056,0.197-4.093,0.6-6.079,1.18c-5.595,1.651-10.569,4.757-14.926,8.679c-0.031,0.029-0.274-0.875-0.285-0.924
				C288.702,507.471,289.098,506.418,289.554,505.544z M342.104,547.345c0,1.729-1.357,3.125-3.04,3.125
				c-1.672,0-3.041-1.407-3.041-3.125c0-1.719,1.358-3.126,3.041-3.126S342.104,545.615,342.104,547.345z M337.038,561.971
				c1.813-3.313,4.042-6.371,5.837-9.702c1.053-1.965,1.956-4.019,2.695-6.142c0.375-1.092,0.647-2.213,0.993-3.324
				c0.223-0.726,0.517-0.864,0.759-0.598c0.142,0.157,0.264,0.471,0.345,0.885c1.003,5.198,2.006,10.428,2.259,15.715
				c0.264,5.297-0.242,10.704-2.178,15.618c-0.659,1.67-1.489,3.302-2.726,4.581c-1.237,1.277-2.918,2.171-4.662,2.133
				c-1.905-0.04-3.698-1.199-4.803-2.812c-1.105-1.613-1.581-3.607-1.632-5.571C333.826,568.969,335.224,565.282,337.038,561.971z
					M347.576,517.662c-1.003-2.132-2.229-4.157-3.091-6.349c-1.925-4.924-0.911-11.195,4.287-13.466
				c2.584-1.129,5.876-0.589,7.72,1.593c0.934,1.11,1.46,2.526,1.775,3.961c1.145,5.2-0.193,10.625-1.937,15.647
				c-1.743,5.013-3.933,9.947-4.548,15.244C351.041,528.582,350.008,522.842,347.576,517.662z M352.49,558.825
				c0.265-5.298,1.268-10.516,2.26-15.717c0.083-0.41,0.205-0.727,0.345-0.883c0.245-0.275,0.528-0.129,0.76,0.601
				c0.346,1.1,0.619,2.22,0.992,3.32c0.729,2.124,1.634,4.177,2.696,6.145c1.794,3.322,4.024,6.378,5.838,9.699
				c1.813,3.313,3.212,6.997,3.111,10.802c-0.052,1.968-0.528,3.961-1.635,5.573c-1.103,1.611-2.896,2.772-4.802,2.811
				c-1.744,0.038-3.423-0.856-4.661-2.132c-1.234-1.28-2.067-2.91-2.725-4.582C352.735,569.527,352.227,564.123,352.49,558.825z
					M363.345,550.471c-1.674,0-3.042-1.407-3.042-3.125c0-1.719,1.359-3.126,3.042-3.126c1.669,0,3.036,1.407,3.036,3.126
				C366.381,549.063,365.014,550.471,363.345,550.471z M361.964,518.459c-1.53,2.359-2.887,4.855-4.001,7.459
				c-0.345,0.796-1.164,2.143-1.156,3.047c-0.038-3.922,0.538-7.853,1.714-11.587c3.396-10.841,12.423-21.938,23.326-25.142
				c3.72-1.09,7.681-1.051,11.419-0.088c4.056,1.051,7.774,2.998,11.289,5.288c3.193,2.083,6.486,4.58,8.3,8.088
				c0.456,0.875,0.841,1.937,0.718,2.949c-0.008,0.048-0.242,0.954-0.283,0.924c-4.357-3.931-9.333-7.038-14.926-8.679
				c-1.986-0.579-4.022-0.983-6.08-1.179c-3.951-0.374-7.113,0.138-10.772,1.798C373.548,504.974,366.799,511.018,361.964,518.459z
					M397.421,491.105c1.299-2.26,3.294-3.4,3.294-3.4c2.747-1.553,6.22-2.831,9.2-1.15c1.367,0.777,4.833,4.757,1.714,5.336
				c-2.434,0.462-4.065-0.874-6.294-1.474c-1.359-0.363-2.776-0.501-4.175-0.373C400.45,490.123,397.866,490.33,397.421,491.105z
					M407.25,483.115c-9.921-1.868-14.095,6.133-14.095,6.133c-0.902-6.576,8.584-11.46,8.584-11.46
				c11.206-4.354,12.755,1.956,12.755,1.956C414.84,484.982,407.25,483.115,407.25,483.115z M297.315,564.556
				c-1.479,0-2.674-1.229-2.674-2.753s1.195-2.753,2.674-2.753c1.481,0,2.676,1.229,2.676,2.753
				C299.98,563.326,298.785,564.556,297.315,564.556z M307.642,569.371c-2.017,0-3.648-1.682-3.648-3.756
				c0-2.072,1.631-3.753,3.648-3.753c2.016,0,3.647,1.681,3.647,3.753C311.289,567.689,309.648,569.371,307.642,569.371z
					M296.769,553.624c-15.008-8.354-12.393-24.217-12.393-24.217c3.02-21.77,26.387-22.488,26.387-22.488
				c17.885,1.181,23.792,11.372,23.792,11.372c10.265,18.311-2.847,30.037-2.847,30.037
				C319.051,563.021,296.769,553.624,296.769,553.624z M321.129,568.388c-1.936,0-3.517-1.622-3.517-3.615
				c0-1.997,1.571-3.618,3.517-3.618c1.944,0,3.516,1.621,3.516,3.618C324.645,566.766,323.063,568.388,321.129,568.388z
					M328.222,557.99c0-1.986,1.561-3.599,3.496-3.599c1.936,0,3.496,1.612,3.496,3.599c0,1.983-1.56,3.597-3.496,3.597
				C329.782,561.587,328.222,559.974,328.222,557.99z M337.422,590.403c-1.186-0.217-2.441-0.628-3.354-1.463
				c-0.729-0.67-0.993-1.583-0.901-2.567c0.081-0.853,0.304-2.034,0.993-2.593c1.217-1.003,3.091-0.101,4.236,0.559
				c0.922,0.532,1.854,1.24,2.908,1.476c1.104,0.257,2.3-0.138,3.274-0.667c1.934-1.073,3.496-2.921,4.631-4.829
				c-0.294,0.503-0.417,1.229-0.64,1.771c-0.557,1.346-1.235,2.645-2.057,3.834C344.394,589.008,341.192,591.102,337.422,590.403z
					M351.275,594.403c-1.946,0-3.517-1.62-3.517-3.615c0-1.996,1.571-3.617,3.517-3.617c1.936,0,3.515,1.621,3.515,3.617
				C354.78,592.783,353.211,594.403,351.275,594.403z M368.328,588.94c-0.911,0.835-2.168,1.246-3.354,1.463
				c-3.769,0.698-6.97-1.396-9.089-4.462c-0.823-1.188-1.499-2.485-2.059-3.833c-0.223-0.539-0.343-1.276-0.638-1.769
				c1.136,1.908,2.696,3.756,4.632,4.826c0.961,0.53,2.167,0.924,3.272,0.668c1.054-0.236,1.987-0.954,2.908-1.476
				c1.146-0.657,3.021-1.552,4.237-0.56c0.686,0.56,0.911,1.739,0.992,2.594C369.323,587.357,369.059,588.271,368.328,588.94z
					M370.69,561.598c-1.927,0-3.496-1.613-3.496-3.599c0-1.984,1.56-3.597,3.496-3.597s3.496,1.612,3.496,3.597
				C374.187,559.984,372.615,561.598,370.69,561.598z M381.287,568.388c-1.944,0-3.514-1.622-3.514-3.615
				c0-1.997,1.569-3.618,3.514-3.618c1.938,0,3.518,1.621,3.518,3.618C384.805,566.766,383.225,568.388,381.287,568.388z
					M394.767,569.371c-2.017,0-3.648-1.682-3.648-3.756c0-2.072,1.632-3.753,3.648-3.753s3.646,1.681,3.646,3.753
				C398.413,567.689,396.783,569.371,394.767,569.371z M405.091,564.556c-1.478,0-2.675-1.229-2.675-2.753s1.197-2.753,2.675-2.753
				c1.481,0,2.676,1.229,2.676,2.753S406.572,564.556,405.091,564.556z M405.64,553.624c0,0-22.282,9.397-34.94-5.285
				c0,0-13.101-11.727-2.847-30.038c0,0,5.909-10.201,23.792-11.371c0,0,23.368,0.708,26.388,22.487
				C418.032,529.407,420.637,545.271,405.64,553.624z"/>
		</g>
	</g>
	<g id="purple">
		<g>
			<path fill="#FF0000" d="M395.738,484.383c0,0,5.371-4.334,11.572-2.398c0.831,0.255,1.582,0.579,2.463,0.609
				c2.147,0.078,4.702-1.828,2.907-3.931c-2.278-2.673-6.606-1.081-9.331-0.099c-1.357,0.482-2.677,1.12-3.883,1.917
				c-0.759,0.501-1.469,1.062-2.106,1.72C396.772,482.792,396.347,483.891,395.738,484.383z"/>
			<path fill="#FF0000" d="M434.155,503.991c0,0-5.087,5.062-5.95,5.603c-1.176,0.728-1.652,2.762,0.243,2.723
				c0.528-0.01,1.155-0.413,1.581-0.688C432.503,510.016,433.618,506.812,434.155,503.991z"/>
			<path fill="#FF0000" d="M393.995,526.165c0,0,4.978-8.993-1.165-13.593c0,0-3.687-2.064-3.941,4.196
				c-0.03,0.855-0.12,1.691-0.08,2.546c0.08,1.504,0.869,2.831,1.092,4.295c0.084,0.57-0.181,1.612,0.134,1.897
				c0.223,0.197,1.003,0.255,1.317,0.324c0.122,0.011,0.224-3.616,0.213-3.94c-0.012-0.767-0.912-4.128,0.495-4.021
				c0.244,0.021,0.345,0.335,0.445,0.521c0.325,0.639,0.325,1.552,0.368,2.251c0.108,1.729,0.047,3.469-0.043,5.199L393.995,526.165z
				"/>
			<path fill="#FF0000" d="M388.786,526.165c0,0-2.359-9.535-9.343-8.669c0,0-3.88,0.265-0.839,5.268c0,0,3.758,5.062,6.597,5.937
				c0,0,1.802,0.196,0.902-0.934c0,0-4.073-3.332-4.073-5.73c0,0,0.578-1.396,2.391,1.867
				C384.421,523.903,386.895,528.032,388.786,526.165z"/>
			<path fill="#FF0000" d="M382.354,528.297l2.521,2.133c0,0-5.237,0.865-6.402,0c0,0-2.138,1.2,2.583,2.064c0,0,3.496,0.265,4.146,0
				c0,0-0.111,0.383-0.123,0.403c-0.212,0.432-0.71,0.717-1.115,0.924c-2.076,1.071-4.458,1.336-6.758,1.228
				c-1.458-0.068-3.24-0.157-4.378-1.248c-1.702-1.631-1.013-4.668,0.822-5.877c1.449-0.963,3.313-0.669,4.854-0.099
				C378.504,527.835,381.341,528.896,382.354,528.297z"/>
			<path fill="#FF0000" d="M381.341,528.896"/>
			<path fill="#FF0000" d="M385.777,535.079c0,0-4.072,1.436-6.334,1.131c0,0-6.595,5.553-3.555,8.553c0,0,4.459,4.068,9.889-3.807
				c0,0,0.902-1.728,0.78-4.196l-5.217,4.866C381.341,541.634,380.155,541.065,385.777,535.079z"/>
			<path fill="#FF0000" d="M391.667,537.427c0.03-0.284,1.781,0.934,1.852,1.014c1.743,1.917,1.946,5.454,1.603,7.932
				c-0.325,2.369-1.703,4.039-4.084,4.247c-3.293,0.292-3.92-3.551-4.022-6.125c-0.062-1.386-0.062-2.81,0.242-4.177
				c0.153-0.688,0.375-1.415,0.791-1.975c0.092-0.128,1.552-1.278,1.612-0.924l1.207,7.676
				C390.867,545.095,391.667,537.437,391.667,537.427z"/>
			<path fill="#FF0000" d="M397.229,535.561c0,0,5.624-0.462,9.373,6.064c0,0,0.777,2.486-0.265,3.479c0,0-2.594,4.659-10.445-3.215
				c0,0-0.822-4.904-1.644-5.69c0,0,2.776-1.308,6.791,5.288C401.048,541.498,402.082,540.563,397.229,535.561z"/>
			<path fill="#FF0000" d="M397.492,531.492c-0.01-0.01-0.021-0.021-0.031-0.03c1.278-1.789,3.346-2.869,5.462-3.224
				c2.037-0.344,7.774-0.62,8.179,2.389c0.12,0.934-0.284,1.876-0.911,2.555c-0.629,0.678-1.459,1.13-2.303,1.484
				c-3.496,1.464-7.708,1.455-10.862-0.678c-0.272-0.188-0.565-0.492-0.445-0.796c0.103-0.257,0.436-0.315,0.699-0.315
				c1.471-0.02,2.917,0.383,4.388,0.403c1.471,0.019,3.091-0.462,3.852-1.759c-2.067,0.314-4.164,0.462-6.263,0.422
				C398.646,531.924,397.989,531.875,397.492,531.492z"/>
			<path fill="#FF0000" d="M397.229,529.437c0,0,4.334-2.998,5.431-3.263c0.963-0.236,2.098-1.582,2.653-2.329
				c0.609-0.816,1.056-1.76,1.187-2.782c0.111-0.855,0.203-1.809-0.162-2.604c-0.465-1.013-1.509-0.983-2.471-0.885
				c-2.85,0.294-5.088,2.723-6.638,5.003c0,0-1.421,2.398-2.332,3.597c0,0,0.903,3.194,6.403-3.932c0,0,1.561,2.063-4.741,6.732
				L397.229,529.437z"/>
			<ellipse fill="#FF0000" cx="381.287" cy="564.761" rx="2.413" ry="2.486"/>
			<path fill="#FF0000" d="M384.797,586.749c0,0-5.221,0.865-8.908,5.993c0,0-4.074,7.068-7.57,5.004c0,0-4.335-4.602,4.651-9.063
				C372.979,588.684,377.997,585.884,384.797,586.749z"/>
			<path fill="#FF0000" d="M306.669,484.383c0,0-5.37-4.334-11.572-2.398c-0.83,0.255-1.581,0.579-2.463,0.609
				c-2.148,0.078-4.702-1.828-2.908-3.931c2.28-2.673,6.607-1.081,9.333-0.099c1.357,0.482,2.675,1.12,3.88,1.917
				c0.76,0.501,1.469,1.062,2.108,1.72C305.636,482.792,306.061,483.891,306.669,484.383z"/>
			<path fill="#FF0000" d="M268.254,503.991c0,0,5.086,5.062,5.947,5.603c1.175,0.728,1.651,2.762-0.242,2.723
				c-0.528-0.01-1.156-0.413-1.582-0.688C269.906,510.016,268.791,506.812,268.254,503.991z"/>
			<path fill="#FF0000" d="M308.411,526.165c0,0-4.975-8.993,1.166-13.593c0,0,3.688-2.064,3.942,4.196
				c0.03,0.855,0.121,1.691,0.081,2.546c-0.081,1.504-0.872,2.831-1.095,4.295c-0.081,0.57,0.183,1.612-0.131,1.897
				c-0.223,0.197-1.004,0.255-1.317,0.324c-0.122,0.011-0.223-3.616-0.213-3.94c0.01-0.767,0.912-4.128-0.496-4.021
				c-0.244,0.021-0.346,0.335-0.447,0.521c-0.323,0.639-0.323,1.552-0.363,2.251c-0.112,1.729-0.052,3.469,0.04,5.199
				L308.411,526.165z"/>
			<path fill="#FF0000" d="M313.621,526.165c0,0,2.361-9.535,9.341-8.669c0,0,3.882,0.265,0.841,5.268c0,0-3.759,5.062-6.596,5.937
				c0,0-1.804,0.196-0.903-0.934c0,0,4.074-3.332,4.074-5.73c0,0-0.578-1.396-2.391,1.867
				C317.987,523.903,315.525,528.032,313.621,526.165z"/>
			<path fill="#FF0000" d="M320.054,528.297l-2.523,2.133c0,0,5.238,0.865,6.404,0c0,0,2.139,1.2-2.583,2.064
				c0,0-3.496,0.265-4.145,0c0,0,0.112,0.383,0.122,0.403c0.212,0.432,0.71,0.717,1.115,0.924c2.077,1.071,4.458,1.336,6.758,1.228
				c1.459-0.068,3.242-0.157,4.377-1.248c1.704-1.631,1.014-4.668-0.82-5.877c-1.449-0.963-3.313-0.669-4.854-0.099
				C323.905,527.835,321.067,528.896,320.054,528.297z"/>
			<path fill="#FF0000" d="M321.067,528.896"/>
			<path fill="#FF0000" d="M316.629,535.079c0,0,4.074,1.436,6.333,1.131c0,0,6.598,5.553,3.558,8.553c0,0-4.458,4.068-9.891-3.807
				c0,0-0.901-1.728-0.78-4.196l5.218,4.866C321.067,541.634,322.253,541.065,316.629,535.079z"/>
			<path fill="#FF0000" d="M310.742,537.427c-0.031-0.284-1.783,0.934-1.854,1.014c-1.742,1.917-1.945,5.454-1.602,7.932
				c0.325,2.369,1.703,4.039,4.084,4.247c3.293,0.292,3.922-3.551,4.023-6.125c0.06-1.386,0.06-2.81-0.244-4.177
				c-0.151-0.688-0.374-1.415-0.789-1.975c-0.092-0.128-1.551-1.278-1.612-0.924l-1.207,7.676
				C311.542,545.095,310.742,537.437,310.742,537.427z"/>
			<path fill="#FF0000" d="M305.179,535.561c0,0-5.624-0.462-9.374,6.064c0,0-0.78,2.486,0.265,3.479c0,0,2.593,4.659,10.447-3.215
				c0,0,0.82-4.904,1.641-5.69c0,0-2.776-1.308-6.789,5.288C301.37,541.498,300.325,540.563,305.179,535.561z"/>
			<path fill="#FF0000" d="M304.916,531.492c0.01-0.01,0.021-0.021,0.031-0.03c-1.277-1.789-3.344-2.869-5.462-3.224
				c-2.036-0.344-7.772-0.62-8.177,2.389c-0.122,0.934,0.284,1.876,0.912,2.555c0.628,0.678,1.46,1.13,2.3,1.484
				c3.496,1.464,7.712,1.455,10.864-0.678c0.273-0.188,0.566-0.492,0.445-0.796c-0.102-0.257-0.436-0.315-0.699-0.315
				c-1.469-0.02-2.918,0.383-4.388,0.403c-1.469,0.019-3.09-0.462-3.851-1.759c2.067,0.314,4.165,0.462,6.262,0.422
				C303.761,531.924,304.419,531.875,304.916,531.492z"/>
			<path fill="#FF0000" d="M305.179,529.437c0,0-4.337-2.998-5.431-3.263c-0.963-0.236-2.098-1.582-2.655-2.329
				c-0.608-0.816-1.053-1.76-1.186-2.782c-0.112-0.855-0.203-1.809,0.163-2.604c0.465-1.013,1.51-0.983,2.472-0.885
				c2.847,0.294,5.087,2.723,6.637,5.003c0,0,1.419,2.398,2.331,3.597c0,0-0.901,3.194-6.404-3.932c0,0-1.56,2.063,4.742,6.732
				L305.179,529.437z"/>
			<ellipse fill="#FF0000" cx="321.129" cy="564.761" rx="2.411" ry="2.486"/>
			<path fill="#FF0000" d="M317.613,586.749c0,0,5.219,0.865,8.907,5.993c0,0,4.074,7.068,7.57,5.004c0,0,4.337-4.602-4.652-9.063
				C329.427,588.684,324.412,585.884,317.613,586.749z"/>
			<path fill="#FF0000" d="M351.214,642.957v0.051c-0.101,0.421-1.672,6.722-9.434,12.059c0,0,7.629,5.061,9.373,12.198
				c1.744-7.138,9.475-12.198,9.475-12.198C352.593,649.544,351.214,642.957,351.214,642.957z M352.997,660.864
				c-0.385,1.338-1.814,2.997-1.814,2.997s-1.387-1.67-1.773-2.997c0,0-0.841-4.195-4.529-5.328c0,0,5.746-5.157,6.325-6.888
				c0.577,1.73,6.311,6.888,6.311,6.888C353.838,656.669,352.997,660.864,352.997,660.864z"/>
		</g>
	</g>
	<g id="orange">
		<g>
			<path fill="#E65329" d="M404.908,560.555c0.693,0,1.258,0.581,1.258,1.297c0,0.717-0.564,1.297-1.258,1.297
				c-0.691,0-1.256-0.58-1.256-1.297C403.652,561.136,404.217,560.555,404.908,560.555z"/>
			<ellipse fill="#E65329" cx="363.345" cy="547.345" rx="1.255" ry="1.297"/>
			<path fill="#E65329" d="M436.353,569.371c0.111-0.255-4.348-1.081-4.61-1.09c-7.832-0.483-14.229,6.947-13.538,15.124
				c0,0,3.974-1.463,3.981-1.463c-0.2,0.06-0.2-3.215-0.182-3.402c0.73-5.986,7.327-10.142,13.254-6.554
				C435.248,571.976,436.353,569.371,436.353,569.371z"/>
			<path fill="#E65329" d="M356.769,585.685c0.162,0.089,0.343,0.454,0.465,0.602c0.426,0.492,0.911,0.924,1.449,1.287
				c1.529,1.07,3.396,1.465,5.228,1.308c1.318-0.118,3.455-0.335,4.093-1.75c0.387-0.864,0.325-2.329-0.655-2.732
				c-0.913-0.372-1.978-0.03-2.81,0.392c-1.224,0.632-2.045,1.722-3.475,1.919C359.565,586.925,358.064,586.414,356.769,585.685z"/>
			<path fill="#E65329" d="M360.952,662.996c0.06,0.11-0.092,0.708-0.092,0.849c-0.02,0.657,0.05,1.326,0.265,1.945
				c0.719,2.103,3.251,3.311,5.31,2.762c0.628-0.168,1.194-0.503,1.599-1.032c0.265-0.344,0.429-0.757,0.519-1.179
				c0.103-0.462-0.142-1.444,0.041-1.802C368.582,664.531,365.543,670.597,360.952,662.996z"/>
			<ellipse fill="#E65329" cx="297.498" cy="561.852" rx="1.257" ry="1.297"/>
			<ellipse fill="#E65329" cx="339.064" cy="547.345" rx="1.256" ry="1.297"/>
			<path fill="#E65329" d="M266.055,569.371c-0.112-0.255,4.347-1.081,4.61-1.09c7.833-0.483,14.228,6.947,13.538,15.124
				c0,0-3.972-1.463-3.981-1.463c0.202,0.06,0.202-3.215,0.183-3.402c-0.73-5.986-7.327-10.142-13.254-6.554
				C267.159,571.976,266.055,569.371,266.055,569.371z"/>
			<path fill="#E65329" d="M345.641,585.685c-0.163,0.089-0.345,0.454-0.466,0.602c-0.426,0.492-0.912,0.924-1.448,1.287
				c-1.53,1.07-3.396,1.465-5.229,1.308c-1.318-0.118-3.456-0.335-4.095-1.75c-0.384-0.864-0.324-2.329,0.659-2.732
				c0.912-0.372,1.977-0.03,2.807,0.392c1.227,0.632,2.047,1.722,3.477,1.919C342.844,586.925,344.343,586.414,345.641,585.685z"/>
			<path fill="#E65329" d="M341.456,662.996c-0.061,0.11,0.091,0.708,0.091,0.849c0.021,0.657-0.05,1.326-0.263,1.945
				c-0.719,2.103-3.252,3.311-5.31,2.762c-0.628-0.168-1.195-0.503-1.602-1.032c-0.263-0.344-0.425-0.757-0.517-1.179
				c-0.101-0.462,0.142-1.444-0.041-1.802C333.826,664.531,336.865,670.597,341.456,662.996z"/>
		</g>
	</g>
	<g id="yellow">
		<g>
			<path fill="#CF441F" d="M379.251,434.925c0.192-0.108,0.398-0.491,0.549-0.658c0.537-0.57,1.164-1.071,1.813-1.504
				c4.722-3.145,12.14-3.391,16.974-0.324c2.269,1.435,4.539,3.892,3.82,6.879c0,0-1.035,4.266-5.755,3.932
				c0,0-4.187-0.944-2.98-4.935c0,0,0.323-2.929,3.82-2.398c0,0,2.392,1.533,1.228,3.47c0,0-0.326,0.934-1.421,0.53
				c-0.153-0.058-0.191,0.678-0.153,0.777c0.275,0.55,1.279,0.344,1.693,0.108c0.61-0.354,0.934-1.09,1.033-1.779
				c0.203-1.396-0.536-2.565-1.336-3.617c-1.977-2.594-5.291-2.949-8.279-2.967C386.488,432.409,382.608,433.097,379.251,434.925z"/>
			<path fill="#CF441F" d="M430.983,468.854c0.575,2.447,0.86,5.013,0.868,7.529c0.022,4.738-1.345,8.511-4.58,11.932
				c-0.982,1.042-2.036,2.045-2.573,3.43c-0.101,0.275-0.192,0.569-0.17,0.865c0.031,0.472,0.345,0.884,0.739,1.12
				c0.799,0.492,1.854,0.315,2.635-0.197c0.779-0.51,1.337-1.316,1.835-2.123c2.045-3.312,3.474-7.322,3.158-11.292
				c-0.301-3.873-0.403-8.099-2.128-11.647"/>
			<path fill="#CF441F" d="M407.342,503.195c0,0-24.634-19.814-48.184,16.267C359.15,519.461,379.06,480.893,407.342,503.195z"/>
			<path fill="#CF441F" d="M404.514,499.195c0,0-20.245-16.355-43.633,14.398C360.88,513.593,380.661,478.938,404.514,499.195z"/>
			<path fill="#CF441F" d="M386.558,531.698c0,2.359,2.198,4.511,4.479,4.511s4.133-1.907,4.133-4.266
				c0-2.359-1.852-4.757-4.133-4.757S386.558,529.339,386.558,531.698z"/>
			<path fill="#CF441F" d="M423.2,581.705c0,0,6.76-0.844,11.278-8.393C434.467,573.313,422.854,568.112,423.2,581.705z"/>
			<path fill="#CF441F" d="M323.155,434.925c-0.193-0.108-0.395-0.491-0.547-0.658c-0.538-0.57-1.166-1.071-1.814-1.504
				c-4.722-3.145-12.139-3.391-16.973-0.324c-2.27,1.435-4.54,3.892-3.821,6.879c0,0,1.033,4.266,5.756,3.932
				c0,0,4.186-0.944,2.979-4.935c0,0-0.325-2.929-3.82-2.398c0,0-2.391,1.533-1.226,3.47c0,0,0.325,0.934,1.418,0.53
				c0.152-0.058,0.192,0.678,0.152,0.777c-0.273,0.55-1.276,0.344-1.692,0.108c-0.607-0.354-0.932-1.09-1.034-1.779
				c-0.202-1.396,0.538-2.565,1.338-3.617c1.975-2.594,5.29-2.949,8.279-2.967C315.92,432.409,319.8,433.097,323.155,434.925z"/>
			<path fill="#CF441F" d="M309.253,458.456v2.87c0,0-3.617-1.798-15.524,0.668C293.738,461.984,297.488,458.189,309.253,458.456z"/>
			<path fill="#CF441F" d="M390.521,458.563l-3.537,3.155c0,0,7.156-2.094,19.051,0.374
				C406.034,462.092,402.285,458.298,390.521,458.563z"/>
			<path fill="#CF441F" d="M352.005,450.514c-1.705-0.265-3.527,0.482-4.591,1.877c-0.557,0.736-0.922,1.622-1.571,2.261
				c-0.993,0.963-2.604,1.149-3.779,0.442c-1.175-0.708-1.804-2.261-1.469-3.618c-0.821,1.308-2.189,2.32-3.699,2.379
				c-1.51,0.058-3.069-1.012-3.344-2.536c-0.232-1.317,0.467-2.625,1.368-3.588c-0.76,0.099-1.56-0.196-2.098-0.756
				c-1.236-1.308-0.588-3.097,0.396-4.325c0.497-0.609,1.104-1.12,1.794-1.484c0.162-0.088,2.117-0.697,2.098-0.589
				c-0.173,1.534-0.345,3.116,0,4.619c0.344,1.503,1.327,2.949,2.776,3.391c1.064,0.325,2.199,0.06,3.284-0.127
				c1.094-0.188,2.29-0.285,3.232,0.295c-1.043,0.52-1.833,1.563-2.057,2.742c1.156-0.895,2.362-1.809,3.76-2.173
				c1.397-0.363,3.079-0.029,3.921,1.18C352.013,450.514,352.005,450.514,352.005,450.514z"/>
			<path fill="#CF441F" d="M357.528,453.256c0,0,2.037-6.202-1.844-10.998c0,0,5.429-2.929,6.402,1.13c0,0,0.323,1.868-0.973,2.732
				c0.526-0.354,1.947,0.177,2.383,0.462c1.651,1.053,1.378,3.313,0.709,4.895c-0.336,0.786-0.752,1.494-1.419,2.016
				c-0.517,0.412-1.731,0.973-1.327,1.847c0.15,0.325,0.364,0.246,0.577,0.443c0.121,0.118,0.192,0.03,0.304,0.187
				c0.446,0.6,0.244,2.173,0.031,2.831c-0.354,1.082-1.329,2.016-2.421,2.281c0,0-2.199,0.521-3.426-0.748
				c0,0,0.872,4.414-2.391,4.954c-1.286,0.216-2.583,0.078-3.618-0.796c-0.607-0.512-0.872-0.609-1.652-0.472
				c-1.945,0.353-2.928,2.162-3.202,4.049c0,0-1.489-5.996,4.653-8.865c0,0,9.636-3.067,9.698-8.728
				C360.019,450.455,358.469,452.391,357.528,453.256z"/>
			<path fill="#CF441F" d="M351.609,476.904c-2.4,0.56-4.833,1.13-7.012,2.309c-1.885,1.023-3.992,1.652-5.816-0.03
				c-1.105-1.012-1.622-2.653-1.318-4.147c-1.368,0.688-2.856,1.179-4.376,1.141c-1.521-0.04-3.071-0.658-4.034-1.867
				c-0.608-0.768-0.962-1.77-0.811-2.752c0.152-0.983,0.86-1.878,1.794-2.084c-1.51-1.071-3.437-0.334-5.058-0.973
				c-1.591-0.619-2.462-2.497-2.776-4.108c-0.253-1.327-0.253-2.692-0.497-4.021c-0.253-1.384-0.82-2.446-1.793-3.43
				c1.399-0.609,3.668,0.08,5.026,0.6c5.158,1.976,8.319,6.969,11.805,11.077c0.771,0.915,1.671,1.848,2.837,2.015
				c-0.628,0.315-1.388,0.147-2.047-0.099c-2.229-0.845-4.013-2.595-5.725-4.294c0.7,2.162,2.098,4.157,4.074,5.189
				c1.56,0.816,3.354,0.973,5.096,1.229c2.048,0.294,4.083,0.747,6.061,1.385C348.568,474.544,351,475.134,351.609,476.904z"/>
			<path fill="#CF441F" d="M353.049,481.484c0.789-6.487,7-9.986,11.53-13.613c2.502-2.005,4.836-4.285,6.619-6.987
				c1.781-2.704,2.988-5.857,3.129-9.131c0.082-1.926-0.224-3.931-1.276-5.533c-0.792-1.2-1.983-2.182-2.34-3.588
				c-0.374-1.484,0.295-3.017,1.055-4.334c0.788,1.671,1.983,3.097,3.078,4.58c1.096,1.476,2.141,3.067,2.543,4.875
				c0.405,1.818,0.052,3.902-1.296,5.15c1.884,1.474,3.121,3.961,2.736,6.359c-0.384,2.409-2.644,4.472-4.986,4.167
				c0.932,1.219,0.842,3.047,0.022,4.345c-0.822,1.297-2.221,2.113-3.671,2.497c-1.446,0.383-2.967,0.383-4.479,0.363
				c0.497,1.642,0.952,3.578-0.019,4.973c-0.821,1.179-2.392,1.504-3.801,1.455c-1.407-0.059-2.817-0.402-4.215-0.187
				C355.409,477.208,353.454,479.154,353.049,481.484z"/>
			<path fill="#CF441F" d="M271.426,468.854c-0.578,2.447-0.861,5.013-0.872,7.529c-0.02,4.738,1.348,8.511,4.581,11.932
				c0.983,1.042,2.037,2.045,2.574,3.43c0.101,0.275,0.192,0.569,0.171,0.865c-0.03,0.472-0.344,0.884-0.739,1.12
				c-0.801,0.492-1.854,0.315-2.634-0.197c-0.781-0.51-1.338-1.316-1.834-2.123c-2.047-3.312-3.476-7.322-3.162-11.292
				c0.304-3.873,0.406-8.099,2.128-11.647"/>
			<path fill="#CF441F" d="M295.066,503.195c0,0,24.634-19.814,48.184,16.267C343.259,519.461,323.348,480.893,295.066,503.195z"/>
			<path fill="#CF441F" d="M297.893,499.195c0,0,20.246-16.355,43.634,14.398C341.527,513.593,321.746,478.938,297.893,499.195z"/>
			<path fill="#CF441F" d="M315.849,531.698c0,2.359-2.199,4.511-4.479,4.511c-2.28,0-4.134-1.907-4.134-4.266
				c0-2.359,1.854-4.757,4.134-4.757C313.65,527.187,315.849,529.339,315.849,531.698z"/>
			<path fill="#CF441F" d="M279.218,581.705c0,0-6.759-0.844-11.278-8.393C267.939,573.313,279.563,568.112,279.218,581.705z"/>
			<path fill="#CF441F" d="M351.183,649.679v-0.135c0,0.019-0.008,0.048-0.019,0.067c0,0,0-0.008,0-0.02v0.03
				c-0.356,1.473-4.682,5.512-4.682,5.512c2.988,1.338,4.7,6.666,4.7,6.666s1.744-5.328,4.742-6.666
				C355.924,655.134,351.537,651.154,351.183,649.679z"/>
			<path fill="#CF441F" d="M351.699,422.276c-0.738-1.131-1.234-2.437-1.407-3.784c-0.07-0.541-0.091-1.092,0.062-1.612
				c0.162-0.521,0.527-0.993,1.033-1.15c0.507-0.158,1.125,0.079,1.317,0.58c0.111,0.285,0.071,0.609,0.031,0.914
				c-0.131,0.854-0.457,1.631-0.669,2.456C351.952,420.104,351.467,421.932,351.699,422.276z"/>
			<ellipse fill="#CF441F" cx="351.275" cy="590.787" rx="2.412" ry="2.487"/>
		</g>
	</g>
	<g id="blue">
		<g>
			<path fill="#A271AF" d="M367.872,422.924c0.253,0.04,1.036-0.57,1.267-0.687c1.003-0.492,2.037-0.915,3.102-1.219
				c1.682-0.482,3.659-0.591,5.312,0.108c1.053,0.442,3.008,2.299,2.552,3.646c-0.811,2.379-4.672,0.453-6.121-0.048
				C373.973,424.724,369.616,423.2,367.872,422.924z"/>
			<path fill="#A271AF" d="M434.578,492c0,0-0.516,3.824-5.178,5.868c0,0-5.257,2.221-2.237,4.531
				C427.172,502.399,432.685,506.036,434.578,492z"/>
			<path fill="#A271AF" d="M398.587,518.37l4.136-1.798c0,0,1.414-4.462-1.978-5.867c0,0-3.394-1.799-6.496,1.867
				c0,0,2.462,1.602,2.716,5.798c0,0,1.418-4.55,2.716-4.777L398.587,518.37z"/>
			<path fill="#A271AF" d="M389.02,512.248c0,0-1.418,2.86-1.356,4.924l-2.451-3.579c0,0-1.268-0.187,1.783,5.869
				c0,0-3.619-3.754-5.646-3.352c-0.12,0.03-0.231-2.015-0.231-2.143c0.08-1.867,1.398-3.115,3.069-3.588
				C386.104,509.829,387.876,510.576,389.02,512.248z"/>
			<path fill="#A271AF" d="M376.171,520.228c0,0,0.325,2.634,1.339,3.933l-3.438-0.954c0,0-0.99,0.58,4.025,2.801
				c0,0-4.349-0.423-5.616,0.954c-0.077,0.088-1.113-1.17-1.175-1.258c-0.819-1.248-0.465-2.782,0.518-4.011
				C372.949,520.287,374.58,519.786,376.171,520.228z"/>
			<path fill="#A271AF" d="M371.997,534.784c0,0,2.106,1.524,3.72,1.623l-2.989,1.975c0,0-0.254,1.14,4.721-1.179
				c0,0-3.23,3.028-3.091,4.914c0.01,0.12-1.591,0.06-1.691,0.05c-1.449-0.228-2.299-1.524-2.534-3.097
				C369.869,537.271,370.607,535.698,371.997,534.784z"/>
			<path fill="#A271AF" d="M379.719,547.975c0,0,2.595-1.082,3.738-2.518l-0.434,3.893c0,0,0.729,0.884,2.197-5.042
				c0,0,0.233,4.709,1.805,5.65c0.101,0.059-1.005,1.504-1.085,1.593c-1.136,1.208-2.716,1.268-4.104,0.58
				C380.245,551.354,379.505,549.782,379.719,547.975z"/>
			<path fill="#A271AF" d="M394.897,551.098c0,0,1.357-2.513,1.379-4.371l2.027,3.312c0,0,1.104,0.216-1.35-5.347
				c0,0,3.041,3.518,4.845,3.243c0.11-0.02,0.132,1.817,0.121,1.937c-0.142,1.68-1.348,2.742-2.848,3.105
				C397.369,553.39,395.84,552.633,394.897,551.098z"/>
			<path fill="#A271AF" d="M408.9,542.323c0,0-1.226-2.585-2.693-3.666l3.8,0.177c0,0,0.8-0.815-5.025-1.907
				c0,0,4.54-0.57,5.34-2.251c0.05-0.108,1.529,0.924,1.621,1.003c1.257,1.081,1.418,2.703,0.851,4.177
				C412.136,541.536,410.666,542.4,408.9,542.323z"/>
			<path fill="#A271AF" d="M411.505,527.717c0,0-2.604-1.042-4.396-0.805l2.906-2.526c0,0,0.053-1.16-4.955,2.113
				c0,0,2.961-3.587,2.442-5.396c-0.031-0.108,1.734-0.384,1.844-0.394c1.633-0.078,2.828,0.993,3.387,2.477
				C413.36,524.877,412.854,526.547,411.505,527.717z"/>
			<path fill="#A271AF" d="M387.532,589.953c-1.299,0.619-2.797,0.766-4.116,1.463c-2.32,1.221-4.366,3.215-4.69,6.005
				c-0.081,0.729-0.355,1.722,0.486,1.917c0.354,0.089,0.811-0.068,1.136-0.216c1.52-0.688,2.836-2.948,3.182-4.531
				C383.519,594.581,384.167,591.542,387.532,589.953z"/>
			<path fill="#A271AF" d="M334.535,422.924c-0.253,0.04-1.033-0.57-1.267-0.687c-1.003-0.492-2.037-0.915-3.101-1.219
				c-1.681-0.482-3.658-0.591-5.309,0.108c-1.055,0.442-3.01,2.299-2.553,3.646c0.811,2.379,4.67,0.453,6.12-0.048
				C328.435,424.724,332.792,423.2,334.535,422.924z"/>
			<path fill="#A271AF" d="M267.828,492c0,0,0.517,3.824,5.179,5.868c0,0,5.259,2.221,2.239,4.531
				C275.235,502.399,269.724,506.036,267.828,492z"/>
			<path fill="#A271AF" d="M303.821,518.37l-4.135-1.798c0,0-1.419-4.462,1.977-5.867c0,0,3.394-1.799,6.495,1.867
				c0,0-2.463,1.602-2.716,5.798c0,0-1.418-4.55-2.715-4.777L303.821,518.37z"/>
			<path fill="#A271AF" d="M313.396,512.248c0,0,1.419,2.86,1.358,4.924l2.452-3.579c0,0,1.267-0.187-1.783,5.869
				c0,0,3.617-3.754,5.643-3.352c0.122,0.03,0.233-2.015,0.233-2.143c-0.081-1.867-1.398-3.115-3.07-3.588
				C316.304,509.829,314.532,510.576,313.396,512.248z"/>
			<path fill="#A271AF" d="M326.236,520.228c0,0-0.324,2.634-1.338,3.933l3.435-0.954c0,0,0.993,0.58-4.022,2.801
				c0,0,4.347-0.423,5.614,0.954c0.081,0.088,1.114-1.17,1.176-1.258c0.82-1.248,0.465-2.782-0.517-4.011
				C329.458,520.287,327.827,519.786,326.236,520.228z"/>
			<path fill="#A271AF" d="M330.411,534.784c0,0-2.108,1.524-3.719,1.623l2.989,1.975c0,0,0.253,1.14-4.722-1.179
				c0,0,3.232,3.028,3.091,4.914c-0.01,0.12,1.591,0.06,1.692,0.05c1.449-0.228,2.3-1.524,2.532-3.097
				C332.539,537.271,331.799,535.698,330.411,534.784z"/>
			<path fill="#A271AF" d="M322.689,547.975c0,0-2.593-1.082-3.739-2.518l0.436,3.893c0,0-0.73,0.884-2.199-5.042
				c0,0-0.233,4.709-1.804,5.65c-0.101,0.059,1.004,1.504,1.084,1.593c1.135,1.208,2.716,1.268,4.104,0.58
				C322.163,551.354,322.902,549.782,322.689,547.975z"/>
			<path fill="#A271AF" d="M307.509,551.098c0,0-1.357-2.513-1.377-4.371l-2.027,3.312c0,0-1.104,0.216,1.348-5.347
				c0,0-3.041,3.518-4.844,3.243c-0.111-0.02-0.132,1.817-0.121,1.937c0.142,1.68,1.347,2.742,2.847,3.105
				C305.037,553.39,306.567,552.633,307.509,551.098z"/>
			<path fill="#A271AF" d="M293.506,542.323c0,0,1.226-2.585,2.695-3.666l-3.799,0.177c0,0-0.801-0.815,5.025-1.907
				c0,0-4.539-0.57-5.34-2.251c-0.05-0.108-1.529,0.924-1.621,1.003c-1.257,1.081-1.418,2.703-0.852,4.177
				C290.273,541.536,291.742,542.4,293.506,542.323z"/>
			<path fill="#A271AF" d="M290.901,527.717c0,0,2.604-1.042,4.398-0.805l-2.908-2.526c0,0-0.051-1.16,4.955,2.113
				c0,0-2.958-3.587-2.441-5.396c0.03-0.108-1.733-0.384-1.845-0.394c-1.63-0.078-2.827,0.993-3.384,2.477
				C289.048,524.877,289.554,526.547,290.901,527.717z"/>
			<path fill="#A271AF" d="M314.876,589.953c1.297,0.619,2.797,0.766,4.114,1.463c2.321,1.221,4.367,3.215,4.692,6.005
				c0.081,0.729,0.355,1.722-0.486,1.917c-0.355,0.089-0.811-0.068-1.135-0.216c-1.52-0.688-2.837-2.948-3.183-4.531
				C318.889,594.581,318.24,591.542,314.876,589.953z"/>
			<path fill="#A271AF" d="M348.65,517.23c-1.023-2.064-1.854-4.246-2.513-6.458c-0.82-2.771-1.347-6.182,0.061-8.845
				c1.51-2.871,6.1-4.581,8.735-2.29c1.955,1.699,2.106,6.369,2.158,8.776c0.031,1.642-0.101,3.303-0.476,4.905
				c-0.193,0.826-0.446,1.642-0.77,2.417c-0.183,0.443-1.114,1.701-1.074,2.114l-1.034-10.664l-0.688,14.665l-1.552-18.488
				l-0.425,16.443l-1.996-12.088v9.593C349.076,517.319,348.65,517.23,348.65,517.23z"/>
		</g>
	</g>
	<g id="green">
		<g>
			<ellipse fill="#4F5093" cx="394.767" cy="565.606" rx="2.41" ry="2.487"/>
			<ellipse fill="#4F5093" cx="370.69" cy="557.99" rx="2.412" ry="2.487"/>
			<path fill="#4F5093" d="M424.843,562.284c0,0-3.173-3.586-2.585-8.66c0,0,0.265-2.997,2.585-6.395c0,0,2.652-4.73,1.813-9.27
				c0,0,6.402,5.955,6.789,7.146c0,0-0.519,4.883-2.138,5.531c0,0-0.973-5.109-2.199-5.955c0,0,0.649,4.069,1.167,5.436
				c0,0-2.98-1.229-3.296-3.224c0,0-1.358,1.73,3.689,4.599l0.192,2.132c0,0-2.979-0.737-5.37-3.999c0,0,0.06,2.396,3.617,4.461
				l-0.708,2.497c0,0-2.394-1.297-3.294-3.164c0,0-0.914,1.731,2.715,3.863l-1.226,1.759l-1.551-0.688l0.902,1.731
				C425.935,560.093,425.743,562.275,424.843,562.284z"/>
			<path fill="#4F5093" d="M433.962,546.164c0,0-0.975,4.866-1.935,5.004l0.454,3.194c0,0,2.462-1.936,2.776-6.201
				C435.248,548.161,434.609,546.305,433.962,546.164z"/>
			<path fill="#4F5093" d="M435.704,549.695c0.162,0.579-0.818,2.326-1.073,2.908c-0.438,0.975-1.236,1.937-1.542,2.929
				c-0.344,1.109,0.021,2.563,1.328,1.691C434.409,557.224,436.931,554.027,435.704,549.695z"/>
			<path fill="#4F5093" d="M407.767,575.221c0,0-6.92-3.807-13.964,0.402c0,0-7.498,5.396-9.767,5.463c0,0,13.363,9.063,18.392,6.065
				l2.492-3.137l-0.891-0.462c0,0-3.689,3.805-6.009,2.467l4.418-2.399l-2.604-0.402c0,0-4.207,2.929-5.947,1.87l4.549-2.133
				l-2.159-0.669c0,0-3.495,2.202-6.141,1.002l4.65-1.13c0,0-3.688-1.337-6.2-0.864c0,0,1.164-1.367,5.624-0.581
				c0,0-2.463-1.61-2.717-2.81c0,0,4.074,3.861,7.822,3.399c0,0-5.044-1.867-4.529-4.531c0,0,2.98,4.129,8.147,5.061l1.419-0.46
				c0,0-6.332-3.596-6.73-5.73c0,0,4.137,3.931,5.563,3.931c0,0-0.667-1.464-0.746-2.398
				C402.428,577.155,405.184,577.893,407.767,575.221z"/>
			<path fill="#4F5093" d="M404.211,585.884c0,0,2.846,0.736,2.654-0.866C406.865,585.018,406.541,583.68,404.211,585.884z"/>
			<path fill="#4F5093" d="M366.251,652c0,0,1.874-1.465,2.006-5.602c0,0-0.132-2.467,0-3.401c0,0-4.042,0.737-3.536,8.797
				c0,0,1.275-3.805,1.41-4.601C366.119,647.204,366.768,647.804,366.251,652z"/>
			<path fill="#4F5093" d="M364.479,656.601c0,0,1.518,0.068,3.778,2.8c0,0,1.297,1.396,4.075,0.737c0,0-1.49-1.994-1.875-3.194
				c0,0-1.134-4.127-4.59-2.201c0,0,3.171,0.935,3.556,2.929C369.423,657.671,365.927,655.223,364.479,656.601z"/>
			<path fill="#4F5093" d="M374.591,647.498c0.609-1.889,1.187-3.783,1.885-5.641c-0.021,0.019-0.041,0.04-0.061,0.059
				c0.913-1.731,2.391-3.283,4.125-4.118c-0.133,0.068-0.133,1.425-0.144,1.573c-0.12,1.64,0.011,3.31-0.608,4.853
				c-0.688,1.713-1.983,3.089-3.515,4.04c0,0,1.621-3.064,1.875-5.267C378.148,643.008,375.371,647.33,374.591,647.498z"/>
			<path fill="#4F5093" d="M374.591,650.271c0,0,4.336-0.138,6.212,5.396c0,0,1.298,3.401,3.688,3.401c0,0-5.816,1.13-7.438-2.596
				c0,0-2.007-3.805-4.205-4.461c0,0,1.357-1.396,6.14,3.999C378.988,655.998,377.568,652.07,374.591,650.271z"/>
			<path fill="#4F5093" d="M386.387,644.932c0,0,0.616-1.551,0.942-4.706c0,0,0.264-3.156,2.14-5.021c0,0,0.059,2.268,0.454,4.332
				c0,0,0.346,2.998-1.764,4.729c0,0,1.002-4.267,0.933-5.326C389.092,638.938,388.039,644.137,386.387,644.932z"/>
			<path fill="#4F5093" d="M384.814,647.871c0,0,3.426-1.729,7.498,2.399c0,0,3.111,2.32,4.398,1.994c0,0-4.803,2.734-8.54,0.335
				c0,0-3.699-2.743-5.037-2.929c0,0,1.711-1.003,6.812,1.67C389.945,651.332,390.499,649.336,384.814,647.871z"/>
			<path fill="#4F5093" d="M397.168,638.201c-0.092-0.719,0.293-1.77,0.314-2.557c0.029-0.982-0.072-1.975-0.337-2.92
				c-0.463-1.659-0.97-3.064-1.072-4.823c0,0-3.23,2.908-2.201,6.711c0,0,1.744,5.27,1.097,7.069c0,0,1.938-4.247,0.063-8.788
				C395.031,632.884,396.58,633.403,397.168,638.201z"/>
			<path fill="#4F5093" d="M396.711,643.537c0,0,9.729,1.021,10.346-7.597l-7.053,4.127c0,0,4.34-0.707,5.18-1.583
				c0,0-1.228,2.586-5.047,2.783C400.137,641.266,397.553,641.336,396.711,643.537z"/>
			<path fill="#4F5093" d="M405.122,627.901c0,0,3.617-2.95,3.04-6.735c-0.092-0.716-0.274-1.443-0.497-2.132
				c-0.508-1.611-1.568-2.878-2.016-4.53c-0.245-0.896-0.406-2.142-0.922-2.908c-0.021,0.146-0.011,0.283,0.01,0.441
				c0.041,0.343-0.539,1.004-0.7,1.267c-0.558,0.904-1.092,1.81-1.561,2.764c-1.184,2.427-1.762,5.484-1.104,8.168
				c0.559,2.259,2.342,3.988,2.067,6.515c0,0,1.298-1.849,0.458-6.358L405.122,627.901z"/>
			<path fill="#4F5093" d="M309.253,448.056c0,0-2.848-2.27-7.307-1.396c0,0,1.814,1.002,1.814,2.133c0,0-8.532,0.138-10.022,3.136
				l1.744,0.934c0,0-5.757,2.467-6.921,4.865c0,0,3.039,0.177,3.171,0.717c0,0-5.31,1.721-8.532,6.546h2.583
				c0,0-5.046,5.062-6.465,8.128c0,0,8.086-5.799,11.056-5.13c0,0,0.101,2.26-1.419,3.598c0,0,6.212-2.203,7.053-1.396
				c0,0,0.152,1.13-1.166,2.33c0,0,4.916-1.936,5.624-1.731c0,0-0.132,1.8-0.972,2.33c-0.841,0.531,0.375,0,0.375,0
				s5.37-0.668,5.441-1.268l-0.193,2.398c0,0,6.181-0.265,6.223-0.934c0,0-0.669-4.197,0.688-5.13l-2.138-2.536l-3.82,4.404
				l3.173-5.662v-1.729c0,0-5.371,5.798-5.816,7.332c0,0-0.061-3.735,4.134-7.401l-1.095-0.6l-6.606,7.332l4.083-6.329
				c0,0-0.517-1.798-3.618,0.669l-4.397,5.327c0,0,2.979-6.261,4.529-6.998c0,0-3.364-1.337-7.245,5.2c0,0,0.477-3.018,2.462-4.463
				c0,0-2.969-0.55-5.755,2.664c0,0,1.094-3.735,6.404-5.867c0,0-3.041-0.737-3.233-2.202c0,0,4.722,2.329,7.174,0.796
				c0,0-4.398-2.201-4.59-3.734c0,0,5.178,3.803,7.822,3.331c0,0-5.238-4.266-5.238-5.533c0,0,5.949,5.533,7.762,5.465
				c0,0-4.854-4.796-4.53-6.467c0,0,5.179,6.26,6.658,6.26c0,0-4.721-5.867-4.074-7.529l4.723,6.133c0,0,0.061-2.25-2.139-3.931
				L309.253,448.056z"/>
			<path fill="#4F5093" d="M392.283,447.87c0,0,0.751-1.956,5.219-1.09c0,0-1.813,1.002-1.813,2.132c0,0,8.532,0.137,10.023,3.135
				l-1.744,0.934c0,0,5.755,2.468,6.922,4.866c0,0-3.041,0.177-3.173,0.717c0,0,5.31,1.72,8.53,6.545h-2.583
				c0,0,5.048,5.062,6.466,8.129c0,0-8.086-5.799-11.057-5.131c0,0-0.1,2.262,1.419,3.598c0,0-6.21-2.202-7.053-1.396
				c0,0-0.151,1.13,1.166,2.329c0,0-4.917-1.936-5.624-1.729c0,0,0.131,1.798,0.975,2.329c0.839,0.531-0.376,0-0.376,0
				s-5.37-0.669-5.44-1.269l0.192,2.398c0,0-3.295-2.171-3.345-2.84c0,0-1.875-4.934-3.232-5.868l1.134-0.648l4.469,5.15
				l-3.941-7.037l0.769-0.354c0,0,5.37,5.798,5.816,7.332c0,0,0.062-3.735-4.133-7.4l1.097-0.6l6.604,7.332l-4.084-6.329
				c0,0,0.516-1.799,3.618,0.668l4.396,5.327c0,0-2.979-6.261-4.527-6.998c0,0,3.362-1.337,7.245,5.199c0,0-0.476-3.018-2.464-4.463
				c0,0,2.972-0.55,5.755,2.664c0,0-1.093-3.734-6.401-5.868c0,0,3.038-0.737,3.23-2.202c0,0-4.722,2.33-7.174,0.796
				c0,0,4.397-2.201,4.59-3.734c0,0-5.18,3.803-7.822,3.332c0,0,5.239-4.265,5.239-5.534c0,0-5.947,5.534-7.761,5.465
				c0,0,4.854-4.796,4.527-6.467c0,0-5.179,6.261-6.655,6.261c0,0,4.719-5.867,4.071-7.529l-4.723,6.133c0,0,0.922-2.84,0.993-4.108
				L392.283,447.87z"/>
			<ellipse fill="#4F5093" cx="307.642" cy="565.606" rx="2.412" ry="2.487"/>
			<ellipse fill="#4F5093" cx="331.717" cy="557.99" rx="2.413" ry="2.487"/>
			<path fill="#4F5093" d="M277.567,562.284c0,0,3.171-3.586,2.583-8.66c0,0-0.263-2.997-2.583-6.395c0,0-2.656-4.73-1.815-9.27
				c0,0-6.404,5.955-6.789,7.146c0,0,0.517,4.883,2.139,5.531c0,0,0.973-5.109,2.198-5.955c0,0-0.649,4.069-1.165,5.436
				c0,0,2.979-1.229,3.293-3.224c0,0,1.358,1.73-3.689,4.599l-0.192,2.132c0,0,2.979-0.737,5.371-3.999c0,0-0.06,2.396-3.618,4.461
				l0.709,2.497c0,0,2.392-1.297,3.294-3.164c0,0,0.912,1.731-2.716,3.863l1.226,1.759l1.55-0.688l-0.901,1.731
				C276.472,560.093,276.664,562.275,277.567,562.284z"/>
			<path fill="#4F5093" d="M268.446,546.164c0,0,0.972,4.866,1.936,5.004l-0.457,3.194c0,0-2.462-1.936-2.775-6.201
				C267.159,548.161,267.797,546.305,268.446,546.164z"/>
			<path fill="#4F5093" d="M266.704,549.695c-0.162,0.579,0.821,2.326,1.074,2.908c0.436,0.975,1.236,1.937,1.54,2.929
				c0.344,1.109-0.02,2.563-1.328,1.691C268,557.224,265.478,554.027,266.704,549.695z"/>
			<path fill="#4F5093" d="M294.641,575.221c0,0,6.921-3.807,13.963,0.402c0,0,7.499,5.396,9.769,5.463
				c0,0-13.367,9.063-18.393,6.065l-2.493-3.137l0.892-0.462c0,0,3.689,3.805,6.01,2.467l-4.418-2.399l2.604-0.402
				c0,0,4.207,2.929,5.948,1.87l-4.55-2.133l2.159-0.669c0,0,3.496,2.202,6.141,1.002l-4.651-1.13c0,0,3.688-1.337,6.202-0.864
				c0,0-1.166-1.367-5.625-0.581c0,0,2.463-1.61,2.716-2.81c0,0-4.073,3.861-7.822,3.399c0,0,5.046-1.867,4.529-4.531
				c0,0-2.979,4.129-8.147,5.061l-1.418-0.46c0,0,6.333-3.596,6.728-5.73c0,0-4.134,3.931-5.563,3.931c0,0,0.668-1.464,0.75-2.398
				C299.98,577.155,297.225,577.893,294.641,575.221z"/>
			<path fill="#4F5093" d="M298.197,585.884c0,0-2.847,0.736-2.655-0.866C295.542,585.018,295.867,583.68,298.197,585.884z"/>
			<path fill="#4F5093" d="M336.156,652c0,0-1.874-1.465-2.006-5.602c0,0,0.132-2.467,0-3.401c0,0,4.043,0.737,3.537,8.797
				c0,0-1.277-3.805-1.409-4.601C336.288,647.204,335.639,647.804,336.156,652z"/>
			<path fill="#4F5093" d="M337.929,656.601c0,0-1.52,0.068-3.78,2.8c0,0-1.297,1.396-4.073,0.737c0,0,1.49-1.994,1.875-3.194
				c0,0,1.135-4.127,4.589-2.201c0,0-3.171,0.935-3.556,2.929C332.985,657.671,336.48,655.223,337.929,656.601z"/>
			<path fill="#4F5093" d="M327.816,647.498c-0.608-1.889-1.186-3.783-1.885-5.641c0.021,0.019,0.04,0.04,0.061,0.059
				c-0.912-1.731-2.391-3.283-4.124-4.118c0.131,0.068,0.131,1.425,0.142,1.573c0.121,1.64-0.011,3.31,0.607,4.853
				c0.689,1.713,1.986,3.089,3.517,4.04c0,0-1.621-3.064-1.875-5.267C324.26,643.008,327.036,647.33,327.816,647.498z"/>
			<path fill="#4F5093" d="M327.816,650.271c0,0-4.337-0.138-6.21,5.396c0,0-1.298,3.401-3.69,3.401c0,0,5.816,1.13,7.438-2.596
				c0,0,2.007-3.805,4.206-4.461c0,0-1.357-1.396-6.141,3.999C323.418,655.998,324.836,652.07,327.816,650.271z"/>
			<path fill="#4F5093" d="M316.021,644.932c0,0-0.618-1.551-0.942-4.706c0,0-0.263-3.156-2.138-5.021c0,0-0.062,2.268-0.456,4.332
				c0,0-0.345,2.998,1.763,4.729c0,0-1.003-4.267-0.933-5.326C313.315,638.938,314.38,644.137,316.021,644.932z"/>
			<path fill="#4F5093" d="M317.592,647.871c0,0-3.425-1.729-7.498,2.399c0,0-3.112,2.32-4.399,1.994c0,0,4.804,2.734,8.542,0.335
				c0,0,3.699-2.743,5.036-2.929c0,0-1.712-1.003-6.809,1.67C312.465,651.332,311.908,649.336,317.592,647.871z"/>
			<path fill="#4F5093" d="M305.24,638.201c0.091-0.719-0.293-1.77-0.314-2.557c-0.031-0.982,0.071-1.975,0.334-2.92
				c0.466-1.659,0.973-3.064,1.075-4.823c0,0,3.232,2.908,2.198,6.711c0,0-1.742,5.27-1.093,7.069c0,0-1.937-4.247-0.062-8.788
				C307.378,632.884,305.828,633.403,305.24,638.201z"/>
			<path fill="#4F5093" d="M305.695,643.537c0,0-9.727,1.021-10.346-7.597l7.054,4.127c0,0-4.338-0.707-5.179-1.583
				c0,0,1.225,2.586,5.046,2.783C302.271,641.266,304.854,641.336,305.695,643.537z"/>
			<path fill="#4F5093" d="M297.295,627.901c0,0-3.617-2.95-3.04-6.735c0.092-0.716,0.274-1.443,0.497-2.132
				c0.507-1.611,1.57-2.878,2.017-4.53c0.243-0.896,0.405-2.142,0.922-2.908c0.019,0.146,0.009,0.283-0.012,0.441
				c-0.04,0.343,0.538,1.004,0.7,1.267c0.557,0.904,1.095,1.81,1.561,2.764c1.185,2.427,1.763,5.484,1.104,8.168
				c-0.557,2.259-2.341,3.988-2.067,6.515c0,0-1.298-1.849-0.457-6.358L297.295,627.901z"/>
		</g>
	</g>
	<g id="red">
		<g>
			<path fill="#FF0000" d="M358.389,421.961c1.437-1.062,3.121-0.6,4.75-0.678c0.832-0.04,1.704-0.235,2.343-0.795
				c0.637-0.561,0.96-1.554,0.598-2.32c-0.315-0.669-1.074-1.022-1.796-1.032c-0.717-0.01-1.417,0.265-2.066,0.59
				c-0.861,0.432-1.67,0.982-2.32,1.72C359.228,420.203,358.985,421.186,358.389,421.961z"/>
			<path fill="#FF0000" d="M400.594,489.248c0,0,4.396-0.865,7.761,1.13c0,0,4.956,1.888,2.909-1.13
				C411.264,489.248,408.354,484.648,400.594,489.248z"/>
			<path fill="#FF0000" d="M436.931,568.379c0.334-0.168,1.144-5.968,1.175-6.506c0.142-2.034,0.323-4.739-0.354-6.676
				c-1.166,0.708-1.682,3.49-1.823,4.776c-0.052,0.432-0.073,0.876,0.04,1.298c0.132,0.502,0.425,0.934,0.586,1.415
				c0.306,0.916,0.103,1.937-0.343,2.793c-0.446,0.854-1.104,1.551-1.754,2.251c0.813,0.224,1.62,0.44,2.442,0.668
				C436.91,568.379,436.92,568.379,436.931,568.379z"/>
			<path fill="#FF0000" d="M432.957,567.552c0,0,6.362-4.433-2.552-12.049c0,0-5.046,5.867-4.015,9.258c0,0,0.519,1.79,0.388,2.791
				C426.775,567.552,430.345,566.294,432.957,567.552z"/>
			<path fill="#FF0000" d="M422.186,571.356c0,0-6.524-3.736-5.624-10.802c0,0,2.585,1.132,4.652,1.297c0,0,3.346-0.491,5.036,6.241
				C426.25,568.093,422.237,569.754,422.186,571.356z"/>
			<path fill="#FF0000" d="M420.829,572.554c0,0-4.955-3.005-4.357-4.166c0,0-1.206-1.209-5.522,0.571c0,0-2.156,1.425-3.192,0.795
				c0,0,1.166,4.975,6.537,7.647c0,0,3.382-0.619,3.899-1.16C418.204,576.241,419.481,573.754,420.829,572.554z"/>
			<path fill="#FF0000" d="M417.08,578.641c0,0-0.953,3.823,0,5.061c0,0-11.514,1.603-12.869-5.061c0,0,4.763-1.427,5.716-3.018
				C409.927,575.623,413.542,579.976,417.08,578.641z"/>
			<path fill="#FF0000" d="M392.912,590.119c-1.215-0.195-3.028,1.05-3.951,1.788c-1.175,0.935-2.14,2.153-2.766,3.539
				c-0.346,0.768-0.59,1.691-0.214,2.446c0.091,0.199,0.231,0.375,0.424,0.462c0.56,0.267,1.136-0.292,1.512-0.785
				c0.892-1.19,1.782-2.379,2.635-3.606C391.329,592.831,392.517,591.455,392.912,590.119z"/>
			<path fill="#FF0000" d="M344.02,421.961c-1.438-1.062-3.121-0.6-4.753-0.678c-0.831-0.04-1.703-0.235-2.34-0.795
				c-0.638-0.561-0.963-1.554-0.597-2.32c0.313-0.669,1.074-1.022,1.792-1.032c0.72-0.01,1.419,0.265,2.068,0.59
				c0.861,0.432,1.671,0.982,2.32,1.72C343.178,420.203,343.421,421.186,344.02,421.961z"/>
			<path fill="#FF0000" d="M319.983,447.054c0,0-5.725-6.516-12.16,4.668c0,0,3.425,2.87,2.655,7.932c0,0-1.297,6.202,2.462,7.136
				c0,0,3.688-3.863,6.658-3.194c0,0-0.041-0.432-4.53-3.126c0,0,2.138-0.412,4.205,1.189c0,0,0.061-2.761-5.371-3.214
				c0,0,2.392-1.248,5.046,0.275c0,0-0.264-1.602-2.979-1.867l2.391-0.875c0,0-4.854-2.584-5.816-4.256c0,0,6.01,2.398,6.658,2.133
				c0,0-4.073-3.931-4.073-4.797c0,0,4.073,1.671,4.397,2.802C319.537,451.851,319.466,448.587,319.983,447.054z"/>
			<path fill="#FF0000" d="M321.625,465.295c0,0-10.438-0.913-8.876,8.62c0,0,0.456,2.536,1.418,3.734c0,0,1.682,3.864,0.517,6.133
				c0,0,5.3-1.199,12.677,5.269c0,0,8.532,8.334,14.166,1.936c0,0-6.728-5.396-7.894-10.733c0,0-1.551-2.467-2.847,2.33
				c0,0-1.226-2.468,0.841-4.531c0,0-2.524-1.868-5.046,2.929c0,0-1.095-2.595,2.522-4.797c0,0-2.066-2.467-7.305,3.667
				c0,0-2.524-2.202,4.589-5.603c0,0,0.71-1.936-0.78-1.336c0,0-3.941,1.061-5.046,3.735c0,0-0.973-3.4,5.178-5.603
				c0,0-2.715-0.737-6.79,1.268c0,0,0.061-2.064,5.107-2.998C324.067,469.316,321.777,466.868,321.625,465.295z"/>
			<path fill="#FF0000" d="M335.376,478.112c0,0,5.371,21.328,22.951,11.067c0,0-7.691-3.263-6.334-10.732
				c0,0-3.171-0.402-5.37,1.336c0,0-5.888,4.728-9.697-2.201C336.926,477.583,335.447,476.982,335.376,478.112z"/>
			<path fill="#FF0000" d="M358.337,487.047c0,0-5.046-0.266-4.074-6.331c0,0,1.034-3.596,5.563-2.536c0,0,9.89,2.536,7.438-6.132
				c0,0,7.69,0.667,8.531-6.133c0,0,5.433,14.192-5.178,19.991c0,0-10.934,5.937-13.062-2.871c0,0-0.487-2.653,1.095-3.715
				C358.663,479.33,353.422,480.914,358.337,487.047z"/>
			<path fill="#FF0000" d="M380.004,458.849c0,0-0.132,1.267-1.036,2.731c0,0-1.163,1.603-0.385,3.469c0,0,0.71-1.867,2.719-1.464
				c0,0-2.98,1.671-1.937,5.003c0,0,1.937-3.136,3.818-2.271c0,0-4.854,2.929-3.749,7.066c0,0,3.101-1.396,4.072-0.333
				c0,0-4.994,0.678-5.178,4.373c0,0,2.403-1.356,2.98,0c0,0-1.114-0.177-2.98,1.425c0,0-1.022,0.333-1.538,2.329
				c0,0,0.263,4.069-5.624,6.203c0,0-2.849,1.13,0,2.064c6.981,2.29,14.805-3.932,17.215-10.418c0.771-2.094,1.439-4.393,3.486-5.573
				c0,0-2.979-2.536-4.074-6.664C387.764,466.78,386.396,458.189,380.004,458.849z"/>
			<path fill="#FF0000" d="M380.063,438.258c0,0,2.999,4.531,0.791,8.295c0,0-0.924,1.17-1.248,3.637c0,0,4.652-6.398,6.981-5.268
				c0,0-8.187,5.002-5.746,10.201c0,0,2.383-6.594,4.582-6.397c0,0-0.519,1.936-2.716,5.269l1.813-0.669c0,0-0.323,2.094-2.26,3.804
				c0,0,4.003,0.953,4.013,3.203c0,0,3.688-1.602,4.459-8.462c0,0,0.134-4,2.14-5.73c0,0-4.135-1.268-6.629-6.399
				C386.244,439.722,383.621,435.123,380.063,438.258z"/>
			<path fill="#FF0000" d="M371.46,426.936c0,0,0.384,4.324,2.391,5.857c0,0,1.166,1.533,2.656,3.332c0,0,4.204,2.869,3.1,8.669
				c0,0-0.648,1.002-2.066,0.599c0,0-5.492-7.264-6.08-10.664c0,0,0,5.798-3.293,6.536c0,0,1.034-4.462,0.649-5.603
				c0,0-0.902-2.133-2.198,8.128c0,0-2.009,1.198-2.334-0.866c0,0,1.097-6.998,2.262-8.394c0,0-1.418-1.464-3.039,6.998
				c0,0-2.981-1.847-1.813-4.354l1.416-3.302c0,0-1.742-0.265-2.583,4.531c-0.081,0.481-1.712,1.051-2.075,1.15
				c-2.17,0.609-3.719-1.249-4.339-3.185c-0.647-2.025-0.079-4.108,1.651-5.327c2.059-1.445,4.772-0.866,7.104-1.022
				c1.469-0.099,2.948-0.315,4.377-0.727c0.812-0.236,1.611-0.531,2.352-0.935C369.899,428.193,371.499,427.338,371.46,426.936z"/>
			<path fill="#FF0000" d="M351.994,433.795c0,0-2.259-9.533-12.291-5.396c0,0-6.597,4.462-11.704,2.998c0,0-0.131,4.727-3.233,9.061
				c0,0-5.299,6.468-3.496,11.598c0,0,2.26,3.116,2.332,3.921c0,0,3.556,0.414,4.722,1.947c0,0,0-3.195-3.496-5.327
				c0,0,2.583,0.383,4.782,3.391c0,0-2.462-8.246-4.458-9.515c0,0,2.331-0.668,5.431,7.725c0,0,1.682-3.026-1.935-10.909
				c0,0,2.847,3.244,3.557,6.25l0.78-0.865c0,0-3.294-3.066-1.034-6.595c0,0,2.583-3.932,5.694-2.536
				C337.646,439.525,341.264,429.589,351.994,433.795z"/>
			<path fill="#FF0000" d="M333.44,453.855c-0.01-0.01-0.02-0.02-0.031-0.02c-1.216,1.563-2.117,4.639-1.247,6.536
				c0.214,0.473,0.539,0.875,0.853,1.278c0.892,1.16,1.702,2.389,2.411,3.676c-0.102-1.828,0.112-3.676,0.638-5.435
				c0.234-0.787,0.588-1.623,1.317-1.957c-0.456,2.104-0.922,4.295-0.446,6.389c0.143,0.619,0.365,1.239,0.78,1.71
				c0.405,0.481,1.023,0.806,1.632,0.737c-0.477-2.517-0.934-5.2-0.051-7.598c0.203,3.311,0.416,6.704,1.651,9.779
				c0.324,0.805,0.892,1.71,1.744,1.7c-0.386-1.631-0.76-3.283-0.862-4.963c-0.101-1.681,0.102-3.41,0.842-4.914
				c0.102,2.458,0.212,4.934,0.72,7.341c0.152,0.728,0.364,1.494,0.901,2.006c-0.385-3.019-0.325-6.36,1.54-8.719
				c0.901-1.14,2.139-1.945,3.375-2.683c1.579-0.934,3.189-1.798,4.842-2.584c0.183-0.089,0.367-0.177,0.476-0.344
				c0.072-0.118,0.102-0.265,0.122-0.413c0.111-0.854,0.062-1.778-0.385-2.506c-0.445-0.717-1.226-1.15-2.037-1.307
				c-1.094-0.207-2.259,0.079-3.142,0.767c-0.983,0.767-1.57,1.947-2.462,2.82c-0.608,0.6-1.347,1.042-2.148,1.298
				c-0.841,0.265-1.784,0.304-2.553-0.119c-0.993-0.541-1.51-1.68-1.957-2.752c-0.668,1.062-1.935,1.623-3.162,1.593
				C335.578,455.143,334.414,454.603,333.44,453.855z"/>
			<path fill="#FF0000" d="M365.289,452.922c0,0,3.973,5.13,2.482,10.527c0,0-10.387,8.196-13.082,11.597
				c0,0-1.724-2.997-1.206-5.936c0,0-0.973,1.533-0.781,5.936c0,0-1.621-1.464-1.228-6.536c0,0-1.549,0.108-0.778,5.848
				c0,0-2.26-1.12-1.489-6.516c0,0-1.683-2.064-0.781,3.862c0,0-2.139,0.736-1.297-4.531c0,0,0.78-2.595,3.231-1.602
				c0,0,5.889,3.214,7.499-3.49c0,0,8.017,0.03,5.37-7.244L365.289,452.922z"/>
			<path fill="#FF0000" d="M366.354,450.858c0,0-0.387-4-1.064-4.531l5.007-5.2c0,0-0.134,2.133,1.933,4.865
				c0,0,4.268,6.065-1.092,9.8c0,0,2.521-4.423,0.973-7.046c0,0-1.015,6.644-3.425,6.182c0,0,3.677-5.79,1.813-9.8
				c0,0-0.782,7.135-2.719,8.335l-0.95-1.131c0,0,2.594-4.571,1.663-6.467C368.492,445.855,367.518,450.592,366.354,450.858z"/>
			<path fill="#FF0000" d="M356.655,452.587c0,0,1.419-4.806-0.779-7.106c0,0-1.997-2.959-1.744-3.559c0,0-1.559,4.59-5.564,3.559
				c0,0,6.142-1.258,4.916-7.224c0,0-0.58-5.465-8.604-4c0,0-5.816,1.906-6.658,6.86c0,0-0.708,4.118,0.903,5.867l2.392,0.266
				c-0.528-0.059-1.064-3.057-1.116-3.441c-0.517-3.646,1.875-6.348,4.996-7.665c1.915-0.807,5.187-1.357,6.477,0.854
				c1.58,2.732-0.012,5.937-2.595,7.155c0,0-6.86,2.043-6.404-3.588c0,0-3.578,3.312-0.062,6.418c0,0,3.527-1.012,4.773,1.062
				c0,0,3.992-1.257,7.103,2.801c0,0-0.719-3.675-2.117-4.599C352.582,446.258,355.166,445.451,356.655,452.587z"/>
			<path fill="#FF0000" d="M347.587,439.987c0,0-0.051,3.037,0.465,3.282c0,0-3.749,2.074-4.397-2.703L347.587,439.987z"/>
			<path fill="#FF0000" d="M349.409,442.642c0.03-0.089,0.428-0.246,0.506-0.296c0.407-0.285,0.782-0.639,1.056-1.051
				c1.357-2.035,0.273-4.64-2.037-4.934c-2.888-0.364-5.604,2.27-7.407,4.226c0,0,5.178-3.244,7.174-1.71
				C348.701,438.857,350.047,440.989,349.409,442.642z"/>
			<path fill="#FF0000" d="M301.815,489.248c0,0-4.398-0.865-7.762,1.13c0,0-4.956,1.888-2.908-1.13
				C291.145,489.248,294.053,484.648,301.815,489.248z"/>
			<path fill="#FF0000" d="M265.478,568.379c-0.335-0.168-1.146-5.968-1.176-6.506c-0.14-2.034-0.323-4.739,0.355-6.676
				c1.166,0.708,1.683,3.49,1.824,4.776c0.051,0.432,0.07,0.876-0.041,1.298c-0.131,0.502-0.425,0.934-0.588,1.415
				c-0.304,0.916-0.101,1.937,0.345,2.793c0.446,0.854,1.105,1.551,1.753,2.251c-0.811,0.224-1.622,0.44-2.442,0.668
				C265.498,568.379,265.488,568.379,265.478,568.379z"/>
			<path fill="#FF0000" d="M269.449,567.552c0,0-6.364-4.433,2.554-12.049c0,0,5.046,5.867,4.013,9.258c0,0-0.517,1.79-0.385,2.791
				C275.631,567.552,272.063,566.294,269.449,567.552z"/>
			<path fill="#FF0000" d="M280.221,571.356c0,0,6.525-3.736,5.624-10.802c0,0-2.583,1.132-4.651,1.297c0,0-3.344-0.491-5.035,6.241
				C276.158,568.093,280.171,569.754,280.221,571.356z"/>
			<path fill="#FF0000" d="M281.579,572.554c0,0,4.956-3.005,4.357-4.166c0,0,1.206-1.209,5.522,0.571c0,0,2.159,1.425,3.192,0.795
				c0,0-1.166,4.975-6.537,7.647c0,0-3.384-0.619-3.901-1.16C284.203,576.241,282.926,573.754,281.579,572.554z"/>
			<path fill="#FF0000" d="M285.329,578.641c0,0,0.953,3.823,0,5.061c0,0,11.511,1.603,12.868-5.061c0,0-4.762-1.427-5.715-3.018
				C292.482,575.623,288.865,579.976,285.329,578.641z"/>
			<path fill="#FF0000" d="M309.495,590.119c1.216-0.195,3.031,1.05,3.952,1.788c1.176,0.935,2.139,2.153,2.767,3.539
				c0.345,0.768,0.588,1.691,0.213,2.446c-0.092,0.199-0.234,0.375-0.426,0.462c-0.558,0.267-1.135-0.292-1.51-0.785
				c-0.891-1.19-1.783-2.379-2.634-3.606C311.076,592.831,309.891,591.455,309.495,590.119z"/>
			<g>
				<path fill="#FF0000" d="M385.91,625.681c0,0-2.138,7.33-7.896,1.531c0,0-3.036,8.196-8.853,2.232c0,0-2.91,9.376-9.771,2.17
					c0,0-2.906,5.811-8.207,0.618c-5.299,5.202-8.177-0.618-8.177-0.618c-6.85,7.206-9.768-2.17-9.768-2.17
					c-5.816,5.964-8.857-2.232-8.857-2.232c-5.755,5.799-7.894-1.531-7.894-1.531c-3.689,2.593-5.106,0-5.106,0
					c0.385,6.2,5.178,3.398,5.178,3.398c1.297,6.536,6.92,2.272,6.92,2.272c4.723,6.663,8.928,1.67,8.928,1.67
					c8.471,8.393,10.153,2.132,10.153,2.132c4.205,6.803,8.632,1.081,8.632,1.081s4.46,5.71,8.666-1.081
					c0,0,1.682,6.261,10.153-2.132c0,0,4.207,5.001,8.927-1.67c0,0,5.624,4.264,6.922-2.272c0,0,4.782,2.802,5.178-3.398
					C391.018,625.681,389.6,628.273,385.91,625.681z"/>
				<path fill="#FF0000" d="M317.653,608.813c4.711-6.133,7.236,0.667,7.236,0.667c4.833-6.465,8.035,1.269,8.035,1.269
					c5.179-9.325,9.769-2.063,9.769-2.063c4.783-7.067,8.53,0,8.53,0s3.721-7.067,8.504,0c0,0,4.588-7.263,9.766,2.063
					c0,0,3.213-7.733,8.037-1.269c0,0,2.523-6.8,7.237-0.667c0,0,1.61-5.266,5.997-1.867l0.265-2.996
					c-0.192,0.067-4.014-3.068-6.66,0.932c0,0-4.588-4.403-7.691,0.934c0,0-5.105-6.134-8.733,0.531c0,0-6.272-8.394-8.735-0.462
					c0,0-4.529-6.762-8.014-1.494c-3.496-5.268-7.985,1.494-7.985,1.494c-2.462-7.932-8.735,0.462-8.735,0.462
					c-3.618-6.665-8.735-0.531-8.735-0.531c-3.1-5.326-7.691-0.934-7.691-0.934c-2.655-4-6.465-0.864-6.658-0.932l0.263,2.996
					C316.042,603.547,317.653,608.813,317.653,608.813z"/>
			</g>
		</g>
	</g>
</svg>   
